<svg width="12" height="14" viewBox="0 0 12 14" fill="none" xmlns="http://www.w3.org/2000/svg">
<path d="M1.75008 1.66634H0.416748V0.333008H11.0834V1.66634H9.75008V2.99967C9.75008 4.07663 9.20595 4.94279 8.52081 5.65079C8.05221 6.13501 7.48208 6.58101 6.90401 6.99967C7.48208 7.41834 8.05221 7.86434 8.52081 8.34854C9.20595 9.05654 9.75008 9.92274 9.75008 10.9997V12.333H11.0834V13.6663H0.416748V12.333H1.75008V10.9997C1.75008 9.92274 2.29419 9.05654 2.97935 8.34854C3.44796 7.86434 4.0181 7.41834 4.59615 6.99967C4.0181 6.58101 3.44796 6.13501 2.97935 5.65079C2.29419 4.94279 1.75008 4.07663 1.75008 2.99967V1.66634ZM3.08341 1.66634V2.99967C3.08341 3.58939 3.37264 4.13989 3.93748 4.72356C4.42208 5.22433 5.05328 5.69287 5.75008 6.18507C6.44688 5.69287 7.07808 5.22433 7.56268 4.72356C8.12755 4.13989 8.41675 3.58939 8.41675 2.99967V1.66634H3.08341ZM5.75008 7.81427C5.05328 8.30647 4.42208 8.77501 3.93748 9.27581C3.37264 9.85947 3.08341 10.4099 3.08341 10.9997V12.333H8.41675V10.9997C8.41675 10.4099 8.12755 9.85947 7.56268 9.27581C7.07808 8.77501 6.44688 8.30647 5.75008 7.81427Z" fill="#275570"/>
</svg>
