<svg width="14" height="14" viewBox="0 0 14 14" fill="none" xmlns="http://www.w3.org/2000/svg">
<path d="M5.67154 0.402189C4.73712 0.0997091 3.72137 0.520449 3.27454 1.39505L2.73735 2.4465C2.67353 2.57143 2.57191 2.67304 2.44699 2.73686L1.39553 3.27405C0.520935 3.72088 0.100201 4.73664 0.402675 5.67102L0.766315 6.79436C0.809521 6.92782 0.809521 7.07156 0.766315 7.20502L0.402675 8.32835C0.100201 9.26276 0.520941 10.2785 1.39553 10.7253L2.44699 11.2625C2.57191 11.3264 2.67353 11.428 2.73735 11.5529L3.27454 12.6043C3.72137 13.4789 4.73713 13.8996 5.67154 13.5972L6.79487 13.2336C6.92833 13.1904 7.072 13.1904 7.20547 13.2336L8.3288 13.5972C9.2632 13.8996 10.279 13.4789 10.7258 12.6043L11.263 11.5529C11.3268 11.428 11.4284 11.3264 11.5533 11.2625L12.6048 10.7253C13.4794 10.2785 13.9001 9.26276 13.5977 8.32835L13.234 7.20502C13.1908 7.07156 13.1908 6.92782 13.234 6.79436L13.5977 5.67102C13.9001 4.73663 13.4794 3.72088 12.6048 3.27405L11.5533 2.73686C11.4284 2.67304 11.3268 2.57142 11.263 2.4465L10.7258 1.39505C10.279 0.520449 9.2632 0.0997091 8.3288 0.402189L7.20547 0.765822C7.072 0.809029 6.92833 0.809029 6.79487 0.765822L5.67154 0.402189ZM4.46189 2.00166C4.61083 1.71013 4.94941 1.56989 5.26088 1.67071L6.3842 2.03435C6.7846 2.16397 7.21573 2.16397 7.61613 2.03435L8.73947 1.67071C9.05093 1.56989 9.38953 1.71013 9.53847 2.00166L10.0757 3.05312C10.2671 3.4279 10.5719 3.73273 10.9467 3.92421L11.9982 4.4614C12.2897 4.61034 12.43 4.94892 12.3291 5.26039L11.9655 6.38376C11.8359 6.78416 11.8359 7.21522 11.9655 7.61562L12.3291 8.73896C12.43 9.05042 12.2897 9.38902 11.9982 9.53796L10.9467 10.0752C10.5719 10.2666 10.2671 10.5715 10.0757 10.9462L9.53847 11.9977C9.38953 12.2892 9.05093 12.4295 8.73947 12.3286L7.61613 11.965C7.21573 11.8354 6.7846 11.8354 6.3842 11.965L5.26088 12.3286C4.94941 12.4295 4.61083 12.2892 4.46189 11.9977L3.9247 10.9462C3.73322 10.5715 3.42839 10.2666 3.05361 10.0752L2.00215 9.53796C1.71062 9.38902 1.57037 9.05042 1.6712 8.73896L2.03484 7.61562C2.16445 7.21522 2.16445 6.78416 2.03484 6.38376L1.6712 5.26039C1.57037 4.94892 1.71062 4.61034 2.00215 4.4614L3.0536 3.92421C3.42839 3.73273 3.73322 3.4279 3.9247 3.05312L4.46189 2.00166ZM3.50656 6.83796L6.335 9.66636L11.0491 4.95232L10.1063 4.00952L6.335 7.78076L4.44937 5.89509L3.50656 6.83796Z" fill="#219653"/>
</svg>
