<svg width="426" height="428" viewBox="0 0 426 428" fill="none" xmlns="http://www.w3.org/2000/svg">
<path d="M164.933 199.067C156.4 190.533 143.6 190.533 135.067 199.067C126.533 207.6 126.533 220.4 135.067 228.933L199.067 292.933C203.333 297.2 207.6 299.333 214 299.333C220.4 299.333 224.667 297.2 228.933 292.933L378.267 122.267C384.667 111.6 384.667 98.7999 374 92.3999C365.467 85.9999 352.667 85.9999 346.267 94.5332L214 246L164.933 199.067Z" fill="#225570"/>
<path d="M406 192.667C393.2 192.667 384.667 201.2 384.667 214C384.667 307.867 307.867 384.667 214 384.667C120.133 384.667 43.3334 307.867 43.3334 214C43.3334 169.2 60.4001 126.534 92.4001 94.5337C124.4 60.4003 167.067 43.3337 214 43.3337C226.8 43.3337 241.733 45.467 254.533 47.6003C265.2 51.867 278 45.467 282.267 32.667C286.533 19.867 278 11.3337 267.333 7.06699H265.2C248.133 2.80032 231.067 0.666992 214 0.666992C96.6668 0.666992 0.666748 96.667 0.666748 216.134C0.666748 271.6 24.1334 327.067 62.5334 365.467C103.067 406 156.4 427.334 211.867 427.334C329.2 427.334 425.2 331.334 425.2 214C427.333 201.2 416.667 192.667 406 192.667Z" fill="#225570"/>
</svg>
