<svg width="14" height="14" viewBox="0 0 14 14" fill="none" xmlns="http://www.w3.org/2000/svg">
<path d="M6.99992 13.6673C3.31802 13.6673 0.333252 10.6825 0.333252 7.00065C0.333252 3.31875 3.31802 0.333984 6.99992 0.333984C10.6818 0.333984 13.6666 3.31875 13.6666 7.00065C13.6666 10.6825 10.6818 13.6673 6.99992 13.6673ZM6.99992 12.334C9.94545 12.334 12.3333 9.94618 12.3333 7.00065C12.3333 4.05513 9.94545 1.66732 6.99992 1.66732C4.0544 1.66732 1.66659 4.05513 1.66659 7.00065C1.66659 9.94618 4.0544 12.334 6.99992 12.334ZM6.99992 6.05785L8.88552 4.17222L9.82832 5.11503L7.94272 7.00065L9.82832 8.88625L8.88552 9.82905L6.99992 7.94345L5.1143 9.82905L4.17149 8.88625L6.05712 7.00065L4.17149 5.11503L5.1143 4.17222L6.99992 6.05785Z" fill="#F9202B"/>
</svg>
