<svg width="14" height="15" viewBox="0 0 14 15" fill="none" xmlns="http://www.w3.org/2000/svg">
<path d="M5.42154 0.902189C4.48712 0.599709 3.47137 1.02045 3.02454 1.89505L2.48735 2.9465C2.42353 3.07143 2.32191 3.17304 2.19699 3.23686L1.14553 3.77405C0.270935 4.22088 -0.149799 5.23664 0.152675 6.17102L0.516315 7.29436C0.559521 7.42782 0.559521 7.57156 0.516315 7.70502L0.152675 8.82835C-0.149799 9.76276 0.270941 10.7785 1.14553 11.2253L2.19699 11.7625C2.32191 11.8264 2.42353 11.928 2.48735 12.0529L3.02454 13.1043C3.47137 13.9789 4.48713 14.3996 5.42154 14.0972L6.54487 13.7336C6.67833 13.6904 6.822 13.6904 6.95547 13.7336L8.0788 14.0972C9.0132 14.3996 10.029 13.9789 10.4758 13.1043L11.013 12.0529C11.0768 11.928 11.1784 11.8264 11.3033 11.7625L12.3548 11.2253C13.2294 10.7785 13.6501 9.76276 13.3477 8.82835L12.984 7.70502C12.9408 7.57156 12.9408 7.42782 12.984 7.29436L13.3477 6.17102C13.6501 5.23663 13.2294 4.22088 12.3548 3.77405L11.3033 3.23686C11.1784 3.17304 11.0768 3.07142 11.013 2.9465L10.4758 1.89505C10.029 1.02045 9.0132 0.599709 8.0788 0.902189L6.95547 1.26582C6.822 1.30903 6.67833 1.30903 6.54487 1.26582L5.42154 0.902189ZM4.21189 2.50166C4.36083 2.21013 4.69941 2.06989 5.01088 2.17071L6.1342 2.53435C6.5346 2.66397 6.96573 2.66397 7.36613 2.53435L8.48947 2.17071C8.80093 2.06989 9.13953 2.21013 9.28847 2.50166L9.82567 3.55312C10.0171 3.9279 10.3219 4.23273 10.6967 4.42421L11.7482 4.9614C12.0397 5.11034 12.18 5.44892 12.0791 5.76039L11.7155 6.88376C11.5859 7.28416 11.5859 7.71522 11.7155 8.11562L12.0791 9.23896C12.18 9.55042 12.0397 9.88902 11.7482 10.038L10.6967 10.5752C10.3219 10.7666 10.0171 11.0715 9.82567 11.4462L9.28847 12.4977C9.13953 12.7892 8.80093 12.9295 8.48947 12.8286L7.36613 12.465C6.96573 12.3354 6.5346 12.3354 6.1342 12.465L5.01088 12.8286C4.69941 12.9295 4.36083 12.7892 4.21189 12.4977L3.6747 11.4462C3.48322 11.0715 3.17839 10.7666 2.80361 10.5752L1.75215 10.038C1.46062 9.88902 1.32037 9.55042 1.4212 9.23896L1.78484 8.11562C1.91445 7.71522 1.91445 7.28416 1.78484 6.88376L1.4212 5.76039C1.32037 5.44892 1.46062 5.11034 1.75215 4.9614L2.8036 4.42421C3.17839 4.23273 3.48322 3.9279 3.6747 3.55312L4.21189 2.50166ZM3.25656 7.33796L6.085 10.1664L10.7991 5.45232L9.85627 4.50952L6.085 8.28076L4.19937 6.39509L3.25656 7.33796Z" fill="#219653"/>
</svg>
