<svg width="79" height="71" viewBox="0 0 79 71" fill="none" xmlns="http://www.w3.org/2000/svg">
<g clip-path="url(#clip0_3042_1857)">
<g style="mix-blend-mode:multiply">
<path d="M50.2356 18.9875C50.1895 25.8731 44.6562 34.5121 40.7209 38.9314C41.0616 37.4135 41.0724 35.5154 39.8437 33.8696C39.8437 33.8696 39.8406 35.3929 36.3594 36.2132C32.8631 37.0396 32.1919 35.6822 32.1919 35.6822C31.8258 37.7059 32.6989 39.3889 33.6827 40.6026C28.177 38.4168 19.3513 33.1634 16.223 27.0275C14.4031 23.4787 -0.00585938 24.9907 -0.00585938 24.9907C-0.00585938 24.9907 3.00637 25.5454 4.20644 27.6452C5.55354 30.022 4.31548 32.2028 4.31548 32.2028C4.31548 32.2028 9.595 30.1969 12.7347 33.0363C15.9233 35.9091 15.1152 42.3056 15.1152 42.3056C15.1152 42.3056 19.0066 39.0899 25.2092 42.2157C31.4757 45.3689 30.7669 52.274 30.7669 52.274C30.7669 52.274 35.1654 52.765 38.4719 56.2805C40.7495 58.689 41.5326 60.6738 42.1466 60.6208C42.7606 60.5678 42.3792 57.1289 43.5961 54.1956C45.0089 50.8293 48.5616 48.0865 48.5616 48.0865C48.5616 48.0865 44.8233 42.232 49.0092 36.5966C53.1377 31.0375 58.0737 32.1611 58.0737 32.1611C58.0737 32.1611 54.4712 26.8183 56.0305 22.8089C57.5688 18.8787 63.1913 18.2918 63.1913 18.2918C63.1913 18.2918 61.091 16.8914 61.2476 14.1735C61.3719 11.7694 63.8183 9.91531 63.8183 9.91531C63.8183 9.91531 50.2565 15.0147 50.2356 18.9875Z" fill="#1D0033"/>
</g>
</g>
<defs>
<clipPath id="clip0_3042_1857">
<rect width="64.8293" height="48.8127" fill="white" transform="translate(-0.00585938 24.9907) rotate(-21.9698)"/>
</clipPath>
</defs>
</svg>
