<svg width="91" height="72" viewBox="0 0 91 72" fill="none" xmlns="http://www.w3.org/2000/svg">
<g clip-path="url(#clip0_3042_1749)">
<g style="mix-blend-mode:multiply">
<path d="M68.157 23.1497C64.0542 31.1917 52.4899 38.0618 45.2795 40.9267C46.5713 39.3482 47.7001 37.1302 47.228 34.479C47.228 34.479 46.3285 36.2623 41.7666 35.1766C37.1834 34.0892 37.1951 32.1037 37.1951 32.1037C35.5761 34.26 35.6096 36.7457 36.0488 38.7465C30.8821 32.9475 23.6285 21.6015 23.5706 12.5714C23.5246 7.34243 5.75 0.641602 5.75 0.641602C5.75 0.641602 8.95381 3.06286 9.1254 6.22929C9.30643 9.80673 6.57322 11.6344 6.57322 11.6344C6.57322 11.6344 13.9397 12.3881 15.9495 17.5618C17.9968 22.8033 13.2885 29.8241 13.2885 29.8241C13.2885 29.8241 19.7397 28.3438 25.1703 35.6543C30.6598 43.0343 25.7688 50.7095 25.7688 50.7095C25.7688 50.7095 30.6346 53.8712 32.4423 59.9353C33.6951 64.097 33.4457 66.8835 34.1963 67.1824C34.947 67.4813 36.5223 63.2271 39.6731 60.5052C43.3082 57.3911 49.0844 56.2658 49.0844 56.2658C49.0844 56.2658 48.1461 47.2069 56.3653 43.0643C64.4723 38.9773 69.596 43.1966 69.596 43.1966C69.596 43.1966 68.5159 34.817 72.7008 31.0353C76.8146 27.3342 83.7486 29.9526 83.7486 29.9526C83.7486 29.9526 82.1107 27.0765 83.8925 23.9835C85.4518 21.2394 89.409 20.5051 89.409 20.5051C89.409 20.5051 70.5177 18.5063 68.157 23.1497Z" fill="#1D0033"/>
</g>
</g>
<defs>
<clipPath id="clip0_3042_1749">
<rect width="85" height="64" fill="white" transform="translate(5.75 0.641602) rotate(4.67663)"/>
</clipPath>
</defs>
</svg>
