<svg width="60" height="67" viewBox="0 0 60 67" fill="none" xmlns="http://www.w3.org/2000/svg">
<path d="M29.2081 22.4273C28.974 22.364 28.7271 22.3742 28.4986 22.4567C28.2701 22.5391 28.0703 22.6901 27.9244 22.8905C27.7785 23.0909 27.693 23.3318 27.6789 23.5827C27.6647 23.8336 27.7224 24.0832 27.8448 24.2999C27.9672 24.5167 28.1486 24.6909 28.3663 24.8006C28.5839 24.9102 28.828 24.9503 29.0676 24.9159C29.3072 24.8814 29.5315 24.7739 29.7124 24.607C29.8932 24.4401 30.0223 24.2212 30.0833 23.978C30.163 23.6519 30.1157 23.3063 29.9519 23.0161C29.7881 22.7259 29.5209 22.5144 29.2081 22.4273Z" fill="#F2652D"/>
<path d="M20.7456 28.5625C20.665 28.4196 20.5573 28.2952 20.4292 28.1967C20.3011 28.0982 20.1551 28.0277 20.0001 27.9893C19.766 27.926 19.5191 27.9362 19.2906 28.0186C19.0621 28.1011 18.8623 28.2521 18.7164 28.4525C18.5705 28.6529 18.485 28.8938 18.4708 29.1447C18.4567 29.3955 18.5144 29.6451 18.6368 29.8619C18.7592 30.0787 18.9406 30.2529 19.1583 30.3625C19.3759 30.4722 19.62 30.5123 19.8596 30.4778C20.0992 30.4434 20.3235 30.3359 20.5043 30.169C20.6852 30.002 20.8143 29.7832 20.8753 29.54C20.9472 29.2086 20.9011 28.8613 20.7456 28.5625Z" fill="#F2652D"/>
<path d="M20.3826 26.5288C20.8262 26.6571 21.2365 26.8874 21.5829 27.2027L26.2815 24.3323C26.1841 23.8773 26.1841 23.4055 26.2815 22.9505C26.4622 22.2265 26.9123 21.6068 27.5328 21.2277C28.1533 20.8485 28.8934 20.741 29.5902 20.9288C30.287 21.1165 30.8835 21.5842 31.2484 22.2289C31.6133 22.8736 31.7168 23.6424 31.5361 24.3664C31.4363 24.7591 31.2597 25.1261 31.0172 25.4446L33.8682 30.4996C34.3062 30.3984 34.7603 30.3984 35.1983 30.4996C35.6496 30.6263 36.0625 30.8699 36.3986 31.2075L42.0737 27.7699L49.1444 10.1805C49.2301 9.96834 49.2745 9.74063 49.2751 9.51052C49.2757 9.28041 49.2325 9.05245 49.148 8.83976C49.0634 8.62707 48.9392 8.43386 48.7825 8.27125C48.6258 8.10863 48.4397 7.97983 48.2349 7.89226C47.9956 7.79298 47.7379 7.75076 47.4809 7.7687C47.2238 7.78665 46.9738 7.8643 46.7495 7.99593L15.875 26.865L17.7282 27.2693C18.0731 26.9189 18.499 26.6667 18.9649 26.537C19.4308 26.4073 19.921 26.4045 20.3883 26.5288" fill="#F2652D"/>
<path d="M37.1494 34.0097C37.0599 34.3682 36.9034 34.7049 36.6886 35.0004C36.4739 35.296 36.2053 35.5448 35.8981 35.7325C35.5908 35.9203 35.251 36.0433 34.898 36.0946C34.545 36.1459 34.1857 36.1244 33.8407 36.0314C33.4957 35.9385 33.1717 35.7758 32.8872 35.5527C32.6027 35.3297 32.3632 35.0505 32.1825 34.7313C32.0018 34.4121 31.8834 34.0591 31.8341 33.6923C31.7847 33.3256 31.8054 32.9523 31.8948 32.5938C32.0168 32.125 32.2513 31.6959 32.5763 31.3468L29.7879 26.394C29.2853 26.5678 28.7458 26.5909 28.2312 26.4606C27.7768 26.3417 27.362 26.0971 27.0309 25.7527L22.3608 28.5845C22.4745 29.0491 22.4745 29.5359 22.3608 30.0004C22.282 30.361 22.1356 30.702 21.9299 31.0038C21.7243 31.3056 21.4635 31.5624 21.1623 31.7595C20.8612 31.9566 20.5256 32.0901 20.1748 32.1524C19.8239 32.2148 19.4647 32.2047 19.1177 32.1228C18.7706 32.041 18.4424 31.8889 18.1519 31.6752C17.8614 31.4616 17.6143 31.1906 17.4246 30.8777C17.2349 30.5648 17.1064 30.2161 17.0464 29.8517C16.9864 29.4872 16.996 29.114 17.0749 28.7534L14.0256 28.0795L4.61701 33.8409C4.42528 33.9559 4.25767 34.1097 4.12405 34.2931C3.99044 34.4765 3.89354 34.6858 3.83906 34.9088C3.78458 35.1317 3.77364 35.3637 3.80687 35.5912C3.8401 35.8186 3.91683 36.0368 4.03253 36.2329C4.16686 36.4648 4.3508 36.6614 4.57008 36.8076C4.78936 36.9537 5.0381 37.0454 5.29699 37.0756L22.8426 39.1313L27.1934 56.9222C27.2759 57.2773 27.465 57.5959 27.7333 57.8321C28.0016 58.0682 28.3352 58.2097 28.6859 58.2359H28.9126C29.2249 58.2178 29.5255 58.1064 29.7784 57.9151C30.0312 57.7239 30.2256 57.4608 30.3381 57.1577L41.1723 30.2359L37.2164 32.6279C37.2586 33.0894 37.2366 33.5548 37.1508 34.0097" fill="#F2652D"/>
<path d="M34.8145 31.9963C34.5804 31.933 34.3335 31.9432 34.1051 32.0257C33.8766 32.1081 33.6767 32.2591 33.5308 32.4595C33.3849 32.6599 33.2995 32.9008 33.2853 33.1517C33.2711 33.4026 33.3289 33.6522 33.4512 33.8689C33.5736 34.0857 33.7551 34.2599 33.9727 34.3696C34.1904 34.4792 34.4344 34.5193 34.674 34.4849C34.9136 34.4504 35.138 34.3429 35.3188 34.176C35.4996 34.0091 35.6287 33.7902 35.6898 33.547C35.7652 33.2211 35.7162 32.8775 35.553 32.5884C35.3898 32.2992 35.1251 32.087 34.8145 31.9963Z" fill="#F2652D"/>
</svg>
