<svg width="165" height="18" viewBox="0 0 165 18" fill="none" xmlns="http://www.w3.org/2000/svg">
<path d="M7.224 17.788C5.128 17.788 3.552 17.092 2.496 15.7C1.456 14.308 0.936 12.164 0.936 9.268C0.936 7.316 1.192 5.716 1.704 4.468C2.216 3.204 2.968 2.268 3.96 1.66C4.952 1.036 6.184 0.723999 7.656 0.723999C8.568 0.723999 9.392 0.851999 10.128 1.108C10.88 1.364 11.52 1.74 12.048 2.236C12.576 2.732 12.984 3.364 13.272 4.132C13.56 4.9 13.704 5.788 13.704 6.796H10.464C10.464 6.284 10.408 5.828 10.296 5.428C10.184 5.012 10.008 4.66 9.768 4.372C9.528 4.084 9.224 3.868 8.856 3.724C8.504 3.58 8.088 3.508 7.608 3.508C7.032 3.508 6.536 3.604 6.12 3.796C5.704 3.988 5.36 4.292 5.088 4.708C4.816 5.108 4.616 5.612 4.488 6.22C4.36 6.828 4.296 7.556 4.296 8.404V10.156C4.296 11.276 4.408 12.196 4.632 12.916C4.872 13.636 5.224 14.164 5.688 14.5C6.168 14.836 6.784 15.004 7.536 15.004C8.224 15.004 8.784 14.868 9.216 14.596C9.664 14.308 9.992 13.9 10.2 13.372C10.424 12.844 10.536 12.212 10.536 11.476V11.188H7.176V8.644H13.68V17.5H11.784L11.52 15.82C11.216 16.236 10.856 16.596 10.44 16.9C10.024 17.188 9.552 17.404 9.024 17.548C8.496 17.708 7.896 17.788 7.224 17.788ZM16.2514 17.5V1.012H22.7794C23.9794 1.012 24.9314 1.228 25.6354 1.66C26.3554 2.092 26.8754 2.684 27.1954 3.436C27.5154 4.172 27.6754 5.004 27.6754 5.932C27.6754 6.972 27.4994 7.9 27.1474 8.716C26.8114 9.516 26.2834 10.132 25.5634 10.564L28.2514 17.5H24.7714L22.5154 11.452H19.5394V17.5H16.2514ZM19.5394 8.74H22.3234C23.0274 8.74 23.5394 8.508 23.8594 8.044C24.1794 7.58 24.3394 6.948 24.3394 6.148C24.3394 5.62 24.2674 5.18 24.1234 4.828C23.9954 4.476 23.7794 4.212 23.4754 4.036C23.1714 3.844 22.7634 3.748 22.2514 3.748H19.5394V8.74ZM28.6418 17.5L33.2018 1.012H37.4738L42.0338 17.5H38.5538L37.6658 14.068H32.8658L32.0018 17.5H28.6418ZM33.4898 11.356H37.0658L35.9618 6.748C35.9298 6.62 35.8818 6.452 35.8178 6.244C35.7698 6.02 35.7138 5.78 35.6497 5.524C35.6018 5.268 35.5538 5.012 35.5058 4.756C35.4578 4.5 35.4098 4.268 35.3618 4.06H35.1938C35.1458 4.316 35.0818 4.62 35.0018 4.972C34.9378 5.308 34.8658 5.636 34.7858 5.956C34.7218 6.276 34.6578 6.54 34.5938 6.748L33.4898 11.356ZM43.4623 17.5V1.012H50.0623C50.9743 1.012 51.7583 1.172 52.4143 1.492C53.0703 1.812 53.5743 2.268 53.9263 2.86C54.2783 3.452 54.4543 4.164 54.4543 4.996C54.4543 5.668 54.3423 6.268 54.1183 6.796C53.9103 7.308 53.6223 7.74 53.2543 8.092C52.8863 8.428 52.4703 8.692 52.0063 8.884V8.98C52.5183 9.124 52.9823 9.356 53.3983 9.676C53.8303 9.98 54.1663 10.396 54.4063 10.924C54.6623 11.452 54.7903 12.116 54.7903 12.916C54.7903 13.988 54.5663 14.86 54.1183 15.532C53.6863 16.204 53.0703 16.7 52.2703 17.02C51.4703 17.34 50.5343 17.5 49.4623 17.5H43.4623ZM46.7263 14.716H49.5583C50.1983 14.716 50.6703 14.54 50.9743 14.188C51.2943 13.82 51.4543 13.268 51.4543 12.532C51.4543 12.1 51.3903 11.732 51.2623 11.428C51.1343 11.108 50.9263 10.868 50.6383 10.708C50.3663 10.532 49.9983 10.444 49.5343 10.444H46.7263V14.716ZM46.7263 7.828H49.3423C49.7583 7.828 50.1023 7.74 50.3743 7.564C50.6463 7.372 50.8463 7.116 50.9743 6.796C51.1023 6.476 51.1663 6.1 51.1663 5.668C51.1663 5.076 51.0143 4.612 50.7103 4.276C50.4063 3.924 49.9743 3.748 49.4143 3.748H46.7263V7.828ZM63.4808 17.5V3.844H59.3768V1.012H70.8488V3.844H66.7688V17.5H63.4808ZM72.642 17.5V1.012H75.93V7.708H80.634V1.012H83.898V17.5H80.634V10.54H75.93V17.5H72.642ZM86.7285 17.5V1.012H97.0245V3.796H90.0165V7.708H96.1125V10.492H90.0165V14.716H97.1445V17.5H86.7285ZM102.9 17.5V1.012H108.324C109.764 1.012 110.94 1.3 111.852 1.876C112.78 2.452 113.46 3.348 113.892 4.564C114.34 5.764 114.564 7.316 114.564 9.22C114.564 11.108 114.34 12.668 113.892 13.9C113.444 15.116 112.756 16.02 111.828 16.612C110.916 17.204 109.732 17.5 108.276 17.5H102.9ZM106.188 14.716H108.084C108.612 14.716 109.068 14.636 109.452 14.476C109.836 14.316 110.156 14.06 110.412 13.708C110.684 13.34 110.884 12.868 111.012 12.292C111.14 11.7 111.204 10.98 111.204 10.132V8.572C111.204 7.724 111.14 6.996 111.012 6.388C110.884 5.78 110.692 5.284 110.436 4.9C110.18 4.516 109.852 4.236 109.452 4.06C109.068 3.884 108.612 3.796 108.084 3.796H106.188V14.716ZM116.869 17.5V1.012H127.165V3.796H120.157V7.708H126.253V10.492H120.157V14.716H127.285V17.5H116.869ZM128.157 17.5L132.717 1.012H136.989L141.549 17.5H138.069L137.181 14.068H132.381L131.517 17.5H128.157ZM133.005 11.356H136.581L135.477 6.748C135.445 6.62 135.397 6.452 135.333 6.244C135.285 6.02 135.229 5.78 135.165 5.524C135.117 5.268 135.069 5.012 135.021 4.756C134.973 4.5 134.925 4.268 134.877 4.06H134.709C134.661 4.316 134.597 4.62 134.517 4.972C134.453 5.308 134.381 5.636 134.301 5.956C134.237 6.276 134.173 6.54 134.109 6.748L133.005 11.356ZM142.978 17.5V1.012H146.266V14.668H152.338V17.5H142.978ZM159.055 17.788C158.287 17.788 157.559 17.708 156.871 17.548C156.199 17.388 155.607 17.116 155.095 16.732C154.583 16.348 154.183 15.828 153.895 15.172C153.607 14.516 153.463 13.692 153.463 12.7C153.463 12.636 153.463 12.564 153.463 12.484C153.463 12.388 153.471 12.308 153.487 12.244H156.679C156.679 12.308 156.679 12.38 156.679 12.46C156.679 12.54 156.679 12.62 156.679 12.7C156.679 13.26 156.759 13.716 156.919 14.068C157.095 14.404 157.359 14.652 157.711 14.812C158.063 14.956 158.487 15.028 158.983 15.028C159.287 15.028 159.559 15.004 159.799 14.956C160.039 14.908 160.247 14.828 160.423 14.716C160.615 14.604 160.775 14.468 160.903 14.308C161.031 14.148 161.119 13.964 161.167 13.756C161.231 13.532 161.263 13.284 161.263 13.012C161.263 12.596 161.159 12.244 160.951 11.956C160.743 11.668 160.455 11.428 160.087 11.236C159.735 11.028 159.335 10.844 158.887 10.684C158.439 10.508 157.975 10.332 157.495 10.156C157.015 9.98 156.551 9.772 156.103 9.532C155.671 9.292 155.271 8.996 154.903 8.644C154.551 8.292 154.263 7.86 154.039 7.348C153.831 6.836 153.727 6.22 153.727 5.5C153.727 4.652 153.863 3.932 154.135 3.34C154.423 2.732 154.815 2.236 155.311 1.852C155.807 1.468 156.375 1.188 157.015 1.012C157.671 0.819999 158.359 0.723999 159.079 0.723999C159.815 0.723999 160.495 0.811999 161.119 0.987999C161.759 1.148 162.311 1.412 162.775 1.78C163.239 2.148 163.599 2.628 163.855 3.22C164.127 3.812 164.263 4.524 164.263 5.356V5.812H161.119V5.5C161.119 5.068 161.047 4.708 160.903 4.42C160.759 4.116 160.543 3.884 160.255 3.724C159.967 3.548 159.583 3.46 159.103 3.46C158.687 3.46 158.327 3.524 158.023 3.652C157.719 3.78 157.479 3.972 157.303 4.228C157.143 4.468 157.063 4.78 157.063 5.164C157.063 5.58 157.167 5.932 157.375 6.22C157.599 6.508 157.887 6.748 158.239 6.94C158.607 7.132 159.015 7.316 159.463 7.492C159.911 7.652 160.367 7.82 160.831 7.996C161.311 8.172 161.775 8.38 162.223 8.62C162.671 8.844 163.071 9.132 163.423 9.484C163.791 9.836 164.079 10.268 164.287 10.78C164.495 11.292 164.599 11.9 164.599 12.604C164.599 13.82 164.367 14.812 163.903 15.58C163.439 16.332 162.791 16.892 161.959 17.26C161.127 17.612 160.159 17.788 159.055 17.788Z" fill="white"/>
</svg>
