<svg width="418" height="65" viewBox="0 0 418 65" fill="none" xmlns="http://www.w3.org/2000/svg">
<path d="M2.82475 26.5V5.234H14.9768C16.0928 5.234 17.0951 5.451 17.9837 5.885C18.8931 6.319 19.6061 6.92867 20.1228 7.714C20.6394 8.49933 20.8978 9.419 20.8978 10.473C20.8978 11.3203 20.7428 12.0747 20.4328 12.736C20.1228 13.3973 19.6991 13.945 19.1618 14.379C18.6451 14.813 18.0561 15.1333 17.3948 15.34V15.464C18.1801 15.6293 18.8724 15.9393 19.4718 16.394C20.0918 16.8487 20.5774 17.4377 20.9288 18.161C21.3008 18.8637 21.4868 19.7007 21.4868 20.672C21.4868 21.9533 21.1871 23.028 20.5878 23.896C20.0091 24.764 19.2341 25.415 18.2628 25.849C17.2914 26.283 16.2064 26.5 15.0078 26.5H2.82475ZM7.44375 22.718H14.1088C14.8734 22.718 15.4934 22.501 15.9688 22.067C16.4648 21.633 16.7128 20.9613 16.7128 20.052C16.7128 19.5147 16.6094 19.0497 16.4027 18.657C16.1961 18.2643 15.8861 17.9647 15.4728 17.758C15.0594 17.5307 14.5324 17.417 13.8918 17.417H7.44375V22.718ZM7.44375 13.821H13.5818C14.1398 13.821 14.6048 13.7177 14.9768 13.511C15.3694 13.2837 15.6588 12.9943 15.8448 12.643C16.0514 12.271 16.1548 11.8473 16.1548 11.372C16.1548 10.566 15.9274 9.95633 15.4728 9.543C15.0388 9.12967 14.4601 8.923 13.7368 8.923H7.44375V13.821ZM24.8248 26.5V4.087H29.1338V26.5H24.8248ZM37.3985 26.872C36.8611 26.872 36.2825 26.81 35.6625 26.686C35.0631 26.562 34.4948 26.345 33.9575 26.035C33.4201 25.7043 32.9758 25.2393 32.6245 24.64C32.2938 24.02 32.1285 23.2347 32.1285 22.284C32.1285 21.1473 32.3765 20.207 32.8725 19.463C33.3685 18.719 34.0711 18.1403 34.9805 17.727C35.9105 17.293 37.0161 16.9933 38.2975 16.828C39.5788 16.6627 40.9945 16.58 42.5445 16.58V15.371C42.5445 14.8957 42.4618 14.4823 42.2965 14.131C42.1518 13.7797 41.8831 13.5007 41.4905 13.294C41.1185 13.0873 40.5915 12.984 39.9095 12.984C39.2275 12.984 38.6695 13.0667 38.2355 13.232C37.8221 13.3973 37.5225 13.6143 37.3365 13.883C37.1711 14.131 37.0885 14.41 37.0885 14.72V15.092H32.9035C32.8828 14.9887 32.8725 14.8957 32.8725 14.813C32.8725 14.7097 32.8725 14.5857 32.8725 14.441C32.8725 13.4903 33.1618 12.674 33.7405 11.992C34.3191 11.2893 35.1355 10.752 36.1895 10.38C37.2435 10.008 38.4731 9.822 39.8785 9.822C41.3871 9.822 42.6478 10.0183 43.6605 10.411C44.6938 10.8037 45.4791 11.3823 46.0165 12.147C46.5745 12.9117 46.8535 13.8727 46.8535 15.03V22.439C46.8535 22.811 46.9568 23.09 47.1635 23.276C47.3908 23.4413 47.6388 23.524 47.9075 23.524H48.9305V26.345C48.7238 26.4483 48.4035 26.5517 47.9695 26.655C47.5355 26.779 47.0085 26.841 46.3885 26.841C45.7891 26.841 45.2518 26.748 44.7765 26.562C44.3218 26.3967 43.9395 26.159 43.6295 25.849C43.3195 25.5183 43.1025 25.1257 42.9785 24.671H42.7615C42.4101 25.105 41.9761 25.4873 41.4595 25.818C40.9635 26.1487 40.3745 26.407 39.6925 26.593C39.0311 26.779 38.2665 26.872 37.3985 26.872ZM38.8555 23.617C39.4341 23.617 39.9508 23.5343 40.4055 23.369C40.8601 23.183 41.2425 22.9453 41.5525 22.656C41.8625 22.346 42.1001 21.974 42.2655 21.54C42.4515 21.106 42.5445 20.641 42.5445 20.145V19.246C41.3871 19.246 40.3538 19.3287 39.4445 19.494C38.5351 19.6387 37.8118 19.897 37.2745 20.269C36.7578 20.641 36.4995 21.1577 36.4995 21.819C36.4995 22.191 36.5925 22.5113 36.7785 22.78C36.9645 23.0487 37.2331 23.2553 37.5845 23.4C37.9358 23.5447 38.3595 23.617 38.8555 23.617ZM58.2329 26.872C56.4969 26.872 55.0399 26.5723 53.8619 25.973C52.6839 25.353 51.7849 24.4127 51.1649 23.152C50.5656 21.8707 50.2659 20.269 50.2659 18.347C50.2659 16.3837 50.5656 14.782 51.1649 13.542C51.7849 12.2813 52.6839 11.341 53.8619 10.721C55.0606 10.101 56.5176 9.791 58.2329 9.791C59.3489 9.791 60.3512 9.92533 61.2399 10.194C62.1492 10.4627 62.9346 10.876 63.5959 11.434C64.2572 11.992 64.7532 12.6843 65.0839 13.511C65.4352 14.317 65.6109 15.278 65.6109 16.394H61.3019C61.3019 15.65 61.1882 15.0403 60.9609 14.565C60.7336 14.0897 60.3822 13.728 59.9069 13.48C59.4522 13.232 58.8736 13.108 58.1709 13.108C57.3442 13.108 56.6726 13.294 56.1559 13.666C55.6392 14.038 55.2569 14.5857 55.0089 15.309C54.7609 16.0323 54.6369 16.9313 54.6369 18.006V18.719C54.6369 19.773 54.7609 20.6617 55.0089 21.385C55.2776 22.1083 55.6806 22.656 56.2179 23.028C56.7552 23.3793 57.4579 23.555 58.3259 23.555C59.0286 23.555 59.6072 23.431 60.0619 23.183C60.5372 22.935 60.8989 22.563 61.1469 22.067C61.3949 21.571 61.5189 20.9717 61.5189 20.269H65.6109C65.6109 21.323 65.4352 22.2633 65.0839 23.09C64.7532 23.9167 64.2572 24.609 63.5959 25.167C62.9552 25.725 62.1802 26.1487 61.2709 26.438C60.3616 26.7273 59.3489 26.872 58.2329 26.872ZM68.8424 26.5V4.056H73.1514V16.983L78.8554 10.194H83.9084L78.3284 16.58L84.1874 26.5H79.2584L75.5074 19.618L73.1514 21.912V26.5H68.8424ZM92.1011 26.5V5.234H107.787V9.016H96.7201V14.286H106.609V18.037H96.7201V26.5H92.1011ZM111.013 26.5V10.194H114.578L114.919 12.736H115.136C115.343 12.1987 115.612 11.713 115.942 11.279C116.273 10.8243 116.686 10.4627 117.182 10.194C117.678 9.92533 118.257 9.791 118.918 9.791C119.27 9.791 119.59 9.83233 119.879 9.915C120.169 9.977 120.386 10.039 120.53 10.101V14.007H119.197C118.557 14.007 117.988 14.1 117.492 14.286C117.017 14.4513 116.614 14.72 116.283 15.092C115.953 15.464 115.705 15.9187 115.539 16.456C115.395 16.9933 115.322 17.6237 115.322 18.347V26.5H111.013ZM122.79 7.807V4.087H127.099V7.807H122.79ZM122.79 26.5V10.194H127.099V26.5H122.79ZM136.82 26.872C135.477 26.872 134.309 26.5723 133.317 25.973C132.346 25.353 131.592 24.4127 131.054 23.152C130.517 21.8913 130.248 20.2793 130.248 18.316C130.248 16.3527 130.517 14.751 131.054 13.511C131.612 12.2503 132.367 11.3203 133.317 10.721C134.289 10.1217 135.405 9.822 136.665 9.822C137.368 9.822 138.019 9.90467 138.618 10.07C139.238 10.2147 139.776 10.4523 140.23 10.783C140.706 11.1137 141.109 11.5167 141.439 11.992H141.625V4.087H145.934V26.5H142.4L142.059 24.299H141.842C141.305 25.167 140.602 25.818 139.734 26.252C138.866 26.6653 137.895 26.872 136.82 26.872ZM138.184 23.338C138.99 23.338 139.641 23.152 140.137 22.78C140.654 22.408 141.036 21.8707 141.284 21.168C141.532 20.4653 141.656 19.6283 141.656 18.657V18.099C141.656 17.3757 141.584 16.7143 141.439 16.115C141.315 15.5157 141.109 15.0197 140.819 14.627C140.53 14.2137 140.168 13.9037 139.734 13.697C139.3 13.4697 138.784 13.356 138.184 13.356C137.316 13.356 136.624 13.5317 136.107 13.883C135.591 14.2137 135.219 14.7303 134.991 15.433C134.764 16.115 134.65 16.9727 134.65 18.006V18.719C134.65 19.7523 134.764 20.61 134.991 21.292C135.219 21.974 135.591 22.4907 136.107 22.842C136.624 23.1727 137.316 23.338 138.184 23.338ZM154.224 26.872C153.686 26.872 153.108 26.81 152.488 26.686C151.888 26.562 151.32 26.345 150.783 26.035C150.245 25.7043 149.801 25.2393 149.45 24.64C149.119 24.02 148.954 23.2347 148.954 22.284C148.954 21.1473 149.202 20.207 149.698 19.463C150.194 18.719 150.896 18.1403 151.806 17.727C152.736 17.293 153.841 16.9933 155.123 16.828C156.404 16.6627 157.82 16.58 159.37 16.58V15.371C159.37 14.8957 159.287 14.4823 159.122 14.131C158.977 13.7797 158.708 13.5007 158.316 13.294C157.944 13.0873 157.417 12.984 156.735 12.984C156.053 12.984 155.495 13.0667 155.061 13.232C154.647 13.3973 154.348 13.6143 154.162 13.883C153.996 14.131 153.914 14.41 153.914 14.72V15.092H149.729C149.708 14.9887 149.698 14.8957 149.698 14.813C149.698 14.7097 149.698 14.5857 149.698 14.441C149.698 13.4903 149.987 12.674 150.566 11.992C151.144 11.2893 151.961 10.752 153.015 10.38C154.069 10.008 155.298 9.822 156.704 9.822C158.212 9.822 159.473 10.0183 160.486 10.411C161.519 10.8037 162.304 11.3823 162.842 12.147C163.4 12.9117 163.679 13.8727 163.679 15.03V22.439C163.679 22.811 163.782 23.09 163.989 23.276C164.216 23.4413 164.464 23.524 164.733 23.524H165.756V26.345C165.549 26.4483 165.229 26.5517 164.795 26.655C164.361 26.779 163.834 26.841 163.214 26.841C162.614 26.841 162.077 26.748 161.602 26.562C161.147 26.3967 160.765 26.159 160.455 25.849C160.145 25.5183 159.928 25.1257 159.804 24.671H159.587C159.235 25.105 158.801 25.4873 158.285 25.818C157.789 26.1487 157.2 26.407 156.518 26.593C155.856 26.779 155.092 26.872 154.224 26.872ZM155.681 23.617C156.259 23.617 156.776 23.5343 157.231 23.369C157.685 23.183 158.068 22.9453 158.378 22.656C158.688 22.346 158.925 21.974 159.091 21.54C159.277 21.106 159.37 20.641 159.37 20.145V19.246C158.212 19.246 157.179 19.3287 156.27 19.494C155.36 19.6387 154.637 19.897 154.1 20.269C153.583 20.641 153.325 21.1577 153.325 21.819C153.325 22.191 153.418 22.5113 153.604 22.78C153.79 23.0487 154.058 23.2553 154.41 23.4C154.761 23.5447 155.185 23.617 155.681 23.617ZM170.253 32.328C169.488 32.328 168.848 32.266 168.331 32.142C167.835 32.0387 167.515 31.9663 167.37 31.925V29.011H169.261C169.778 29.011 170.243 28.887 170.656 28.639C171.069 28.4117 171.431 28.1017 171.741 27.709C172.051 27.337 172.278 26.934 172.423 26.5L166.037 10.194H170.594L173.384 17.727C173.508 18.0783 173.642 18.5227 173.787 19.06C173.952 19.5767 174.118 20.1243 174.283 20.703C174.448 21.261 174.583 21.757 174.686 22.191H174.841C174.924 21.9017 175.017 21.5607 175.12 21.168C175.223 20.7753 175.327 20.3723 175.43 19.959C175.554 19.5457 175.668 19.153 175.771 18.781C175.895 18.3883 175.998 18.0473 176.081 17.758L178.406 10.194H182.746L177.197 25.725C176.887 26.6343 176.525 27.4817 176.112 28.267C175.719 29.073 175.254 29.7757 174.717 30.375C174.18 30.995 173.539 31.4703 172.795 31.801C172.072 32.1523 171.224 32.328 170.253 32.328ZM191.307 26.5V5.234H199.987C202.199 5.234 204.079 5.61633 205.629 6.381C207.179 7.14567 208.368 8.31333 209.194 9.884C210.042 11.434 210.465 13.4283 210.465 15.867C210.465 18.285 210.042 20.2793 209.194 21.85C208.368 23.4207 207.179 24.5883 205.629 25.353C204.079 26.1177 202.199 26.5 199.987 26.5H191.307ZM195.926 22.687H199.956C200.886 22.687 201.713 22.5527 202.436 22.284C203.16 22.0153 203.759 21.6227 204.234 21.106C204.71 20.5687 205.071 19.9073 205.319 19.122C205.567 18.316 205.691 17.386 205.691 16.332V15.402C205.691 14.348 205.567 13.4283 205.319 12.643C205.071 11.837 204.71 11.1757 204.234 10.659C203.759 10.1217 203.16 9.71867 202.436 9.45C201.713 9.16067 200.886 9.016 199.956 9.016H195.926V22.687ZM221.261 26.872C219.463 26.872 217.954 26.5723 216.735 25.973C215.516 25.353 214.596 24.4127 213.976 23.152C213.356 21.8913 213.046 20.2897 213.046 18.347C213.046 16.3837 213.356 14.782 213.976 13.542C214.596 12.2813 215.505 11.3513 216.704 10.752C217.923 10.132 219.411 9.822 221.168 9.822C222.821 9.822 224.216 10.1217 225.353 10.721C226.49 11.2997 227.347 12.209 227.926 13.449C228.505 14.6683 228.794 16.2493 228.794 18.192V19.308H217.417C217.458 20.2587 217.603 21.0647 217.851 21.726C218.12 22.3873 218.523 22.8833 219.06 23.214C219.618 23.524 220.352 23.679 221.261 23.679C221.757 23.679 222.201 23.617 222.594 23.493C223.007 23.369 223.359 23.183 223.648 22.935C223.937 22.687 224.165 22.377 224.33 22.005C224.495 21.633 224.578 21.2093 224.578 20.734H228.794C228.794 21.7673 228.608 22.6663 228.236 23.431C227.864 24.1957 227.347 24.8363 226.686 25.353C226.025 25.849 225.229 26.2313 224.299 26.5C223.39 26.748 222.377 26.872 221.261 26.872ZM217.479 16.58H224.361C224.361 15.96 224.278 15.4227 224.113 14.968C223.968 14.5133 223.762 14.1413 223.493 13.852C223.224 13.5627 222.894 13.356 222.501 13.232C222.129 13.0873 221.705 13.015 221.23 13.015C220.445 13.015 219.783 13.1493 219.246 13.418C218.729 13.666 218.326 14.0587 218.037 14.596C217.768 15.1127 217.582 15.774 217.479 16.58ZM236.265 26.872C235.727 26.872 235.149 26.81 234.529 26.686C233.929 26.562 233.361 26.345 232.824 26.035C232.286 25.7043 231.842 25.2393 231.491 24.64C231.16 24.02 230.995 23.2347 230.995 22.284C230.995 21.1473 231.243 20.207 231.739 19.463C232.235 18.719 232.937 18.1403 233.847 17.727C234.777 17.293 235.882 16.9933 237.164 16.828C238.445 16.6627 239.861 16.58 241.411 16.58V15.371C241.411 14.8957 241.328 14.4823 241.163 14.131C241.018 13.7797 240.749 13.5007 240.357 13.294C239.985 13.0873 239.458 12.984 238.776 12.984C238.094 12.984 237.536 13.0667 237.102 13.232C236.688 13.3973 236.389 13.6143 236.203 13.883C236.037 14.131 235.955 14.41 235.955 14.72V15.092H231.77C231.749 14.9887 231.739 14.8957 231.739 14.813C231.739 14.7097 231.739 14.5857 231.739 14.441C231.739 13.4903 232.028 12.674 232.607 11.992C233.185 11.2893 234.002 10.752 235.056 10.38C236.11 10.008 237.339 9.822 238.745 9.822C240.253 9.822 241.514 10.0183 242.527 10.411C243.56 10.8037 244.345 11.3823 244.883 12.147C245.441 12.9117 245.72 13.8727 245.72 15.03V22.439C245.72 22.811 245.823 23.09 246.03 23.276C246.257 23.4413 246.505 23.524 246.774 23.524H247.797V26.345C247.59 26.4483 247.27 26.5517 246.836 26.655C246.402 26.779 245.875 26.841 245.255 26.841C244.655 26.841 244.118 26.748 243.643 26.562C243.188 26.3967 242.806 26.159 242.496 25.849C242.186 25.5183 241.969 25.1257 241.845 24.671H241.628C241.276 25.105 240.842 25.4873 240.326 25.818C239.83 26.1487 239.241 26.407 238.559 26.593C237.897 26.779 237.133 26.872 236.265 26.872ZM237.722 23.617C238.3 23.617 238.817 23.5343 239.272 23.369C239.726 23.183 240.109 22.9453 240.419 22.656C240.729 22.346 240.966 21.974 241.132 21.54C241.318 21.106 241.411 20.641 241.411 20.145V19.246C240.253 19.246 239.22 19.3287 238.311 19.494C237.401 19.6387 236.678 19.897 236.141 20.269C235.624 20.641 235.366 21.1577 235.366 21.819C235.366 22.191 235.459 22.5113 235.645 22.78C235.831 23.0487 236.099 23.2553 236.451 23.4C236.802 23.5447 237.226 23.617 237.722 23.617ZM249.938 26.5V4.087H254.247V26.5H249.938ZM264.806 26.872C263.669 26.872 262.646 26.748 261.737 26.5C260.827 26.252 260.052 25.911 259.412 25.477C258.771 25.0223 258.275 24.485 257.924 23.865C257.593 23.245 257.428 22.5423 257.428 21.757C257.428 21.6743 257.428 21.5917 257.428 21.509C257.428 21.4263 257.438 21.3643 257.459 21.323H261.613C261.613 21.3643 261.613 21.4057 261.613 21.447C261.613 21.4883 261.613 21.5297 261.613 21.571C261.633 22.0877 261.799 22.5113 262.109 22.842C262.419 23.152 262.822 23.3793 263.318 23.524C263.834 23.6687 264.372 23.741 264.93 23.741C265.426 23.741 265.901 23.6997 266.356 23.617C266.831 23.5137 267.224 23.338 267.534 23.09C267.864 22.842 268.03 22.5217 268.03 22.129C268.03 21.633 267.823 21.2507 267.41 20.982C267.017 20.7133 266.49 20.4963 265.829 20.331C265.188 20.1657 264.485 19.9797 263.721 19.773C263.018 19.6077 262.315 19.4217 261.613 19.215C260.91 18.9877 260.269 18.6983 259.691 18.347C259.133 17.9957 258.678 17.541 258.327 16.983C257.975 16.4043 257.8 15.681 257.8 14.813C257.8 13.9657 257.986 13.232 258.358 12.612C258.73 11.9713 259.236 11.4443 259.877 11.031C260.538 10.6177 261.303 10.318 262.171 10.132C263.059 9.92533 264.01 9.822 265.023 9.822C265.973 9.822 266.862 9.92533 267.689 10.132C268.515 10.318 269.239 10.6073 269.859 11C270.479 11.372 270.964 11.8473 271.316 12.426C271.667 12.984 271.843 13.6143 271.843 14.317C271.843 14.4617 271.843 14.596 271.843 14.72C271.843 14.844 271.832 14.9267 271.812 14.968H267.689V14.72C267.689 14.348 267.575 14.038 267.348 13.79C267.12 13.5213 266.79 13.3147 266.356 13.17C265.942 13.0253 265.436 12.953 264.837 12.953C264.423 12.953 264.041 12.984 263.69 13.046C263.359 13.108 263.07 13.201 262.822 13.325C262.574 13.449 262.377 13.604 262.233 13.79C262.109 13.9553 262.047 14.162 262.047 14.41C262.047 14.7613 262.191 15.0507 262.481 15.278C262.791 15.4847 263.194 15.6603 263.69 15.805C264.186 15.9497 264.733 16.1047 265.333 16.27C266.077 16.4767 266.852 16.6833 267.658 16.89C268.484 17.076 269.249 17.3343 269.952 17.665C270.654 17.9957 271.223 18.471 271.657 19.091C272.091 19.6903 272.308 20.5067 272.308 21.54C272.308 22.532 272.111 23.369 271.719 24.051C271.347 24.733 270.82 25.2807 270.138 25.694C269.456 26.1073 268.66 26.407 267.751 26.593C266.841 26.779 265.86 26.872 264.806 26.872ZM279.715 26.5L287.899 5.234H293.603L301.787 26.5H296.796L295.277 22.315H286.008L284.489 26.5H279.715ZM287.341 18.595H293.944L292.053 13.356C291.971 13.1287 291.867 12.86 291.743 12.55C291.64 12.2193 291.526 11.8577 291.402 11.465C291.278 11.0723 291.154 10.69 291.03 10.318C290.927 9.92533 290.824 9.574 290.72 9.264H290.534C290.431 9.65667 290.297 10.1217 290.131 10.659C289.966 11.1757 289.801 11.682 289.635 12.178C289.47 12.6533 289.336 13.046 289.232 13.356L287.341 18.595ZM303.946 26.5V10.194H307.511L307.852 12.736H308.069C308.276 12.1987 308.544 11.713 308.875 11.279C309.206 10.8243 309.619 10.4627 310.115 10.194C310.611 9.92533 311.19 9.791 311.851 9.791C312.202 9.791 312.523 9.83233 312.812 9.915C313.101 9.977 313.318 10.039 313.463 10.101V14.007H312.13C311.489 14.007 310.921 14.1 310.425 14.286C309.95 14.4513 309.547 14.72 309.216 15.092C308.885 15.464 308.637 15.9187 308.472 16.456C308.327 16.9933 308.255 17.6237 308.255 18.347V26.5H303.946ZM322.829 26.872C321.031 26.872 319.522 26.5723 318.303 25.973C317.083 25.353 316.164 24.4127 315.544 23.152C314.924 21.8913 314.614 20.2897 314.614 18.347C314.614 16.3837 314.924 14.782 315.544 13.542C316.164 12.2813 317.073 11.3513 318.272 10.752C319.491 10.132 320.979 9.822 322.736 9.822C324.389 9.822 325.784 10.1217 326.921 10.721C328.057 11.2997 328.915 12.209 329.494 13.449C330.072 14.6683 330.362 16.2493 330.362 18.192V19.308H318.985C319.026 20.2587 319.171 21.0647 319.419 21.726C319.687 22.3873 320.09 22.8833 320.628 23.214C321.186 23.524 321.919 23.679 322.829 23.679C323.325 23.679 323.769 23.617 324.162 23.493C324.575 23.369 324.926 23.183 325.216 22.935C325.505 22.687 325.732 22.377 325.898 22.005C326.063 21.633 326.146 21.2093 326.146 20.734H330.362C330.362 21.7673 330.176 22.6663 329.804 23.431C329.432 24.1957 328.915 24.8363 328.254 25.353C327.592 25.849 326.797 26.2313 325.867 26.5C324.957 26.748 323.945 26.872 322.829 26.872ZM319.047 16.58H325.929C325.929 15.96 325.846 15.4227 325.681 14.968C325.536 14.5133 325.329 14.1413 325.061 13.852C324.792 13.5627 324.461 13.356 324.069 13.232C323.697 13.0873 323.273 13.015 322.798 13.015C322.012 13.015 321.351 13.1493 320.814 13.418C320.297 13.666 319.894 14.0587 319.605 14.596C319.336 15.1127 319.15 15.774 319.047 16.58ZM339.98 26.5V5.234H344.599V13.666H354.023V5.234H358.642V26.5H354.023V17.572H344.599V26.5H339.98ZM370.388 26.872C368.59 26.872 367.081 26.5723 365.862 25.973C364.643 25.353 363.723 24.4127 363.103 23.152C362.483 21.8913 362.173 20.2897 362.173 18.347C362.173 16.3837 362.483 14.782 363.103 13.542C363.723 12.2813 364.632 11.3513 365.831 10.752C367.05 10.132 368.538 9.822 370.295 9.822C371.948 9.822 373.343 10.1217 374.48 10.721C375.617 11.2997 376.474 12.209 377.053 13.449C377.632 14.6683 377.921 16.2493 377.921 18.192V19.308H366.544C366.585 20.2587 366.73 21.0647 366.978 21.726C367.247 22.3873 367.65 22.8833 368.187 23.214C368.745 23.524 369.479 23.679 370.388 23.679C370.884 23.679 371.328 23.617 371.721 23.493C372.134 23.369 372.486 23.183 372.775 22.935C373.064 22.687 373.292 22.377 373.457 22.005C373.622 21.633 373.705 21.2093 373.705 20.734H377.921C377.921 21.7673 377.735 22.6663 377.363 23.431C376.991 24.1957 376.474 24.8363 375.813 25.353C375.152 25.849 374.356 26.2313 373.426 26.5C372.517 26.748 371.504 26.872 370.388 26.872ZM366.606 16.58H373.488C373.488 15.96 373.405 15.4227 373.24 14.968C373.095 14.5133 372.889 14.1413 372.62 13.852C372.351 13.5627 372.021 13.356 371.628 13.232C371.256 13.0873 370.832 13.015 370.357 13.015C369.572 13.015 368.91 13.1493 368.373 13.418C367.856 13.666 367.453 14.0587 367.164 14.596C366.895 15.1127 366.709 15.774 366.606 16.58ZM381.083 26.5V10.194H384.648L384.989 12.736H385.206C385.412 12.1987 385.681 11.713 386.012 11.279C386.342 10.8243 386.756 10.4627 387.252 10.194C387.748 9.92533 388.326 9.791 388.988 9.791C389.339 9.791 389.659 9.83233 389.949 9.915C390.238 9.977 390.455 10.039 390.6 10.101V14.007H389.267C388.626 14.007 388.058 14.1 387.562 14.286C387.086 14.4513 386.683 14.72 386.353 15.092C386.022 15.464 385.774 15.9187 385.609 16.456C385.464 16.9933 385.392 17.6237 385.392 18.347V26.5H381.083ZM399.965 26.872C398.167 26.872 396.659 26.5723 395.439 25.973C394.22 25.353 393.3 24.4127 392.68 23.152C392.06 21.8913 391.75 20.2897 391.75 18.347C391.75 16.3837 392.06 14.782 392.68 13.542C393.3 12.2813 394.21 11.3513 395.408 10.752C396.628 10.132 398.116 9.822 399.872 9.822C401.526 9.822 402.921 10.1217 404.057 10.721C405.194 11.2997 406.052 12.209 406.63 13.449C407.209 14.6683 407.498 16.2493 407.498 18.192V19.308H396.121C396.163 20.2587 396.307 21.0647 396.555 21.726C396.824 22.3873 397.227 22.8833 397.764 23.214C398.322 23.524 399.056 23.679 399.965 23.679C400.461 23.679 400.906 23.617 401.298 23.493C401.712 23.369 402.063 23.183 402.352 22.935C402.642 22.687 402.869 22.377 403.034 22.005C403.2 21.633 403.282 21.2093 403.282 20.734H407.498C407.498 21.7673 407.312 22.6663 406.94 23.431C406.568 24.1957 406.052 24.8363 405.39 25.353C404.729 25.849 403.933 26.2313 403.003 26.5C402.094 26.748 401.081 26.872 399.965 26.872ZM396.183 16.58H403.065C403.065 15.96 402.983 15.4227 402.817 14.968C402.673 14.5133 402.466 14.1413 402.197 13.852C401.929 13.5627 401.598 13.356 401.205 13.232C400.833 13.0873 400.41 13.015 399.934 13.015C399.149 13.015 398.488 13.1493 397.95 13.418C397.434 13.666 397.031 14.0587 396.741 14.596C396.473 15.1127 396.287 15.774 396.183 16.58ZM411.993 20.269L410.939 5.234H415.775L414.69 20.269H411.993ZM411.156 26.5V22.16H415.558V26.5H411.156Z" fill="url(#paint0_linear_17398_970)"/>
<path d="M6.03 59.716C5.358 59.716 4.71 59.644 4.086 59.5C3.462 59.368 2.91 59.152 2.43 58.852C1.95 58.54 1.572 58.15 1.296 57.682C1.02 57.202 0.882 56.632 0.882 55.972C0.882 55.9 0.882 55.834 0.882 55.774C0.894 55.702 0.9 55.642 0.9 55.594H2.916C2.916 55.63 2.91 55.684 2.898 55.756C2.898 55.828 2.898 55.888 2.898 55.936C2.898 56.38 3.03 56.758 3.294 57.07C3.558 57.382 3.924 57.616 4.392 57.772C4.872 57.928 5.418 58.006 6.03 58.006C6.366 58.006 6.69 57.988 7.002 57.952C7.314 57.904 7.596 57.838 7.848 57.754C8.112 57.658 8.34 57.544 8.532 57.412C8.724 57.268 8.874 57.1 8.982 56.908C9.09 56.716 9.144 56.494 9.144 56.242C9.144 55.858 9.03 55.54 8.802 55.288C8.586 55.036 8.286 54.826 7.902 54.658C7.53 54.49 7.104 54.34 6.624 54.208C6.156 54.076 5.67 53.944 5.166 53.812C4.662 53.68 4.17 53.524 3.69 53.344C3.222 53.164 2.796 52.948 2.412 52.696C2.04 52.432 1.74 52.108 1.512 51.724C1.296 51.328 1.188 50.848 1.188 50.284C1.188 49.744 1.302 49.264 1.53 48.844C1.758 48.424 2.088 48.076 2.52 47.8C2.952 47.512 3.468 47.296 4.068 47.152C4.668 47.008 5.346 46.936 6.102 46.936C6.75 46.936 7.362 47.008 7.938 47.152C8.514 47.284 9.018 47.494 9.45 47.782C9.882 48.07 10.218 48.436 10.458 48.88C10.71 49.324 10.836 49.852 10.836 50.464V50.68H8.838V50.446C8.838 50.062 8.724 49.738 8.496 49.474C8.268 49.21 7.95 49.006 7.542 48.862C7.134 48.718 6.66 48.646 6.12 48.646C5.484 48.646 4.95 48.712 4.518 48.844C4.086 48.964 3.756 49.138 3.528 49.366C3.312 49.582 3.204 49.846 3.204 50.158C3.204 50.506 3.318 50.794 3.546 51.022C3.774 51.238 4.074 51.424 4.446 51.58C4.83 51.736 5.256 51.88 5.724 52.012C6.204 52.132 6.69 52.264 7.182 52.408C7.686 52.54 8.172 52.696 8.64 52.876C9.12 53.056 9.546 53.278 9.918 53.542C10.302 53.806 10.608 54.136 10.836 54.532C11.064 54.916 11.178 55.39 11.178 55.954C11.178 56.842 10.956 57.568 10.512 58.132C10.068 58.684 9.456 59.086 8.676 59.338C7.908 59.59 7.026 59.716 6.03 59.716ZM15.6586 59.716C15.3586 59.716 15.0346 59.68 14.6866 59.608C14.3386 59.536 14.0086 59.404 13.6966 59.212C13.3966 59.02 13.1506 58.756 12.9586 58.42C12.7666 58.072 12.6706 57.622 12.6706 57.07C12.6706 56.422 12.8206 55.888 13.1206 55.468C13.4206 55.048 13.8406 54.718 14.3806 54.478C14.9206 54.238 15.5626 54.07 16.3066 53.974C17.0626 53.878 17.8846 53.83 18.7726 53.83V52.894C18.7726 52.582 18.7186 52.306 18.6106 52.066C18.5146 51.826 18.3286 51.64 18.0526 51.508C17.7886 51.376 17.4046 51.31 16.9006 51.31C16.3966 51.31 16.0006 51.376 15.7126 51.508C15.4366 51.628 15.2386 51.784 15.1186 51.976C15.0106 52.156 14.9566 52.354 14.9566 52.57V52.84H13.1566C13.1446 52.78 13.1386 52.72 13.1386 52.66C13.1386 52.6 13.1386 52.528 13.1386 52.444C13.1386 51.88 13.2946 51.406 13.6066 51.022C13.9306 50.626 14.3806 50.326 14.9566 50.122C15.5326 49.918 16.1986 49.816 16.9546 49.816C17.7706 49.816 18.4486 49.936 18.9886 50.176C19.5406 50.404 19.9546 50.734 20.2306 51.166C20.5066 51.598 20.6446 52.12 20.6446 52.732V57.538C20.6446 57.766 20.6986 57.928 20.8066 58.024C20.9266 58.12 21.0646 58.168 21.2206 58.168H21.8686V59.428C21.7246 59.488 21.5446 59.548 21.3286 59.608C21.1126 59.668 20.8606 59.698 20.5726 59.698C20.2486 59.698 19.9726 59.638 19.7446 59.518C19.5286 59.41 19.3486 59.254 19.2046 59.05C19.0726 58.834 18.9826 58.594 18.9346 58.33H18.8266C18.6106 58.606 18.3466 58.852 18.0346 59.068C17.7346 59.272 17.3866 59.428 16.9906 59.536C16.5946 59.656 16.1506 59.716 15.6586 59.716ZM16.1806 58.168C16.5526 58.168 16.8946 58.114 17.2066 58.006C17.5306 57.886 17.8066 57.724 18.0346 57.52C18.2626 57.304 18.4426 57.052 18.5746 56.764C18.7066 56.464 18.7726 56.14 18.7726 55.792V55.162C17.9446 55.162 17.2186 55.21 16.5946 55.306C15.9706 55.402 15.4846 55.582 15.1366 55.846C14.7886 56.098 14.6146 56.452 14.6146 56.908C14.6146 57.184 14.6746 57.418 14.7946 57.61C14.9146 57.79 15.0946 57.928 15.3346 58.024C15.5746 58.12 15.8566 58.168 16.1806 58.168ZM25.6271 59.5L22.1171 50.032H24.0791L25.7171 54.55C25.7891 54.766 25.8791 55.048 25.9871 55.396C26.0951 55.732 26.2031 56.08 26.3111 56.44C26.4191 56.8 26.5151 57.124 26.5991 57.412H26.6891C26.7611 57.136 26.8451 56.824 26.9411 56.476C27.0491 56.116 27.1571 55.762 27.2651 55.414C27.3731 55.066 27.4691 54.778 27.5531 54.55L29.1731 50.032H31.0811L27.5531 59.5H25.6271ZM36.3312 59.716C35.3592 59.716 34.5432 59.542 33.8832 59.194C33.2352 58.834 32.7432 58.288 32.4072 57.556C32.0712 56.824 31.9032 55.894 31.9032 54.766C31.9032 53.626 32.0712 52.696 32.4072 51.976C32.7432 51.244 33.2412 50.704 33.9012 50.356C34.5612 49.996 35.3832 49.816 36.3672 49.816C37.2672 49.816 38.0172 49.99 38.6172 50.338C39.2292 50.674 39.6912 51.19 40.0032 51.886C40.3152 52.582 40.4712 53.458 40.4712 54.514V55.234H33.8292C33.8532 55.906 33.9552 56.47 34.1352 56.926C34.3152 57.37 34.5852 57.7 34.9452 57.916C35.3172 58.12 35.7852 58.222 36.3492 58.222C36.6972 58.222 37.0092 58.18 37.2852 58.096C37.5612 58 37.7952 57.868 37.9872 57.7C38.1792 57.52 38.3292 57.31 38.4372 57.07C38.5452 56.818 38.5992 56.536 38.5992 56.224H40.4352C40.4352 56.788 40.3392 57.286 40.1472 57.718C39.9552 58.15 39.6732 58.516 39.3012 58.816C38.9412 59.104 38.5092 59.326 38.0052 59.482C37.5012 59.638 36.9432 59.716 36.3312 59.716ZM33.8652 53.866H38.5092C38.5092 53.398 38.4552 53.008 38.3472 52.696C38.2512 52.372 38.1072 52.108 37.9152 51.904C37.7232 51.7 37.4952 51.556 37.2312 51.472C36.9672 51.376 36.6672 51.328 36.3312 51.328C35.8272 51.328 35.3952 51.418 35.0352 51.598C34.6872 51.778 34.4172 52.06 34.2252 52.444C34.0332 52.816 33.9132 53.29 33.8652 53.866ZM46.3174 59.5V47.152H52.8694C53.5534 47.152 54.1534 47.278 54.6694 47.53C55.1854 47.77 55.5874 48.118 55.8754 48.574C56.1754 49.03 56.3254 49.564 56.3254 50.176C56.3254 50.644 56.2354 51.07 56.0554 51.454C55.8874 51.838 55.6474 52.162 55.3354 52.426C55.0354 52.69 54.6934 52.888 54.3094 53.02V53.092C54.7534 53.188 55.1494 53.368 55.4974 53.632C55.8574 53.884 56.1394 54.22 56.3434 54.64C56.5594 55.048 56.6674 55.54 56.6674 56.116C56.6674 56.896 56.4934 57.538 56.1454 58.042C55.8094 58.546 55.3594 58.918 54.7954 59.158C54.2314 59.386 53.5894 59.5 52.8694 59.5H46.3174ZM48.3334 57.772H52.7074C53.2594 57.772 53.7094 57.628 54.0574 57.34C54.4174 57.04 54.5974 56.56 54.5974 55.9C54.5974 55.504 54.5194 55.168 54.3634 54.892C54.2194 54.604 53.9974 54.388 53.6974 54.244C53.3974 54.088 53.0194 54.01 52.5634 54.01H48.3334V57.772ZM48.3334 52.318H52.4014C52.7854 52.318 53.1154 52.246 53.3914 52.102C53.6674 51.958 53.8774 51.754 54.0214 51.49C54.1774 51.226 54.2554 50.932 54.2554 50.608C54.2554 50.02 54.0934 49.588 53.7694 49.312C53.4574 49.024 53.0434 48.88 52.5274 48.88H48.3334V52.318ZM58.704 48.394V46.486H60.576V48.394H58.704ZM58.704 59.5V50.032H60.576V59.5H58.704ZM64.5771 62.776C64.1451 62.776 63.7371 62.686 63.3531 62.506C62.9811 62.326 62.6811 62.068 62.4531 61.732C62.2251 61.396 62.1111 60.988 62.1111 60.508C62.1111 59.98 62.2551 59.554 62.5431 59.23C62.8431 58.894 63.1911 58.642 63.5871 58.474C63.2991 58.342 63.0651 58.15 62.8851 57.898C62.7171 57.646 62.6331 57.358 62.6331 57.034C62.6331 56.59 62.7951 56.23 63.1191 55.954C63.4431 55.678 63.8211 55.498 64.2531 55.414C63.8331 55.138 63.5031 54.79 63.2631 54.37C63.0351 53.95 62.9211 53.476 62.9211 52.948C62.9211 52.312 63.0711 51.766 63.3711 51.31C63.6711 50.842 64.1151 50.476 64.7031 50.212C65.3031 49.948 66.0291 49.816 66.8811 49.816C67.2531 49.816 67.6011 49.846 67.9251 49.906C68.2611 49.954 68.5611 50.026 68.8251 50.122C69.2451 49.906 69.5451 49.648 69.7251 49.348C69.9051 49.036 70.0131 48.748 70.0491 48.484H71.8851C71.8851 48.88 71.8011 49.24 71.6331 49.564C71.4771 49.876 71.2551 50.14 70.9671 50.356C70.6911 50.56 70.3551 50.704 69.9591 50.788C70.2591 51.064 70.4811 51.388 70.6251 51.76C70.7811 52.12 70.8591 52.516 70.8591 52.948C70.8591 53.572 70.7151 54.118 70.4271 54.586C70.1391 55.054 69.7011 55.42 69.1131 55.684C68.5371 55.948 67.8231 56.08 66.9711 56.08H65.4951C65.2071 56.08 64.9731 56.14 64.7931 56.26C64.6251 56.38 64.5411 56.56 64.5411 56.8C64.5411 57.004 64.6251 57.172 64.7931 57.304C64.9611 57.436 65.1831 57.502 65.4591 57.502H69.4551C70.1511 57.502 70.7271 57.736 71.1831 58.204C71.6391 58.66 71.8671 59.248 71.8671 59.968C71.8671 60.496 71.7291 60.97 71.4531 61.39C71.1891 61.822 70.8111 62.158 70.3191 62.398C69.8391 62.65 69.2811 62.776 68.6451 62.776H64.5771ZM65.1891 61.39H68.6271C68.8791 61.39 69.1071 61.342 69.3111 61.246C69.5151 61.15 69.6771 61.012 69.7971 60.832C69.9171 60.664 69.9771 60.472 69.9771 60.256C69.9771 59.896 69.8631 59.614 69.6351 59.41C69.4191 59.206 69.1491 59.104 68.8251 59.104H65.1891C64.8531 59.104 64.5711 59.218 64.3431 59.446C64.1151 59.662 64.0011 59.932 64.0011 60.256C64.0011 60.592 64.1091 60.862 64.3251 61.066C64.5531 61.282 64.8411 61.39 65.1891 61.39ZM66.8991 54.73C67.6071 54.73 68.1351 54.574 68.4831 54.262C68.8311 53.938 69.0051 53.5 69.0051 52.948C69.0051 52.384 68.8311 51.952 68.4831 51.652C68.1351 51.34 67.6071 51.184 66.8991 51.184C66.1911 51.184 65.6631 51.34 65.3151 51.652C64.9671 51.952 64.7931 52.384 64.7931 52.948C64.7931 53.308 64.8651 53.626 65.0091 53.902C65.1651 54.166 65.3991 54.37 65.7111 54.514C66.0351 54.658 66.4311 54.73 66.8991 54.73ZM81.0349 59.716C80.0509 59.716 79.2169 59.542 78.5329 59.194C77.8609 58.834 77.3509 58.288 77.0029 57.556C76.6669 56.824 76.4989 55.894 76.4989 54.766C76.4989 53.626 76.6669 52.696 77.0029 51.976C77.3509 51.244 77.8609 50.704 78.5329 50.356C79.2169 49.996 80.0509 49.816 81.0349 49.816C82.0429 49.816 82.8829 49.996 83.5549 50.356C84.2269 50.704 84.7309 51.244 85.0669 51.976C85.4149 52.696 85.5889 53.626 85.5889 54.766C85.5889 55.894 85.4149 56.824 85.0669 57.556C84.7309 58.288 84.2269 58.834 83.5549 59.194C82.8829 59.542 82.0429 59.716 81.0349 59.716ZM81.0349 58.168C81.6349 58.168 82.1269 58.054 82.5109 57.826C82.8949 57.586 83.1769 57.226 83.3569 56.746C83.5489 56.266 83.6449 55.66 83.6449 54.928V54.604C83.6449 53.872 83.5489 53.266 83.3569 52.786C83.1769 52.306 82.8949 51.952 82.5109 51.724C82.1269 51.484 81.6349 51.364 81.0349 51.364C80.4469 51.364 79.9609 51.484 79.5769 51.724C79.1929 51.952 78.9049 52.306 78.7129 52.786C78.5329 53.266 78.4429 53.872 78.4429 54.604V54.928C78.4429 55.66 78.5329 56.266 78.7129 56.746C78.9049 57.226 79.1929 57.586 79.5769 57.826C79.9609 58.054 80.4469 58.168 81.0349 58.168ZM87.497 59.5V50.032H89.045L89.207 51.382H89.333C89.561 51.034 89.831 50.746 90.143 50.518C90.455 50.29 90.797 50.116 91.169 49.996C91.553 49.876 91.973 49.816 92.429 49.816C93.029 49.816 93.557 49.924 94.013 50.14C94.469 50.344 94.823 50.68 95.075 51.148C95.339 51.616 95.471 52.246 95.471 53.038V59.5H93.599V53.326C93.599 52.966 93.551 52.666 93.455 52.426C93.371 52.186 93.245 51.994 93.077 51.85C92.909 51.706 92.711 51.604 92.483 51.544C92.255 51.484 92.003 51.454 91.727 51.454C91.295 51.454 90.899 51.562 90.539 51.778C90.191 51.982 89.909 52.27 89.693 52.642C89.477 53.014 89.369 53.452 89.369 53.956V59.5H87.497ZM107.357 59.716C105.401 59.716 103.895 59.2 102.839 58.168C101.795 57.136 101.273 55.522 101.273 53.326C101.273 51.886 101.519 50.698 102.011 49.762C102.503 48.814 103.217 48.106 104.153 47.638C105.089 47.17 106.229 46.936 107.573 46.936C108.377 46.936 109.121 47.026 109.805 47.206C110.501 47.386 111.107 47.662 111.623 48.034C112.151 48.394 112.553 48.85 112.829 49.402C113.117 49.954 113.261 50.608 113.261 51.364H111.209C111.209 50.896 111.113 50.494 110.921 50.158C110.741 49.81 110.483 49.522 110.147 49.294C109.823 49.066 109.439 48.904 108.995 48.808C108.563 48.7 108.101 48.646 107.609 48.646C106.925 48.646 106.313 48.736 105.773 48.916C105.245 49.096 104.801 49.372 104.441 49.744C104.081 50.116 103.811 50.584 103.631 51.148C103.451 51.712 103.361 52.378 103.361 53.146V53.524C103.361 54.58 103.511 55.438 103.811 56.098C104.123 56.758 104.579 57.244 105.179 57.556C105.791 57.856 106.535 58.006 107.411 58.006C108.239 58.006 108.935 57.886 109.499 57.646C110.063 57.406 110.495 57.052 110.795 56.584C111.095 56.104 111.245 55.51 111.245 54.802V54.622H107.087V52.948H113.261V59.5H111.803L111.605 58.024C111.269 58.42 110.885 58.744 110.453 58.996C110.021 59.236 109.547 59.416 109.031 59.536C108.527 59.656 107.969 59.716 107.357 59.716ZM118.785 59.716C117.873 59.716 117.135 59.476 116.571 58.996C116.007 58.504 115.725 57.67 115.725 56.494V50.032H117.597V56.206C117.597 56.566 117.639 56.866 117.723 57.106C117.819 57.346 117.951 57.538 118.119 57.682C118.287 57.826 118.485 57.928 118.713 57.988C118.941 58.048 119.193 58.078 119.469 58.078C119.901 58.078 120.291 57.976 120.639 57.772C120.999 57.556 121.287 57.262 121.503 56.89C121.719 56.506 121.827 56.068 121.827 55.576V50.032H123.699V59.5H122.169L122.007 58.15H121.881C121.653 58.498 121.383 58.786 121.071 59.014C120.759 59.242 120.411 59.416 120.027 59.536C119.655 59.656 119.241 59.716 118.785 59.716ZM130.04 59.716C129.068 59.716 128.252 59.542 127.592 59.194C126.944 58.834 126.452 58.288 126.116 57.556C125.78 56.824 125.612 55.894 125.612 54.766C125.612 53.626 125.78 52.696 126.116 51.976C126.452 51.244 126.95 50.704 127.61 50.356C128.27 49.996 129.092 49.816 130.076 49.816C130.976 49.816 131.726 49.99 132.326 50.338C132.938 50.674 133.4 51.19 133.712 51.886C134.024 52.582 134.18 53.458 134.18 54.514V55.234H127.538C127.562 55.906 127.664 56.47 127.844 56.926C128.024 57.37 128.294 57.7 128.654 57.916C129.026 58.12 129.494 58.222 130.058 58.222C130.406 58.222 130.718 58.18 130.994 58.096C131.27 58 131.504 57.868 131.696 57.7C131.888 57.52 132.038 57.31 132.146 57.07C132.254 56.818 132.308 56.536 132.308 56.224H134.144C134.144 56.788 134.048 57.286 133.856 57.718C133.664 58.15 133.382 58.516 133.01 58.816C132.65 59.104 132.218 59.326 131.714 59.482C131.21 59.638 130.652 59.716 130.04 59.716ZM127.574 53.866H132.218C132.218 53.398 132.164 53.008 132.056 52.696C131.96 52.372 131.816 52.108 131.624 51.904C131.432 51.7 131.204 51.556 130.94 51.472C130.676 51.376 130.376 51.328 130.04 51.328C129.536 51.328 129.104 51.418 128.744 51.598C128.396 51.778 128.126 52.06 127.934 52.444C127.742 52.816 127.622 53.29 127.574 53.866ZM139.575 59.716C138.915 59.716 138.333 59.644 137.829 59.5C137.325 59.356 136.905 59.158 136.569 58.906C136.233 58.654 135.975 58.354 135.795 58.006C135.627 57.646 135.543 57.25 135.543 56.818C135.543 56.758 135.543 56.704 135.543 56.656C135.555 56.608 135.561 56.566 135.561 56.53H137.415C137.415 56.566 137.415 56.602 137.415 56.638C137.415 56.662 137.415 56.692 137.415 56.728C137.415 57.1 137.517 57.4 137.721 57.628C137.925 57.844 138.195 58 138.531 58.096C138.879 58.18 139.257 58.222 139.665 58.222C140.025 58.222 140.355 58.18 140.655 58.096C140.967 58 141.219 57.862 141.411 57.682C141.615 57.502 141.717 57.274 141.717 56.998C141.717 56.638 141.591 56.362 141.339 56.17C141.087 55.978 140.757 55.828 140.349 55.72C139.941 55.6 139.515 55.474 139.071 55.342C138.675 55.234 138.279 55.12 137.883 55C137.499 54.868 137.151 54.7 136.839 54.496C136.527 54.292 136.275 54.034 136.083 53.722C135.891 53.41 135.795 53.02 135.795 52.552C135.795 52.108 135.891 51.718 136.083 51.382C136.275 51.046 136.539 50.764 136.875 50.536C137.223 50.308 137.631 50.134 138.099 50.014C138.579 49.894 139.101 49.834 139.665 49.834C140.253 49.834 140.775 49.9 141.231 50.032C141.687 50.152 142.071 50.326 142.383 50.554C142.707 50.782 142.953 51.058 143.121 51.382C143.289 51.694 143.373 52.03 143.373 52.39C143.373 52.462 143.367 52.54 143.355 52.624C143.355 52.696 143.355 52.744 143.355 52.768H141.519V52.606C141.519 52.366 141.453 52.15 141.321 51.958C141.189 51.766 140.979 51.61 140.691 51.49C140.415 51.37 140.043 51.31 139.575 51.31C139.263 51.31 138.987 51.34 138.747 51.4C138.507 51.448 138.309 51.52 138.153 51.616C137.997 51.712 137.877 51.826 137.793 51.958C137.721 52.09 137.685 52.24 137.685 52.408C137.685 52.684 137.781 52.9 137.973 53.056C138.177 53.2 138.441 53.326 138.765 53.434C139.089 53.53 139.437 53.638 139.809 53.758C140.241 53.878 140.679 54.004 141.123 54.136C141.567 54.256 141.975 54.412 142.347 54.604C142.731 54.796 143.037 55.06 143.265 55.396C143.505 55.732 143.625 56.182 143.625 56.746C143.625 57.262 143.523 57.712 143.319 58.096C143.115 58.48 142.827 58.792 142.455 59.032C142.095 59.26 141.669 59.428 141.177 59.536C140.685 59.656 140.151 59.716 139.575 59.716ZM147.88 59.716C147.34 59.716 146.914 59.614 146.602 59.41C146.302 59.194 146.086 58.924 145.954 58.6C145.834 58.264 145.774 57.91 145.774 57.538V51.58H144.586V50.032H145.81L146.152 47.386H147.646V50.032H149.356V51.58H147.646V57.322C147.646 57.598 147.706 57.808 147.826 57.952C147.946 58.096 148.144 58.168 148.42 58.168H149.356V59.428C149.236 59.476 149.086 59.518 148.906 59.554C148.738 59.602 148.564 59.638 148.384 59.662C148.204 59.698 148.036 59.716 147.88 59.716ZM154.95 59.5V47.152H161.106C161.982 47.152 162.708 47.314 163.284 47.638C163.86 47.962 164.292 48.412 164.58 48.988C164.88 49.552 165.03 50.224 165.03 51.004C165.03 51.784 164.874 52.474 164.562 53.074C164.25 53.662 163.794 54.118 163.194 54.442C162.606 54.766 161.886 54.928 161.034 54.928H156.966V59.5H154.95ZM156.966 53.2H160.944C161.58 53.2 162.078 53.008 162.438 52.624C162.81 52.24 162.996 51.706 162.996 51.022C162.996 50.566 162.918 50.182 162.762 49.87C162.606 49.546 162.378 49.3 162.078 49.132C161.778 48.964 161.4 48.88 160.944 48.88H156.966V53.2ZM170.56 59.716C169.576 59.716 168.742 59.542 168.058 59.194C167.386 58.834 166.876 58.288 166.528 57.556C166.192 56.824 166.024 55.894 166.024 54.766C166.024 53.626 166.192 52.696 166.528 51.976C166.876 51.244 167.386 50.704 168.058 50.356C168.742 49.996 169.576 49.816 170.56 49.816C171.568 49.816 172.408 49.996 173.08 50.356C173.752 50.704 174.256 51.244 174.592 51.976C174.94 52.696 175.114 53.626 175.114 54.766C175.114 55.894 174.94 56.824 174.592 57.556C174.256 58.288 173.752 58.834 173.08 59.194C172.408 59.542 171.568 59.716 170.56 59.716ZM170.56 58.168C171.16 58.168 171.652 58.054 172.036 57.826C172.42 57.586 172.702 57.226 172.882 56.746C173.074 56.266 173.17 55.66 173.17 54.928V54.604C173.17 53.872 173.074 53.266 172.882 52.786C172.702 52.306 172.42 51.952 172.036 51.724C171.652 51.484 171.16 51.364 170.56 51.364C169.972 51.364 169.486 51.484 169.102 51.724C168.718 51.952 168.43 52.306 168.238 52.786C168.058 53.266 167.968 53.872 167.968 54.604V54.928C167.968 55.66 168.058 56.266 168.238 56.746C168.43 57.226 168.718 57.586 169.102 57.826C169.486 58.054 169.972 58.168 170.56 58.168ZM180.514 59.716C179.854 59.716 179.272 59.644 178.768 59.5C178.264 59.356 177.844 59.158 177.508 58.906C177.172 58.654 176.914 58.354 176.734 58.006C176.566 57.646 176.482 57.25 176.482 56.818C176.482 56.758 176.482 56.704 176.482 56.656C176.494 56.608 176.5 56.566 176.5 56.53H178.354C178.354 56.566 178.354 56.602 178.354 56.638C178.354 56.662 178.354 56.692 178.354 56.728C178.354 57.1 178.456 57.4 178.66 57.628C178.864 57.844 179.134 58 179.47 58.096C179.818 58.18 180.196 58.222 180.604 58.222C180.964 58.222 181.294 58.18 181.594 58.096C181.906 58 182.158 57.862 182.35 57.682C182.554 57.502 182.656 57.274 182.656 56.998C182.656 56.638 182.53 56.362 182.278 56.17C182.026 55.978 181.696 55.828 181.288 55.72C180.88 55.6 180.454 55.474 180.01 55.342C179.614 55.234 179.218 55.12 178.822 55C178.438 54.868 178.09 54.7 177.778 54.496C177.466 54.292 177.214 54.034 177.022 53.722C176.83 53.41 176.734 53.02 176.734 52.552C176.734 52.108 176.83 51.718 177.022 51.382C177.214 51.046 177.478 50.764 177.814 50.536C178.162 50.308 178.57 50.134 179.038 50.014C179.518 49.894 180.04 49.834 180.604 49.834C181.192 49.834 181.714 49.9 182.17 50.032C182.626 50.152 183.01 50.326 183.322 50.554C183.646 50.782 183.892 51.058 184.06 51.382C184.228 51.694 184.312 52.03 184.312 52.39C184.312 52.462 184.306 52.54 184.294 52.624C184.294 52.696 184.294 52.744 184.294 52.768H182.458V52.606C182.458 52.366 182.392 52.15 182.26 51.958C182.128 51.766 181.918 51.61 181.63 51.49C181.354 51.37 180.982 51.31 180.514 51.31C180.202 51.31 179.926 51.34 179.686 51.4C179.446 51.448 179.248 51.52 179.092 51.616C178.936 51.712 178.816 51.826 178.732 51.958C178.66 52.09 178.624 52.24 178.624 52.408C178.624 52.684 178.72 52.9 178.912 53.056C179.116 53.2 179.38 53.326 179.704 53.434C180.028 53.53 180.376 53.638 180.748 53.758C181.18 53.878 181.618 54.004 182.062 54.136C182.506 54.256 182.914 54.412 183.286 54.604C183.67 54.796 183.976 55.06 184.204 55.396C184.444 55.732 184.564 56.182 184.564 56.746C184.564 57.262 184.462 57.712 184.258 58.096C184.054 58.48 183.766 58.792 183.394 59.032C183.034 59.26 182.608 59.428 182.116 59.536C181.624 59.656 181.09 59.716 180.514 59.716ZM188.82 59.716C188.28 59.716 187.854 59.614 187.542 59.41C187.242 59.194 187.026 58.924 186.894 58.6C186.774 58.264 186.714 57.91 186.714 57.538V51.58H185.526V50.032H186.75L187.092 47.386H188.586V50.032H190.296V51.58H188.586V57.322C188.586 57.598 188.646 57.808 188.766 57.952C188.886 58.096 189.084 58.168 189.36 58.168H190.296V59.428C190.176 59.476 190.026 59.518 189.846 59.554C189.678 59.602 189.504 59.638 189.324 59.662C189.144 59.698 188.976 59.716 188.82 59.716ZM195.438 59.716C194.778 59.716 194.196 59.644 193.692 59.5C193.188 59.356 192.768 59.158 192.432 58.906C192.096 58.654 191.838 58.354 191.658 58.006C191.49 57.646 191.406 57.25 191.406 56.818C191.406 56.758 191.406 56.704 191.406 56.656C191.418 56.608 191.424 56.566 191.424 56.53H193.278C193.278 56.566 193.278 56.602 193.278 56.638C193.278 56.662 193.278 56.692 193.278 56.728C193.278 57.1 193.38 57.4 193.584 57.628C193.788 57.844 194.058 58 194.394 58.096C194.742 58.18 195.12 58.222 195.528 58.222C195.888 58.222 196.218 58.18 196.518 58.096C196.83 58 197.082 57.862 197.274 57.682C197.478 57.502 197.58 57.274 197.58 56.998C197.58 56.638 197.454 56.362 197.202 56.17C196.95 55.978 196.62 55.828 196.212 55.72C195.804 55.6 195.378 55.474 194.934 55.342C194.538 55.234 194.142 55.12 193.746 55C193.362 54.868 193.014 54.7 192.702 54.496C192.39 54.292 192.138 54.034 191.946 53.722C191.754 53.41 191.658 53.02 191.658 52.552C191.658 52.108 191.754 51.718 191.946 51.382C192.138 51.046 192.402 50.764 192.738 50.536C193.086 50.308 193.494 50.134 193.962 50.014C194.442 49.894 194.964 49.834 195.528 49.834C196.116 49.834 196.638 49.9 197.094 50.032C197.55 50.152 197.934 50.326 198.246 50.554C198.57 50.782 198.816 51.058 198.984 51.382C199.152 51.694 199.236 52.03 199.236 52.39C199.236 52.462 199.23 52.54 199.218 52.624C199.218 52.696 199.218 52.744 199.218 52.768H197.382V52.606C197.382 52.366 197.316 52.15 197.184 51.958C197.052 51.766 196.842 51.61 196.554 51.49C196.278 51.37 195.906 51.31 195.438 51.31C195.126 51.31 194.85 51.34 194.61 51.4C194.37 51.448 194.172 51.52 194.016 51.616C193.86 51.712 193.74 51.826 193.656 51.958C193.584 52.09 193.548 52.24 193.548 52.408C193.548 52.684 193.644 52.9 193.836 53.056C194.04 53.2 194.304 53.326 194.628 53.434C194.952 53.53 195.3 53.638 195.672 53.758C196.104 53.878 196.542 54.004 196.986 54.136C197.43 54.256 197.838 54.412 198.21 54.604C198.594 54.796 198.9 55.06 199.128 55.396C199.368 55.732 199.488 56.182 199.488 56.746C199.488 57.262 199.386 57.712 199.182 58.096C198.978 58.48 198.69 58.792 198.318 59.032C197.958 59.26 197.532 59.428 197.04 59.536C196.548 59.656 196.014 59.716 195.438 59.716ZM209.559 59.716C208.623 59.716 207.795 59.578 207.075 59.302C206.367 59.014 205.809 58.606 205.401 58.078C204.993 57.55 204.789 56.92 204.789 56.188C204.789 55.348 205.005 54.682 205.437 54.19C205.881 53.698 206.433 53.356 207.093 53.164V53.092C206.517 52.828 206.037 52.486 205.653 52.066C205.269 51.646 205.077 51.064 205.077 50.32C205.077 49.588 205.269 48.97 205.653 48.466C206.049 47.962 206.595 47.584 207.291 47.332C207.999 47.068 208.821 46.936 209.757 46.936C210.657 46.936 211.449 47.074 212.133 47.35C212.829 47.626 213.369 48.022 213.753 48.538C214.149 49.042 214.347 49.636 214.347 50.32V50.698H212.475V50.464C212.463 50.008 212.343 49.636 212.115 49.348C211.887 49.06 211.569 48.85 211.161 48.718C210.753 48.574 210.273 48.502 209.721 48.502C209.337 48.502 208.977 48.544 208.641 48.628C208.305 48.7 208.011 48.82 207.759 48.988C207.519 49.144 207.333 49.348 207.201 49.6C207.069 49.852 207.003 50.146 207.003 50.482C207.003 50.926 207.111 51.298 207.327 51.598C207.543 51.886 207.831 52.102 208.191 52.246C208.551 52.39 208.935 52.462 209.343 52.462H210.513V53.992H209.397C208.941 53.992 208.509 54.052 208.101 54.172C207.693 54.28 207.363 54.484 207.111 54.784C206.859 55.072 206.733 55.486 206.733 56.026C206.733 56.53 206.853 56.938 207.093 57.25C207.333 57.562 207.669 57.79 208.101 57.934C208.545 58.078 209.061 58.15 209.649 58.15C210.285 58.15 210.807 58.072 211.215 57.916C211.635 57.76 211.947 57.52 212.151 57.196C212.367 56.872 212.475 56.476 212.475 56.008V52.462H215.931V54.01H214.347V55.954C214.347 56.734 214.167 57.406 213.807 57.97C213.447 58.534 212.913 58.966 212.205 59.266C211.497 59.566 210.615 59.716 209.559 59.716ZM221.8 59.5V47.152H223.816V57.754H229.972V59.5H221.8ZM231.479 48.394V46.486H233.351V48.394H231.479ZM231.479 59.5V50.032H233.351V59.5H231.479ZM235.769 59.5V50.032H237.317L237.479 51.382H237.605C237.833 51.034 238.103 50.746 238.415 50.518C238.727 50.29 239.069 50.116 239.441 49.996C239.825 49.876 240.245 49.816 240.701 49.816C241.301 49.816 241.829 49.924 242.285 50.14C242.741 50.344 243.095 50.68 243.347 51.148C243.611 51.616 243.743 52.246 243.743 53.038V59.5H241.871V53.326C241.871 52.966 241.823 52.666 241.727 52.426C241.643 52.186 241.517 51.994 241.349 51.85C241.181 51.706 240.983 51.604 240.755 51.544C240.527 51.484 240.275 51.454 239.999 51.454C239.567 51.454 239.171 51.562 238.811 51.778C238.463 51.982 238.181 52.27 237.965 52.642C237.749 53.014 237.641 53.452 237.641 53.956V59.5H235.769ZM246.087 59.5V46.486H247.959V54.352L251.685 50.032H253.899L250.695 53.704L254.079 59.5H251.919L249.489 55.072L247.959 56.584V59.5H246.087ZM258.96 59.5V47.152H260.976V59.5H258.96ZM263.647 59.5V50.032H265.195L265.357 51.382H265.483C265.711 51.034 265.981 50.746 266.293 50.518C266.605 50.29 266.947 50.116 267.319 49.996C267.703 49.876 268.123 49.816 268.579 49.816C269.179 49.816 269.707 49.924 270.163 50.14C270.619 50.344 270.973 50.68 271.225 51.148C271.489 51.616 271.621 52.246 271.621 53.038V59.5H269.749V53.326C269.749 52.966 269.701 52.666 269.605 52.426C269.521 52.186 269.395 51.994 269.227 51.85C269.059 51.706 268.861 51.604 268.633 51.544C268.405 51.484 268.153 51.454 267.877 51.454C267.445 51.454 267.049 51.562 266.689 51.778C266.341 51.982 266.059 52.27 265.843 52.642C265.627 53.014 265.519 53.452 265.519 53.956V59.5H263.647ZM277.458 59.716C276.798 59.716 276.216 59.644 275.712 59.5C275.208 59.356 274.788 59.158 274.452 58.906C274.116 58.654 273.858 58.354 273.678 58.006C273.51 57.646 273.426 57.25 273.426 56.818C273.426 56.758 273.426 56.704 273.426 56.656C273.438 56.608 273.444 56.566 273.444 56.53H275.298C275.298 56.566 275.298 56.602 275.298 56.638C275.298 56.662 275.298 56.692 275.298 56.728C275.298 57.1 275.4 57.4 275.604 57.628C275.808 57.844 276.078 58 276.414 58.096C276.762 58.18 277.14 58.222 277.548 58.222C277.908 58.222 278.238 58.18 278.538 58.096C278.85 58 279.102 57.862 279.294 57.682C279.498 57.502 279.6 57.274 279.6 56.998C279.6 56.638 279.474 56.362 279.222 56.17C278.97 55.978 278.64 55.828 278.232 55.72C277.824 55.6 277.398 55.474 276.954 55.342C276.558 55.234 276.162 55.12 275.766 55C275.382 54.868 275.034 54.7 274.722 54.496C274.41 54.292 274.158 54.034 273.966 53.722C273.774 53.41 273.678 53.02 273.678 52.552C273.678 52.108 273.774 51.718 273.966 51.382C274.158 51.046 274.422 50.764 274.758 50.536C275.106 50.308 275.514 50.134 275.982 50.014C276.462 49.894 276.984 49.834 277.548 49.834C278.136 49.834 278.658 49.9 279.114 50.032C279.57 50.152 279.954 50.326 280.266 50.554C280.59 50.782 280.836 51.058 281.004 51.382C281.172 51.694 281.256 52.03 281.256 52.39C281.256 52.462 281.25 52.54 281.238 52.624C281.238 52.696 281.238 52.744 281.238 52.768H279.402V52.606C279.402 52.366 279.336 52.15 279.204 51.958C279.072 51.766 278.862 51.61 278.574 51.49C278.298 51.37 277.926 51.31 277.458 51.31C277.146 51.31 276.87 51.34 276.63 51.4C276.39 51.448 276.192 51.52 276.036 51.616C275.88 51.712 275.76 51.826 275.676 51.958C275.604 52.09 275.568 52.24 275.568 52.408C275.568 52.684 275.664 52.9 275.856 53.056C276.06 53.2 276.324 53.326 276.648 53.434C276.972 53.53 277.32 53.638 277.692 53.758C278.124 53.878 278.562 54.004 279.006 54.136C279.45 54.256 279.858 54.412 280.23 54.604C280.614 54.796 280.92 55.06 281.148 55.396C281.388 55.732 281.508 56.182 281.508 56.746C281.508 57.262 281.406 57.712 281.202 58.096C280.998 58.48 280.71 58.792 280.338 59.032C279.978 59.26 279.552 59.428 279.06 59.536C278.568 59.656 278.034 59.716 277.458 59.716ZM287.329 59.716C286.357 59.716 285.541 59.542 284.881 59.194C284.233 58.834 283.741 58.288 283.405 57.556C283.069 56.824 282.901 55.894 282.901 54.766C282.901 53.626 283.069 52.696 283.405 51.976C283.741 51.244 284.239 50.704 284.899 50.356C285.559 49.996 286.381 49.816 287.365 49.816C288.265 49.816 289.015 49.99 289.615 50.338C290.227 50.674 290.689 51.19 291.001 51.886C291.313 52.582 291.469 53.458 291.469 54.514V55.234H284.827C284.851 55.906 284.953 56.47 285.133 56.926C285.313 57.37 285.583 57.7 285.943 57.916C286.315 58.12 286.783 58.222 287.347 58.222C287.695 58.222 288.007 58.18 288.283 58.096C288.559 58 288.793 57.868 288.985 57.7C289.177 57.52 289.327 57.31 289.435 57.07C289.543 56.818 289.597 56.536 289.597 56.224H291.433C291.433 56.788 291.337 57.286 291.145 57.718C290.953 58.15 290.671 58.516 290.299 58.816C289.939 59.104 289.507 59.326 289.003 59.482C288.499 59.638 287.941 59.716 287.329 59.716ZM284.863 53.866H289.507C289.507 53.398 289.453 53.008 289.345 52.696C289.249 52.372 289.105 52.108 288.913 51.904C288.721 51.7 288.493 51.556 288.229 51.472C287.965 51.376 287.665 51.328 287.329 51.328C286.825 51.328 286.393 51.418 286.033 51.598C285.685 51.778 285.415 52.06 285.223 52.444C285.031 52.816 284.911 53.29 284.863 53.866ZM293.372 59.5V50.032H294.92L295.082 51.562H295.19C295.298 51.262 295.436 50.98 295.604 50.716C295.784 50.452 296.012 50.236 296.288 50.068C296.576 49.9 296.924 49.816 297.332 49.816C297.524 49.816 297.692 49.834 297.836 49.87C297.992 49.906 298.112 49.936 298.196 49.96V51.724H297.566C297.182 51.724 296.84 51.784 296.54 51.904C296.252 52.024 296.006 52.204 295.802 52.444C295.61 52.672 295.466 52.954 295.37 53.29C295.286 53.626 295.244 54.004 295.244 54.424V59.5H293.372ZM301.953 59.716C301.413 59.716 300.987 59.614 300.675 59.41C300.375 59.194 300.159 58.924 300.027 58.6C299.907 58.264 299.847 57.91 299.847 57.538V51.58H298.659V50.032H299.883L300.225 47.386H301.719V50.032H303.429V51.58H301.719V57.322C301.719 57.598 301.779 57.808 301.899 57.952C302.019 58.096 302.217 58.168 302.493 58.168H303.429V59.428C303.309 59.476 303.159 59.518 302.979 59.554C302.811 59.602 302.637 59.638 302.457 59.662C302.277 59.698 302.109 59.716 301.953 59.716ZM305.079 48.394V46.486H306.951V48.394H305.079ZM305.079 59.5V50.032H306.951V59.5H305.079ZM313.4 59.716C312.416 59.716 311.582 59.542 310.898 59.194C310.226 58.834 309.716 58.288 309.368 57.556C309.032 56.824 308.864 55.894 308.864 54.766C308.864 53.626 309.032 52.696 309.368 51.976C309.716 51.244 310.226 50.704 310.898 50.356C311.582 49.996 312.416 49.816 313.4 49.816C314.408 49.816 315.248 49.996 315.92 50.356C316.592 50.704 317.096 51.244 317.432 51.976C317.78 52.696 317.954 53.626 317.954 54.766C317.954 55.894 317.78 56.824 317.432 57.556C317.096 58.288 316.592 58.834 315.92 59.194C315.248 59.542 314.408 59.716 313.4 59.716ZM313.4 58.168C314 58.168 314.492 58.054 314.876 57.826C315.26 57.586 315.542 57.226 315.722 56.746C315.914 56.266 316.01 55.66 316.01 54.928V54.604C316.01 53.872 315.914 53.266 315.722 52.786C315.542 52.306 315.26 51.952 314.876 51.724C314.492 51.484 314 51.364 313.4 51.364C312.812 51.364 312.326 51.484 311.942 51.724C311.558 51.952 311.27 52.306 311.078 52.786C310.898 53.266 310.808 53.872 310.808 54.604V54.928C310.808 55.66 310.898 56.266 311.078 56.746C311.27 57.226 311.558 57.586 311.942 57.826C312.326 58.054 312.812 58.168 313.4 58.168ZM319.862 59.5V50.032H321.41L321.572 51.382H321.698C321.926 51.034 322.196 50.746 322.508 50.518C322.82 50.29 323.162 50.116 323.534 49.996C323.918 49.876 324.338 49.816 324.794 49.816C325.394 49.816 325.922 49.924 326.378 50.14C326.834 50.344 327.188 50.68 327.44 51.148C327.704 51.616 327.836 52.246 327.836 53.038V59.5H325.964V53.326C325.964 52.966 325.916 52.666 325.82 52.426C325.736 52.186 325.61 51.994 325.442 51.85C325.274 51.706 325.076 51.604 324.848 51.544C324.62 51.484 324.368 51.454 324.092 51.454C323.66 51.454 323.264 51.562 322.904 51.778C322.556 51.982 322.274 52.27 322.058 52.642C321.842 53.014 321.734 53.452 321.734 53.956V59.5H319.862ZM333.673 59.716C333.013 59.716 332.431 59.644 331.927 59.5C331.423 59.356 331.003 59.158 330.667 58.906C330.331 58.654 330.073 58.354 329.893 58.006C329.725 57.646 329.641 57.25 329.641 56.818C329.641 56.758 329.641 56.704 329.641 56.656C329.653 56.608 329.659 56.566 329.659 56.53H331.513C331.513 56.566 331.513 56.602 331.513 56.638C331.513 56.662 331.513 56.692 331.513 56.728C331.513 57.1 331.615 57.4 331.819 57.628C332.023 57.844 332.293 58 332.629 58.096C332.977 58.18 333.355 58.222 333.763 58.222C334.123 58.222 334.453 58.18 334.753 58.096C335.065 58 335.317 57.862 335.509 57.682C335.713 57.502 335.815 57.274 335.815 56.998C335.815 56.638 335.689 56.362 335.437 56.17C335.185 55.978 334.855 55.828 334.447 55.72C334.039 55.6 333.613 55.474 333.169 55.342C332.773 55.234 332.377 55.12 331.981 55C331.597 54.868 331.249 54.7 330.937 54.496C330.625 54.292 330.373 54.034 330.181 53.722C329.989 53.41 329.893 53.02 329.893 52.552C329.893 52.108 329.989 51.718 330.181 51.382C330.373 51.046 330.637 50.764 330.973 50.536C331.321 50.308 331.729 50.134 332.197 50.014C332.677 49.894 333.199 49.834 333.763 49.834C334.351 49.834 334.873 49.9 335.329 50.032C335.785 50.152 336.169 50.326 336.481 50.554C336.805 50.782 337.051 51.058 337.219 51.382C337.387 51.694 337.471 52.03 337.471 52.39C337.471 52.462 337.465 52.54 337.453 52.624C337.453 52.696 337.453 52.744 337.453 52.768H335.617V52.606C335.617 52.366 335.551 52.15 335.419 51.958C335.287 51.766 335.077 51.61 334.789 51.49C334.513 51.37 334.141 51.31 333.673 51.31C333.361 51.31 333.085 51.34 332.845 51.4C332.605 51.448 332.407 51.52 332.251 51.616C332.095 51.712 331.975 51.826 331.891 51.958C331.819 52.09 331.783 52.24 331.783 52.408C331.783 52.684 331.879 52.9 332.071 53.056C332.275 53.2 332.539 53.326 332.863 53.434C333.187 53.53 333.535 53.638 333.907 53.758C334.339 53.878 334.777 54.004 335.221 54.136C335.665 54.256 336.073 54.412 336.445 54.604C336.829 54.796 337.135 55.06 337.363 55.396C337.603 55.732 337.723 56.182 337.723 56.746C337.723 57.262 337.621 57.712 337.417 58.096C337.213 58.48 336.925 58.792 336.553 59.032C336.193 59.26 335.767 59.428 335.275 59.536C334.783 59.656 334.249 59.716 333.673 59.716ZM340.358 56.17L339.854 47.152H342.05L341.546 56.17H340.358ZM339.944 59.5V57.412H341.96V59.5H339.944Z" fill="white"/>
<defs>
<linearGradient id="paint0_linear_17398_970" x1="0" y1="11.6944" x2="418" y2="11.6944" gradientUnits="userSpaceOnUse">
<stop stop-color="#00DAF4"/>
<stop offset="0.35" stop-color="#FFC239"/>
<stop offset="0.7" stop-color="#F99834"/>
<stop offset="1" stop-color="#F2652D"/>
</linearGradient>
</defs>
</svg>
