<svg id="blocked" xmlns="http://www.w3.org/2000/svg" width="14" height="14" viewBox="0 0 14 14">
  <path id="Path_6574" data-name="Path 6574" d="M7.367,4.131A.447.447,0,0,1,7.683,4h4.573a.447.447,0,0,1,.316.131l3.236,3.236a.447.447,0,0,1,.131.316v4.573a.447.447,0,0,1-.131.316l-3.236,3.236a.447.447,0,0,1-.316.131H7.683a.447.447,0,0,1-.316-.131L4.131,12.573A.447.447,0,0,1,4,12.256V7.683a.447.447,0,0,1,.131-.316L7.364,4.131Zm.5.764L4.9,7.868v4.2l2.973,2.973h4.2l2.973-2.973v-4.2L12.071,4.9ZM6.985,9.821a.447.447,0,0,1,.448-.448h5.074a.448.448,0,0,1,0,.9H7.433A.447.447,0,0,1,6.985,9.821Z" transform="translate(-2.97 -2.97)" fill="#e17777" stroke="#e17777" stroke-width="0.3" fill-rule="evenodd"/>
  <path id="Path_6575" data-name="Path 6575" d="M0,0H14V14H0Z" fill="none"/>
</svg>
