<svg xmlns="http://www.w3.org/2000/svg" width="30" height="30" viewBox="0 0 30 30"><defs><style>.a{fill:#fc6527;}</style></defs><path class="a" d="M26.484,2.344H25.078V0H22.734V2.344H7.266V0H4.922V2.344H3.516A3.52,3.52,0,0,0,0,5.859V26.484A3.52,3.52,0,0,0,3.516,30H26.484A3.52,3.52,0,0,0,30,26.484V5.859A3.52,3.52,0,0,0,26.484,2.344Zm1.172,24.141a1.173,1.173,0,0,1-1.172,1.172H3.516a1.173,1.173,0,0,1-1.172-1.172V11.016H27.656Zm0-17.812H2.344V5.859A1.173,1.173,0,0,1,3.516,4.688H4.922V7.031H7.266V4.688H22.734V7.031h2.344V4.688h1.406a1.173,1.173,0,0,1,1.172,1.172Z"/><g transform="translate(4.737 13.421)"><g transform="translate(0 0)"><rect class="a" width="2" height="3" transform="translate(0.264 -0.421)"/></g></g><g transform="translate(9.474 13.421)"><g transform="translate(0 0)"><rect class="a" width="3" height="3" transform="translate(-0.474 -0.421)"/></g></g><g transform="translate(14.211 13.421)"><g transform="translate(0 0)"><rect class="a" width="2" height="3" transform="translate(-0.211 -0.421)"/></g></g><g transform="translate(18.158 13.421)"><g transform="translate(0 0)"><rect class="a" width="3" height="3" transform="translate(-0.158 -0.421)"/></g></g><g transform="translate(22.895 13.421)"><g transform="translate(0 0)"><rect class="a" width="2" height="3" transform="translate(0.105 -0.421)"/></g></g><g transform="translate(4.737 18.158)"><g transform="translate(0 0)"><rect class="a" width="2" height="3" transform="translate(0.264 -0.158)"/></g></g><g transform="translate(9.474 18.158)"><g transform="translate(0 0)"><rect class="a" width="3" height="3" transform="translate(-0.474 -0.158)"/></g></g><g transform="translate(14.211 18.158)"><g transform="translate(0 0)"><rect class="a" width="2" height="3" transform="translate(-0.211 -0.158)"/></g></g><g transform="translate(18.158 18.158)"><g transform="translate(0 0)"><rect class="a" width="3" height="3" transform="translate(-0.158 -0.158)"/></g></g><g transform="translate(4.737 22.895)"><g transform="translate(0 0)"><rect class="a" width="2" height="2" transform="translate(0.264 0.105)"/></g></g><g transform="translate(9.474 22.895)"><g transform="translate(0 0)"><rect class="a" width="3" height="2" transform="translate(-0.474 0.105)"/></g></g><g transform="translate(14.211 22.895)"><g transform="translate(0 0)"><rect class="a" width="2" height="2" transform="translate(-0.211 0.105)"/></g></g><g transform="translate(18.158 22.895)"><g transform="translate(0 0)"><rect class="a" width="3" height="2" transform="translate(-0.158 0.105)"/></g></g><g transform="translate(22.895 18.158)"><g transform="translate(0 0)"><rect class="a" width="2" height="3" transform="translate(0.105 -0.158)"/></g></g></svg>