<svg width="25" height="24" viewBox="0 0 25 24" fill="none" xmlns="http://www.w3.org/2000/svg">
<rect x="0.5" width="24" height="24" rx="12" fill="#FCDFD3"/>
<path d="M16.1137 7.66369H19.7273V9.10912H18.2818V18.5044C18.2818 18.9036 17.9583 19.2271 17.5591 19.2271H7.44109C7.04195 19.2271 6.71838 18.9036 6.71838 18.5044V9.10912H5.27295V7.66369H8.88653V5.49554C8.88653 5.0964 9.2101 4.77283 9.60924 4.77283H15.391C15.7901 4.77283 16.1137 5.0964 16.1137 5.49554V7.66369ZM16.8364 9.10912H8.16381V17.7817H16.8364V9.10912ZM10.332 11.2773H11.7774V15.6136H10.332V11.2773ZM13.2228 11.2773H14.6682V15.6136H13.2228V11.2773ZM10.332 6.21826V7.66369H14.6682V6.21826H10.332Z" fill="#F2652D"/>
</svg>
