<svg width="25" height="24" viewBox="0 0 25 24" fill="none" xmlns="http://www.w3.org/2000/svg">
<rect x="0.5" width="24" height="24" rx="12" fill="#ECF4F8"/>
<path d="M12.501 6.49424C14.2391 4.93406 16.9251 4.98585 18.5992 6.66356C20.2735 8.34127 20.331 11.0141 18.7739 12.7574L12.5001 19.041L6.22656 12.7574C4.66948 11.0141 4.72768 8.33704 6.40117 6.66356C8.07655 4.98818 10.7578 4.93174 12.501 6.49424ZM17.5518 7.7089C16.4425 6.59739 14.6517 6.55231 13.4895 7.59552L12.5016 8.48224L11.5132 7.59622C10.3477 6.55154 8.56009 6.5975 7.4476 7.70999C6.34528 8.81231 6.28994 10.5778 7.3058 11.7439L12.5001 16.9464L17.6947 11.7439C18.7109 10.5773 18.6558 8.81522 17.5518 7.7089Z" fill="#275570"/>
</svg>
