<svg width="25" height="24" viewBox="0 0 25 24" fill="none" xmlns="http://www.w3.org/2000/svg">
<path d="M12.5 22C6.97715 22 2.5 17.5228 2.5 12C2.5 6.47715 6.97715 2 12.5 2C18.0228 2 22.5 6.47715 22.5 12C22.5 17.5228 18.0228 22 12.5 22ZM12.5 20C16.9183 20 20.5 16.4183 20.5 12C20.5 7.58172 16.9183 4 12.5 4C8.08172 4 4.5 7.58172 4.5 12C4.5 16.4183 8.08172 20 12.5 20ZM12.5 10.5858L15.3284 7.75736L16.7426 9.17157L13.9142 12L16.7426 14.8284L15.3284 16.2426L12.5 13.4142L9.67157 16.2426L8.25736 14.8284L11.0858 12L8.25736 9.17157L9.67157 7.75736L12.5 10.5858Z" fill="black" fill-opacity="0.32"/>
</svg>
