<svg width="18" height="18" viewBox="0 0 18 18" fill="none" xmlns="http://www.w3.org/2000/svg">
<path d="M14.4603 13.6645C14.5126 13.7168 14.554 13.7788 14.5823 13.8471C14.6106 13.9154 14.6251 13.9886 14.6251 14.0625C14.6251 14.1364 14.6106 14.2096 14.5823 14.2779C14.554 14.3462 14.5126 14.4082 14.4603 14.4605C14.408 14.5127 14.346 14.5542 14.2777 14.5825C14.2094 14.6108 14.1362 14.6253 14.0623 14.6253C13.9884 14.6253 13.9152 14.6108 13.8469 14.5825C13.7787 14.5542 13.7166 14.5127 13.6644 14.4605L8.99982 9.79524L4.33529 14.4605C4.22975 14.566 4.08659 14.6253 3.93732 14.6253C3.78806 14.6253 3.6449 14.566 3.53936 14.4605C3.43381 14.3549 3.37451 14.2118 3.37451 14.0625C3.37451 13.9132 3.43381 13.7701 3.53936 13.6645L8.20459 9.00001L3.53936 4.33548C3.43381 4.22993 3.37451 4.08677 3.37451 3.93751C3.37451 3.78824 3.43381 3.64509 3.53936 3.53954C3.6449 3.43399 3.78806 3.37469 3.93732 3.37469C4.08659 3.37469 4.22975 3.43399 4.33529 3.53954L8.99982 8.20477L13.6644 3.53954C13.7699 3.43399 13.9131 3.37469 14.0623 3.37469C14.2116 3.37469 14.3547 3.43399 14.4603 3.53954C14.5658 3.64509 14.6251 3.78824 14.6251 3.93751C14.6251 4.08677 14.5658 4.22993 14.4603 4.33548L9.79506 9.00001L14.4603 13.6645Z" fill="#080808"/>
</svg>
