<svg width="204" height="47" viewBox="0 0 204 47" fill="none" xmlns="http://www.w3.org/2000/svg">
<rect x="0.755615" y="0.501221" width="203" height="46" rx="8.73468" fill="white"/>
<path d="M20.5536 27.1532V29.0012H13.7916V18.9492H20.4556V20.7972H15.9196V22.9112H20.0356V24.7452H15.9196V27.1532H20.5536ZM23.9778 24.9272V29.0012H22.0318V21.5252H23.8238V22.5892C24.3698 21.8472 25.1398 21.3852 26.1198 21.3852C27.6178 21.3852 28.6538 22.3652 28.6538 24.1712V29.0012H26.7218V24.8292C26.7218 23.7232 26.2878 23.1072 25.4058 23.1072C24.6358 23.1072 23.9778 23.7232 23.9778 24.9272ZM29.8406 25.2632C29.8406 23.0512 31.1426 21.3852 33.1586 21.3852C34.0546 21.3852 34.8106 21.7772 35.3706 22.4912V18.9492H37.3026V29.0012H35.5246V27.9232C34.9366 28.7072 34.1246 29.1412 33.1586 29.1412C31.1426 29.1412 29.8406 27.4472 29.8406 25.2632ZM31.8426 25.2632C31.8426 26.6632 32.6406 27.4052 33.5926 27.4052C34.5586 27.4052 35.3566 26.6492 35.3566 25.2352C35.3566 23.8212 34.5446 23.1072 33.5926 23.1072C32.6406 23.1072 31.8426 23.8352 31.8426 25.2632ZM45.3536 26.6072C45.3536 28.1752 44.1636 29.1412 42.0356 29.1412C39.9076 29.1412 38.7176 28.1192 38.5636 26.4532H40.4256C40.4396 27.2232 41.0976 27.7132 42.0636 27.7132C42.8196 27.7132 43.3936 27.4752 43.3936 26.9432C43.3936 26.4672 43.0856 26.2712 42.3716 26.1312L41.0276 25.8792C39.6836 25.6412 38.8716 24.8992 38.8716 23.7372C38.8716 22.3512 40.0616 21.3852 41.9236 21.3852C43.7996 21.3852 45.0876 22.3792 45.2276 23.9892H43.3656C43.2956 23.2612 42.7496 22.8132 41.9236 22.8132C41.2096 22.8132 40.7336 23.0792 40.7336 23.5552C40.7336 24.0032 41.0416 24.1852 41.7136 24.3112L43.1556 24.5772C44.6116 24.8572 45.3536 25.5292 45.3536 26.6072ZM54.326 29.2112C51.428 29.2112 49.188 26.9712 49.188 23.9612C49.188 20.9512 51.428 18.7392 54.326 18.7392C57.238 18.7392 59.492 20.9512 59.492 23.9612C59.492 26.9712 57.238 29.2112 54.326 29.2112ZM54.326 27.3072C56.174 27.3072 57.294 25.8092 57.294 23.9612C57.294 22.1132 56.174 20.6432 54.326 20.6432C52.492 20.6432 51.372 22.1132 51.372 23.9612C51.372 25.8092 52.492 27.3072 54.326 27.3072ZM62.7376 24.9272V29.0012H60.7916V21.5252H62.5836V22.5892C63.1296 21.8472 63.8996 21.3852 64.8796 21.3852C66.3776 21.3852 67.4136 22.3652 67.4136 24.1712V29.0012H65.4816V24.8292C65.4816 23.7232 65.0476 23.1072 64.1656 23.1072C63.3956 23.1072 62.7376 23.7232 62.7376 24.9272Z" fill="#848484"/>
<path d="M88.6796 34.7532C84.4236 34.7532 81.3716 32.2612 81.3716 28.7612H86.0756C86.1876 30.1612 87.1676 30.9732 88.7356 30.9732C90.4156 30.9732 91.3676 30.1892 91.3676 28.8172C91.3676 27.4732 90.2196 26.7172 88.1756 26.7172H86.0476V22.9372H87.8956C89.6036 22.9372 90.5276 22.2652 90.5276 21.0052C90.5276 19.7732 89.7716 19.0732 88.4276 19.0732C87.1396 19.0732 86.3556 19.9132 86.3556 21.2852H81.6796C81.6796 17.8692 84.7316 15.2932 88.6796 15.2932C92.9356 15.2932 95.4836 17.5052 95.4836 20.6132C95.4836 22.2372 94.5596 23.5252 92.8516 24.5332C95.0916 25.3172 96.3236 26.7452 96.3236 28.7052C96.3236 32.3172 93.2436 34.7532 88.6796 34.7532ZM105.902 34.5012H101.058V19.7452H97.5578V15.5732H105.902V34.5012ZM116.698 21.4268C116.698 23.426 115.22 24.6692 112.498 24.6692C109.777 24.6692 108.298 23.3924 108.113 21.3092H110.869C110.869 22.0652 111.557 22.5524 112.549 22.5524C113.204 22.5524 113.792 22.4012 113.792 21.9308C113.792 21.5276 113.489 21.3596 112.868 21.242L111.087 20.9228C109.508 20.6372 108.5 19.73 108.5 18.2684C108.5 16.5212 109.978 15.2948 112.347 15.2948C114.716 15.2948 116.362 16.5548 116.53 18.5708H113.775C113.708 17.8484 113.153 17.4116 112.364 17.4116C111.692 17.4116 111.255 17.5964 111.255 17.9996C111.255 18.386 111.541 18.5036 112.112 18.6044L114.027 18.9572C115.774 19.2764 116.698 20.1332 116.698 21.4268ZM124.408 21.6788V24.182C123.77 24.5348 123.165 24.6692 122.359 24.6692C120.326 24.6692 119.133 23.4596 119.133 21.3932V17.966H117.453V15.4628H119.133V12.8084H122.006V15.4628H124.475V17.966H122.006V20.7212C122.006 21.5948 122.375 21.998 123.165 21.998C123.635 21.998 124.089 21.8804 124.408 21.6788ZM140.974 34.5012H133.134V14.3972H140.974C147.33 14.3972 151.334 18.4852 151.334 24.3372C151.334 30.1892 147.19 34.5012 140.974 34.5012ZM138.426 18.9612V29.9372H140.666C144.166 29.9372 145.902 28.1172 145.902 24.3372C145.902 20.7812 144.11 18.9612 140.666 18.9612H138.426ZM168.303 29.9092V34.5012H154.079V14.3972H168.107V18.9892H159.371V21.8732H167.295V26.4652H159.371V29.9092H168.303ZM180.377 34.9212C174.665 34.9212 170.157 30.3292 170.157 24.4212C170.157 18.5412 174.665 13.9772 180.377 13.9772C185.893 13.9772 190.149 17.6452 190.793 22.9652H185.193C184.773 20.4452 182.897 18.7092 180.433 18.7092C177.465 18.7092 175.589 21.0052 175.589 24.4212C175.589 27.8652 177.465 30.1892 180.433 30.1892C182.869 30.1892 184.745 28.4532 185.193 25.9052H190.793C190.121 31.2812 185.893 34.9212 180.377 34.9212Z" fill="#F9202B"/>
</svg>
