<svg width="18" height="19" viewBox="0 0 18 19" fill="none" xmlns="http://www.w3.org/2000/svg">
<rect x="0.5" y="1" width="17" height="17" rx="8.5" fill="white"/>
<rect x="0.5" y="1" width="17" height="17" rx="8.5" stroke="#E6E6E6"/>
<path d="M11.8293 5.96444C12.0245 5.76918 12.3411 5.76918 12.5364 5.96444C12.7316 6.1597 12.7316 6.47628 12.5364 6.67154L9.7079 9.5L12.5364 12.3284C12.7316 12.5236 12.7316 12.8402 12.5364 13.0355C12.3411 13.2307 12.0245 13.2307 11.8293 13.0355L9.0008 10.2071L6.17241 13.0355C6.16935 13.0385 6.16627 13.0416 6.16316 13.0445C5.96728 13.2307 5.65751 13.2277 5.4653 13.0355C5.31885 12.889 5.28224 12.6744 5.35546 12.4938C5.37987 12.4336 5.41648 12.3772 5.4653 12.3284L8.2937 9.5L5.4653 6.67157C5.27003 6.47631 5.27003 6.15972 5.4653 5.96446C5.66056 5.7692 5.97714 5.7692 6.1724 5.96446L9.0008 8.79285L11.8293 5.96444Z" fill="#A1A1A1"/>
</svg>
