<svg width="16" height="17" viewBox="0 0 16 17" fill="none" xmlns="http://www.w3.org/2000/svg">
<path d="M12.0233 11.5766L14.8784 14.4317L13.9356 15.3745L11.0805 12.5194C10.0539 13.3407 8.75194 13.832 7.33594 13.832C4.02394 13.832 1.33594 11.144 1.33594 7.83203C1.33594 4.52003 4.02394 1.83203 7.33594 1.83203C10.6479 1.83203 13.3359 4.52003 13.3359 7.83203C13.3359 9.24803 12.8446 10.55 12.0233 11.5766ZM10.6857 11.0819C11.5009 10.2418 12.0026 9.09576 12.0026 7.83203C12.0026 5.2537 9.91427 3.16536 7.33594 3.16536C4.7576 3.16536 2.66927 5.2537 2.66927 7.83203C2.66927 10.4104 4.7576 12.4987 7.33594 12.4987C8.59967 12.4987 9.74567 11.997 10.5858 11.1818L10.6857 11.0819Z" fill="#A1A1A1"/>
</svg>
