<svg width="16" height="20" viewBox="0 0 16 20" fill="none" xmlns="http://www.w3.org/2000/svg">
<path d="M2 2H0V0H16V2H14V4C14 5.61543 13.1838 6.91468 12.1561 7.97667C11.4532 8.703 10.598 9.372 9.7309 10C10.598 10.628 11.4532 11.297 12.1561 12.0233C13.1838 13.0853 14 14.3846 14 16V18H16V20H0V18H2V16C2 14.3846 2.81616 13.0853 3.8439 12.0233C4.54682 11.297 5.40202 10.628 6.2691 10C5.40202 9.372 4.54682 8.703 3.8439 7.97667C2.81616 6.91468 2 5.61543 2 4V2ZM4 2V4C4 4.88457 4.43384 5.71032 5.2811 6.58583C6.008 7.33699 6.9548 8.0398 8 8.7781C9.0452 8.0398 9.992 7.33699 10.7189 6.58583C11.5662 5.71032 12 4.88457 12 4V2H4ZM8 11.2219C6.9548 11.9602 6.008 12.663 5.2811 13.4142C4.43384 14.2897 4 15.1154 4 16V18H12V16C12 15.1154 11.5662 14.2897 10.7189 13.4142C9.992 12.663 9.0452 11.9602 8 11.2219Z" fill="#275570"/>
</svg>
