<svg width="24" height="25" viewBox="0 0 24 25" fill="none" xmlns="http://www.w3.org/2000/svg">
<path d="M12 22.1719C6.47715 22.1719 2 17.6947 2 12.1719C2 6.64902 6.47715 2.17188 12 2.17188C17.5228 2.17188 22 6.64902 22 12.1719C22 17.6947 17.5228 22.1719 12 22.1719ZM12 20.1719C16.4183 20.1719 20 16.5902 20 12.1719C20 7.75359 16.4183 4.17188 12 4.17188C7.58172 4.17188 4 7.75359 4 12.1719C4 16.5902 7.58172 20.1719 12 20.1719ZM12 10.7577L14.8284 7.92923L16.2426 9.34344L13.4142 12.1719L16.2426 15.0003L14.8284 16.4145L12 13.5861L9.17157 16.4145L7.75736 15.0003L10.5858 12.1719L7.75736 9.34344L9.17157 7.92923L12 10.7577Z" fill="white" fill-opacity="0.7"/>
</svg>
