<svg width="15" height="51" viewBox="0 0 15 51" fill="none" xmlns="http://www.w3.org/2000/svg">
<path fill-rule="evenodd" clip-rule="evenodd" d="M2.45004 0.903749C3.09858 1.05706 4.27312 2.4262 6.87248 6.03708C12.1972 13.4193 14.22 19.4691 14.1253 27.6558C14.0725 32.1545 13.2533 36.7169 11.9586 39.7185C10.7787 42.436 8.93551 45.0631 7.01215 46.7914C6.51492 47.2445 6.11095 47.6367 6.13868 47.6599C6.16269 47.6987 7.22002 47.4922 8.51275 47.1939C10.2885 46.7836 10.9409 46.7096 11.2156 46.8555C11.6519 47.0727 11.6275 47.4571 11.1547 47.8682C10.8693 48.1099 4.21509 49.9422 2.63829 50.2044C1.7561 50.3549 1.19163 50.1882 0.92894 49.7194C0.724775 49.3453 0.732209 49.3139 1.1733 48.6857C3.07854 45.928 3.99135 43.9276 4.30602 41.7713L4.46413 40.6196L4.88534 40.769C5.2179 40.8808 5.34696 41.0898 5.48058 41.692C5.64193 42.3174 5.61377 42.7174 5.34013 43.875C5.15802 44.6453 4.84397 45.6315 4.65991 46.059C4.46162 46.4853 4.33541 46.8787 4.35988 46.9156C4.4387 47.065 6.44089 45.1437 7.37464 44.0115C8.48852 42.679 9.44125 41.1944 10.2195 39.5523C11.0312 37.8392 12.2823 32.5468 12.4258 30.2193C12.7084 25.3017 12.0894 20.2043 10.7271 16.4604C9.56 13.2691 8.08108 10.7033 4.56723 5.72039C2.14278 2.26499 1.79605 1.66011 1.92706 1.10591C1.98188 0.87401 2.10808 0.822913 2.44807 0.903284L2.45004 0.903749Z" fill="white"/>
</svg>
