<svg width="136" height="24" viewBox="0 0 136 24" fill="none" xmlns="http://www.w3.org/2000/svg">
<path d="M12.0806 6.88039C11.9694 6.85142 11.852 6.85609 11.7434 6.89381C11.6348 6.93153 11.5398 7.0006 11.4705 7.0923C11.4011 7.184 11.3605 7.2942 11.3538 7.40898C11.347 7.52375 11.3745 7.63795 11.4326 7.73712C11.4908 7.8363 11.5771 7.916 11.6805 7.96616C11.784 8.01632 11.9 8.03468 12.0139 8.01891C12.1277 8.00315 12.2344 7.95397 12.3203 7.8776C12.4063 7.80123 12.4676 7.70109 12.4967 7.58984C12.5345 7.44064 12.5121 7.28254 12.4342 7.14976C12.3563 7.01698 12.2293 6.92021 12.0806 6.88039Z" fill="#F2652D"/>
<path d="M8.05764 9.68749C8.01931 9.62214 7.96815 9.56522 7.90724 9.52015C7.84634 9.47508 7.77695 9.4428 7.70325 9.42525C7.59199 9.39628 7.47463 9.40095 7.36602 9.43867C7.25742 9.47639 7.16243 9.54546 7.09307 9.63716C7.02372 9.72886 6.9831 9.83906 6.97637 9.95384C6.96964 10.0686 6.99709 10.1828 7.05525 10.282C7.11341 10.3812 7.19967 10.4609 7.30313 10.511C7.40658 10.5612 7.52259 10.5795 7.63647 10.5638C7.75036 10.548 7.85702 10.4988 7.94296 10.4225C8.0289 10.3461 8.09027 10.246 8.1193 10.1347C8.15347 9.98308 8.13157 9.82421 8.05764 9.68749Z" fill="#F2652D"/>
<path d="M7.88764 8.75655C8.09853 8.81525 8.29352 8.92062 8.45819 9.06486L10.6916 7.75166C10.6453 7.54347 10.6453 7.32764 10.6916 7.11945C10.7775 6.78824 10.9914 6.50472 11.2864 6.33126C11.5813 6.15781 11.9331 6.10862 12.2643 6.19452C12.5955 6.28042 12.879 6.49438 13.0525 6.78932C13.2259 7.08426 13.2751 7.43603 13.1892 7.76724C13.1418 7.94689 13.0579 8.11482 12.9426 8.26054L14.2978 10.5732C14.506 10.5269 14.7218 10.5269 14.93 10.5732C15.1445 10.6312 15.3408 10.7426 15.5005 10.8971L18.1981 9.32438L21.559 1.27714C21.5997 1.18006 21.6208 1.07588 21.6211 0.970607C21.6214 0.865331 21.6009 0.761037 21.5607 0.663731C21.5205 0.566425 21.4615 0.478029 21.387 0.403632C21.3125 0.329236 21.224 0.270308 21.1267 0.230243C21.0129 0.184824 20.8905 0.165507 20.7683 0.173716C20.6461 0.181925 20.5273 0.217451 20.4206 0.277676L5.74506 8.91036L6.62594 9.09535C6.78986 8.93504 6.99231 8.81966 7.21377 8.76032C7.43523 8.70098 7.66824 8.69968 7.89035 8.75655" fill="#F2652D"/>
<path d="M15.8576 12.1791C15.815 12.3431 15.7406 12.4971 15.6386 12.6324C15.5365 12.7676 15.4088 12.8814 15.2628 12.9673C15.1167 13.0532 14.9552 13.1095 14.7874 13.133C14.6196 13.1564 14.4489 13.1466 14.2849 13.1041C14.1209 13.0615 13.9668 12.9871 13.8316 12.8851C13.6964 12.783 13.5826 12.6553 13.4967 12.5093C13.4108 12.3632 13.3545 12.2017 13.331 12.0339C13.3076 11.8661 13.3174 11.6953 13.3599 11.5313C13.4179 11.3168 13.5293 11.1205 13.6838 10.9608L12.3584 8.69489C12.1195 8.77442 11.8631 8.78499 11.6185 8.72538C11.4025 8.67098 11.2053 8.55904 11.0479 8.40149L8.8281 9.69707C8.88214 9.90962 8.88214 10.1323 8.8281 10.3449C8.79064 10.5098 8.72105 10.6658 8.62331 10.8039C8.52556 10.942 8.40158 11.0595 8.25843 11.1496C8.11528 11.2398 7.95578 11.3009 7.78903 11.3294C7.62227 11.3579 7.45153 11.3533 7.28655 11.3159C7.12158 11.2784 6.96559 11.2088 6.82751 11.1111C6.68943 11.0133 6.57195 10.8893 6.48178 10.7462C6.39162 10.603 6.33053 10.4435 6.30201 10.2768C6.27348 10.11 6.27808 9.93929 6.31555 9.77432L4.86615 9.46601L0.393958 12.1019C0.302823 12.1545 0.223151 12.2248 0.159641 12.3088C0.0961309 12.3927 0.05007 12.4884 0.0241756 12.5904C-0.00171882 12.6924 -0.00692209 12.7986 0.00887269 12.9026C0.0246675 13.0067 0.0611404 13.1065 0.11614 13.1962C0.17999 13.3023 0.267421 13.3923 0.371652 13.4592C0.475883 13.526 0.594113 13.568 0.717175 13.5818L9.05713 14.5223L11.1252 22.6617C11.1644 22.8242 11.2543 22.9699 11.3818 23.078C11.5094 23.186 11.6679 23.2507 11.8346 23.2627H11.9424C12.0908 23.2544 12.2337 23.2035 12.3539 23.116C12.4741 23.0285 12.5665 22.9081 12.62 22.7694L17.7698 10.4526L15.8894 11.5469C15.9095 11.7581 15.899 11.971 15.8583 12.1791" fill="#F2652D"/>
<path d="M14.7477 11.2581C14.6365 11.2292 14.5191 11.2338 14.4105 11.2716C14.3019 11.3093 14.2069 11.3783 14.1376 11.47C14.0682 11.5617 14.0276 11.6719 14.0209 11.7867C14.0141 11.9015 14.0416 12.0157 14.0997 12.1149C14.1579 12.214 14.2442 12.2937 14.3476 12.3439C14.4511 12.3941 14.5671 12.4124 14.681 12.3967C14.7948 12.3809 14.9015 12.3317 14.9874 12.2553C15.0734 12.179 15.1347 12.0788 15.1638 11.9676C15.1997 11.8185 15.1763 11.6613 15.0988 11.529C15.0212 11.3967 14.8954 11.2996 14.7477 11.2581Z" fill="#F2652D"/>
<path d="M26.947 6.02667H29.3979V14.2257C29.3979 14.8423 29.6601 15.1506 30.1995 15.1506C30.3304 15.1505 30.4605 15.1297 30.585 15.089C30.7228 15.0494 30.8568 14.9977 30.9855 14.9345L31.3094 16.9232C30.9692 17.0773 30.6121 17.191 30.2455 17.262C29.8802 17.3378 29.5086 17.3791 29.1356 17.3854C28.5388 17.4243 27.9509 17.2247 27.5012 16.8304C27.2996 16.6178 27.1446 16.3653 27.0463 16.0892C26.9481 15.813 26.9087 15.5194 26.9307 15.2272V6.02667H26.947Z" fill="white"/>
<path d="M32.1724 8.24644V6.02661H34.6389V8.26271H32.1724V8.24644ZM32.1724 17.2491V9.17138H34.6389V17.2349H32.1724V17.2491Z" fill="white"/>
<path d="M44.0888 17.249H41.6379V12.7165C41.6773 12.3089 41.5738 11.9002 41.3452 11.5605C41.2515 11.4435 41.1314 11.3504 40.9948 11.2888C40.8581 11.2272 40.7088 11.1989 40.5592 11.2061C40.3789 11.2047 40.2004 11.2414 40.0354 11.3138C39.8528 11.3869 39.6814 11.4854 39.5265 11.6066C39.3637 11.7361 39.2185 11.8865 39.0948 12.0538C38.9624 12.2264 38.8583 12.419 38.7865 12.6243V17.249H36.3194V9.16787H38.5392V10.5231C38.8444 10.0388 39.2833 9.65331 39.8029 9.41316C40.3923 9.14357 41.0354 9.01172 41.6833 9.0276C42.1218 9.00846 42.5576 9.10423 42.9477 9.30542C43.2588 9.47783 43.5152 9.73423 43.6876 10.0454C43.8619 10.3499 43.9768 10.6847 44.0264 11.032C44.0823 11.3785 44.1081 11.7292 44.1037 12.0802V17.2442L44.0888 17.249Z" fill="white"/>
<path d="M51.1025 17.2491L48.9904 14.0115L48.1272 14.9032V17.262H45.6607V6.02661H48.1272V12.5316L50.8559 9.18628H53.4613L50.5788 12.6549L53.7079 17.2491H51.1025Z" fill="white"/>
<path d="M58.2094 17.2488V6.33466H62.8652C63.3619 6.32843 63.8531 6.4394 64.299 6.65855C64.7237 6.86845 65.1055 7.15596 65.4245 7.50624C65.7347 7.85865 65.9846 8.25974 66.1644 8.6934C66.3415 9.11811 66.4307 9.57427 66.4267 10.0344C66.4334 10.9807 66.0933 11.8967 65.4706 12.6093C65.1698 12.9622 64.7966 13.2462 64.3762 13.4421C63.9268 13.649 63.4372 13.7542 62.9424 13.7504H60.7226V17.2644H58.2094V17.2488ZM60.7219 11.5299H62.7873C62.9368 11.5294 63.0842 11.4944 63.218 11.4275C63.3518 11.3606 63.4683 11.2637 63.5584 11.1443C63.7948 10.8186 63.9094 10.4203 63.8823 10.0188C63.8872 9.79434 63.8559 9.57055 63.7894 9.3561C63.7336 9.18614 63.6445 9.02904 63.5272 8.89397C63.4237 8.77447 63.2908 8.68407 63.1416 8.63174C63.0047 8.57638 62.8577 8.55007 62.71 8.55449H60.7368V11.5299H60.7219Z" fill="white"/>
<path d="M69.9714 17.4034C69.6201 17.4244 69.2687 17.3661 68.9431 17.2326C68.6176 17.0991 68.3263 16.8939 68.091 16.6323C67.6161 15.9703 67.387 15.1635 67.4432 14.3508V9.17114H69.8941V13.7958C69.8655 14.1929 69.9684 14.5884 70.1868 14.9213C70.2838 15.0483 70.4102 15.1499 70.5552 15.217C70.7002 15.2842 70.8594 15.315 71.0189 15.3069C71.3545 15.3017 71.6832 15.2115 71.9744 15.0446C72.3284 14.8262 72.612 14.5105 72.7916 14.1353V9.17114H75.2425V14.4741C75.2215 14.6548 75.2699 14.8366 75.378 14.983C75.5178 15.0948 75.6922 15.1547 75.8713 15.1524V17.2346C75.609 17.2807 75.3936 17.3119 75.2086 17.3275C75.0236 17.3431 74.8542 17.3431 74.7153 17.3431C73.852 17.3275 73.3601 16.9887 73.2198 16.3104L73.1737 15.8171C72.8333 16.3268 72.3583 16.7323 71.8016 16.9887C71.2334 17.2712 70.6058 17.4135 69.9714 17.4034Z" fill="white"/>
<path d="M82.0882 17.4036C81.529 17.4209 80.9753 17.2877 80.485 17.018C80.0312 16.7598 79.6576 16.381 79.4056 15.9237V17.2647H77.2474V6.02661H79.7139V10.4988C79.9651 10.0501 80.3326 9.67747 80.7777 9.42006C81.2624 9.15044 81.8111 9.0172 82.3654 9.0345C82.8522 9.02828 83.3333 9.13938 83.768 9.35839C84.1913 9.57683 84.5641 9.88153 84.8624 10.2528C85.1814 10.6534 85.4267 11.1074 85.5867 11.5938C85.7611 12.1262 85.8496 12.6829 85.8489 13.2431C85.8536 13.8 85.7598 14.3533 85.5718 14.8775C85.3963 15.3654 85.1295 15.8154 84.7858 16.2036C84.4474 16.5739 84.0388 16.8734 83.5837 17.0844C83.1146 17.299 82.6041 17.408 82.0882 17.4036ZM81.3944 15.3227C81.6645 15.3299 81.9329 15.2773 82.1804 15.1689C82.4144 15.0706 82.6246 14.9234 82.797 14.7372C82.9664 14.5484 83.0973 14.3283 83.1826 14.0894C83.2762 13.8273 83.3221 13.5505 83.3181 13.2722C83.3172 12.9953 83.2756 12.7199 83.1948 12.455C83.1123 12.2091 82.9871 11.9797 82.8248 11.7774C82.6685 11.5855 82.4743 11.428 82.2543 11.3146C82.0292 11.2027 81.7812 11.1447 81.5299 11.1452C81.1392 11.1496 80.7626 11.2913 80.4661 11.5457C80.1402 11.8133 79.8859 12.1577 79.7261 12.5479V14.2419C79.8855 14.5773 80.1366 14.8606 80.4505 15.0591C80.7347 15.2324 81.0615 15.3241 81.3944 15.3227Z" fill="white"/>
<path d="M87.0517 6.02661H89.5182V14.2256C89.5182 14.8422 89.7804 15.1506 90.3198 15.1506C90.4508 15.1504 90.5809 15.1296 90.7054 15.0889C90.8432 15.0494 90.9772 14.9977 91.1058 14.9344L91.4297 16.9232C91.0895 17.0772 90.7325 17.1909 90.3659 17.262C90.0006 17.3378 89.629 17.379 89.256 17.3853C88.6594 17.424 88.0718 17.2244 87.6223 16.8303C87.4206 16.6177 87.2657 16.3652 87.1674 16.0891C87.0691 15.813 87.0297 15.5194 87.0517 15.2271V6.02661Z" fill="white"/>
<path d="M92.2775 8.24644V6.02661H94.744V8.26271H92.2775V8.24644ZM92.2775 17.2491V9.17138H94.744V17.2349H92.2775V17.2491Z" fill="white"/>
<path d="M99.6143 17.4037C99.2636 17.4004 98.9134 17.3746 98.566 17.3264C98.1961 17.2803 97.8417 17.2031 97.4866 17.1231C97.1368 17.0337 96.7921 16.9256 96.4539 16.7992C96.1536 16.6894 95.8646 16.551 95.5907 16.3859L96.5617 14.721C97.0563 15.0087 97.5784 15.2464 98.1202 15.4305C98.5865 15.5908 99.0758 15.6741 99.5689 15.6771C99.8513 15.6914 100.133 15.633 100.386 15.5077C100.473 15.459 100.545 15.3872 100.594 15.3001C100.643 15.2131 100.667 15.1142 100.663 15.0144C100.66 14.9018 100.621 14.793 100.552 14.7042C100.482 14.6155 100.386 14.5513 100.278 14.5211C99.8492 14.3424 99.4054 14.2031 98.9516 14.1051C98.4095 13.9696 97.9494 13.8124 97.5646 13.6735C97.2399 13.5592 96.9335 13.3983 96.6552 13.1957C96.4441 13.0388 96.2747 12.8324 96.1619 12.5947C96.0519 12.3422 95.9994 12.0684 96.0081 11.7931C96.0001 11.4037 96.0846 11.018 96.2547 10.6676C96.4185 10.3321 96.6545 10.0371 96.9459 9.80365C97.2625 9.56231 97.6173 9.37565 97.9955 9.25141C98.423 9.11053 98.8709 9.04183 99.3209 9.04813C99.9052 9.04789 100.487 9.13094 101.047 9.29477C101.645 9.46704 102.223 9.69952 102.774 9.98864L101.803 11.5471C101.376 11.3057 100.927 11.1045 100.462 10.9461C100.093 10.8271 99.7089 10.7647 99.3216 10.7611C99.0608 10.7488 98.8012 10.8017 98.566 10.9149C98.4998 10.9519 98.4415 11.0017 98.3947 11.0614C98.3479 11.1211 98.3134 11.1895 98.2933 11.2627C98.2732 11.3358 98.2679 11.4122 98.2776 11.4875C98.2873 11.5627 98.3119 11.6353 98.3499 11.7009C98.4136 11.7917 98.4981 11.8659 98.5965 11.9171C98.7461 11.9894 98.9005 12.0512 99.0586 12.1021C99.2619 12.1638 99.4903 12.2254 99.783 12.2871C100.294 12.415 100.798 12.5692 101.293 12.7492C101.648 12.8744 101.985 13.0455 102.296 13.2581C102.537 13.4184 102.729 13.6424 102.851 13.9052C102.968 14.1839 103.025 14.4839 103.02 14.7861C103.025 15.1585 102.946 15.5273 102.789 15.8648C102.634 16.1891 102.401 16.4699 102.111 16.682C101.788 16.9233 101.422 17.1012 101.033 17.2065C100.573 17.3474 100.095 17.414 99.6143 17.4037Z" fill="white"/>
<path d="M112.133 17.2491H109.667V12.7173C109.697 12.3082 109.589 11.9008 109.358 11.5613C109.254 11.4399 109.124 11.3436 108.977 11.2795C108.83 11.2154 108.671 11.1853 108.511 11.1913C108.352 11.1953 108.196 11.2267 108.049 11.2841C107.87 11.3549 107.703 11.4537 107.555 11.5769C107.392 11.7064 107.247 11.8568 107.124 12.0241C106.988 12.2003 106.884 12.3986 106.815 12.6102V17.2349H104.348V6.02661H106.815V10.5279C107.101 10.0613 107.505 9.67849 107.986 9.41802C108.485 9.15693 109.042 9.02441 109.605 9.03247C110.058 9.01189 110.509 9.10728 110.916 9.30961C111.231 9.47973 111.497 9.72944 111.687 10.034C111.87 10.3354 111.991 10.6711 112.041 11.0206C112.101 11.372 112.132 11.7278 112.134 12.0844L112.133 17.2491Z" fill="white"/>
<path d="M117.59 17.4037C116.968 17.4136 116.351 17.3036 115.771 17.0798C115.259 16.8742 114.793 16.5706 114.398 16.1861C114.029 15.812 113.74 15.3659 113.551 14.8756C113.353 14.38 113.253 13.8507 113.258 13.3171C113.251 12.7538 113.35 12.1943 113.551 11.6678C113.738 11.1632 114.027 10.7021 114.398 10.3126C114.783 9.91552 115.244 9.60082 115.754 9.38768C116.336 9.15157 116.96 9.0363 117.588 9.04888C118.216 9.03482 118.84 9.15015 119.422 9.38768C119.931 9.59534 120.392 9.90478 120.777 10.297C121.144 10.6772 121.428 11.1285 121.613 11.6231C121.798 12.1318 121.892 12.6693 121.89 13.2107C121.893 13.3496 121.887 13.4885 121.874 13.6268C121.859 13.7623 121.843 13.889 121.828 13.9812H115.865C115.87 14.2166 115.925 14.4483 116.026 14.6609C116.127 14.8736 116.272 15.0622 116.452 15.2144C116.793 15.4874 117.217 15.6344 117.654 15.6305C118.015 15.6275 118.369 15.5376 118.687 15.3682C118.992 15.2273 119.23 14.9727 119.35 14.6588L121.446 15.2449C121.11 15.8937 120.597 16.434 119.966 16.8034C119.248 17.2257 118.423 17.434 117.59 17.4037ZM119.301 12.4572C119.276 11.9954 119.078 11.5599 118.746 11.2375C118.423 10.9403 117.998 10.78 117.559 10.7903C117.12 10.7772 116.693 10.9379 116.372 11.2375C116.053 11.5607 115.861 11.9874 115.83 12.4403H119.298L119.301 12.4572Z" fill="white"/>
<path d="M128.119 11.2834C127.571 11.2872 127.029 11.3862 126.515 11.5761C126.08 11.7246 125.71 12.0188 125.467 12.4089V17.2491H123.001V9.17133H125.267V10.805C125.52 10.3033 125.89 9.86964 126.345 9.54063C126.749 9.24466 127.232 9.07808 127.732 9.06291C127.861 9.05627 127.99 9.06148 128.118 9.0785L128.119 11.2834Z" fill="white"/>
<path d="M132.528 17.4037C132.177 17.4004 131.827 17.3746 131.48 17.3264C131.11 17.2804 130.755 17.2031 130.4 17.1232C130.05 17.0337 129.706 16.9256 129.368 16.7993C129.067 16.6885 128.778 16.5492 128.504 16.3832L129.475 14.7183C129.97 15.006 130.492 15.2437 131.034 15.4278C131.5 15.5882 131.99 15.6715 132.483 15.6744C132.766 15.6887 133.047 15.6303 133.3 15.505C133.388 15.4563 133.46 15.3845 133.508 15.2974C133.557 15.2104 133.581 15.1115 133.578 15.0117C133.575 14.8991 133.535 14.7903 133.466 14.7015C133.397 14.6128 133.301 14.5486 133.192 14.5184C132.764 14.3397 132.32 14.2004 131.866 14.1024C131.324 13.9669 130.864 13.8097 130.479 13.6708C130.154 13.5565 129.848 13.3956 129.569 13.193C129.358 13.0361 129.189 12.8297 129.076 12.592C128.966 12.3395 128.914 12.0657 128.922 11.7904C128.914 11.401 128.999 11.0153 129.169 10.6649C129.334 10.3294 129.571 10.0346 129.863 9.80163C130.179 9.56132 130.532 9.37537 130.909 9.25141C131.337 9.11048 131.785 9.04178 132.235 9.04813C132.819 9.04789 133.401 9.13094 133.962 9.29478C134.559 9.46705 135.138 9.69953 135.688 9.98865L134.748 11.5302C134.32 11.2888 133.871 11.0876 133.407 10.9292C133.038 10.8102 132.654 10.7478 132.266 10.7442C132.006 10.7321 131.746 10.7852 131.511 10.8987C131.445 10.9357 131.386 10.9855 131.34 11.0453C131.293 11.105 131.259 11.1734 131.238 11.2466C131.218 11.3197 131.213 11.3961 131.223 11.4713C131.233 11.5466 131.257 11.6191 131.295 11.6847C131.359 11.7752 131.444 11.8491 131.542 11.9002C131.692 11.9725 131.846 12.0343 132.005 12.0852C132.208 12.1468 132.436 12.2085 132.729 12.2701C133.24 12.398 133.745 12.5523 134.24 12.7323C134.595 12.8575 134.932 13.0286 135.242 13.2412C135.484 13.4016 135.676 13.6259 135.797 13.8889C135.914 14.1676 135.972 14.4676 135.967 14.7698C135.972 15.1425 135.893 15.5116 135.736 15.8493C135.581 16.1735 135.348 16.4543 135.058 16.6664C134.735 16.9074 134.369 17.0851 133.979 17.1902C133.511 17.3422 133.02 17.4144 132.528 17.4037Z" fill="white"/>
</svg>
