<svg width="462" height="413" viewBox="0 0 462 413" fill="none" xmlns="http://www.w3.org/2000/svg">
<g clip-path="url(#clip0_7054_7027)">
<rect width="462" height="413" fill="url(#paint0_linear_7054_7027)"/>
<g filter="url(#filter0_f_7054_7027)">
<rect x="-8.3432" y="354.631" width="198.844" height="139.131" fill="url(#paint1_linear_7054_7027)"/>
</g>
<g filter="url(#filter1_f_7054_7027)">
<rect x="397.551" y="-92.7063" width="198.844" height="139.131" fill="url(#paint2_linear_7054_7027)"/>
</g>
<g opacity="0.28" clip-path="url(#clip1_7054_7027)">
<rect x="-23.8989" y="-4.21643" width="56.6442" height="56.6442" stroke="white" stroke-opacity="0.06" stroke-width="1.13288"/>
<rect x="32.7451" y="-4.21643" width="56.6442" height="56.6442" stroke="white" stroke-opacity="0.06" stroke-width="1.13288"/>
<rect x="89.3892" y="-4.21643" width="56.6442" height="56.6442" stroke="white" stroke-opacity="0.06" stroke-width="1.13288"/>
<rect x="146.034" y="-4.21643" width="56.6442" height="56.6442" stroke="white" stroke-opacity="0.06" stroke-width="1.13288"/>
<rect x="202.678" y="-4.21643" width="56.6442" height="56.6442" stroke="white" stroke-opacity="0.06" stroke-width="1.13288"/>
<rect x="259.322" y="-4.21643" width="56.6442" height="56.6442" stroke="white" stroke-opacity="0.06" stroke-width="1.13288"/>
<rect x="315.966" y="-4.21643" width="56.6442" height="56.6442" stroke="white" stroke-opacity="0.06" stroke-width="1.13288"/>
<rect x="372.611" y="-4.21643" width="56.6442" height="56.6442" stroke="white" stroke-opacity="0.06" stroke-width="1.13288"/>
<rect x="429.255" y="-4.21643" width="56.6442" height="56.6442" stroke="white" stroke-opacity="0.06" stroke-width="1.13288"/>
<rect x="-23.8989" y="52.4274" width="56.6442" height="56.6442" stroke="white" stroke-opacity="0.06" stroke-width="1.13288"/>
<rect x="32.7451" y="52.4274" width="56.6442" height="56.6442" stroke="white" stroke-opacity="0.06" stroke-width="1.13288"/>
<rect x="89.3892" y="52.4274" width="56.6442" height="56.6442" stroke="white" stroke-opacity="0.06" stroke-width="1.13288"/>
<rect x="146.034" y="52.4274" width="56.6442" height="56.6442" stroke="white" stroke-opacity="0.06" stroke-width="1.13288"/>
<rect x="202.678" y="52.4274" width="56.6442" height="56.6442" stroke="white" stroke-opacity="0.06" stroke-width="1.13288"/>
<rect x="259.322" y="52.4274" width="56.6442" height="56.6442" stroke="white" stroke-opacity="0.06" stroke-width="1.13288"/>
<rect x="315.966" y="52.4274" width="56.6442" height="56.6442" fill="white" fill-opacity="0.05" stroke="white" stroke-opacity="0.06" stroke-width="1.13288"/>
<rect x="372.611" y="52.4274" width="56.6442" height="56.6442" stroke="white" stroke-opacity="0.06" stroke-width="1.13288"/>
<rect x="429.255" y="52.4275" width="56.6442" height="56.6442" stroke="white" stroke-opacity="0.06" stroke-width="1.13288"/>
<rect x="-23.8989" y="109.072" width="56.6442" height="56.6442" stroke="white" stroke-opacity="0.06" stroke-width="1.13288"/>
<rect x="32.7451" y="109.072" width="56.6442" height="56.6442" stroke="white" stroke-opacity="0.06" stroke-width="1.13288"/>
<rect x="89.3892" y="109.072" width="56.6442" height="56.6442" stroke="white" stroke-opacity="0.06" stroke-width="1.13288"/>
<rect x="146.034" y="109.072" width="56.6442" height="56.6442" stroke="white" stroke-opacity="0.06" stroke-width="1.13288"/>
<rect x="202.678" y="109.072" width="56.6442" height="56.6442" stroke="white" stroke-opacity="0.06" stroke-width="1.13288"/>
<rect x="259.322" y="109.072" width="56.6442" height="56.6442" stroke="white" stroke-opacity="0.06" stroke-width="1.13288"/>
<rect x="315.966" y="109.072" width="56.6442" height="56.6442" stroke="white" stroke-opacity="0.06" stroke-width="1.13288"/>
<rect x="372.611" y="109.072" width="56.6442" height="56.6442" stroke="white" stroke-opacity="0.06" stroke-width="1.13288"/>
<rect x="429.255" y="109.072" width="56.6442" height="56.6442" stroke="white" stroke-opacity="0.06" stroke-width="1.13288"/>
<rect x="-23.8989" y="165.716" width="56.6442" height="56.6442" stroke="white" stroke-opacity="0.06" stroke-width="1.13288"/>
<rect x="32.7451" y="165.716" width="56.6442" height="56.6442" stroke="white" stroke-opacity="0.06" stroke-width="1.13288"/>
<rect x="89.3892" y="165.716" width="56.6442" height="56.6442" stroke="white" stroke-opacity="0.06" stroke-width="1.13288"/>
<rect x="146.034" y="165.716" width="56.6442" height="56.6442" stroke="white" stroke-opacity="0.06" stroke-width="1.13288"/>
<rect x="202.678" y="165.716" width="56.6442" height="56.6442" stroke="white" stroke-opacity="0.06" stroke-width="1.13288"/>
<rect x="259.322" y="165.716" width="56.6442" height="56.6442" stroke="white" stroke-opacity="0.06" stroke-width="1.13288"/>
<rect x="315.966" y="165.716" width="56.6442" height="56.6442" stroke="white" stroke-opacity="0.06" stroke-width="1.13288"/>
<rect x="372.611" y="165.716" width="56.6442" height="56.6442" stroke="white" stroke-opacity="0.06" stroke-width="1.13288"/>
<rect x="429.255" y="165.716" width="56.6442" height="56.6442" stroke="white" stroke-opacity="0.06" stroke-width="1.13288"/>
<rect x="-23.8989" y="222.36" width="56.6442" height="56.6442" stroke="white" stroke-opacity="0.06" stroke-width="1.13288"/>
<rect x="32.7451" y="222.36" width="56.6442" height="56.6442" stroke="white" stroke-opacity="0.06" stroke-width="1.13288"/>
<rect x="89.3892" y="222.36" width="56.6442" height="56.6442" fill="white" fill-opacity="0.05" stroke="white" stroke-opacity="0.06" stroke-width="1.13288"/>
<rect x="146.034" y="222.36" width="56.6442" height="56.6442" stroke="white" stroke-opacity="0.06" stroke-width="1.13288"/>
<rect x="202.678" y="222.36" width="56.6442" height="56.6442" stroke="white" stroke-opacity="0.06" stroke-width="1.13288"/>
<rect x="259.322" y="222.36" width="56.6442" height="56.6442" stroke="white" stroke-opacity="0.06" stroke-width="1.13288"/>
<rect x="315.966" y="222.36" width="56.6442" height="56.6442" stroke="white" stroke-opacity="0.06" stroke-width="1.13288"/>
<rect x="372.611" y="222.36" width="56.6442" height="56.6442" stroke="white" stroke-opacity="0.06" stroke-width="1.13288"/>
<rect x="429.255" y="222.36" width="56.6442" height="56.6442" stroke="white" stroke-opacity="0.06" stroke-width="1.13288"/>
<rect x="-23.8989" y="279.004" width="56.6442" height="56.6442" stroke="white" stroke-opacity="0.06" stroke-width="1.13288"/>
<rect x="32.7451" y="279.004" width="56.6442" height="56.6442" stroke="white" stroke-opacity="0.06" stroke-width="1.13288"/>
<rect x="89.3892" y="279.004" width="56.6442" height="56.6442" stroke="white" stroke-opacity="0.06" stroke-width="1.13288"/>
<rect x="146.034" y="279.004" width="56.6442" height="56.6442" stroke="white" stroke-opacity="0.06" stroke-width="1.13288"/>
<rect x="202.678" y="279.004" width="56.6442" height="56.6442" stroke="white" stroke-opacity="0.06" stroke-width="1.13288"/>
<rect x="259.322" y="279.004" width="56.6442" height="56.6442" stroke="white" stroke-opacity="0.06" stroke-width="1.13288"/>
<rect x="315.966" y="279.004" width="56.6442" height="56.6442" stroke="white" stroke-opacity="0.06" stroke-width="1.13288"/>
<rect x="372.611" y="279.004" width="56.6442" height="56.6442" stroke="white" stroke-opacity="0.06" stroke-width="1.13288"/>
<rect x="429.255" y="279.004" width="56.6442" height="56.6442" stroke="white" stroke-opacity="0.06" stroke-width="1.13288"/>
<rect x="-23.8989" y="335.649" width="56.6442" height="56.6442" stroke="white" stroke-opacity="0.06" stroke-width="1.13288"/>
<rect x="32.7451" y="335.649" width="56.6442" height="56.6442" stroke="white" stroke-opacity="0.06" stroke-width="1.13288"/>
<rect x="89.3892" y="335.649" width="56.6442" height="56.6442" stroke="white" stroke-opacity="0.06" stroke-width="1.13288"/>
<rect x="146.034" y="335.649" width="56.6442" height="56.6442" stroke="white" stroke-opacity="0.06" stroke-width="1.13288"/>
<rect x="202.678" y="335.649" width="56.6442" height="56.6442" stroke="white" stroke-opacity="0.06" stroke-width="1.13288"/>
<rect x="259.322" y="335.649" width="56.6442" height="56.6442" stroke="white" stroke-opacity="0.06" stroke-width="1.13288"/>
<rect x="315.966" y="335.649" width="56.6442" height="56.6442" stroke="white" stroke-opacity="0.06" stroke-width="1.13288"/>
<rect x="372.611" y="335.649" width="56.6442" height="56.6442" stroke="white" stroke-opacity="0.06" stroke-width="1.13288"/>
<rect x="429.255" y="335.649" width="56.6442" height="56.6442" stroke="white" stroke-opacity="0.06" stroke-width="1.13288"/>
<rect x="-23.8992" y="392.293" width="56.6442" height="56.6442" stroke="white" stroke-opacity="0.06" stroke-width="1.13288"/>
<rect x="32.7451" y="392.293" width="56.6442" height="56.6442" stroke="white" stroke-opacity="0.06" stroke-width="1.13288"/>
<rect x="89.3893" y="392.293" width="56.6442" height="56.6442" stroke="white" stroke-opacity="0.06" stroke-width="1.13288"/>
<rect x="146.034" y="392.293" width="56.6442" height="56.6442" stroke="white" stroke-opacity="0.06" stroke-width="1.13288"/>
<rect x="202.678" y="392.293" width="56.6442" height="56.6442" stroke="white" stroke-opacity="0.06" stroke-width="1.13288"/>
<rect x="259.322" y="392.293" width="56.6442" height="56.6442" stroke="white" stroke-opacity="0.06" stroke-width="1.13288"/>
<rect x="315.966" y="392.293" width="56.6442" height="56.6442" stroke="white" stroke-opacity="0.06" stroke-width="1.13288"/>
<rect x="372.611" y="392.293" width="56.6442" height="56.6442" stroke="white" stroke-opacity="0.06" stroke-width="1.13288"/>
<rect x="429.255" y="392.293" width="56.6442" height="56.6442" stroke="white" stroke-opacity="0.06" stroke-width="1.13288"/>
</g>
</g>
<defs>
<filter id="filter0_f_7054_7027" x="-183.751" y="179.245" width="549.637" height="489.934" filterUnits="userSpaceOnUse" color-interpolation-filters="sRGB">
<feFlood flood-opacity="0" result="BackgroundImageFix"/>
<feBlend mode="normal" in="SourceGraphic" in2="BackgroundImageFix" result="shape"/>
<feGaussianBlur stdDeviation="87.6926" result="effect1_foregroundBlur_7054_7027"/>
</filter>
<filter id="filter1_f_7054_7027" x="222.143" y="-268.092" width="549.637" height="489.934" filterUnits="userSpaceOnUse" color-interpolation-filters="sRGB">
<feFlood flood-opacity="0" result="BackgroundImageFix"/>
<feBlend mode="normal" in="SourceGraphic" in2="BackgroundImageFix" result="shape"/>
<feGaussianBlur stdDeviation="87.6926" result="effect1_foregroundBlur_7054_7027"/>
</filter>
<linearGradient id="paint0_linear_7054_7027" x1="-1.86784e-06" y1="178.122" x2="462" y2="178.122" gradientUnits="userSpaceOnUse">
<stop stop-color="#071924"/>
<stop offset="1" stop-color="#001522"/>
</linearGradient>
<linearGradient id="paint1_linear_7054_7027" x1="-8.3432" y1="354.631" x2="80.3538" y2="524.761" gradientUnits="userSpaceOnUse">
<stop stop-color="#F2652D"/>
<stop offset="0.739583" stop-color="#273DFF" stop-opacity="0.55"/>
</linearGradient>
<linearGradient id="paint2_linear_7054_7027" x1="397.551" y1="-92.7063" x2="486.248" y2="77.4245" gradientUnits="userSpaceOnUse">
<stop stop-color="#F2652D"/>
<stop offset="0.739583" stop-color="#273DFF" stop-opacity="0.55"/>
</linearGradient>
<clipPath id="clip0_7054_7027">
<rect width="462" height="413" fill="white"/>
</clipPath>
<clipPath id="clip1_7054_7027">
<rect width="1189.53" height="761.299" fill="white" transform="translate(-363.765 -174.149)"/>
</clipPath>
</defs>
</svg>
