<svg width="131" height="45" viewBox="0 0 131 45" fill="none" xmlns="http://www.w3.org/2000/svg">
<rect x="1" y="0.778198" width="129.053" height="43.3236" rx="5.72942" stroke="white" stroke-width="0.716178" stroke-dasharray="2.86 2.86"/>
<path d="M10.3019 35.6337L10.3019 29.0506L11.6941 29.0506L11.6941 33.9664L15.6474 33.9664L15.6474 29.3428L17.0397 29.3428L17.0397 33.9664L22.1618 33.9664L22.1618 35.6337L10.3019 35.6337ZM21.0617 20.087C21.1477 20.1902 22.3508 21.2387 22.3508 23.6794C22.3508 26.1029 20.6664 27.7702 18.071 27.7702C15.4927 27.7702 13.8427 25.8967 13.8427 23.6278C13.8427 21.359 15.4584 19.7605 17.7444 19.7605C18.0538 19.7605 18.4663 19.812 18.4663 19.812L18.4663 26.1029C20.082 26.017 21.0617 24.9857 21.0617 23.4731C21.0617 21.9434 20.2367 20.9636 20.1164 20.7746L21.0617 20.087ZM17.3663 21.3246C16.4553 21.3418 15.0286 22.0293 15.0286 23.6794C15.0286 25.3123 16.3865 26.0342 17.3663 26.0857L17.3663 21.3246ZM10.3019 17.6928L10.3019 16.0599L14.4099 16.0599C14.6333 16.0599 15.063 16.0771 15.3552 16.0771C14.3411 15.4755 13.8427 14.4098 13.8427 13.1723C13.8427 10.7831 15.6646 9.23614 18.071 9.23614C20.4945 9.23614 22.3508 10.7831 22.3508 13.2066C22.3508 14.3926 21.8696 15.4067 20.8727 16.0771L20.8727 16.1114L22.1618 16.1114L22.1618 17.6928L10.3019 17.6928ZM20.9414 13.516C20.9414 11.8831 19.6867 10.9206 18.0538 10.9206C16.4209 10.9206 15.1833 11.8831 15.1833 13.516C15.1833 15.1489 16.4209 16.1286 18.0538 16.1286C19.6867 16.1286 20.9414 15.1489 20.9414 13.516Z" fill="white"/>
<path d="M37.8159 22.0426C39.3521 20.6482 40.2738 19.5847 40.2738 18.1903C40.2738 16.7959 39.2576 15.8978 37.6505 15.8978C36.0197 15.8978 34.6017 16.9613 33.7036 18.0957L32.0965 15.5906C32.3092 15.0942 34.3181 12.8963 38.005 12.8963C41.6919 12.8963 43.9371 14.8579 43.9371 17.7176C43.9371 20.5773 41.81 22.2789 40.5102 23.437L37.1305 26.4858H44.6934V29.44H32.7346L32.2856 27.0293L37.8159 22.0426ZM52.6102 22.0426C54.1464 20.6482 55.0681 19.5847 55.0681 18.1903C55.0681 16.7959 54.0518 15.8978 52.4447 15.8978C50.814 15.8978 49.396 16.9613 48.4979 18.0957L46.8908 15.5906C47.1035 15.0942 49.1124 12.8963 52.7992 12.8963C56.4861 12.8963 58.7313 14.8579 58.7313 17.7176C58.7313 20.5773 56.6043 22.2789 55.3044 23.437L51.9248 26.4858H59.4876V29.44H47.5289L47.0798 27.0293L52.6102 22.0426ZM73.3192 29.3218C73.0355 29.3927 71.9957 29.7 70.6249 29.7C69.2778 29.7 68.3797 29.2982 67.7888 28.6128C67.198 27.9274 66.9616 26.9584 66.9616 25.1859V20.6718H65.3073V17.8121H66.9616V14.6452H70.7667V17.8121H73.3428V20.6718H70.7667V24.855C70.7667 25.8477 70.9085 26.084 71.0976 26.2967C71.263 26.4858 71.4993 26.5803 71.9957 26.5803C72.5865 26.5803 73.1301 26.3676 73.1301 26.3676L73.3192 29.3218ZM74.1794 23.6497C74.1794 19.8919 76.9682 17.5758 80.6551 17.5758C84.342 17.5758 87.1071 19.8919 87.1071 23.6497C87.1071 27.4075 84.342 29.7 80.6551 29.7C76.9682 29.7 74.1794 27.4075 74.1794 23.6497ZM80.6551 26.6039C82.3094 26.6039 83.3021 25.3041 83.3021 23.5788C83.3021 21.8535 82.3094 20.5537 80.6551 20.5537C78.9771 20.5537 78.0081 21.8535 78.0081 23.5788C78.0081 25.3041 78.9771 26.6039 80.6551 26.6039ZM99.2778 22.0426C100.814 20.6482 101.736 19.5847 101.736 18.1903C101.736 16.7959 100.719 15.8978 99.1124 15.8978C97.4816 15.8978 96.0636 16.9613 95.1655 18.0957L93.5584 15.5906C93.7711 15.0942 95.78 12.8963 99.4669 12.8963C103.154 12.8963 105.399 14.8579 105.399 17.7176C105.399 20.5773 103.272 22.2789 101.972 23.437L98.5924 26.4858H106.155V29.44H94.1965L93.7475 27.0293L99.2778 22.0426ZM111.236 20.8845C110.054 20.4591 108.754 19.4901 108.754 17.3867C108.754 14.4325 111.425 12.8963 114.545 12.8963C117.641 12.8963 120.311 14.4325 120.311 17.3867C120.311 19.5138 119.035 20.4828 117.853 20.8845V20.9554C119.626 21.499 120.784 22.8462 120.784 24.8314C120.784 28.0692 117.948 29.7 114.545 29.7C111.141 29.7 108.305 28.0692 108.305 24.8314C108.305 22.8462 109.44 21.499 111.236 20.9318V20.8845ZM112.394 17.6703C112.394 18.9229 113.269 19.6319 114.545 19.6319C115.797 19.6319 116.695 18.9229 116.695 17.6703C116.695 16.3941 115.797 15.6851 114.545 15.6851C113.269 15.6851 112.394 16.3941 112.394 17.6703ZM112.016 24.4769C112.016 25.9422 113.15 26.793 114.545 26.793C115.939 26.793 117.074 25.9422 117.074 24.4769C117.074 23.0116 115.963 22.1608 114.545 22.1608C113.103 22.1608 112.016 23.0116 112.016 24.4769Z" fill="white"/>
</svg>
