<svg width="22" height="19" viewBox="0 0 22 19" fill="none" xmlns="http://www.w3.org/2000/svg">
<path d="M11.0003 0.880051C16.3924 0.880051 20.8784 4.75981 21.8189 9.88005C20.8784 15.0003 16.3924 18.8801 11.0003 18.8801C5.60812 18.8801 1.12215 15.0003 0.181641 9.88005C1.12215 4.75981 5.60812 0.880051 11.0003 0.880051ZM11.0003 16.8801C15.2359 16.8801 18.8603 13.9321 19.7777 9.88005C18.8603 5.82808 15.2359 2.88005 11.0003 2.88005C6.7646 2.88005 3.14022 5.82808 2.22278 9.88005C3.14022 13.9321 6.7646 16.8801 11.0003 16.8801ZM11.0003 14.3801C8.51498 14.3801 6.50026 12.3654 6.50026 9.88005C6.50026 7.39477 8.51498 5.38005 11.0003 5.38005C13.4855 5.38005 15.5003 7.39477 15.5003 9.88005C15.5003 12.3654 13.4855 14.3801 11.0003 14.3801ZM11.0003 12.3801C12.381 12.3801 13.5003 11.2608 13.5003 9.88005C13.5003 8.49935 12.381 7.38005 11.0003 7.38005C9.6196 7.38005 8.50026 8.49935 8.50026 9.88005C8.50026 11.2608 9.6196 12.3801 11.0003 12.3801Z" fill="#A1A1A1"/>
</svg>
