<svg width="312" height="55" viewBox="0 0 312 55" fill="none" xmlns="http://www.w3.org/2000/svg">
<g clip-path="url(#clip0_4151_3226)">
<path fill-rule="evenodd" clip-rule="evenodd" d="M0 54.7219L54.6406 0.680664V54.7219H0ZM81.961 0.680678H95.6211V14.191H84.9359C83.1449 14.0709 82.1583 14.7915 81.961 16.1725V54.7219H68.3008V14.191H78.8647C80.853 14.146 81.8699 13.2903 81.961 11.6691V0.680678Z" fill="#ED9B07"/>
<path d="M116.72 24.6545C115.324 24.6545 114.049 24.2642 112.911 23.4986C111.772 22.733 110.846 21.6822 110.163 20.3612C109.48 19.0402 109.131 17.539 109.131 15.8578C109.131 14.1765 109.48 12.6753 110.163 11.3543C110.846 10.0333 111.787 8.99753 112.971 8.24695C114.155 7.49638 115.491 7.12109 116.978 7.12109C117.843 7.12109 118.633 7.24119 119.331 7.49638C120.044 7.73656 120.667 8.09684 121.213 8.53217C121.759 8.98252 122.2 9.4929 122.549 10.0633C122.898 10.6338 123.141 11.2643 123.277 11.9248L122.412 11.6996V7.48137H126.419V24.3242H122.382V20.3012L123.323 20.136C123.171 20.7065 122.898 21.2769 122.503 21.8173C122.108 22.3577 121.608 22.8381 121.016 23.2584C120.424 23.6787 119.771 24.009 119.043 24.2642C118.314 24.5194 117.555 24.6545 116.735 24.6545H116.72ZM117.813 21.1718C118.739 21.1718 119.559 20.9466 120.272 20.4963C120.985 20.046 121.532 19.4305 121.942 18.6199C122.351 17.8093 122.549 16.8936 122.549 15.8578C122.549 14.822 122.351 13.9213 121.942 13.1407C121.547 12.3601 120.985 11.7296 120.272 11.2943C119.559 10.8589 118.739 10.6188 117.813 10.6188C116.887 10.6188 116.068 10.8439 115.369 11.2943C114.671 11.7446 114.125 12.3601 113.73 13.1407C113.336 13.9363 113.154 14.837 113.154 15.8578C113.154 16.8785 113.351 17.8243 113.73 18.6199C114.11 19.4155 114.656 20.046 115.369 20.4963C116.068 20.9466 116.887 21.1718 117.813 21.1718Z" fill="#181818"/>
<path d="M130.714 24.3399V7.49699H134.63L134.691 12.8711L134.145 11.6552C134.387 10.7995 134.797 10.0339 135.374 9.35842C135.951 8.6829 136.634 8.14249 137.393 7.73718C138.152 7.34688 138.956 7.13672 139.806 7.13672C140.17 7.13672 140.519 7.16674 140.853 7.22679C141.187 7.28683 141.46 7.36189 141.673 7.45196L140.61 11.7602C140.368 11.6402 140.079 11.5201 139.745 11.445C139.411 11.37 139.062 11.3099 138.713 11.3099C138.167 11.3099 137.666 11.415 137.18 11.6101C136.694 11.8203 136.269 12.0905 135.905 12.4508C135.541 12.8111 135.253 13.2314 135.055 13.7117C134.858 14.1921 134.752 14.7325 134.752 15.333V24.3098H130.745L130.714 24.3399Z" fill="#181818"/>
<path d="M150.598 24.6545C149.004 24.6545 147.562 24.2642 146.302 23.4986C145.042 22.733 144.025 21.6822 143.297 20.3612C142.568 19.0402 142.204 17.5541 142.204 15.8878C142.204 14.2215 142.568 12.7354 143.297 11.4144C144.025 10.0934 145.027 9.04256 146.302 8.27698C147.577 7.51139 149.004 7.12109 150.598 7.12109C152.191 7.12109 153.512 7.40631 154.771 7.99176C156.016 8.56219 156.987 9.37281 157.686 10.3936L155.485 13.0206C155.166 12.5703 154.756 12.1649 154.255 11.8047C153.755 11.4444 153.238 11.1592 152.677 10.949C152.115 10.7389 151.554 10.6338 150.992 10.6338C150.036 10.6338 149.201 10.8589 148.457 11.3243C147.714 11.7897 147.122 12.4201 146.697 13.2157C146.272 14.0114 146.059 14.912 146.059 15.9178C146.059 16.9236 146.287 17.8093 146.727 18.6049C147.167 19.3855 147.759 20.0159 148.518 20.4963C149.277 20.9617 150.112 21.2018 151.038 21.2018C151.599 21.2018 152.146 21.1118 152.677 20.9316C153.208 20.7515 153.709 20.4963 154.18 20.151C154.65 19.8058 155.09 19.3855 155.5 18.8751L157.701 21.5321C156.972 22.4778 155.955 23.2284 154.68 23.8138C153.405 24.3993 152.039 24.6995 150.628 24.6995L150.598 24.6545Z" fill="#181818"/>
<path d="M160.387 24.3387V0.680664H164.333V10.9485L163.59 11.3388C163.802 10.5732 164.227 9.88269 164.85 9.2372C165.472 8.60672 166.216 8.11134 167.081 7.72104C167.946 7.33074 168.826 7.1506 169.737 7.1506C171.027 7.1506 172.12 7.4058 172.985 7.91619C173.85 8.42658 174.518 9.19216 174.958 10.2129C175.398 11.2337 175.626 12.5097 175.626 14.0559V24.3537H171.649V14.3411C171.649 13.4854 171.528 12.7799 171.3 12.2095C171.057 11.639 170.693 11.2337 170.207 10.9635C169.706 10.6933 169.115 10.5732 168.401 10.5882C167.824 10.5882 167.293 10.6783 166.807 10.8584C166.322 11.0386 165.897 11.2938 165.548 11.624C165.199 11.9543 164.91 12.3296 164.713 12.7649C164.5 13.2002 164.409 13.6656 164.409 14.176V24.3387H160.433H160.387Z" fill="#181818"/>
<path d="M184.186 7.49512H180.209V24.338H184.186V7.49512Z" fill="#181818"/>
<path d="M187.389 11.1287V7.4809H198.438V11.1287H187.389ZM190.758 24.3388V3.20264H194.735V24.3388H190.758Z" fill="#181818"/>
<path d="M208.987 24.6534C207.196 24.6534 205.618 24.2781 204.252 23.5425C202.886 22.792 201.823 21.7712 201.049 20.4952C200.275 19.2042 199.896 17.7331 199.896 16.0668C199.896 14.7458 200.108 13.5449 200.533 12.4491C200.973 11.3682 201.565 10.4225 202.324 9.62691C203.083 8.8313 204.009 8.21583 205.071 7.76548C206.134 7.31514 207.302 7.10498 208.577 7.10498C209.7 7.10498 210.748 7.31514 211.719 7.75047C212.691 8.18581 213.525 8.75624 214.239 9.4918C214.952 10.2274 215.498 11.098 215.878 12.1188C216.257 13.1396 216.439 14.2354 216.409 15.4213L216.379 16.8024H202.582L201.838 14.1153H213.055L212.539 14.6557V13.9502C212.478 13.2897 212.266 12.7043 211.886 12.2089C211.522 11.7135 211.051 11.3082 210.475 11.023C209.898 10.7378 209.275 10.5876 208.577 10.5876C207.515 10.5876 206.635 10.7978 205.906 11.2031C205.177 11.6084 204.646 12.1939 204.267 12.9444C203.902 13.71 203.72 14.6407 203.72 15.7816C203.72 16.9225 203.948 17.8232 204.419 18.6338C204.874 19.4444 205.542 20.0749 206.392 20.5102C207.242 20.9455 208.243 21.1707 209.382 21.1707C210.171 21.1707 210.915 21.0506 211.583 20.7804C212.25 20.5252 212.979 20.0599 213.753 19.3994L215.726 22.1164C215.149 22.6569 214.482 23.1072 213.738 23.4825C212.994 23.8578 212.205 24.143 211.385 24.3682C210.566 24.5933 209.761 24.6834 208.957 24.6834L208.987 24.6534Z" fill="#181818"/>
<path d="M226.928 24.6545C225.334 24.6545 223.892 24.2642 222.632 23.4986C221.372 22.733 220.356 21.6822 219.627 20.3612C218.898 19.0402 218.534 17.5541 218.534 15.8878C218.534 14.2215 218.898 12.7354 219.627 11.4144C220.356 10.0934 221.357 9.04256 222.632 8.27698C223.907 7.51139 225.334 7.12109 226.928 7.12109C228.521 7.12109 229.842 7.40631 231.102 7.99176C232.346 8.56219 233.318 9.37281 234.016 10.3936L231.815 13.0206C231.496 12.5703 231.086 12.1649 230.585 11.8047C230.085 11.4444 229.569 11.1592 229.007 10.949C228.445 10.7389 227.884 10.6338 227.322 10.6338C226.366 10.6338 225.531 10.8589 224.788 11.3243C224.044 11.7897 223.452 12.4201 223.027 13.2157C222.602 14.0114 222.389 14.912 222.389 15.9178C222.389 16.9236 222.617 17.8093 223.057 18.6049C223.497 19.3855 224.089 20.0159 224.848 20.4963C225.607 20.9617 226.442 21.2018 227.368 21.2018C227.929 21.2018 228.476 21.1118 229.007 20.9316C229.538 20.7515 230.039 20.4963 230.51 20.151C230.98 19.8058 231.42 19.3855 231.83 18.8751L234.031 21.5321C233.302 22.4778 232.285 23.2284 231.01 23.8138C229.736 24.3993 228.369 24.6995 226.958 24.6995L226.928 24.6545Z" fill="#181818"/>
<path d="M235.2 11.1287V7.4809H246.249V11.1287H235.2ZM238.569 24.3388V3.20264H242.546V24.3388H238.569Z" fill="#181818"/>
<path d="M254.885 24.6546C253.656 24.6546 252.593 24.3844 251.683 23.8439C250.772 23.3035 250.089 22.5229 249.619 21.5022C249.148 20.4814 248.905 19.2805 248.905 17.8694V7.48145H252.882V17.0437C252.882 17.9444 253.018 18.71 253.307 19.3255C253.58 19.956 253.99 20.4363 254.536 20.7816C255.083 21.1269 255.72 21.292 256.479 21.292C257.041 21.292 257.557 21.2019 258.012 21.0218C258.483 20.8416 258.877 20.5865 259.226 20.2562C259.575 19.9259 259.833 19.5356 260.031 19.0703C260.228 18.6049 260.319 18.1096 260.319 17.5842V7.48145H264.296V24.3243H260.41L260.349 20.8116L261.063 20.4213C260.805 21.2319 260.365 21.9525 259.758 22.583C259.15 23.2135 258.422 23.7088 257.572 24.0841C256.737 24.4594 255.842 24.6395 254.885 24.6395V24.6546Z" fill="#181818"/>
<path d="M268.621 24.3399V7.49699H272.537L272.598 12.8711L272.051 11.6552C272.294 10.7995 272.704 10.0339 273.281 9.35842C273.857 8.6829 274.541 8.14249 275.299 7.73718C276.058 7.34688 276.863 7.13672 277.713 7.13672C278.077 7.13672 278.426 7.16674 278.76 7.22679C279.094 7.28683 279.367 7.36189 279.58 7.45196L278.517 11.7602C278.274 11.6402 277.986 11.5201 277.652 11.445C277.318 11.37 276.969 11.3099 276.62 11.3099C276.073 11.3099 275.573 11.415 275.087 11.6101C274.601 11.8203 274.176 12.0905 273.812 12.4508C273.448 12.8111 273.159 13.2314 272.962 13.7117C272.765 14.1921 272.658 14.7325 272.658 15.333V24.3098H268.651L268.621 24.3399Z" fill="#181818"/>
<path d="M289.187 24.6534C287.396 24.6534 285.818 24.2781 284.452 23.5425C283.086 22.792 282.023 21.7712 281.249 20.4952C280.475 19.2042 280.096 17.7331 280.096 16.0668C280.096 14.7458 280.308 13.5449 280.733 12.4491C281.173 11.3682 281.765 10.4225 282.524 9.62691C283.283 8.8313 284.209 8.21583 285.271 7.76548C286.334 7.31514 287.503 7.10498 288.777 7.10498C289.901 7.10498 290.948 7.31514 291.919 7.75047C292.891 8.18581 293.726 8.75624 294.439 9.4918C295.152 10.2274 295.699 11.098 296.078 12.1188C296.458 13.1396 296.64 14.2354 296.609 15.4213L296.579 16.8024H282.782L282.038 14.1153H293.255L292.739 14.6557V13.9502C292.678 13.2897 292.466 12.7043 292.086 12.2089C291.722 11.7135 291.252 11.3082 290.675 11.023C290.098 10.7378 289.476 10.5876 288.777 10.5876C287.715 10.5876 286.835 10.7978 286.106 11.2031C285.378 11.6084 284.846 12.1939 284.467 12.9444C284.103 13.71 283.921 14.6407 283.921 15.7816C283.921 16.9225 284.148 17.8232 284.619 18.6338C285.074 19.4444 285.742 20.0749 286.592 20.5102C287.442 20.9455 288.444 21.1707 289.582 21.1707C290.371 21.1707 291.115 21.0506 291.783 20.7804C292.451 20.5252 293.179 20.0599 293.953 19.3994L295.926 22.1164C295.35 22.6569 294.682 23.1072 293.938 23.4825C293.194 23.8578 292.405 24.143 291.585 24.3682C290.766 24.5933 289.961 24.6834 289.157 24.6834L289.187 24.6534Z" fill="#181818"/>
<path d="M305.504 24.6542C304.001 24.6542 302.65 24.399 301.451 23.9037C300.252 23.4083 299.281 22.6877 298.522 21.742L301.102 19.5353C301.74 20.2559 302.468 20.7813 303.273 21.0965C304.077 21.4118 304.912 21.5769 305.792 21.5769C306.156 21.5769 306.49 21.5319 306.779 21.4568C307.067 21.3817 307.325 21.2466 307.538 21.0665C307.75 20.9014 307.917 20.6912 308.039 20.4811C308.16 20.2559 308.221 20.0007 308.221 19.7305C308.221 19.2201 308.023 18.8148 307.644 18.5146C307.431 18.3644 307.082 18.1993 306.627 18.0342C306.157 17.8691 305.565 17.6889 304.836 17.5238C303.667 17.2236 302.696 16.8783 301.922 16.488C301.148 16.0977 300.541 15.6474 300.116 15.167C299.751 14.7617 299.478 14.2963 299.296 13.7859C299.114 13.2756 299.023 12.7201 299.023 12.1197C299.023 11.3691 299.19 10.6936 299.524 10.0931C299.858 9.49267 300.313 8.96727 300.89 8.51692C301.467 8.06658 302.15 7.73633 302.924 7.49614C303.698 7.25596 304.502 7.15088 305.352 7.15088C306.202 7.15088 307.052 7.25596 307.856 7.46612C308.661 7.67628 309.42 7.97651 310.118 8.38182C310.816 8.77212 311.423 9.25248 311.909 9.80791L309.708 12.2097C309.298 11.8194 308.858 11.4892 308.372 11.189C307.887 10.8887 307.401 10.6485 306.9 10.4684C306.399 10.2883 305.944 10.1982 305.504 10.1982C305.094 10.1982 304.73 10.2432 304.411 10.3033C304.092 10.3783 303.819 10.4834 303.607 10.6335C303.394 10.7837 303.227 10.9638 303.106 11.189C302.984 11.4141 302.924 11.6693 302.924 11.9696C302.939 12.2248 303.015 12.4649 303.136 12.6901C303.258 12.9153 303.424 13.0954 303.637 13.2455C303.88 13.3956 304.229 13.5608 304.699 13.7559C305.17 13.9511 305.792 14.1312 306.536 14.2963C307.598 14.5816 308.479 14.8818 309.192 15.227C309.905 15.5723 310.467 15.9626 310.877 16.413C311.287 16.8032 311.575 17.2386 311.742 17.749C311.909 18.2594 312 18.8298 312 19.4453C312 20.451 311.712 21.3367 311.15 22.1323C310.588 22.9279 309.799 23.5434 308.828 23.9787C307.841 24.4291 306.748 24.6542 305.519 24.6542H305.504Z" fill="#181818"/>
<path d="M114.717 37.5488H110.74V54.3917H114.717V37.5488Z" fill="#181818"/>
<path d="M126.282 54.7217C124.78 54.7217 123.429 54.3464 122.23 53.5808C121.031 52.8303 120.09 51.7945 119.392 50.4735C118.693 49.1675 118.344 47.6513 118.344 45.955C118.344 44.2587 118.693 42.7726 119.376 41.4516C120.059 40.1306 121 39.0948 122.199 38.3292C123.398 37.5786 124.749 37.1883 126.252 37.1883C127.072 37.1883 127.861 37.3234 128.635 37.5786C129.394 37.8338 130.077 38.1791 130.684 38.6144C131.291 39.0497 131.762 39.5451 132.126 40.0705C132.475 40.6109 132.687 41.1664 132.718 41.7368L131.655 41.8569V30.7334H135.632V54.3915H131.792L131.701 50.4284L132.475 50.4885C132.46 51.0289 132.262 51.5393 131.913 52.0196C131.564 52.515 131.094 52.9654 130.532 53.3557C129.971 53.761 129.318 54.0912 128.574 54.3314C127.83 54.5716 127.072 54.7067 126.297 54.7067L126.282 54.7217ZM127.056 51.3892C127.982 51.3892 128.802 51.149 129.515 50.6836C130.229 50.2183 130.775 49.5728 131.185 48.7622C131.595 47.9515 131.792 47.0208 131.792 45.94C131.792 44.8592 131.595 43.9585 131.185 43.1479C130.775 42.3373 130.229 41.6918 129.515 41.2264C128.802 40.7611 127.982 40.5359 127.056 40.5359C126.131 40.5359 125.311 40.7611 124.598 41.2264C123.884 41.6768 123.338 42.3222 122.928 43.1479C122.533 43.9735 122.321 44.9042 122.321 45.94C122.321 46.9758 122.518 47.9515 122.928 48.7622C123.323 49.5728 123.884 50.2183 124.598 50.6836C125.311 51.149 126.131 51.3892 127.056 51.3892Z" fill="#181818"/>
<path d="M147.82 54.7217C146.029 54.7217 144.451 54.3465 143.085 53.6109C141.719 52.8603 140.656 51.8395 139.882 50.5636C139.108 49.2726 138.729 47.8015 138.729 46.1352C138.729 44.8142 138.941 43.6133 139.366 42.5174C139.806 41.4366 140.398 40.4909 141.157 39.6803C141.916 38.8846 142.842 38.2692 143.904 37.8338C144.967 37.3985 146.135 37.1733 147.41 37.1733C148.533 37.1733 149.581 37.3835 150.552 37.8188C151.524 38.2542 152.358 38.8246 153.072 39.5602C153.785 40.2957 154.331 41.1664 154.711 42.1872C155.09 43.2079 155.272 44.3038 155.242 45.4897L155.212 46.8707H141.415L140.671 44.1837H151.888L151.372 44.7241V44.0186C151.311 43.3581 151.099 42.7726 150.719 42.2772C150.355 41.7819 149.884 41.3766 149.308 41.0913C148.731 40.8061 148.108 40.656 147.41 40.656C146.348 40.656 145.468 40.8512 144.739 41.2565C144.01 41.6618 143.479 42.2472 143.1 42.9978C142.735 43.7634 142.553 44.6941 142.553 45.835C142.553 46.9758 142.781 47.8765 143.252 48.6871C143.707 49.4978 144.375 50.1282 145.225 50.5636C146.075 50.9989 147.076 51.2241 148.215 51.2241C149.004 51.2241 149.748 51.104 150.416 50.8338C151.083 50.5786 151.812 50.1132 152.586 49.4527L154.559 52.1698C153.982 52.7102 153.315 53.1605 152.571 53.5358C151.827 53.9111 151.038 54.1963 150.218 54.4215C149.399 54.6467 148.594 54.7367 147.79 54.7367L147.82 54.7217Z" fill="#181818"/>
<path d="M164.88 54.7219C163.484 54.7219 162.209 54.3316 161.07 53.566C159.932 52.8004 159.006 51.7496 158.323 50.4286C157.64 49.1076 157.291 47.6064 157.291 45.9251C157.291 44.2439 157.64 42.7427 158.323 41.4217C159.006 40.1007 159.947 39.0649 161.131 38.3143C162.315 37.5638 163.651 37.1885 165.138 37.1885C166.003 37.1885 166.792 37.3086 167.491 37.5638C168.204 37.8039 168.826 38.1492 169.373 38.5996C169.919 39.0499 170.359 39.5603 170.708 40.1307C171.057 40.7012 171.3 41.3316 171.437 41.9921L170.572 41.767V37.5488H174.579V54.3916H170.541V50.3685L171.482 50.2034C171.331 50.7739 171.057 51.3443 170.663 51.8847C170.268 52.4251 169.767 52.9055 169.175 53.3258C168.583 53.7461 167.931 54.0764 167.202 54.3316C166.474 54.5868 165.715 54.7219 164.895 54.7219H164.88ZM165.973 51.2392C166.899 51.2392 167.718 51.014 168.432 50.5637C169.145 50.1133 169.691 49.4979 170.101 48.6873C170.511 47.8766 170.708 46.9609 170.708 45.9251C170.708 44.8894 170.511 43.9887 170.101 43.2081C169.707 42.4275 169.145 41.797 168.432 41.3617C167.718 40.9263 166.899 40.6861 165.973 40.6861C165.047 40.6861 164.227 40.9113 163.529 41.3617C162.831 41.812 162.285 42.4275 161.89 43.2081C161.495 44.0037 161.313 44.9044 161.313 45.9251C161.313 46.9459 161.51 47.8916 161.89 48.6873C162.269 49.4829 162.816 50.1133 163.529 50.5637C164.227 51.014 165.047 51.2392 165.973 51.2392Z" fill="#181818"/>
<path d="M184.566 54.7226C183.063 54.7226 181.712 54.4674 180.513 53.972C179.314 53.4767 178.343 52.7561 177.584 51.8104L180.164 49.6037C180.802 50.3242 181.53 50.8496 182.335 51.1649C183.139 51.4801 183.974 51.6453 184.854 51.6453C185.218 51.6453 185.552 51.6002 185.841 51.5252C186.129 51.4501 186.387 51.315 186.6 51.1349C186.812 50.9697 186.979 50.7596 187.101 50.5494C187.222 50.3242 187.283 50.0691 187.283 49.7988C187.283 49.2885 187.085 48.8831 186.706 48.5829C186.493 48.4328 186.144 48.2677 185.689 48.1025C185.218 47.9374 184.627 47.7573 183.898 47.5922C182.729 47.2919 181.758 46.9467 180.984 46.5564C180.21 46.1661 179.603 45.7157 179.178 45.2354C178.813 44.83 178.54 44.3647 178.358 43.8543C178.176 43.3439 178.085 42.7885 178.085 42.188C178.085 41.4375 178.252 40.7619 178.586 40.1615C178.92 39.561 179.375 39.0206 179.952 38.5853C180.529 38.1349 181.212 37.7897 181.986 37.5645C182.76 37.3243 183.564 37.2192 184.414 37.2192C185.264 37.2192 186.114 37.3243 186.918 37.5345C187.723 37.7446 188.482 38.0449 189.18 38.4502C189.878 38.8405 190.485 39.3208 190.971 39.8763L188.77 42.2781C188.36 41.8878 187.92 41.5576 187.434 41.2573C186.949 40.9571 186.463 40.7169 185.962 40.5368C185.461 40.3566 185.006 40.2666 184.566 40.2666C184.156 40.2666 183.792 40.3116 183.473 40.3716C183.154 40.4467 182.881 40.5518 182.669 40.7019C182.456 40.852 182.289 41.0322 182.168 41.2573C182.046 41.4825 181.986 41.7377 181.986 42.0379C182.001 42.2931 182.077 42.5333 182.198 42.7585C182.32 42.9836 182.486 43.1638 182.699 43.3139C182.942 43.464 183.291 43.6291 183.761 43.8243C184.232 44.0194 184.854 44.1996 185.598 44.3647C186.66 44.6499 187.541 44.9501 188.254 45.2954C188.967 45.6407 189.529 46.031 189.939 46.4813C190.349 46.8716 190.637 47.3069 190.804 47.8173C190.971 48.3277 191.062 48.8982 191.062 49.5136C191.062 50.5194 190.774 51.4051 190.212 52.2007C189.65 52.9963 188.861 53.6118 187.89 54.0471C186.903 54.4974 185.81 54.7226 184.581 54.7226H184.566Z" fill="#181818"/>
<path d="M180.21 3.56299H176.233V7.49599H180.21V3.56299Z" fill="#181818"/>
<path d="M118.678 33.6157H114.702V37.5487H118.678V33.6157Z" fill="#181818"/>
</g>
<defs>
<clipPath id="clip0_4151_3226">
<rect width="312" height="54.0563" fill="white" transform="translate(0 0.680664)"/>
</clipPath>
</defs>
</svg>
