<svg width="20" height="21" viewBox="0 0 20 21" fill="none" xmlns="http://www.w3.org/2000/svg">
<path d="M16.6663 19.2134H14.9997V17.5467C14.9997 16.166 13.8804 15.0467 12.4997 15.0467H7.49967C6.11897 15.0467 4.99967 16.166 4.99967 17.5467V19.2134H3.33301V17.5467C3.33301 15.2456 5.19849 13.38 7.49967 13.38H12.4997C14.8008 13.38 16.6663 15.2456 16.6663 17.5467V19.2134ZM9.99967 11.7134C7.23825 11.7134 4.99967 9.4748 4.99967 6.71338C4.99967 3.95196 7.23825 1.71338 9.99967 1.71338C12.7611 1.71338 14.9997 3.95196 14.9997 6.71338C14.9997 9.4748 12.7611 11.7134 9.99967 11.7134ZM9.99967 10.0467C11.8406 10.0467 13.333 8.55433 13.333 6.71338C13.333 4.87243 11.8406 3.38005 9.99967 3.38005C8.15872 3.38005 6.66634 4.87243 6.66634 6.71338C6.66634 8.55433 8.15872 10.0467 9.99967 10.0467Z" fill="#F2652D"/>
</svg>
