<svg width="24" height="25" viewBox="0 0 24 25" fill="none" xmlns="http://www.w3.org/2000/svg">
<path d="M22.5005 12.6133C22.5005 11.7499 22.4291 11.1199 22.2744 10.4666H12.2148V14.3632H18.1196C18.0006 15.3316 17.3577 16.7899 15.9291 17.7699L15.9091 17.9003L19.0897 20.3151L19.3101 20.3366C21.3338 18.5049 22.5005 15.8099 22.5005 12.6133Z" fill="#4285F4"/>
<path d="M12.214 22.8801C15.1068 22.8801 17.5353 21.9467 19.3092 20.3367L15.9282 17.77C15.0235 18.3883 13.8092 18.82 12.214 18.82C9.38069 18.82 6.97596 16.9884 6.11874 14.4567L5.99309 14.4671L2.68583 16.9755L2.64258 17.0933C4.40446 20.5233 8.0235 22.8801 12.214 22.8801Z" fill="#34A853"/>
<path d="M6.12095 14.4568C5.89476 13.8035 5.76386 13.1034 5.76386 12.3801C5.76386 11.6567 5.89476 10.9568 6.10905 10.3034L6.10306 10.1643L2.75435 7.61566L2.64478 7.66673C1.91862 9.09009 1.50195 10.6884 1.50195 12.3801C1.50195 14.0718 1.91862 15.6701 2.64478 17.0934L6.12095 14.4568Z" fill="#FBBC05"/>
<path d="M12.2141 5.94004C14.2259 5.94004 15.583 6.7917 16.3569 7.50342L19.3807 4.61007C17.5236 2.9184 15.1069 1.88007 12.2141 1.88007C8.02353 1.88007 4.40447 4.23671 2.64258 7.66669L6.10686 10.3034C6.97598 7.77173 9.38073 5.94004 12.2141 5.94004Z" fill="#EB4335"/>
</svg>
