<svg width="20" height="20" viewBox="0 0 20 20" fill="none" xmlns="http://www.w3.org/2000/svg">
<path d="M9.99984 18.3333C5.39746 18.3333 1.6665 14.6023 1.6665 9.99996C1.6665 5.39758 5.39746 1.66663 9.99984 1.66663C14.6022 1.66663 18.3332 5.39758 18.3332 9.99996C18.3332 14.6023 14.6022 18.3333 9.99984 18.3333ZM9.99984 16.6666C13.6818 16.6666 16.6665 13.6819 16.6665 9.99996C16.6665 6.31806 13.6818 3.33329 9.99984 3.33329C6.31794 3.33329 3.33317 6.31806 3.33317 9.99996C3.33317 13.6819 6.31794 16.6666 9.99984 16.6666ZM9.1665 12.5H10.8332V14.1666H9.1665V12.5ZM10.8332 11.1292V11.6666H9.1665V10.4166C9.1665 9.95638 9.53959 9.58329 9.99984 9.58329C10.6902 9.58329 11.2498 9.02363 11.2498 8.33329C11.2498 7.64293 10.6902 7.08329 9.99984 7.08329C9.39342 7.08329 8.88784 7.51515 8.77384 8.0881L7.13926 7.76118C7.40515 6.42428 8.58484 5.41663 9.99984 5.41663C11.6107 5.41663 12.9165 6.72246 12.9165 8.33329C12.9165 9.65454 12.0379 10.7706 10.8332 11.1292Z" fill="#275570"/>
</svg>
