<svg width="15" height="14" viewBox="0 0 15 14" fill="none" xmlns="http://www.w3.org/2000/svg">
<path d="M7.80371 13.999C3.93772 13.999 0.803711 10.865 0.803711 6.99902C0.803711 3.13303 3.93772 -0.000976562 7.80371 -0.000976562C11.6697 -0.000976562 14.8037 3.13303 14.8037 6.99902C14.8037 10.865 11.6697 13.999 7.80371 13.999ZM7.80371 12.599C10.8965 12.599 13.4037 10.0918 13.4037 6.99902C13.4037 3.90623 10.8965 1.39902 7.80371 1.39902C4.71091 1.39902 2.20371 3.90623 2.20371 6.99902C2.20371 10.0918 4.71091 12.599 7.80371 12.599ZM7.10371 9.09902H8.50371V10.499H7.10371V9.09902ZM8.50371 7.94759V8.39902H7.10371V7.34902C7.10371 6.96241 7.4171 6.64902 7.80371 6.64902C8.38359 6.64902 8.85371 6.1789 8.85371 5.59902C8.85371 5.01912 8.38359 4.54902 7.80371 4.54902C7.29432 4.54902 6.86963 4.91178 6.77387 5.39306L5.40083 5.11845C5.62417 3.99546 6.61511 3.14902 7.80371 3.14902C9.15681 3.14902 10.2537 4.24592 10.2537 5.59902C10.2537 6.70887 9.5157 7.64638 8.50371 7.94759Z" fill="#447C9C"/>
</svg>
