<svg width="378" height="67" viewBox="0 0 378 67" fill="none" xmlns="http://www.w3.org/2000/svg">
<g opacity="0.2">
<path d="M4.13828 7.35019C-0.469841 10.3356 0.771618 15.8158 3.98245 19.6014C7.19103 23.3871 14.3088 29.6212 19.8081 24.131C25.6595 18.2882 20.6651 15.4269 18.7356 16.5245C17.3968 17.2833 17.8171 18.9353 18.7036 18.8141C19.3322 18.7112 19.7113 18.3555 19.7113 18.3555C19.7113 18.3555 18.7802 18.5728 18.719 18.0576C18.5528 16.6604 21.1751 17.3202 20.5315 19.2631C20.1576 20.386 18.229 20.5244 16.992 18.8359C15.7551 17.1475 13.9999 10.7107 12.7161 9.19737C11.4344 7.68169 7.77936 4.99383 4.13828 7.35019Z" fill="white"/>
<path d="M8.56991 11.1274C6.91322 10.8566 7.46574 14.8862 8.87557 15.0035C10.2854 15.1208 12.0017 13.5392 11.0309 12.4665C10.0624 11.3914 8.56991 11.1274 8.56991 11.1274Z" fill="#58595B"/>
<path d="M5.08868 14.3256C3.60743 13.8965 3.6734 17.6347 4.94783 17.8956C6.22232 18.1588 7.95869 16.9017 7.18984 15.8166C6.42099 14.7316 5.08868 14.3256 5.08868 14.3256Z" fill="#58595B"/>
<path d="M9.75041 17.1555C8.7451 18.3589 7.12102 17.6357 6.77163 18.4195C6.42224 19.2032 9.8089 21.0316 11.3545 19.2899C12.9002 17.5482 12.2231 14.6369 11.1341 15.0796C10.4376 15.3289 10.2487 16.5596 9.75041 17.1555Z" fill="#58595B"/>
<path d="M5.31879 21.4135C5.31879 21.4135 0.996118 20.1162 0.888714 22.5229C0.78131 24.9296 8.4535 21.9126 8.4535 21.9126L5.31654 21.4136L5.31879 21.4135Z" fill="white"/>
<path d="M14.8076 13.8871C14.8076 13.8871 14.1193 9.40971 16.5071 9.63126C18.895 9.85281 14.8721 17.0768 14.8721 17.0768L14.8076 13.8871Z" fill="white"/>
</g>
<g clip-path="url(#clip0_3095_548)">
<path opacity="0.8" d="M159.111 31.8527C159.111 31.8527 155.353 28.0697 157.524 24.9907C152.053 23.4541 143.28 27.8544 143.28 27.8544C143.28 27.8544 150.127 28.1534 150.842 29.3032C151.556 30.453 150.932 31.2245 150.932 31.2245C150.932 31.2245 152.72 30.6545 153.324 31.7439C153.72 32.4525 153.373 33.3651 153.373 33.3651C153.373 33.3651 155.607 33.0583 156.243 33.9407C157.15 35.2011 153.644 40.5263 153.644 40.5263C153.644 40.5263 158.462 36.358 160.04 37.7517C160.895 38.5025 161.138 40.7118 161.138 40.7118C161.138 40.7118 162.014 39.8404 162.977 39.9684C163.76 40.0702 164.188 42.5524 164.188 42.5524C164.188 42.5524 164.656 41.121 165.902 41.5449C167.603 42.1225 168.365 49.3713 168.365 49.3713C168.365 49.3713 173.425 40.8795 167.981 32.6754C165.994 36.6301 161.523 33.6916 161.523 33.6916C161.523 33.6916 163.356 32.0322 162.931 31.4524C162.624 31.1209 161.822 31.741 161.822 31.741L161.186 31.1697C161.186 31.1697 161.726 30.2286 161.447 29.9739C161.263 29.8067 160.168 30.485 159.118 31.8489L159.111 31.8527Z" fill="black"/>
</g>
<path opacity="0.8" d="M291.248 32.6535C291.248 32.6535 282.619 34.47 280.295 28.6883C273.244 34.9036 271.469 51.0387 271.469 51.0387C271.469 51.0387 278.038 41.801 280.276 41.8424C282.515 41.8838 283.025 43.4433 283.025 43.4433C283.025 43.4433 283.84 40.4496 285.896 40.59C287.236 40.6763 288.191 41.9788 288.191 41.9788C288.191 41.9788 289.773 38.6019 291.569 38.5122C294.135 38.3849 298.377 48.0393 298.377 48.0393C298.377 48.0393 296.92 37.6036 300.273 36.665C302.084 36.1532 305.37 37.8004 305.37 37.8004C305.37 37.8004 304.947 35.8021 305.99 34.58C306.836 33.584 310.667 35.221 310.667 35.221C310.667 35.221 309.1 33.2844 310.808 31.9355C313.139 30.0931 323.889 35.5495 323.889 35.5495C323.889 35.5495 316.646 20.8929 300.363 21.0769C304.067 27.3903 295.969 30.9568 295.969 30.9568C295.969 30.9568 295.313 26.92 294.126 26.9888C293.39 27.118 293.53 28.7887 293.53 28.7887L292.165 29.1587C292.165 29.1587 291.344 27.562 290.74 27.7205C290.341 27.8269 290.299 29.9564 291.25 32.6394L291.248 32.6535Z" fill="black"/>
<g clip-path="url(#clip1_3095_548)">
<g opacity="0.2">
<path d="M213.04 6.06535C200.123 8.28668 197.699 21.4786 201.187 32.8023C204.671 44.1241 214.433 64.4915 231.659 57.611C249.988 50.2874 241.717 39.3163 236.452 39.912C232.801 40.3192 232.171 44.3392 234.231 44.9061C235.707 45.2709 236.873 44.8466 236.873 44.8466C236.873 44.8466 234.625 44.4484 234.975 43.2604C235.923 40.0385 241.057 43.9501 237.82 47.6087C235.944 49.7215 231.582 48.213 230.454 43.3458C229.326 38.4786 231.523 22.7051 230.127 18.178C228.739 13.6479 223.244 4.31569 213.04 6.06535Z" fill="white"/>
<path d="M219.224 18.5208C215.843 16.3699 213.27 25.7315 216.253 27.3135C219.237 28.8955 224.489 27.0375 223.366 23.7714C222.251 20.5024 219.224 18.5208 219.224 18.5208Z" fill="#58595B"/>
<path d="M208.575 22.2665C205.728 19.9332 202.361 28.1981 204.912 29.968C207.461 31.743 212.453 30.6158 211.785 27.5126C211.117 24.4093 208.575 22.2665 208.575 22.2665Z" fill="#58595B"/>
<path d="M216.15 32.8572C212.813 34.5532 209.929 31.4405 208.426 32.8319C206.923 34.2234 212.636 41.4176 217.664 39.0478C222.693 36.6781 223.942 29.6537 221.137 29.6021C219.374 29.4945 217.803 32.0177 216.15 32.8572Z" fill="#58595B"/>
<path d="M202.424 38.0369C202.424 38.0369 194.157 31.1287 191.66 36.309C189.163 41.4892 208.833 42.0774 208.833 42.0774L202.419 38.0349L202.424 38.0369Z" fill="white"/>
<path d="M230.316 30.436C230.316 30.436 233.012 19.9644 238.044 22.6941C243.076 25.4238 227.46 37.496 227.46 37.496L230.316 30.436Z" fill="white"/>
</g>
</g>
<g clip-path="url(#clip2_3095_548)">
<g opacity="0.2">
<path d="M362.386 7.05256C369.433 7.7137 371.319 14.7379 369.941 20.9997C368.566 27.2603 364.212 38.6684 354.642 35.6704C344.458 32.4792 348.424 26.2084 351.283 26.3106C353.265 26.3782 353.781 28.5233 352.698 28.9154C351.92 29.174 351.274 28.9934 351.274 28.9934C351.274 28.9934 352.466 28.6846 352.225 28.0575C351.573 26.3568 348.983 28.6837 350.886 30.5248C351.988 31.5878 354.269 30.5911 354.661 27.9151C355.053 25.2392 353.176 16.811 353.727 14.3076C354.275 11.8028 356.819 6.53304 362.386 7.05256Z" fill="white"/>
<path d="M359.608 14.0379C361.332 12.7352 363.129 17.6843 361.594 18.6633C360.059 19.6422 357.151 18.8576 357.611 17.0467C358.067 15.2345 359.608 14.0379 359.608 14.0379Z" fill="#58595B"/>
<path d="M365.501 15.617C366.93 14.238 369.106 18.5617 367.812 19.6241C366.518 20.6892 363.784 20.2885 364.006 18.5845C364.228 16.8805 365.501 15.617 365.501 15.617Z" fill="#58595B"/>
<path d="M361.894 21.6532C363.764 22.4302 365.179 20.6286 366.048 21.3175C366.918 22.0064 364.162 26.1305 361.352 25.0602C358.543 23.9899 357.561 20.2479 359.068 20.103C360.011 19.9714 360.968 21.2688 361.894 21.6532Z" fill="#58595B"/>
<path d="M369.507 23.8786C369.507 23.8786 373.649 19.8025 375.221 22.4964C376.793 25.1903 366.236 26.3283 366.236 26.3283L369.509 23.8773L369.507 23.8786Z" fill="white"/>
<path d="M354.166 20.9363C354.166 20.9363 352.254 15.3927 349.667 17.077C347.081 18.7612 356.014 24.6306 356.014 24.6306L354.166 20.9363Z" fill="white"/>
</g>
</g>
<defs>
<clipPath id="clip0_3095_548">
<rect width="31.1384" height="19.1621" fill="white" transform="translate(140.648 20.1772) rotate(6.61613)"/>
</clipPath>
<clipPath id="clip1_3095_548">
<rect width="51.9334" height="47.9385" fill="white" transform="translate(205.661 0.963135) rotate(21.6175)"/>
</clipPath>
<clipPath id="clip2_3095_548">
<rect width="28" height="26" fill="white" transform="matrix(-0.897513 0.440988 0.440988 0.897513 366.13 3.98889)"/>
</clipPath>
</defs>
</svg>
