<svg width="16" height="17" viewBox="0 0 16 17" fill="none" xmlns="http://www.w3.org/2000/svg">
<path d="M8.00016 15.1668C4.31826 15.1668 1.3335 12.182 1.3335 8.50016C1.3335 4.81826 4.31826 1.8335 8.00016 1.8335C11.682 1.8335 14.6668 4.81826 14.6668 8.50016C14.6668 12.182 11.682 15.1668 8.00016 15.1668ZM8.00016 13.8335C10.9457 13.8335 13.3335 11.4457 13.3335 8.50016C13.3335 5.55464 10.9457 3.16683 8.00016 3.16683C5.05464 3.16683 2.66683 5.55464 2.66683 8.50016C2.66683 11.4457 5.05464 13.8335 8.00016 13.8335ZM7.3335 5.16683H8.66683V6.50016H7.3335V5.16683ZM7.3335 7.8335H8.66683V11.8335H7.3335V7.8335Z" fill="#F2652D"/>
</svg>
