<svg width="41" height="330" viewBox="0 0 41 330" fill="none" xmlns="http://www.w3.org/2000/svg">
<g clip-path="url(#clip0_3042_1753)">
<path d="M26.5113 296.79C26.5113 300.382 23.6377 303.287 20.076 303.287C16.5143 303.287 13.6406 300.382 13.6406 296.79C13.6406 293.198 20.076 290.293 20.076 290.293C20.076 290.293 26.5113 293.198 26.5113 296.79Z" fill="black"/>
<path d="M23.2517 316.202V314.73H16.8973V316.202C16.2497 315.475 15.8652 314.553 15.8652 313.513C15.8652 312.806 16.27 312.139 16.8568 311.57C18.0913 310.294 20.0948 309.43 20.0948 309.43C20.0948 309.43 22.078 310.294 23.3327 311.57C23.8993 312.158 24.3243 312.806 24.3243 313.513C24.3243 314.533 23.9398 315.475 23.2922 316.202H23.2517Z" fill="black"/>
<path d="M27.158 305.446C27.158 309.234 23.9808 312.316 20.0751 312.316C16.1694 312.316 12.9922 309.234 12.9922 305.446C12.9922 301.658 16.1694 298.576 20.0751 298.576C23.9808 298.576 27.158 301.658 27.158 305.446Z" fill="black"/>
<path d="M14.5298 302.541C13.9227 301.658 13.3155 300.755 12.7084 299.852C12.1013 298.949 11.4942 298.046 10.9074 297.143L7.34565 291.706L7.12305 291.353L7.20399 291C7.64921 288.841 8.11466 286.682 8.60034 284.523C8.84319 283.443 9.10627 282.364 9.40982 281.304C9.69314 280.244 10.0169 279.164 10.4014 278.124C10.4217 279.243 10.3812 280.342 10.3002 281.461C10.2395 282.56 10.1383 283.659 10.0169 284.758C9.77408 286.957 9.511 289.135 9.24792 291.334L9.08603 290.627L12.8906 295.907C13.5382 296.79 14.1453 297.673 14.7726 298.557C15.3999 299.44 16.0273 300.323 16.6344 301.226L14.55 302.561L14.5298 302.541Z" fill="black"/>
<path d="M14.8944 305.132C13.8825 304.68 12.8909 304.19 11.8993 303.719C10.9077 303.248 9.91609 302.757 8.92448 302.266L5.96989 300.814L3.0153 299.322L2.61056 299.106L2.52961 298.733L1.80109 295.593C1.55824 294.553 1.3154 293.493 1.09279 292.452C0.647581 290.352 0.242843 288.232 0 286.093C0.890424 288.075 1.63919 290.097 2.32725 292.138C2.67127 293.159 3.0153 294.18 3.33909 295.2L4.3307 298.262L3.82478 297.673L6.88055 298.949L9.91609 300.245C10.9279 300.676 11.9398 301.108 12.9516 301.56C13.9635 302.011 14.9753 302.443 15.9669 302.914L14.8944 305.093V305.132Z" fill="black"/>
<path d="M15.5213 307.35C14.7928 307.566 14.0643 307.762 13.3358 307.958C12.6072 308.154 11.8787 308.351 11.1502 308.547C9.69312 308.92 8.21582 309.312 6.75876 309.666L7.44682 308.979L6.27308 312.865L5.0791 316.732C4.67436 318.027 4.24938 319.303 3.78394 320.579C3.31849 321.855 2.85304 323.13 2.30664 324.386C2.46854 323.032 2.67091 321.698 2.91375 320.363C3.15659 319.028 3.41967 317.713 3.70299 316.398L4.57318 312.453L5.48384 308.508L5.60526 308.017L6.17189 307.821C7.60871 307.33 9.04553 306.879 10.4824 306.408C11.1906 306.172 11.9192 305.956 12.6477 305.721C13.3762 305.505 14.0845 305.269 14.8131 305.073L15.5213 307.389V307.35Z" fill="black"/>
<path d="M17.2611 308.724C16.6945 309.901 16.0874 311.04 15.4803 312.198L13.6387 315.652L13.6994 314.906C14.0232 316.143 14.3268 317.399 14.6303 318.636C14.9339 319.892 15.2374 321.128 15.5207 322.384C15.8243 323.641 16.0874 324.897 16.3505 326.153C16.5933 327.429 16.8159 328.685 16.9373 329.98C16.3505 328.803 15.8445 327.605 15.3791 326.408C14.9136 325.211 14.4684 323.994 14.0435 322.777C13.6185 321.56 13.1935 320.343 12.7888 319.126C12.384 317.909 11.959 316.692 11.5745 315.456L11.4531 315.103L11.6353 314.71L13.2744 311.157C13.8411 309.98 14.3875 308.802 14.9743 307.644L17.2206 308.684L17.2611 308.724Z" fill="black"/>
<path d="M24.3848 301.206C24.9919 300.303 25.6192 299.42 26.2466 298.537C26.8739 297.654 27.481 296.751 28.1286 295.887L31.9331 290.607L31.7712 291.314C31.4879 289.135 31.2451 286.937 31.0022 284.739C30.8808 283.639 30.7796 282.54 30.7189 281.441C30.6582 280.342 30.5975 279.223 30.6177 278.104C31.0022 279.164 31.326 280.224 31.6093 281.284C31.9129 282.344 32.1557 283.424 32.4188 284.503C32.9045 286.662 33.37 288.821 33.8152 290.98L33.8961 291.333L33.6735 291.687L30.1118 297.124C29.5249 298.027 28.9178 298.929 28.3107 299.832C27.7036 300.735 27.0965 301.638 26.4894 302.521L24.405 301.187L24.3848 301.206Z" fill="black"/>
<path d="M25.0332 302.933C26.0248 302.462 27.0367 302.031 28.0485 301.579C29.0603 301.128 30.0722 300.696 31.084 300.264L34.1196 298.969L37.1754 297.693L36.6694 298.282L37.661 295.22C37.9848 294.199 38.3289 293.178 38.6729 292.158C39.3812 290.117 40.1097 288.095 41.0204 286.113C40.7573 288.272 40.3728 290.372 39.9276 292.472C39.705 293.532 39.4621 294.572 39.2193 295.612L38.4908 298.753L38.4098 299.126L38.0051 299.342L35.0505 300.833L32.0959 302.286C31.1043 302.776 30.1329 303.267 29.1211 303.738C28.1295 304.209 27.1378 304.68 26.126 305.151L25.0534 302.973L25.0332 302.933Z" fill="black"/>
<path d="M26.2063 305.034C26.9349 305.25 27.6634 305.465 28.3717 305.681C29.1002 305.897 29.8085 306.113 30.537 306.368C31.9739 306.839 33.4107 307.291 34.8475 307.782L35.4141 307.978L35.5356 308.468L36.4462 312.414L37.3164 316.359C37.5997 317.674 37.8628 319.009 38.1056 320.324C38.3485 321.658 38.5711 322.993 38.7128 324.347C38.1664 323.091 37.7009 321.815 37.2355 320.539C36.77 319.264 36.345 317.988 35.9403 316.692L34.7463 312.826L33.5726 308.94L34.2606 309.627C32.7833 309.273 31.3263 308.881 29.8692 308.508C29.1407 308.331 28.4122 308.115 27.6836 307.919C26.9551 307.723 26.2266 307.526 25.498 307.31L26.2063 304.994V305.034Z" fill="black"/>
<path d="M26.0036 307.683C26.5904 308.841 27.1368 310.019 27.7035 311.197L29.3427 314.749L29.5248 315.142L29.4034 315.495C29.0189 316.712 28.5939 317.949 28.1892 319.166C27.7844 320.382 27.3594 321.599 26.9345 322.816C26.5095 324.033 26.0845 325.25 25.5988 326.447C25.1131 327.645 24.6275 328.842 24.0406 330.02C24.162 328.724 24.3846 327.448 24.6275 326.192C24.8703 324.936 25.1536 323.68 25.4572 322.424C25.7607 321.168 26.044 319.911 26.3476 318.675C26.6512 317.419 26.9547 316.182 27.2785 314.946L27.3392 315.691L25.4976 312.237C24.9108 311.079 24.3037 309.921 23.7168 308.763L25.9631 307.723L26.0036 307.683Z" fill="black"/>
<path d="M20.6817 81.832H19.4473V294.435H20.6817V81.832Z" fill="black"/>
</g>
<defs>
<clipPath id="clip0_3042_1753">
<rect width="41" height="350" fill="white" transform="translate(0 -20)"/>
</clipPath>
</defs>
</svg>
