<svg width="53" height="468" viewBox="0 0 53 468" fill="none" xmlns="http://www.w3.org/2000/svg">
<g clip-path="url(#clip0_3042_1736)">
<path d="M34.2686 423.594C34.2686 428.396 30.5539 432.281 25.9497 432.281C21.3456 432.281 17.6309 428.396 17.6309 423.594C17.6309 418.791 25.9497 414.906 25.9497 414.906C25.9497 414.906 34.2686 418.791 34.2686 423.594Z" fill="black"/>
<path d="M30.0581 449.55V447.581H21.8439V449.55C21.0068 448.579 20.5098 447.345 20.5098 445.954C20.5098 445.009 21.033 444.117 21.7916 443.356C23.3874 441.65 25.9772 440.495 25.9772 440.495C25.9772 440.495 28.5409 441.65 30.1628 443.356C30.8953 444.143 31.4446 445.009 31.4446 445.954C31.4446 447.319 30.9476 448.579 30.1105 449.55H30.0581Z" fill="black"/>
<path d="M35.1069 435.168C35.1069 440.233 30.9998 444.353 25.9509 444.353C20.902 444.353 16.7949 440.233 16.7949 435.168C16.7949 430.102 20.902 425.982 25.9509 425.982C30.9998 425.982 35.1069 430.102 35.1069 435.168Z" fill="black"/>
<path d="M18.7835 431.283C17.9987 430.102 17.2139 428.895 16.4291 427.688C15.6443 426.48 14.8595 425.273 14.1009 424.066L9.49674 416.796L9.20898 416.324L9.31362 415.851C9.88914 412.964 10.4908 410.077 11.1187 407.19C11.4326 405.747 11.7727 404.303 12.1651 402.886C12.5313 401.469 12.9499 400.026 13.4469 398.635C13.4731 400.13 13.4207 401.6 13.3161 403.096C13.2376 404.566 13.1068 406.036 12.9499 407.505C12.6359 410.445 12.2959 413.358 11.9558 416.297L11.7465 415.353L16.6646 422.412C17.5017 423.593 18.2865 424.775 19.0974 425.956C19.9084 427.137 20.7194 428.318 21.5041 429.525L18.8097 431.309L18.7835 431.283Z" fill="black"/>
<path d="M19.2537 434.748C17.9457 434.144 16.6639 433.488 15.382 432.858C14.1002 432.228 12.8184 431.572 11.5365 430.916L7.71718 428.974L3.89783 426.979L3.37463 426.69L3.26999 426.192L2.32823 421.993C2.01431 420.602 1.70039 419.184 1.41264 417.793C0.837118 414.985 0.313919 412.151 0 409.29C1.15104 411.941 2.11895 414.644 3.00839 417.373C3.45311 418.738 3.89783 420.103 4.31639 421.468L5.59822 425.562L4.94422 424.775L8.89437 426.48L12.8184 428.213C14.1264 428.79 15.4344 429.367 16.7423 429.971C18.0503 430.575 19.3583 431.152 20.6402 431.782L19.2537 434.695V434.748Z" fill="black"/>
<path d="M20.0648 437.713C19.1231 438.002 18.1813 438.265 17.2396 438.527C16.2978 438.789 15.3561 439.052 14.4143 439.314C12.5308 439.813 10.6211 440.338 8.7376 440.81L9.62704 439.892L8.10977 445.088L6.56633 450.258C6.04313 451.991 5.49377 453.697 4.8921 455.402C4.29042 457.108 3.68874 458.814 2.98242 460.494C3.1917 458.683 3.4533 456.898 3.76722 455.114C4.08114 453.329 4.42122 451.571 4.78746 449.812L5.91233 444.537L7.08953 439.262L7.24649 438.606L7.97897 438.343C9.83632 437.687 11.6937 437.084 13.551 436.454C14.4666 436.139 15.4084 435.85 16.3501 435.535C17.2919 435.246 18.2075 434.931 19.1493 434.669L20.0648 437.766V437.713Z" fill="black"/>
<path d="M22.3145 439.55C21.5821 441.125 20.7973 442.647 20.0125 444.196L17.6319 448.815L17.7104 447.818C18.129 449.471 18.5213 451.151 18.9137 452.804C19.3061 454.484 19.6985 456.137 20.0648 457.817C20.4572 459.497 20.7973 461.176 21.1373 462.856C21.4513 464.562 21.739 466.242 21.896 467.974C21.1373 466.399 20.4833 464.798 19.8817 463.197C19.28 461.596 18.7045 459.969 18.1551 458.342C17.6058 456.715 17.0564 455.087 16.5332 453.46C16.01 451.833 15.4606 450.206 14.9636 448.552L14.8066 448.08L15.0421 447.555L17.161 442.805C17.8935 441.23 18.5998 439.655 19.3585 438.107L22.2622 439.498L22.3145 439.55Z" fill="black"/>
<path d="M31.5234 429.499C32.3082 428.291 33.1192 427.11 33.9302 425.929C34.7411 424.748 35.5259 423.541 36.363 422.386L41.2811 415.326L41.0718 416.271C40.7056 413.358 40.3916 410.419 40.0777 407.479C39.9208 406.009 39.79 404.54 39.7115 403.07C39.633 401.6 39.5545 400.104 39.5807 398.608C40.0777 400.026 40.4963 401.443 40.8625 402.86C41.2549 404.277 41.5688 405.721 41.9089 407.164C42.5368 410.051 43.1384 412.938 43.714 415.825L43.8186 416.297L43.5308 416.77L38.9267 424.04C38.1681 425.247 37.3833 426.454 36.5985 427.662C35.8137 428.869 35.0289 430.076 34.2441 431.257L31.5496 429.472L31.5234 429.499Z" fill="black"/>
<path d="M32.3594 431.808C33.6412 431.178 34.9492 430.601 36.2572 429.997C37.5652 429.394 38.8732 428.816 40.1812 428.239L44.1052 426.507L48.0553 424.801L47.4013 425.588L48.6832 421.494C49.1017 420.129 49.5464 418.764 49.9912 417.4C50.9068 414.67 51.8485 411.967 53.0257 409.316C52.6856 412.203 52.1886 415.011 51.6131 417.82C51.3253 419.237 51.0114 420.628 50.6975 422.019L49.7557 426.218L49.6511 426.717L49.1279 427.005L45.3085 429L41.4892 430.942C40.2074 431.598 38.9517 432.254 37.6437 432.884C36.3618 433.514 35.08 434.144 33.772 434.774L32.3855 431.861L32.3594 431.808Z" fill="black"/>
<path d="M33.8765 434.616C34.8183 434.905 35.76 435.194 36.6756 435.483C37.6174 435.771 38.533 436.06 39.4748 436.401C41.3321 437.031 43.1895 437.635 45.0468 438.291L45.7793 438.553L45.9363 439.209L47.1135 444.485L48.2383 449.76C48.6046 451.518 48.9446 453.303 49.2586 455.061C49.5725 456.846 49.8602 458.631 50.0434 460.441C49.337 458.762 48.7354 457.056 48.1337 455.35C47.532 453.644 46.9827 451.938 46.4595 450.206L44.916 445.036L43.3987 439.839L44.2882 440.758C42.3785 440.285 40.495 439.76 38.6115 439.262C37.6697 439.026 36.728 438.737 35.7862 438.474C34.8445 438.212 33.9027 437.95 32.9609 437.661L33.8765 434.564V434.616Z" fill="black"/>
<path d="M33.6162 438.159C34.3749 439.708 35.0812 441.283 35.8137 442.857L37.9326 447.608L38.1681 448.133L38.0111 448.605C37.5141 450.232 36.9647 451.886 36.4415 453.513C35.9183 455.14 35.3689 456.767 34.8196 458.394C34.2702 460.021 33.7209 461.649 33.093 463.25C32.4652 464.851 31.8374 466.451 31.0787 468.026C31.2357 466.294 31.5234 464.588 31.8374 462.908C32.1513 461.229 32.5175 459.549 32.9099 457.869C33.3023 456.19 33.6685 454.51 34.0609 452.857C34.4533 451.177 34.8457 449.523 35.2643 447.87L35.3428 448.867L32.9622 444.248C32.2036 442.7 31.4188 441.151 30.6602 439.603L33.5639 438.212L33.6162 438.159Z" fill="black"/>
<path d="M26.7364 0H25.1406V420.444H26.7364V0Z" fill="black"/>
</g>
<defs>
<clipPath id="clip0_3042_1736">
<rect width="53" height="468" fill="white"/>
</clipPath>
</defs>
</svg>
