<svg width="20" height="21" viewBox="0 0 20 21" fill="none" xmlns="http://www.w3.org/2000/svg">
<path d="M15.8333 9.21339H16.6667C17.1269 9.21339 17.5 9.58647 17.5 10.0467V18.3801C17.5 18.8403 17.1269 19.2134 16.6667 19.2134H3.33333C2.8731 19.2134 2.5 18.8403 2.5 18.3801V10.0467C2.5 9.58647 2.8731 9.21339 3.33333 9.21339H4.16667V8.38005C4.16667 5.15839 6.77834 2.54672 10 2.54672C13.2217 2.54672 15.8333 5.15839 15.8333 8.38005V9.21339ZM4.16667 10.8801V17.5467H15.8333V10.8801H4.16667ZM9.16667 12.5467H10.8333V15.8801H9.16667V12.5467ZM14.1667 9.21339V8.38005C14.1667 6.07887 12.3012 4.21339 10 4.21339C7.69882 4.21339 5.83333 6.07887 5.83333 8.38005V9.21339H14.1667Z" fill="#F2652D"/>
</svg>
