<svg width="182" height="31" viewBox="0 0 182 31" fill="none" xmlns="http://www.w3.org/2000/svg">
<path d="M16.156 8.97131C16.0072 8.93257 15.8503 8.93882 15.705 8.98926C15.5598 9.0397 15.4328 9.13208 15.34 9.25471C15.2473 9.37734 15.193 9.52472 15.184 9.67821C15.1749 9.8317 15.2117 9.98442 15.2894 10.117C15.3672 10.2497 15.4826 10.3563 15.6209 10.4233C15.7593 10.4904 15.9144 10.515 16.0667 10.4939C16.219 10.4728 16.3617 10.407 16.4766 10.3049C16.5915 10.2028 16.6736 10.0689 16.7124 9.92008C16.763 9.72055 16.733 9.50912 16.6289 9.33155C16.5248 9.15398 16.3549 9.02456 16.156 8.97131Z" fill="#F2652D"/>
<path d="M10.7755 12.7248C10.7242 12.6374 10.6558 12.5612 10.5743 12.501C10.4929 12.4407 10.4001 12.3975 10.3015 12.3741C10.1527 12.3353 9.9958 12.3416 9.85055 12.392C9.70531 12.4425 9.57828 12.5348 9.48553 12.6575C9.39278 12.7801 9.33846 12.9275 9.32946 13.081C9.32046 13.2345 9.35717 13.3872 9.43495 13.5198C9.51273 13.6524 9.62808 13.759 9.76644 13.8261C9.90479 13.8932 10.0599 13.9177 10.2122 13.8966C10.3645 13.8756 10.5072 13.8098 10.6221 13.7077C10.737 13.6055 10.8191 13.4716 10.8579 13.3228C10.9036 13.1201 10.8743 12.9076 10.7755 12.7248Z" fill="#F2652D"/>
<path d="M10.5489 11.4806C10.831 11.5591 11.0917 11.7 11.3119 11.8929L14.2987 10.1367C14.2368 9.85827 14.2368 9.56965 14.2987 9.29123C14.4136 8.84829 14.6997 8.46913 15.0942 8.23716C15.4886 8.00519 15.959 7.93941 16.402 8.05429C16.8449 8.16917 17.2241 8.4553 17.456 8.84973C17.688 9.24417 17.7538 9.7146 17.6389 10.1575C17.5755 10.3978 17.4632 10.6224 17.3091 10.8172L19.1214 13.91C19.3998 13.8481 19.6885 13.8481 19.9669 13.91C20.2538 13.9876 20.5163 14.1366 20.7299 14.3432L24.3374 12.2399L28.8321 1.47812C28.8865 1.34829 28.9148 1.20897 28.9152 1.06818C28.9155 0.927396 28.8881 0.787921 28.8343 0.65779C28.7806 0.52766 28.7017 0.409445 28.602 0.309952C28.5024 0.210459 28.3841 0.131653 28.2539 0.078073C28.1018 0.0173321 27.938 -0.00850116 27.7746 0.00247716C27.6112 0.0134555 27.4523 0.0609655 27.3097 0.141506L7.68359 11.6863L8.86163 11.9337C9.08084 11.7193 9.35158 11.565 9.64775 11.4856C9.94391 11.4063 10.2555 11.4045 10.5526 11.4806" fill="#F2652D"/>
<path d="M21.2069 16.0577C21.15 16.277 21.0505 16.4829 20.914 16.6638C20.7775 16.8447 20.6068 16.9969 20.4115 17.1117C20.2162 17.2266 20.0001 17.3018 19.7757 17.3332C19.5514 17.3646 19.323 17.3515 19.1037 17.2946C18.8843 17.2377 18.6784 17.1382 18.4975 17.0017C18.3167 16.8652 18.1645 16.6945 18.0496 16.4992C17.9347 16.3038 17.8595 16.0878 17.8281 15.8634C17.7967 15.639 17.8098 15.4107 17.8667 15.1913C17.9443 14.9045 18.0933 14.642 18.2999 14.4283L16.5274 11.3981C16.2079 11.5044 15.865 11.5186 15.5378 11.4388C15.249 11.3661 14.9853 11.2164 14.7748 11.0057L11.8062 12.7383C11.8784 13.0226 11.8784 13.3204 11.8062 13.6046C11.7561 13.8253 11.663 14.0339 11.5323 14.2185C11.4016 14.4032 11.2358 14.5603 11.0443 14.6809C10.8529 14.8014 10.6396 14.8831 10.4166 14.9213C10.1936 14.9594 9.96524 14.9533 9.74461 14.9032C9.52398 14.8531 9.31538 14.76 9.13072 14.6293C8.94605 14.4986 8.78895 14.3328 8.66836 14.1413C8.54778 13.9499 8.46609 13.7366 8.42794 13.5136C8.3898 13.2906 8.39595 13.0622 8.44605 12.8416L6.50773 12.4293L0.526924 15.9544C0.405048 16.0247 0.298499 16.1188 0.213565 16.231C0.128632 16.3432 0.0670328 16.4713 0.0324034 16.6077C-0.00222593 16.7441 -0.00918444 16.8861 0.0119384 17.0252C0.0330613 17.1644 0.0818376 17.2979 0.15539 17.4178C0.24078 17.5597 0.357703 17.6801 0.497094 17.7695C0.636486 17.8589 0.794599 17.915 0.959173 17.9335L12.1125 19.1912L14.8781 30.0763C14.9306 30.2936 15.0508 30.4885 15.2213 30.633C15.3919 30.7775 15.604 30.864 15.8269 30.8801H15.971C16.1695 30.869 16.3606 30.8008 16.5213 30.6838C16.6821 30.5668 16.8056 30.4059 16.8772 30.2204L23.7642 13.7487L21.2495 15.2122C21.2763 15.4946 21.2623 15.7793 21.2078 16.0577" fill="#F2652D"/>
<path d="M19.7224 14.8262C19.5736 14.7874 19.4167 14.7937 19.2715 14.8441C19.1262 14.8946 18.9992 14.9869 18.9064 15.1096C18.8137 15.2322 18.7594 15.3796 18.7504 15.5331C18.7414 15.6866 18.7781 15.8393 18.8558 15.9719C18.9336 16.1045 19.049 16.2111 19.1873 16.2782C19.3257 16.3453 19.4808 16.3698 19.6331 16.3488C19.7854 16.3277 19.9281 16.2619 20.043 16.1598C20.1579 16.0576 20.24 15.9237 20.2788 15.7749C20.3268 15.5755 20.2956 15.3653 20.1919 15.1884C20.0881 15.0115 19.9199 14.8817 19.7224 14.8262Z" fill="#F2652D"/>
<path d="M36.0375 7.82988H39.3152V18.7947C39.3152 19.6193 39.6658 20.0316 40.3872 20.0316C40.5623 20.0314 40.7363 20.0036 40.9028 19.9492C41.0871 19.8963 41.2663 19.8272 41.4383 19.7425L41.8715 22.4022C41.4165 22.6082 40.9391 22.7602 40.4488 22.8553C39.9603 22.9566 39.4633 23.0118 38.9645 23.0202C38.1663 23.0723 37.3802 22.8053 36.7787 22.278C36.509 21.9937 36.3018 21.656 36.1704 21.2868C36.039 20.9175 35.9863 20.5248 36.0157 20.134V7.82988H36.0375Z" fill="#275570"/>
<path d="M43.0264 10.7985V7.8299H46.3249V10.8203H43.0264V10.7985ZM43.0264 22.8381V12.0355H46.3249V22.8191H43.0264V22.8381Z" fill="#275570"/>
<path d="M58.9626 22.8381H55.6849V16.7766C55.7376 16.2315 55.5992 15.685 55.2934 15.2307C55.1681 15.0743 55.0075 14.9498 54.8248 14.8674C54.6421 14.785 54.4424 14.7471 54.2423 14.7568C54.0012 14.7549 53.7625 14.804 53.5418 14.9008C53.2976 14.9985 53.0684 15.1303 52.8612 15.2923C52.6435 15.4656 52.4494 15.6667 52.284 15.8904C52.1069 16.1212 51.9677 16.3788 51.8717 16.6534V22.8381H48.5723V12.031H51.5409V13.8433C51.9491 13.1957 52.5361 12.6802 53.231 12.359C54.0192 11.9985 54.8791 11.8221 55.7456 11.8434C56.332 11.8178 56.9149 11.9459 57.4365 12.2149C57.8526 12.4455 58.1955 12.7884 58.4261 13.2045C58.6591 13.6117 58.8128 14.0594 58.8792 14.5239C58.9538 14.9873 58.9884 15.4563 58.9825 15.9257V22.8318L58.9626 22.8381Z" fill="#275570"/>
<path d="M68.341 22.8381L65.5165 18.5083L64.362 19.7009V22.8553H61.0635V7.8299H64.362V16.5292L68.0112 12.0554H71.4954L67.6405 16.6942L71.8253 22.8381H68.341Z" fill="#275570"/>
<path d="M77.8447 22.8381V8.24218H84.0711C84.7354 8.23385 85.3924 8.38225 85.9886 8.67534C86.5566 8.95604 87.0671 9.34054 87.4938 9.80897C87.9085 10.2803 88.2429 10.8167 88.4833 11.3966C88.7201 11.9646 88.8394 12.5746 88.834 13.1899C88.843 14.4555 88.3882 15.6805 87.5554 16.6334C87.1531 17.1054 86.654 17.4852 86.0919 17.7471C85.4908 18.0238 84.8361 18.1646 84.1744 18.1594H81.2058V22.8589H77.8447V22.8381ZM81.2049 15.1899H83.9669C84.1669 15.1893 84.3641 15.1424 84.543 15.053C84.7219 14.9635 84.8777 14.8339 84.9981 14.6743C85.3143 14.2387 85.4676 13.7061 85.4313 13.1691C85.4379 12.8689 85.396 12.5696 85.3071 12.2828C85.2325 12.0556 85.1133 11.8455 84.9564 11.6648C84.818 11.505 84.6403 11.3841 84.4408 11.3141C84.2576 11.2401 84.0611 11.2049 83.8636 11.2108H81.2248V15.1899H81.2049Z" fill="#275570"/>
<path d="M93.5747 23.0445C93.105 23.0727 92.635 22.9946 92.1996 22.8161C91.7643 22.6376 91.3747 22.3632 91.0601 22.0133C90.425 21.1281 90.1186 20.049 90.1938 18.9622V12.0353H93.4714V18.22C93.4331 18.7511 93.5707 19.2801 93.8629 19.7252C93.9925 19.8951 94.1616 20.0308 94.3555 20.1207C94.5494 20.2105 94.7623 20.2518 94.9757 20.2408C95.4244 20.2339 95.864 20.1132 96.2534 19.8901C96.7268 19.598 97.1062 19.1758 97.3463 18.674V12.0353H100.624V19.1271C100.596 19.3687 100.661 19.612 100.805 19.8076C100.992 19.9572 101.225 20.0373 101.465 20.0342V22.8189C101.114 22.8805 100.826 22.9222 100.579 22.943C100.331 22.9639 100.105 22.9639 99.9189 22.9639C98.7644 22.943 98.1065 22.4899 97.919 21.5829L97.8573 20.9232C97.402 21.6048 96.7669 22.1471 96.0223 22.4899C95.2625 22.8678 94.4232 23.058 93.5747 23.0445Z" fill="#275570"/>
<path d="M109.78 23.0447C109.032 23.0678 108.292 22.8897 107.636 22.5291C107.029 22.1837 106.53 21.6772 106.193 21.0656V22.8589H103.307V7.8299H106.605V13.8107C106.941 13.2107 107.433 12.7123 108.028 12.3681C108.676 12.0075 109.41 11.8293 110.151 11.8524C110.802 11.8441 111.445 11.9927 112.027 12.2856C112.593 12.5777 113.091 12.9852 113.49 13.4818C113.917 14.0174 114.245 14.6246 114.459 15.2751C114.692 15.987 114.811 16.7316 114.81 17.4807C114.816 18.2255 114.69 18.9654 114.439 19.6664C114.204 20.3189 113.848 20.9207 113.388 21.4398C112.935 21.9352 112.389 22.3356 111.78 22.6179C111.153 22.9048 110.47 23.0505 109.78 23.0447ZM108.852 20.2618C109.214 20.2714 109.573 20.2012 109.904 20.0561C110.217 19.9247 110.498 19.7279 110.728 19.4789C110.955 19.2263 111.13 18.9321 111.244 18.6126C111.369 18.262 111.43 17.8919 111.425 17.5197C111.424 17.1493 111.368 16.7811 111.26 16.4268C111.15 16.098 110.982 15.7912 110.765 15.5207C110.556 15.264 110.297 15.0533 110.002 14.9017C109.702 14.752 109.37 14.6744 109.034 14.6752C108.511 14.681 108.008 14.8706 107.611 15.2107C107.175 15.5686 106.835 16.0291 106.621 16.551V18.8164C106.835 19.2649 107.17 19.6439 107.59 19.9093C107.97 20.141 108.407 20.2637 108.852 20.2618Z" fill="#275570"/>
<path d="M116.416 7.8299H119.715V18.7947C119.715 19.6193 120.065 20.0316 120.787 20.0316C120.962 20.0314 121.136 20.0036 121.302 19.9492C121.487 19.8963 121.666 19.8272 121.838 19.7426L122.271 22.4022C121.816 22.6082 121.339 22.7603 120.848 22.8553C120.36 22.9566 119.863 23.0119 119.364 23.0202C118.566 23.072 117.78 22.8051 117.179 22.2781C116.909 21.9937 116.702 21.656 116.571 21.2868C116.439 20.9175 116.387 20.5249 116.416 20.134V7.8299Z" fill="#275570"/>
<path d="M123.407 10.7985V7.8299H126.706V10.8203H123.407V10.7985ZM123.407 22.8381V12.0355H126.706V22.8191H123.407V22.8381Z" fill="#275570"/>
<path d="M133.218 23.0446C132.749 23.0402 132.281 23.0057 131.816 22.9413C131.321 22.8796 130.847 22.7763 130.372 22.6694C129.905 22.5498 129.444 22.4052 128.991 22.2362C128.59 22.0893 128.203 21.9042 127.837 21.6835L129.135 19.457C129.797 19.8418 130.495 20.1596 131.22 20.4058C131.843 20.6202 132.498 20.7316 133.157 20.7356C133.535 20.7546 133.911 20.6766 134.25 20.5091C134.367 20.4439 134.463 20.3478 134.528 20.2314C134.594 20.115 134.626 19.9828 134.621 19.8494C134.617 19.6987 134.564 19.5533 134.472 19.4345C134.379 19.3158 134.25 19.23 134.105 19.1897C133.532 18.9506 132.938 18.7643 132.332 18.6333C131.607 18.452 130.991 18.2418 130.477 18.056C130.042 17.9032 129.633 17.688 129.261 17.4172C128.978 17.2072 128.752 16.9312 128.601 16.6134C128.454 16.2757 128.384 15.9095 128.395 15.5414C128.384 15.0206 128.497 14.5048 128.725 14.0362C128.944 13.5875 129.26 13.193 129.649 12.8808C130.073 12.5581 130.547 12.3084 131.053 12.1423C131.625 11.9539 132.224 11.862 132.825 11.8704C133.607 11.8701 134.384 11.9812 135.134 12.2003C135.933 12.4307 136.707 12.7416 137.443 13.1282L136.145 15.2124C135.573 14.8896 134.973 14.6205 134.351 14.4086C133.859 14.2495 133.344 14.1661 132.826 14.1613C132.478 14.1448 132.13 14.2155 131.816 14.367C131.727 14.4164 131.649 14.483 131.587 14.5628C131.524 14.6427 131.478 14.7342 131.451 14.832C131.424 14.9298 131.417 15.032 131.43 15.1327C131.443 15.2333 131.476 15.3303 131.527 15.4181C131.612 15.5396 131.725 15.6387 131.857 15.7072C132.057 15.8039 132.263 15.8865 132.475 15.9546C132.747 16.0371 133.052 16.1195 133.443 16.202C134.127 16.373 134.801 16.5793 135.463 16.82C135.938 16.9875 136.388 17.2162 136.804 17.5005C137.126 17.715 137.383 18.0145 137.546 18.3659C137.702 18.7386 137.779 19.1398 137.772 19.544C137.78 20.042 137.674 20.5353 137.463 20.9866C137.256 21.4203 136.945 21.7958 136.557 22.0795C136.125 22.4021 135.635 22.6401 135.114 22.7809C134.5 22.9693 133.86 23.0584 133.218 23.0446Z" fill="#275570"/>
<path d="M149.96 22.8381H146.661V16.7775C146.702 16.2305 146.557 15.6856 146.249 15.2316C146.11 15.0692 145.935 14.9404 145.739 14.8547C145.543 14.7691 145.33 14.7288 145.116 14.7368C144.904 14.7421 144.695 14.7841 144.497 14.861C144.258 14.9556 144.036 15.0878 143.838 15.2524C143.62 15.4257 143.426 15.6268 143.261 15.8505C143.079 16.0861 142.94 16.3513 142.848 16.6344V22.8191H139.549V7.8299H142.847V13.8497C143.23 13.2257 143.77 12.7137 144.414 12.3653C145.082 12.0162 145.826 11.8389 146.579 11.8497C147.185 11.8222 147.788 11.9498 148.332 12.2203C148.754 12.4479 149.109 12.7818 149.363 13.1891C149.609 13.5922 149.77 14.0411 149.837 14.5085C149.917 14.9785 149.959 15.4543 149.961 15.9312L149.96 22.8381Z" fill="#275570"/>
<path d="M157.258 23.0447C156.426 23.0578 155.6 22.9108 154.824 22.6115C154.141 22.3365 153.517 21.9304 152.989 21.4163C152.495 20.9159 152.11 20.3194 151.856 19.6637C151.591 19.001 151.458 18.293 151.464 17.5795C151.455 16.8262 151.588 16.0779 151.856 15.3738C152.107 14.699 152.492 14.0824 152.989 13.5615C153.503 13.0304 154.12 12.6096 154.802 12.3245C155.58 12.0088 156.415 11.8546 157.255 11.8714C158.095 11.8526 158.93 12.0069 159.708 12.3245C160.389 12.6022 161.005 13.0161 161.52 13.5406C162.01 14.049 162.39 14.6526 162.638 15.314C162.885 15.9943 163.011 16.7132 163.008 17.4372C163.012 17.6229 163.005 17.8087 162.987 17.9936C162.967 18.1748 162.946 18.3443 162.926 18.4675H154.951C154.957 18.7823 155.03 19.0922 155.166 19.3766C155.301 19.661 155.495 19.9133 155.735 20.1168C156.191 20.4819 156.759 20.6784 157.344 20.6732C157.826 20.6693 158.299 20.549 158.725 20.3225C159.133 20.134 159.451 19.7935 159.611 19.3737L162.415 20.1576C161.965 21.0252 161.279 21.7478 160.436 22.2418C159.474 22.8065 158.372 23.0851 157.258 23.0447ZM159.546 16.4295C159.512 15.8119 159.247 15.2295 158.804 14.7984C158.372 14.4009 157.803 14.1865 157.216 14.2003C156.629 14.1827 156.058 14.3977 155.628 14.7984C155.202 15.2306 154.945 15.8013 154.903 16.4069H159.542L159.546 16.4295Z" fill="#275570"/>
<path d="M171.339 14.86C170.607 14.865 169.881 14.9975 169.195 15.2515C168.613 15.45 168.118 15.8434 167.793 16.3652V22.838H164.494V12.0354H167.524V14.2202C167.863 13.5492 168.358 12.9693 168.967 12.5293C169.506 12.1335 170.153 11.9107 170.822 11.8905C170.994 11.8816 171.167 11.8885 171.338 11.9113L171.339 14.86Z" fill="#275570"/>
<path d="M177.234 23.0446C176.765 23.0402 176.297 23.0057 175.833 22.9413C175.338 22.8796 174.864 22.7763 174.389 22.6694C173.921 22.5498 173.46 22.4052 173.008 22.2363C172.606 22.0882 172.22 21.9019 171.854 21.6799L173.152 19.4534C173.814 19.8381 174.512 20.156 175.236 20.4021C175.86 20.6167 176.515 20.7281 177.175 20.732C177.552 20.751 177.929 20.673 178.267 20.5055C178.384 20.4403 178.48 20.3442 178.546 20.2278C178.611 20.1114 178.643 19.9792 178.638 19.8458C178.634 19.6951 178.582 19.5497 178.489 19.4309C178.396 19.3122 178.268 19.2263 178.123 19.186C177.55 18.947 176.956 18.7607 176.349 18.6297C175.624 18.4484 175.009 18.2382 174.494 18.0524C174.06 17.8996 173.65 17.6844 173.278 17.4136C172.996 17.2036 172.769 16.9276 172.618 16.6098C172.471 16.2721 172.401 15.9059 172.413 15.5378C172.402 15.017 172.515 14.5012 172.742 14.0326C172.963 13.5839 173.28 13.1896 173.67 12.8781C174.093 12.5567 174.566 12.3081 175.07 12.1423C175.641 11.9538 176.241 11.8619 176.843 11.8704C177.624 11.8701 178.402 11.9812 179.152 12.2003C179.951 12.4307 180.725 12.7416 181.461 13.1282L180.203 15.1898C179.631 14.867 179.031 14.5979 178.41 14.386C177.917 14.2269 177.403 14.1435 176.885 14.1386C176.536 14.1224 176.189 14.1934 175.874 14.3452C175.786 14.3948 175.708 14.4614 175.645 14.5413C175.583 14.6211 175.537 14.7127 175.51 14.8105C175.483 14.9083 175.476 15.0105 175.489 15.1111C175.502 15.2117 175.535 15.3087 175.586 15.3964C175.671 15.5175 175.784 15.6163 175.916 15.6846C176.116 15.7813 176.323 15.8639 176.535 15.932C176.807 16.0144 177.112 16.0969 177.504 16.1793C178.187 16.3503 178.862 16.5566 179.524 16.7974C179.999 16.9648 180.449 17.1936 180.865 17.4779C181.187 17.6925 181.444 17.9924 181.607 18.3442C181.763 18.7169 181.84 19.1181 181.833 19.5222C181.841 20.0206 181.735 20.5142 181.524 20.9658C181.317 21.3994 181.006 21.7749 180.618 22.0586C180.186 22.3809 179.696 22.6186 179.175 22.7591C178.549 22.9624 177.893 23.0589 177.234 23.0446Z" fill="#275570"/>
</svg>
