<svg width="24" height="25" viewBox="0 0 24 25" fill="none" xmlns="http://www.w3.org/2000/svg">
<g clip-path="url(#clip0_15877_166)">
<g filter="url(#filter0_ii_15877_166)">
<path d="M22.8969 12.5008L23.9498 9.75451C24.0653 9.45153 23.9753 9.10806 23.7218 8.90257L21.439 7.0517L20.977 4.1464C20.926 3.82542 20.674 3.57494 20.3531 3.52394L17.4478 3.06197L15.5984 0.777627C15.3944 0.524145 15.0434 0.434151 14.7479 0.549643L12.0001 1.60407L9.25382 0.551143C8.94934 0.434151 8.60886 0.527145 8.40337 0.779127L6.5525 3.06347L3.6472 3.52544C3.49117 3.55057 3.34704 3.62424 3.23529 3.73599C3.12354 3.84774 3.04987 3.99187 3.02474 4.1479L2.56277 7.0532L0.27843 8.90407C0.0264468 9.10806 -0.065047 9.45153 0.0504452 9.75451L1.10337 12.5008L0.0504452 15.2471C-0.0665469 15.5501 0.0264468 15.8936 0.27843 16.0976L2.56277 17.947L3.02474 20.8523C3.07574 21.1732 3.32622 21.4252 3.6472 21.4762L6.5525 21.9382L8.40337 24.221C8.50274 24.3446 8.63889 24.4333 8.79207 24.4743C8.94525 24.5153 9.10751 24.5064 9.25532 24.449L12.0001 23.3976L14.7464 24.4505C14.8322 24.4832 14.9232 24.5 15.0149 24.5C15.2354 24.5 15.4529 24.4025 15.5984 24.221L17.4478 21.9382L20.3531 21.4762C20.5096 21.4513 20.6542 21.3775 20.7663 21.2655C20.8784 21.1534 20.9521 21.0088 20.977 20.8523L21.439 17.947L23.7218 16.0976C23.9753 15.8921 24.0653 15.5501 23.9498 15.2471L22.8969 12.5008Z" fill="#F2652D"/>
</g>
<path d="M9.75037 11.0009C8.50995 11.0009 7.50052 9.9915 7.50052 8.75108C7.50052 7.51067 8.50995 6.50124 9.75037 6.50124C10.9908 6.50124 12.0002 7.51067 12.0002 8.75108C12.0002 9.9915 10.9908 11.0009 9.75037 11.0009ZM9.75037 8.00113C9.33639 8.00113 9.00042 8.33711 9.00042 8.75108C9.00042 9.16505 9.33639 9.50103 9.75037 9.50103C10.1643 9.50103 10.5003 9.16505 10.5003 8.75108C10.5003 8.33711 10.1643 8.00113 9.75037 8.00113ZM14.2501 18.5004C13.0096 18.5004 12.0002 17.491 12.0002 16.2506C12.0002 15.0102 13.0096 14.0007 14.2501 14.0007C15.4905 14.0007 16.4999 15.0102 16.4999 16.2506C16.4999 17.491 15.4905 18.5004 14.2501 18.5004ZM14.2501 15.5006C13.8376 15.5006 13.5001 15.8381 13.5001 16.2506C13.5001 16.663 13.8376 17.0005 14.2501 17.0005C14.6625 17.0005 15 16.663 15 16.2506C15 15.8381 14.6625 15.5006 14.2501 15.5006ZM8.25047 18.5004C8.09898 18.5004 7.94749 18.4554 7.8155 18.3609C7.47802 18.1194 7.40003 17.6515 7.64151 17.314L15.141 6.81471C15.3825 6.47724 15.8504 6.39924 16.1879 6.64073C16.5254 6.88071 16.6019 7.35018 16.3619 7.68615L8.86243 18.1854C8.71394 18.3909 8.48445 18.5004 8.25047 18.5004Z" fill="#FAFAFA"/>
</g>
<defs>
<filter id="filter0_ii_15877_166" x="-3.9996" y="-3.50002" width="27.9991" height="32" filterUnits="userSpaceOnUse" color-interpolation-filters="sRGB">
<feFlood flood-opacity="0" result="BackgroundImageFix"/>
<feBlend mode="normal" in="SourceGraphic" in2="BackgroundImageFix" result="shape"/>
<feColorMatrix in="SourceAlpha" type="matrix" values="0 0 0 0 0 0 0 0 0 0 0 0 0 0 0 0 0 0 127 0" result="hardAlpha"/>
<feOffset dy="4"/>
<feGaussianBlur stdDeviation="2"/>
<feComposite in2="hardAlpha" operator="arithmetic" k2="-1" k3="1"/>
<feColorMatrix type="matrix" values="0 0 0 0 0.94902 0 0 0 0 0.156863 0 0 0 0 0.0901961 0 0 0 1 0"/>
<feBlend mode="normal" in2="shape" result="effect1_innerShadow_15877_166"/>
<feColorMatrix in="SourceAlpha" type="matrix" values="0 0 0 0 0 0 0 0 0 0 0 0 0 0 0 0 0 0 127 0" result="hardAlpha"/>
<feOffset dx="-4" dy="-4"/>
<feGaussianBlur stdDeviation="2"/>
<feComposite in2="hardAlpha" operator="arithmetic" k2="-1" k3="1"/>
<feColorMatrix type="matrix" values="0 0 0 0 0.941176 0 0 0 0 0.188235 0 0 0 0 0.113725 0 0 0 0.2 0"/>
<feBlend mode="normal" in2="effect1_innerShadow_15877_166" result="effect2_innerShadow_15877_166"/>
</filter>
<clipPath id="clip0_15877_166">
<rect width="24" height="24" fill="white" transform="translate(0 0.5)"/>
</clipPath>
</defs>
</svg>
