<svg width="211" height="105" viewBox="0 0 211 105" fill="none" xmlns="http://www.w3.org/2000/svg">
<g clip-path="url(#clip0_508_25)">
<path d="M177.5 40.7994C177.9 43.1994 178.2 45.5994 178.6 47.8994C181.1 50.9994 183.5 54.1994 185.7 57.4994C183.6 55.6994 181.4 54.0994 179.1 52.4994C179.2 54.5994 179.4 56.7994 179.5 58.8994C177.8 55.6994 176.1 52.5994 174.3 49.4994C171.8 48.0994 169.3 46.7994 166.8 45.6994C168 44.8994 169.3 44.0994 170.6 43.2994C168.7 40.2994 166.8 37.3994 164.9 34.3994C167.8 36.7994 170.7 39.2994 173.4 41.9994C174.7 41.5994 176.1 41.1994 177.5 40.7994Z" fill="#E62A28"/>
<path d="M179.5 59.4998C179.3 59.4998 179.1 59.3998 179.1 59.1998C177.5 56.0998 175.7 52.8998 173.9 49.8998C171.5 48.4998 169 47.2998 166.5 46.0998C166.3 45.9998 166.2 45.8998 166.2 45.6998C166.2 45.4998 166.3 45.2998 166.4 45.1998C167.6 44.3998 168.7 43.6998 169.8 43.0998C168 40.1998 166.2 37.3998 164.3 34.6998C164.2 34.4998 164.2 34.1998 164.4 34.0998C164.6 33.9998 164.9 33.8998 165.1 34.0998C168 36.3998 170.7 38.8998 173.4 41.4998C174.8 41.0998 176.1 40.6998 177.4 40.2998C177.5 40.2998 177.7 40.2998 177.8 40.3998C177.9 40.4998 178 40.5998 178 40.6998C178.4 42.9998 178.7 45.3998 179.1 47.6998C181.5 50.6998 183.9 53.8998 186.2 57.1998C186.3 57.3998 186.3 57.6998 186.1 57.8998C185.9 58.0998 185.6 58.0998 185.4 57.8998C183.6 56.3998 181.6 54.8998 179.6 53.4998C179.7 55.2998 179.8 57.0998 179.9 58.8998C179.9 59.0998 179.8 59.2998 179.5 59.3998C179.6 59.4998 179.5 59.4998 179.5 59.4998ZM167.8 45.5998C170.1 46.6998 172.4 47.7998 174.6 49.0998C174.7 49.0998 174.7 49.1998 174.8 49.2998C176.2 51.6998 177.6 54.1998 179 56.7998C178.9 55.3998 178.8 53.9998 178.8 52.5998C178.8 52.3998 178.9 52.1998 179.1 52.0998C179.3 51.9998 179.5 51.9998 179.6 52.0998C181 52.9998 182.3 53.9998 183.6 54.9998C181.9 52.6998 180.2 50.3998 178.4 48.1998C178.3 48.0998 178.3 47.9998 178.3 47.9998C178 45.7998 177.6 43.5998 177.3 41.3998C176.1 41.6998 174.8 42.0998 173.6 42.4998C173.4 42.5998 173.2 42.4998 173.1 42.3998C171.2 40.5998 169.3 38.7998 167.3 37.0998C168.6 38.9998 169.8 40.9998 171.1 42.9998C171.2 43.0998 171.2 43.2998 171.2 43.3998C171.2 43.4998 171.1 43.5998 171 43.6998C169.8 44.3998 168.8 44.9998 167.8 45.5998Z" fill="#FCEB2F"/>
<path d="M146.1 15C146.9 17.6 147.7 20.1 148.5 22.7C151.7 24.7 154.9 26.8 157.9 29.1C155.2 28.6 152.5 28.2 149.8 27.9C150.3 30.3 150.8 32.8 151.3 35.2C149 32.6 146.6 30 144.2 27.5C141.4 27.4 138.5 27.5 135.7 27.7C136.8 25.9 138 24.1 139.2 22.4C136.8 19.9 134.3 17.5 131.7 15.2C135.1 16.4 138.5 17.7 141.8 19.2C143.3 17.8 144.7 16.4 146.1 15Z" fill="#E62A28"/>
<path d="M151.3 35.7C151.2 35.7 151 35.6 150.9 35.5C148.5 32.8 146.2 30.3 143.9 27.9C141.1 27.8 138.4 27.9 135.7 28.1C135.5 28.1 135.3 28 135.2 27.9C135.1 27.7 135.1 27.5 135.2 27.4C136.3 25.7 137.4 24 138.5 22.4C136.1 20 133.7 17.7 131.3 15.5C131.1 15.3 131.1 15.1 131.2 14.9C131.3 14.7 131.6 14.6 131.8 14.7C135.2 15.9 138.5 17.2 141.7 18.6C143 17.3 144.3 16.1 145.8 14.7C145.9 14.6 146.1 14.5 146.3 14.6C146.5 14.6 146.6 14.8 146.7 14.9C147.5 17.4 148.3 19.9 149 22.4C152.2 24.4 155.3 26.5 158.3 28.7C158.5 28.8 158.6 29.1 158.5 29.3C158.4 29.5 158.2 29.6 157.9 29.6C155.5 29.1 153 28.7 150.5 28.4C151 30.6 151.4 32.8 151.8 35.1C151.8 35.3 151.7 35.5 151.5 35.6C151.5 35.7 151.4 35.7 151.3 35.7ZM142 26.9C142.7 26.9 143.5 26.9 144.2 26.9C144.3 26.9 144.5 27 144.5 27.1C146.5 29.1 148.4 31.2 150.4 33.5C150 31.7 149.7 29.8 149.3 28C149.3 27.8 149.3 27.7 149.4 27.6C149.5 27.5 149.7 27.4 149.8 27.4C151.8 27.6 153.8 27.9 155.8 28.2C153.3 26.4 150.8 24.7 148.2 23.1C148.1 23 148 22.9 148 22.8C147.3 20.5 146.6 18.2 145.8 15.9C144.5 17.1 143.3 18.3 142.1 19.5C142 19.6 141.7 19.7 141.5 19.6C139 18.5 136.4 17.4 133.7 16.4C135.6 18.2 137.5 20.1 139.4 22C139.6 22.2 139.6 22.4 139.5 22.6C138.5 24 137.5 25.5 136.6 27.1C138.4 27 140.2 26.9 142 26.9Z" fill="#FCEB2F"/>
<path d="M109.3 1.2002C110.6 3.9002 111.9 6.6002 113.1 9.3002C116.7 9.9002 120.3 10.6002 123.9 11.6002C121 12.6002 118.1 13.7002 115.3 14.9002C116.3 17.7002 117.2 20.6002 118 23.5002C115.2 21.4002 112.3 19.4002 109.4 17.6002C106.5 19.1002 103.6 20.8002 100.9 22.6002C101.7 19.7002 102.6 16.9002 103.5 14.0002C100.6 12.3002 97.7001 10.7002 94.7001 9.2002C98.3001 8.8002 102 8.7002 105.7 8.7002C106.8 6.2002 108.1 3.7002 109.3 1.2002Z" fill="#E62A28"/>
<path d="M118.1 23.8998C118 23.8998 117.9 23.8998 117.8 23.7998C114.7 21.4998 112 19.6998 109.5 18.0998C106.8 19.4998 104.1 21.0998 101.3 22.9998C101.1 23.0998 100.9 23.0998 100.7 22.9998C100.5 22.8998 100.5 22.6998 100.5 22.4998C101.3 19.6998 102.1 16.9998 103 14.2998C100.3 12.6998 97.4001 11.1998 94.5001 9.6998C94.3001 9.5998 94.2001 9.3998 94.2001 9.1998C94.2001 8.9998 94.4001 8.7998 94.6001 8.7998C98.1001 8.4998 101.7 8.2998 105.3 8.2998C106.5 5.8998 107.6 3.3998 108.8 1.0998C108.9 0.899805 109 0.799805 109.3 0.799805C109.5 0.799805 109.7 0.899805 109.7 1.0998C111 3.7998 112.2 6.3998 113.4 8.8998C117 9.4998 120.5 10.1998 124 11.0998C124.2 11.1998 124.4 11.2998 124.4 11.5998C124.4 11.8998 124.3 11.9998 124.1 12.0998C121.4 12.9998 118.7 13.9998 116 15.1998C116.8 17.6998 117.7 20.2998 118.6 23.3998C118.7 23.5998 118.6 23.7998 118.4 23.9998C118.3 23.8998 118.2 23.8998 118.1 23.8998ZM109.5 16.9998C109.6 16.9998 109.7 16.9998 109.8 17.0998C112.1 18.4998 114.5 20.1998 117.2 22.0998C116.4 19.4998 115.6 17.0998 114.9 14.8998C114.8 14.6998 114.9 14.3998 115.2 14.2998C117.5 13.2998 119.9 12.3998 122.2 11.5998C119.2 10.8998 116.1 10.2998 113.1 9.7998C112.9 9.7998 112.8 9.6998 112.7 9.4998C111.6 7.1998 110.5 4.7998 109.3 2.3998C108.2 4.4998 107.2 6.6998 106.1 8.9998C106 9.1998 105.8 9.2998 105.6 9.2998C102.5 9.2998 99.5001 9.3998 96.4001 9.6998C98.9001 10.9998 101.4 12.2998 103.7 13.6998C103.9 13.7998 104 14.0998 103.9 14.2998C103.1 16.6998 102.4 19.0998 101.7 21.4998C104.3 19.7998 106.8 18.3998 109.2 17.1998C109.3 16.9998 109.4 16.9998 109.5 16.9998Z" fill="#FCEB2F"/>
<path d="M70.8001 7.39941C72.6001 9.69941 74.3001 11.9994 76.1001 14.3994C79.8001 13.2994 83.5001 12.2994 87.2001 11.4994C84.5001 13.9994 81.8001 16.5994 79.3001 19.3994C80.7001 22.0994 82.1001 24.7994 83.5001 27.4994C80.4001 26.5994 77.2001 25.8994 74.1001 25.2994C71.5001 28.1994 69.1001 31.0994 66.7001 34.1994C67.0001 30.8994 67.3001 27.4994 67.7001 24.1994C64.5001 23.6994 61.4001 23.3994 58.2001 23.1994C61.7001 21.0994 65.2001 19.1994 68.8001 17.3994C69.3001 13.9994 70.0001 10.6994 70.8001 7.39941Z" fill="#E62A28"/>
<path d="M66.6 34.5994C66.5 34.5994 66.5 34.5994 66.4 34.5994C66.2 34.4994 66.1 34.2994 66.1 34.0994C66.4 31.0994 66.7 27.8994 67 24.5994C64.1 24.1994 61.2 23.8994 58 23.5994C57.8 23.5994 57.6 23.3994 57.6 23.1994C57.5 22.9994 57.6 22.7994 57.8 22.6994C61.2 20.5994 64.7 18.6994 68.2 16.9994C68.9 13.7994 69.6 10.4994 70.3 7.29941C70.3 7.09941 70.5 6.99941 70.7 6.89941C70.9 6.89941 71.1 6.89941 71.2 7.09941C72.9 9.19941 74.6 11.4994 76.3 13.7994C79.8 12.6994 83.5 11.7994 87.1 10.9994C87.3 10.9994 87.5 11.0994 87.6 11.2994C87.7 11.4994 87.7 11.6994 87.5 11.8994C84.7 14.3994 82.2 16.8994 79.9 19.4994C81.2 21.8994 82.5 24.3994 83.9 27.2994C84 27.4994 84 27.6994 83.8 27.7994C83.7 27.9994 83.5 27.9994 83.3 27.9994C80.3 27.0994 77.2 26.3994 74.2 25.7994C71.4 28.8994 69.1 31.7994 67 34.4994C66.9 34.4994 66.8 34.5994 66.6 34.5994ZM59.6 22.6994C62.4 22.8994 65 23.1994 67.6 23.5994C67.9 23.5994 68.1 23.8994 68 24.0994C67.7 26.9994 67.4 29.6994 67.2 32.3994C69.1 29.9994 71.2 27.4994 73.6 24.7994C73.7 24.6994 73.9 24.5994 74.1 24.5994C76.9 25.0994 79.7 25.7994 82.5 26.4994C81.2 23.8994 80 21.5994 78.8 19.3994C78.7 19.1994 78.7 18.9994 78.9 18.7994C81 16.5994 83.1 14.3994 85.5 12.0994C82.4 12.7994 79.2 13.5994 76.2 14.5994C76 14.6994 75.8 14.5994 75.7 14.3994C74.2 12.2994 72.6 10.2994 71.1 8.29941C70.4 11.1994 69.8 14.1994 69.2 17.0994C69.2 17.2994 69.1 17.3994 68.9 17.3994C65.7 19.2994 62.7 20.8994 59.6 22.6994Z" fill="#FCEB2F"/>
<path d="M33.2 32.3004C35.6 33.7004 37.9 35.2004 40.2 36.9004C43.5 34.2004 47 31.8004 50.8 29.9004C48.5 33.3004 46.4 36.9004 44.6 40.6004C46.6 42.6004 48.5 44.6004 50.4 46.7004C47.2 47.1004 43.9 47.8004 40.8 48.8004C39 53.0004 37.3 57.2004 35.8 61.5004C35.3 58.0004 34.7 54.4004 34.3 50.9004C31.1 52.0004 28 53.3004 24.9 54.8004C27.6 50.9004 30.5 47.1004 33.6 43.5004C33.3 39.7004 33.2 36.0004 33.2 32.3004Z" fill="#E62A28"/>
<path d="M35.7 61.9003C35.4 61.9003 35.2 61.7003 35.2 61.5003C34.7 58.1003 34.2 54.7003 33.7 51.5003C30.9 52.5003 28 53.7003 24.9 55.1003C24.7 55.2003 24.5 55.1003 24.3 55.0003C24.2 54.8003 24.1 54.6003 24.3 54.4003C27.1 50.4003 30 46.7003 32.9 43.2003C32.8 39.5003 32.7 35.8003 32.6 32.3003C32.6 32.1003 32.7 32.0003 32.9 31.9003C33.1 31.8003 33.3 31.8003 33.4 31.9003C35.6 33.2003 37.8 34.7003 40.1 36.3003C43.5 33.6003 46.9 31.3003 50.5 29.5003C50.7 29.4003 50.9 29.4003 51.1 29.6003C51.3 29.8003 51.3 30.0003 51.1 30.2003C49 33.4003 46.9 36.9003 45.1 40.6003C46.8 42.4003 48.7 44.3003 50.6 46.4003C50.7 46.5003 50.8 46.7003 50.7 46.9003C50.6 47.1003 50.5 47.2003 50.3 47.2003C47.2 47.6003 44.1 48.3003 41 49.2003C39.2 53.2003 37.6 57.4003 36.1 61.6003C36.1 61.8003 35.9 61.9003 35.7 61.9003ZM34.1 50.3003C34.2 50.3003 34.3 50.3003 34.4 50.4003C34.5 50.5003 34.6 50.6003 34.6 50.8003C35 53.6003 35.4 56.5003 35.8 59.4003C37.1 55.7003 38.6 52.0003 40.1 48.6003C40.2 48.5003 40.3 48.4003 40.4 48.3003C43.3 47.5003 46.3 46.8003 49.2 46.4003C47.4 44.4003 45.7 42.7003 44.1 41.1003C43.9 40.9003 43.9 40.7003 44 40.5003C45.6 37.3003 47.3 34.2003 49.2 31.4003C46.2 33.1003 43.3 35.1003 40.4 37.4003C40.2 37.5003 40 37.6003 39.8 37.4003C37.7 35.9003 35.7 34.5003 33.6 33.3003C33.7 36.6003 33.7 40.0003 33.9 43.5003C33.9 43.6003 33.9 43.8003 33.8 43.8003C31.2 46.8003 28.7 50.0003 26.2 53.5003C28.9 52.3003 31.5 51.3003 33.9 50.4003C34 50.3003 34.1 50.3003 34.1 50.3003Z" fill="#FCEB2F"/>
<path d="M30.6 89.3002C30.4 84.8002 30.1001 79.4002 30.2001 74.6002H30C28.9 78.9002 27.4 83.6002 25.9 88.0002L20.8 103.1H15.9L11.3 88.2002C9.90005 83.8002 8.70005 79.0002 7.70005 74.7002H7.60005C7.50005 79.2002 7.30005 84.8002 7.00005 89.5002L6.20005 103.5H0.300049L2.60005 68.7002H11L15.5 82.7002C16.7 86.8002 17.8001 90.9002 18.7001 94.8002H18.9C19.8 91.0002 21 86.7002 22.4 82.7002L27.2001 68.8002H35.5L37.5 103.6H31.3L30.6 89.3002Z" fill="#1C3B51"/>
<path d="M59.9001 88.8998L57.2001 80.2998C56.5001 78.1998 56.0001 75.7998 55.4001 73.7998H55.3C54.8 75.7998 54.3 78.1998 53.6 80.2998L50.9001 88.8998H59.9001ZM49.9001 93.6998L46.9001 103.6H40.3L51.5 68.7998H59.6L70.9001 103.6H64.1L60.9001 93.6998H49.9001Z" fill="#1C3B51"/>
<path d="M84.2001 68.7002H90.6001V91.3002C90.6001 100.9 85.9001 104.1 79.0001 104.1C77.2001 104.1 75.0001 103.8 73.7001 103.3L74.5001 98.2002C75.5001 98.5002 76.9001 98.8002 78.4001 98.8002C82.0001 98.8002 84.2001 97.1002 84.2001 91.1002V68.7002Z" fill="#1C3B51"/>
<path d="M114.4 88.1002H101.3V98.3002H116V103.5H94.9V68.7002H115.2V73.9002H101.3V82.9002H114.4V88.1002Z" fill="#1C3B51"/>
<path d="M120.3 96.5996C122.4 97.7996 125.5 98.7996 128.7 98.7996C132.8 98.7996 135.1 96.8996 135.1 93.9996C135.1 91.3996 133.3 89.7996 128.9 88.1996C123.2 86.0996 119.5 83.0996 119.5 78.0996C119.5 72.3996 124.3 68.0996 131.8 68.0996C135.6 68.0996 138.4 68.8996 140.2 69.8996L138.7 74.9996C137.5 74.2996 135 73.2996 131.8 73.2996C127.8 73.2996 126 75.4996 126 77.4996C126 80.1996 128 81.3996 132.7 83.1996C138.7 85.4996 141.7 88.4996 141.7 93.4996C141.7 99.0996 137.5 104 128.5 104C124.8 104 121 102.9 119.1 101.8L120.3 96.5996Z" fill="#1C3B51"/>
<path d="M154.9 74.0002H145V68.7002H171.3V74.0002H161.3V103.5H154.9V74.0002Z" fill="#1C3B51"/>
<path d="M180.7 68.7002H174.3V103.5H180.7V68.7002Z" fill="#1C3B51"/>
<path d="M210.3 102.5C208.8 103.3 205.5 104.1 201.3 104.1C190.2 104.1 183.5 97.0996 183.5 86.4996C183.5 74.9996 191.5 68.0996 202.1 68.0996C206.3 68.0996 209.3 68.9996 210.6 69.6996L209.2 74.7996C207.5 74.0996 205.3 73.4996 202.4 73.4996C195.3 73.4996 190.2 77.8996 190.2 86.2996C190.2 93.8996 194.7 98.8996 202.3 98.8996C204.9 98.8996 207.6 98.3996 209.2 97.5996L210.3 102.5Z" fill="#1C3B51"/>
</g>
<defs>
<clipPath id="clip0_508_25">
<rect width="211" height="104.5" fill="white"/>
</clipPath>
</defs>
</svg>
