<svg width="83" height="24" viewBox="0 0 83 24" fill="none" xmlns="http://www.w3.org/2000/svg">
<path d="M71 16L82.99 3H57.89C57.41 3.018 57.024 3.4 57 3.882V6.618C54.697 2.696 49.97 0 44.5 0C38.036 0 32.61 3.76 31 8.863V3H26.62C25.577 3.015 24.663 3.478 24 4.177L15.502 13.502L7 4.177C6.34 3.477 5.427 3.015 4.383 3H0V22H5.117C5.609 21.976 5.98 21.58 6 21.09V12L15.5 22.5L25 12V21.09C25.017 21.58 25.415 21.976 25.905 22H31V15.137C32.61 20.24 38.036 24 44.5 24C52.232 24 58.5 18.627 58.5 12C58.5 10.962 58.33 9.96 58.04 9H69L57 22H82.104C82.584 21.982 82.976 21.597 83 21.116V16H71ZM44.548 17.96C40.784 17.96 37.73 15.292 37.73 12C37.73 8.707 40.783 6.04 44.548 6.04C48.316 6.04 51.37 8.708 51.37 12C51.37 15.292 48.317 17.96 44.548 17.96Z" fill="#4DBDEB"/>
</svg>
