<svg width="14" height="13" viewBox="0 0 14 13" fill="none" xmlns="http://www.w3.org/2000/svg">
<path d="M11.4688 7.99902H10.6562C10.5485 7.99902 10.4452 8.03853 10.369 8.10886C10.2928 8.17918 10.25 8.27457 10.25 8.37402V10.999H2.125V3.49902H5.78125C5.88899 3.49902 5.99233 3.45951 6.06851 3.38919C6.1447 3.31886 6.1875 3.22348 6.1875 3.12402V2.37402C6.1875 2.27457 6.1447 2.17918 6.06851 2.10886C5.99233 2.03853 5.88899 1.99902 5.78125 1.99902H1.71875C1.39552 1.99902 1.08552 2.11755 0.856964 2.32853C0.628404 2.53951 0.5 2.82565 0.5 3.12402L0.5 11.374C0.5 11.6724 0.628404 11.9585 0.856964 12.1695C1.08552 12.3805 1.39552 12.499 1.71875 12.499H10.6562C10.9795 12.499 11.2895 12.3805 11.518 12.1695C11.7466 11.9585 11.875 11.6724 11.875 11.374V8.37402C11.875 8.27457 11.8322 8.17918 11.756 8.10886C11.6798 8.03853 11.5765 7.99902 11.4688 7.99902ZM12.8906 0.499023H9.64062C9.09727 0.499023 8.82559 1.10605 9.20898 1.45996L10.1154 2.29668L3.92773 8.0084C3.87092 8.06066 3.82585 8.12275 3.79509 8.19113C3.76434 8.2595 3.7485 8.3328 3.7485 8.40684C3.7485 8.48087 3.76434 8.55417 3.79509 8.62255C3.82585 8.69092 3.87092 8.75302 3.92773 8.80527L4.5041 9.33496C4.56071 9.3874 4.62799 9.42901 4.70206 9.4574C4.77613 9.48579 4.85554 9.5004 4.93574 9.5004C5.01594 9.5004 5.09536 9.48579 5.16943 9.4574C5.2435 9.42901 5.31077 9.3874 5.36738 9.33496L11.5525 3.62324L12.459 4.45996C12.8398 4.81152 13.5 4.56543 13.5 4.06152V1.06152C13.5 0.912339 13.4358 0.769265 13.3215 0.663776C13.2072 0.558287 13.0522 0.499023 12.8906 0.499023Z" fill="#3DBB81"/>
</svg>
