<svg width="74" height="21" viewBox="0 0 74 21" fill="none" xmlns="http://www.w3.org/2000/svg">
<path d="M1.47854 8.12743H8.56432V10.1188L5.89972 10.3234C1.59545 10.6459 0.249023 11.7848 0.249023 14.9794V15.6234C0.249023 17.9616 1.8887 19.3714 4.40619 19.3714C6.39757 19.3714 7.5394 18.9027 8.94526 17.4677H9.17908V18.9904H12.019V5.02344H1.47854V8.12743ZM8.56432 14.8625C7.68749 15.7393 6.36834 16.3239 5.28497 16.3239C4.11586 16.3239 3.61606 15.8845 3.64529 14.918C3.67452 13.5716 4.17236 13.2491 6.4268 13.0445L8.56432 12.8399V14.8625Z" fill="#FF8800"/>
<path fill-rule="evenodd" clip-rule="evenodd" d="M17.9908 5.02428H23.4661V7.86425H26.4522V18.9903H22.9683V8.1575H17.9908V18.9903H14.5059V0.836914H17.9908V5.02428ZM68.9399 10.6458L66.8316 10.4402C65.6624 10.3233 65.3702 10.031 65.3702 9.09377C65.3702 8.03962 65.7803 7.7756 67.4161 7.7756C68.8775 7.7756 69.2896 8.0104 69.4952 9.00609H72.7746C72.6869 5.66828 71.662 4.81678 67.5915 4.81678C63.1411 4.81678 62.0284 5.66633 62.0284 9.09182C62.0284 12.2251 62.8478 13.0737 66.1574 13.3961L67.8847 13.5715C69.4367 13.7176 69.8167 14.0109 69.8167 14.9481C69.8167 16.09 69.3481 16.3822 67.4453 16.3822C65.7764 16.3822 65.337 16.1192 65.2494 15.0358H61.9369C62.0245 18.4905 63.0787 19.3693 67.2953 19.3693C71.9796 19.3693 73.1506 18.4321 73.1506 14.6257C73.1555 11.7876 72.3069 10.9673 68.9399 10.6458ZM51.0023 10.9089C51.0023 6.39995 49.4513 4.81873 44.9999 4.81873C40.6079 4.81873 38.8806 6.86467 38.8806 11.963C38.8806 17.527 40.4033 19.3674 45.3224 19.3674C48.8657 19.3674 50.3583 18.284 50.8561 15.2385H47.4891C47.1082 16.1796 46.699 16.3842 45.2688 16.3842C43.102 16.3842 42.5457 15.7694 42.4288 13.1633H50.7733C50.913 12.4196 50.9896 11.6654 51.0023 10.9089ZM42.4532 10.411C42.4824 8.44979 43.2725 7.71812 45.147 7.71812C46.9328 7.71812 47.6645 8.44979 47.7239 10.411H42.4532ZM53.0306 5.63807V18.9903H56.5155V8.01038H60.7049V5.02331H56.5155V4.64335C56.5438 3.82302 56.7494 3.5892 57.4226 3.5892H61.229V0.836914H57.1284C54.3478 0.836914 53.0306 1.6855 53.0306 5.63807ZM32.4914 18.9903H29.0074V5.0243H37.6744V8.30365H32.4914V18.9903Z" fill="#054ADA"/>
</svg>
