<svg width="14" height="15" viewBox="0 0 14 15" fill="none" xmlns="http://www.w3.org/2000/svg">
<path d="M7.00002 3.40918C7.41423 3.40919 7.75001 3.74498 7.75 4.15919L7.74994 7.65919C7.74993 8.07341 7.41414 8.40919 6.99993 8.40918C6.58571 8.40917 6.24993 8.07338 6.24994 7.65917L6.25 4.15917C6.25001 3.74495 6.5858 3.40917 7.00002 3.40918Z" fill="#F5A74C"/>
<path d="M8 10.4092C8 10.9615 7.55228 11.4092 7 11.4092C6.44772 11.4092 6 10.9615 6 10.4092C6 9.8569 6.44771 9.40918 7 9.40918C7.55228 9.40918 8 9.8569 8 10.4092Z" fill="#F5A74C"/>
<path fill-rule="evenodd" clip-rule="evenodd" d="M-6.11959e-07 7.40918C-9.49935e-07 3.54319 3.13401 0.409181 7 0.40918C10.866 0.40918 14 3.54319 14 7.40918C14 11.2752 10.866 14.4092 7 14.4092C3.13401 14.4092 -2.73984e-07 11.2752 -6.11959e-07 7.40918ZM1.5 7.40918C1.5 4.37161 3.96243 1.90918 7 1.90918C10.0376 1.90918 12.5 4.37161 12.5 7.40918C12.5 10.4467 10.0376 12.9092 7 12.9092C3.96243 12.9092 1.5 10.4467 1.5 7.40918Z" fill="#F5A74C"/>
</svg>
