<svg width="182" height="31" viewBox="0 0 182 31" fill="none" xmlns="http://www.w3.org/2000/svg">
<path d="M16.157 8.97131C16.0082 8.93257 15.8513 8.93882 15.706 8.98926C15.5608 9.0397 15.4337 9.13208 15.341 9.25471C15.2482 9.37734 15.1939 9.52472 15.1849 9.67821C15.1759 9.8317 15.2126 9.98442 15.2904 10.117C15.3682 10.2497 15.4836 10.3563 15.6219 10.4233C15.7603 10.4904 15.9154 10.515 16.0677 10.4939C16.22 10.4728 16.3626 10.407 16.4776 10.3049C16.5925 10.2028 16.6746 10.0689 16.7134 9.92008C16.764 9.72055 16.734 9.50912 16.6299 9.33155C16.5257 9.15398 16.3558 9.02456 16.157 8.97131Z" fill="#F2652D"/>
<path d="M10.7755 12.7248C10.7242 12.6374 10.6558 12.5612 10.5743 12.501C10.4929 12.4407 10.4001 12.3975 10.3015 12.3741C10.1527 12.3353 9.9958 12.3416 9.85055 12.392C9.70531 12.4425 9.57828 12.5348 9.48553 12.6575C9.39278 12.7801 9.33846 12.9275 9.32946 13.081C9.32046 13.2345 9.35717 13.3872 9.43495 13.5198C9.51273 13.6524 9.62808 13.759 9.76644 13.8261C9.90479 13.8932 10.0599 13.9177 10.2122 13.8966C10.3645 13.8756 10.5072 13.8098 10.6221 13.7077C10.737 13.6055 10.8191 13.4716 10.8579 13.3228C10.9036 13.1201 10.8743 12.9076 10.7755 12.7248Z" fill="#F2652D"/>
<path d="M10.5489 11.4806C10.831 11.5591 11.0917 11.7 11.3119 11.8929L14.2987 10.1367C14.2368 9.85827 14.2368 9.56965 14.2987 9.29123C14.4136 8.84829 14.6997 8.46913 15.0942 8.23716C15.4886 8.00519 15.959 7.93941 16.402 8.05429C16.8449 8.16917 17.2241 8.4553 17.456 8.84973C17.688 9.24417 17.7538 9.7146 17.6389 10.1575C17.5755 10.3978 17.4632 10.6224 17.3091 10.8172L19.1214 13.91C19.3998 13.8481 19.6885 13.8481 19.9669 13.91C20.2538 13.9876 20.5163 14.1366 20.7299 14.3432L24.3374 12.2399L28.8321 1.47812C28.8865 1.34829 28.9148 1.20897 28.9152 1.06818C28.9155 0.927396 28.8881 0.787921 28.8343 0.65779C28.7806 0.52766 28.7017 0.409445 28.602 0.309952C28.5024 0.210459 28.3841 0.131653 28.2539 0.078073C28.1018 0.0173321 27.938 -0.00850116 27.7746 0.00247716C27.6112 0.0134555 27.4523 0.0609655 27.3097 0.141506L7.68359 11.6863L8.86163 11.9337C9.08084 11.7193 9.35158 11.565 9.64775 11.4856C9.94391 11.4063 10.2555 11.4045 10.5526 11.4806" fill="#F2652D"/>
<path d="M21.2069 16.0577C21.15 16.277 21.0505 16.4829 20.914 16.6638C20.7775 16.8447 20.6068 16.9969 20.4115 17.1117C20.2162 17.2266 20.0001 17.3018 19.7757 17.3332C19.5514 17.3646 19.323 17.3515 19.1037 17.2946C18.8843 17.2377 18.6784 17.1382 18.4975 17.0017C18.3167 16.8652 18.1645 16.6945 18.0496 16.4992C17.9347 16.3038 17.8595 16.0878 17.8281 15.8634C17.7967 15.639 17.8098 15.4107 17.8667 15.1913C17.9443 14.9045 18.0933 14.642 18.2999 14.4283L16.5274 11.3981C16.2079 11.5044 15.865 11.5186 15.5378 11.4388C15.249 11.3661 14.9853 11.2164 14.7748 11.0057L11.8062 12.7383C11.8784 13.0226 11.8784 13.3204 11.8062 13.6046C11.7561 13.8253 11.663 14.0339 11.5323 14.2185C11.4016 14.4032 11.2358 14.5603 11.0443 14.6809C10.8529 14.8014 10.6396 14.8831 10.4166 14.9213C10.1936 14.9594 9.96524 14.9533 9.74461 14.9032C9.52398 14.8531 9.31538 14.76 9.13072 14.6293C8.94605 14.4986 8.78895 14.3328 8.66836 14.1413C8.54778 13.9499 8.46609 13.7366 8.42794 13.5136C8.3898 13.2906 8.39595 13.0622 8.44605 12.8416L6.50773 12.4293L0.526924 15.9544C0.405048 16.0247 0.298499 16.1188 0.213565 16.231C0.128632 16.3432 0.0670328 16.4713 0.0324034 16.6077C-0.00222593 16.7441 -0.00918444 16.8861 0.0119384 17.0252C0.0330613 17.1644 0.0818376 17.2979 0.15539 17.4178C0.24078 17.5597 0.357703 17.6801 0.497094 17.7695C0.636486 17.8589 0.794599 17.915 0.959173 17.9335L12.1125 19.1912L14.8781 30.0763C14.9306 30.2936 15.0508 30.4885 15.2213 30.633C15.3919 30.7775 15.604 30.864 15.8269 30.8801H15.971C16.1695 30.869 16.3606 30.8008 16.5213 30.6838C16.6821 30.5668 16.8056 30.4059 16.8772 30.2204L23.7642 13.7487L21.2495 15.2122C21.2763 15.4946 21.2623 15.7793 21.2078 16.0577" fill="#F2652D"/>
<path d="M19.7234 14.8262C19.5746 14.7874 19.4177 14.7937 19.2724 14.8441C19.1272 14.8946 19.0001 14.9869 18.9074 15.1096C18.8146 15.2322 18.7603 15.3796 18.7513 15.5331C18.7423 15.6866 18.779 15.8393 18.8568 15.9719C18.9346 16.1045 19.05 16.2111 19.1883 16.2782C19.3267 16.3453 19.4818 16.3698 19.6341 16.3488C19.7864 16.3277 19.929 16.2619 20.044 16.1598C20.1589 16.0576 20.241 15.9237 20.2798 15.7749C20.3278 15.5755 20.2966 15.3653 20.1929 15.1884C20.0891 15.0115 19.9208 14.8817 19.7234 14.8262Z" fill="#F2652D"/>
<path d="M36.0375 7.82988H39.3152V18.7947C39.3152 19.6193 39.6658 20.0316 40.3872 20.0316C40.5623 20.0314 40.7363 20.0036 40.9028 19.9492C41.0871 19.8963 41.2663 19.8272 41.4383 19.7425L41.8715 22.4022C41.4165 22.6082 40.9391 22.7602 40.4488 22.8553C39.9603 22.9566 39.4633 23.0118 38.9645 23.0202C38.1663 23.0723 37.3802 22.8053 36.7787 22.278C36.509 21.9937 36.3018 21.656 36.1704 21.2868C36.039 20.9175 35.9863 20.5248 36.0157 20.134V7.82988H36.0375Z" fill="#275570"/>
<path d="M43.0254 10.7985V7.8299H46.3239V10.8203H43.0254V10.7985ZM43.0254 22.8381V12.0355H46.3239V22.8191H43.0254V22.8381Z" fill="#275570"/>
<path d="M58.9626 22.8381H55.6849V16.7766C55.7376 16.2315 55.5992 15.685 55.2934 15.2307C55.1681 15.0743 55.0075 14.9498 54.8248 14.8674C54.6421 14.785 54.4424 14.7471 54.2423 14.7568C54.0012 14.7549 53.7625 14.804 53.5418 14.9008C53.2976 14.9985 53.0684 15.1303 52.8612 15.2923C52.6435 15.4656 52.4494 15.6667 52.284 15.8904C52.1069 16.1212 51.9677 16.3788 51.8717 16.6534V22.8381H48.5723V12.031H51.5409V13.8433C51.9491 13.1957 52.5361 12.6802 53.231 12.359C54.0192 11.9985 54.8791 11.8221 55.7456 11.8434C56.332 11.8178 56.9149 11.9459 57.4365 12.2149C57.8526 12.4455 58.1955 12.7884 58.4261 13.2045C58.6591 13.6117 58.8128 14.0594 58.8792 14.5239C58.9538 14.9873 58.9884 15.4563 58.9825 15.9257V22.8318L58.9626 22.8381Z" fill="#275570"/>
<path d="M68.342 22.8381L65.5174 18.5083L64.3629 19.7009V22.8553H61.0645V7.8299H64.3629V16.5292L68.0121 12.0554H71.4964L67.6415 16.6942L71.8263 22.8381H68.342Z" fill="#275570"/>
<path d="M77.8457 22.8381V8.24218H84.0721C84.7364 8.23385 85.3933 8.38225 85.9896 8.67534C86.5576 8.95604 87.0681 9.34054 87.4947 9.80897C87.9095 10.2803 88.2438 10.8167 88.4843 11.3966C88.721 11.9646 88.8404 12.5746 88.835 13.1899C88.844 14.4555 88.3891 15.6805 87.5564 16.6334C87.1541 17.1054 86.655 17.4852 86.0929 17.7471C85.4918 18.0238 84.8371 18.1646 84.1754 18.1594H81.2067V22.8589H77.8457V22.8381ZM81.2058 15.1899H83.9679C84.1679 15.1893 84.3651 15.1424 84.544 15.053C84.7228 14.9635 84.8786 14.8339 84.9991 14.6743C85.3153 14.2387 85.4686 13.7061 85.4323 13.1691C85.4389 12.8689 85.397 12.5696 85.3081 12.2828C85.2335 12.0556 85.1143 11.8455 84.9574 11.6648C84.819 11.505 84.6413 11.3841 84.4418 11.3141C84.2586 11.2401 84.0621 11.2049 83.8646 11.2108H81.2258V15.1899H81.2058Z" fill="#275570"/>
<path d="M93.5757 23.0445C93.106 23.0727 92.636 22.9946 92.2006 22.8161C91.7652 22.6376 91.3757 22.3632 91.061 22.0133C90.426 21.1281 90.1196 20.049 90.1947 18.9622V12.0353H93.4724V18.22C93.4341 18.7511 93.5717 19.2801 93.8639 19.7252C93.9935 19.8951 94.1626 20.0308 94.3565 20.1207C94.5504 20.2105 94.7633 20.2518 94.9767 20.2408C95.4254 20.2339 95.865 20.1132 96.2544 19.8901C96.7278 19.598 97.1071 19.1758 97.3472 18.674V12.0353H100.625V19.1271C100.597 19.3687 100.662 19.612 100.806 19.8076C100.993 19.9572 101.226 20.0373 101.466 20.0342V22.8189C101.115 22.8805 100.827 22.9222 100.58 22.943C100.332 22.9639 100.106 22.9639 99.9199 22.9639C98.7654 22.943 98.1075 22.4899 97.9199 21.5829L97.8583 20.9232C97.403 21.6048 96.7679 22.1471 96.0233 22.4899C95.2635 22.8678 94.4242 23.058 93.5757 23.0445Z" fill="#275570"/>
<path d="M109.78 23.0447C109.032 23.0678 108.292 22.8897 107.636 22.5291C107.029 22.1837 106.53 21.6772 106.193 21.0656V22.8589H103.307V7.8299H106.605V13.8107C106.941 13.2107 107.433 12.7123 108.028 12.3681C108.676 12.0075 109.41 11.8293 110.151 11.8524C110.802 11.8441 111.445 11.9927 112.027 12.2856C112.593 12.5777 113.091 12.9852 113.49 13.4818C113.917 14.0174 114.245 14.6246 114.459 15.2751C114.692 15.987 114.811 16.7316 114.81 17.4807C114.816 18.2255 114.69 18.9654 114.439 19.6664C114.204 20.3189 113.848 20.9207 113.388 21.4398C112.935 21.9352 112.389 22.3356 111.78 22.6179C111.153 22.9048 110.47 23.0505 109.78 23.0447ZM108.852 20.2618C109.214 20.2714 109.573 20.2012 109.904 20.0561C110.217 19.9247 110.498 19.7279 110.728 19.4789C110.955 19.2263 111.13 18.9321 111.244 18.6126C111.369 18.262 111.43 17.8919 111.425 17.5197C111.424 17.1493 111.368 16.7811 111.26 16.4268C111.15 16.098 110.982 15.7912 110.765 15.5207C110.556 15.264 110.297 15.0533 110.002 14.9017C109.702 14.752 109.37 14.6744 109.034 14.6752C108.511 14.681 108.008 14.8706 107.611 15.2107C107.175 15.5686 106.835 16.0291 106.621 16.551V18.8164C106.835 19.2649 107.17 19.6439 107.59 19.9093C107.97 20.141 108.407 20.2637 108.852 20.2618Z" fill="#275570"/>
<path d="M116.416 7.8299H119.715V18.7947C119.715 19.6193 120.065 20.0316 120.787 20.0316C120.962 20.0314 121.136 20.0036 121.302 19.9492C121.487 19.8963 121.666 19.8272 121.838 19.7426L122.271 22.4022C121.816 22.6082 121.339 22.7603 120.848 22.8553C120.36 22.9566 119.863 23.0119 119.364 23.0202C118.566 23.072 117.78 22.8051 117.179 22.2781C116.909 21.9937 116.702 21.656 116.571 21.2868C116.439 20.9175 116.387 20.5249 116.416 20.134V7.8299Z" fill="#275570"/>
<path d="M123.406 10.7985V7.8299H126.705V10.8203H123.406V10.7985ZM123.406 22.8381V12.0355H126.705V22.8191H123.406V22.8381Z" fill="#275570"/>
<path d="M133.217 23.0446C132.748 23.0402 132.28 23.0057 131.815 22.9413C131.32 22.8796 130.846 22.7763 130.371 22.6694C129.904 22.5498 129.443 22.4052 128.99 22.2362C128.589 22.0893 128.202 21.9042 127.836 21.6835L129.134 19.457C129.796 19.8418 130.494 20.1596 131.219 20.4058C131.842 20.6202 132.497 20.7316 133.156 20.7356C133.534 20.7546 133.91 20.6766 134.249 20.5091C134.366 20.4439 134.462 20.3478 134.527 20.2314C134.593 20.115 134.625 19.9828 134.62 19.8494C134.616 19.6987 134.563 19.5533 134.471 19.4345C134.378 19.3158 134.249 19.23 134.104 19.1897C133.531 18.9506 132.937 18.7643 132.331 18.6333C131.606 18.452 130.99 18.2418 130.476 18.056C130.041 17.9032 129.632 17.688 129.26 17.4172C128.977 17.2072 128.751 16.9312 128.6 16.6134C128.453 16.2757 128.383 15.9095 128.394 15.5414C128.384 15.0206 128.497 14.5048 128.724 14.0362C128.943 13.5875 129.259 13.193 129.648 12.8808C130.072 12.5581 130.546 12.3084 131.052 12.1423C131.624 11.9539 132.223 11.862 132.824 11.8704C133.606 11.8701 134.383 11.9812 135.133 12.2003C135.932 12.4307 136.706 12.7416 137.442 13.1282L136.144 15.2124C135.572 14.8896 134.972 14.6205 134.351 14.4086C133.858 14.2495 133.343 14.1661 132.825 14.1613C132.477 14.1448 132.129 14.2155 131.815 14.367C131.726 14.4164 131.648 14.483 131.586 14.5628C131.523 14.6427 131.477 14.7342 131.45 14.832C131.423 14.9298 131.416 15.032 131.429 15.1327C131.442 15.2333 131.475 15.3303 131.526 15.4181C131.611 15.5396 131.724 15.6387 131.856 15.7072C132.056 15.8039 132.262 15.8865 132.474 15.9546C132.746 16.0371 133.051 16.1195 133.442 16.202C134.126 16.373 134.8 16.5793 135.462 16.82C135.937 16.9875 136.387 17.2162 136.803 17.5005C137.125 17.715 137.382 18.0145 137.545 18.3659C137.701 18.7386 137.778 19.1398 137.771 19.544C137.779 20.042 137.673 20.5353 137.462 20.9866C137.255 21.4203 136.944 21.7958 136.556 22.0795C136.124 22.4021 135.634 22.6401 135.113 22.7809C134.499 22.9693 133.859 23.0584 133.217 23.0446Z" fill="#275570"/>
<path d="M149.96 22.8381H146.661V16.7775C146.702 16.2305 146.557 15.6856 146.249 15.2316C146.11 15.0692 145.935 14.9404 145.739 14.8547C145.543 14.7691 145.33 14.7288 145.116 14.7368C144.904 14.7421 144.695 14.7841 144.497 14.861C144.258 14.9556 144.036 15.0878 143.838 15.2524C143.62 15.4257 143.426 15.6268 143.261 15.8505C143.079 16.0861 142.94 16.3513 142.848 16.6344V22.8191H139.549V7.8299H142.847V13.8497C143.23 13.2257 143.77 12.7137 144.414 12.3653C145.082 12.0162 145.826 11.8389 146.579 11.8497C147.185 11.8222 147.788 11.9498 148.332 12.2203C148.754 12.4479 149.109 12.7818 149.363 13.1891C149.609 13.5922 149.77 14.0411 149.837 14.5085C149.917 14.9785 149.959 15.4543 149.961 15.9312L149.96 22.8381Z" fill="#275570"/>
<path d="M157.257 23.0447C156.425 23.0578 155.599 22.9108 154.823 22.6115C154.14 22.3365 153.516 21.9304 152.989 21.4163C152.495 20.9159 152.109 20.3194 151.855 19.6637C151.59 19.001 151.457 18.293 151.463 17.5795C151.454 16.8262 151.587 16.0779 151.855 15.3738C152.106 14.699 152.492 14.0824 152.989 13.5615C153.502 13.0304 154.119 12.6096 154.801 12.3245C155.579 12.0088 156.414 11.8546 157.254 11.8714C158.094 11.8526 158.929 12.0069 159.707 12.3245C160.388 12.6022 161.004 13.0161 161.519 13.5406C162.009 14.049 162.389 14.6526 162.637 15.314C162.884 15.9943 163.01 16.7132 163.007 17.4372C163.011 17.6229 163.004 17.8087 162.986 17.9936C162.966 18.1748 162.945 18.3443 162.925 18.4675H154.95C154.956 18.7823 155.029 19.0922 155.165 19.3766C155.3 19.661 155.494 19.9133 155.734 20.1168C156.19 20.4819 156.758 20.6784 157.343 20.6732C157.825 20.6693 158.298 20.549 158.724 20.3225C159.132 20.134 159.45 19.7935 159.61 19.3737L162.414 20.1576C161.964 21.0252 161.278 21.7478 160.435 22.2418C159.473 22.8065 158.371 23.0851 157.257 23.0447ZM159.545 16.4295C159.511 15.8119 159.246 15.2295 158.803 14.7984C158.371 14.4009 157.802 14.1865 157.215 14.2003C156.628 14.1827 156.057 14.3977 155.627 14.7984C155.201 15.2306 154.944 15.8013 154.902 16.4069H159.541L159.545 16.4295Z" fill="#275570"/>
<path d="M171.339 14.86C170.607 14.865 169.881 14.9975 169.195 15.2515C168.613 15.45 168.118 15.8434 167.793 16.3652V22.838H164.494V12.0354H167.524V14.2202C167.863 13.5492 168.358 12.9693 168.967 12.5293C169.506 12.1335 170.153 11.9107 170.822 11.8905C170.994 11.8816 171.167 11.8885 171.338 11.9113L171.339 14.86Z" fill="#275570"/>
<path d="M177.234 23.0446C176.765 23.0402 176.297 23.0057 175.833 22.9413C175.338 22.8796 174.864 22.7763 174.389 22.6694C173.921 22.5498 173.46 22.4052 173.008 22.2363C172.606 22.0882 172.22 21.9019 171.854 21.6799L173.152 19.4534C173.814 19.8381 174.512 20.156 175.236 20.4021C175.86 20.6167 176.515 20.7281 177.175 20.732C177.552 20.751 177.929 20.673 178.267 20.5055C178.384 20.4403 178.48 20.3442 178.546 20.2278C178.611 20.1114 178.643 19.9792 178.638 19.8458C178.634 19.6951 178.582 19.5497 178.489 19.4309C178.396 19.3122 178.268 19.2263 178.123 19.186C177.55 18.947 176.956 18.7607 176.349 18.6297C175.624 18.4484 175.009 18.2382 174.494 18.0524C174.06 17.8996 173.65 17.6844 173.278 17.4136C172.996 17.2036 172.769 16.9276 172.618 16.6098C172.471 16.2721 172.401 15.9059 172.413 15.5378C172.402 15.017 172.515 14.5012 172.742 14.0326C172.963 13.5839 173.28 13.1896 173.67 12.8781C174.093 12.5567 174.566 12.3081 175.07 12.1423C175.641 11.9538 176.241 11.8619 176.843 11.8704C177.624 11.8701 178.402 11.9812 179.152 12.2003C179.951 12.4307 180.725 12.7416 181.461 13.1282L180.203 15.1898C179.631 14.867 179.031 14.5979 178.41 14.386C177.917 14.2269 177.403 14.1435 176.885 14.1386C176.536 14.1224 176.189 14.1934 175.874 14.3452C175.786 14.3948 175.708 14.4614 175.645 14.5413C175.583 14.6211 175.537 14.7127 175.51 14.8105C175.483 14.9083 175.476 15.0105 175.489 15.1111C175.502 15.2117 175.535 15.3087 175.586 15.3964C175.671 15.5175 175.784 15.6163 175.916 15.6846C176.116 15.7813 176.323 15.8639 176.535 15.932C176.807 16.0144 177.112 16.0969 177.504 16.1793C178.187 16.3503 178.862 16.5566 179.524 16.7974C179.999 16.9648 180.449 17.1936 180.865 17.4779C181.187 17.6925 181.444 17.9924 181.607 18.3442C181.763 18.7169 181.84 19.1181 181.833 19.5222C181.841 20.0206 181.735 20.5142 181.524 20.9658C181.317 21.3994 181.006 21.7749 180.618 22.0586C180.186 22.3809 179.696 22.6186 179.175 22.7591C178.549 22.9624 177.893 23.0589 177.234 23.0446Z" fill="#275570"/>
</svg>
