<svg width="251" height="205" viewBox="0 0 251 205" fill="none" xmlns="http://www.w3.org/2000/svg">
<g clip-path="url(#clip0_17597_18250)">
<path d="M251 22.8648H0V205.001H251V22.8648Z" fill="#F0F0F0"/>
<path d="M250.997 0H0.0932617V22.9149H250.997V0Z" fill="#A1A1A1"/>
<path d="M11.6981 14.0553C13.8278 14.0553 15.5543 12.4136 15.5543 10.3886C15.5543 8.3635 13.8278 6.72186 11.6981 6.72186C9.56848 6.72186 7.84204 8.3635 7.84204 10.3886C7.84204 12.4136 9.56848 14.0553 11.6981 14.0553Z" fill="#F0F0F0"/>
<path d="M22.9445 14.0553C25.0742 14.0553 26.8006 12.4136 26.8006 10.3886C26.8006 8.3635 25.0742 6.72186 22.9445 6.72186C20.8148 6.72186 19.0884 8.3635 19.0884 10.3886C19.0884 12.4136 20.8148 14.0553 22.9445 14.0553Z" fill="#F0F0F0"/>
<path d="M34.1908 14.0553C36.3205 14.0553 38.0469 12.4136 38.0469 10.3886C38.0469 8.3635 36.3205 6.72186 34.1908 6.72186C32.0612 6.72186 30.3347 8.3635 30.3347 10.3886C30.3347 12.4136 32.0612 14.0553 34.1908 14.0553Z" fill="#F0F0F0"/>
<path d="M243.447 32.4524H7.55249V195.412H243.447V32.4524Z" fill="#F9F9F9"/>
<path d="M162.093 72.521V144.171C162.093 146.885 159.893 149.085 157.179 149.085H93.8224C91.1082 149.085 88.9082 146.885 88.9082 144.171V59.3344C88.9082 56.6202 91.1082 54.4202 93.8224 54.4202H143.662L143.991 54.7435L162.093 72.5223V72.521Z" fill="#A1A1A1"/>
<path opacity="0.15" d="M162.093 72.521H147.992C145.782 72.521 143.991 70.7296 143.991 68.5201V54.7422L162.093 72.521Z" fill="black"/>
<path d="M143.075 113.857C142.519 113.857 142.032 113.499 141.855 112.972C141.39 111.603 139.874 110.251 137.537 109.164C134.344 107.677 130.068 106.857 125.501 106.857C120.933 106.857 116.657 107.675 113.464 109.164C111.127 110.251 109.611 111.603 109.147 112.972C108.968 113.499 108.481 113.857 107.926 113.857C107.049 113.857 106.427 112.999 106.703 112.167C107.39 110.1 109.347 108.248 112.379 106.835C115.905 105.193 120.565 104.289 125.499 104.289C130.434 104.289 135.094 105.193 138.619 106.835C141.652 108.248 143.608 110.1 144.295 112.167C144.571 112.999 143.949 113.857 143.072 113.857H143.075Z" fill="white"/>
<path d="M116.059 100.307C119.003 100.307 121.389 97.9206 121.389 94.9772C121.389 92.0337 119.003 89.6476 116.059 89.6476C113.116 89.6476 110.73 92.0337 110.73 94.9772C110.73 97.9206 113.116 100.307 116.059 100.307Z" fill="white"/>
<path d="M134.941 100.307C137.884 100.307 140.27 97.9206 140.27 94.9772C140.27 92.0337 137.884 89.6476 134.941 89.6476C131.997 89.6476 129.611 92.0337 129.611 94.9772C129.611 97.9206 131.997 100.307 134.941 100.307Z" fill="white"/>
</g>
<defs>
<clipPath id="clip0_17597_18250">
<rect width="251" height="205" fill="white"/>
</clipPath>
</defs>
</svg>
