<svg width="21" height="20" viewBox="0 0 21 20" fill="none" xmlns="http://www.w3.org/2000/svg">
<path d="M14.7449 4.97309L15.9561 3.76194L17.1346 4.94045L15.9234 6.1516C16.9497 7.43467 17.5635 9.06217 17.5635 10.833C17.5635 14.9752 14.2056 18.333 10.0635 18.333C5.92134 18.333 2.56348 14.9752 2.56348 10.833C2.56348 6.69087 5.92134 3.33301 10.0635 3.33301C11.8343 3.33301 13.4618 3.94673 14.7449 4.97309ZM10.0635 16.6663C13.2851 16.6663 15.8968 14.0547 15.8968 10.833C15.8968 7.61135 13.2851 4.99967 10.0635 4.99967C6.84182 4.99967 4.23014 7.61135 4.23014 10.833C4.23014 14.0547 6.84182 16.6663 10.0635 16.6663ZM9.23014 6.66634H10.8968V11.6663H9.23014V6.66634ZM6.73014 0.833008H13.3968V2.49967H6.73014V0.833008Z" fill="#F2652D"/>
</svg>
