<svg width="16" height="18" viewBox="0 0 16 18" fill="none" xmlns="http://www.w3.org/2000/svg">
<path d="M13.8333 7.21339H14.6667C15.1269 7.21339 15.5 7.58647 15.5 8.04672V16.3801C15.5 16.8403 15.1269 17.2134 14.6667 17.2134H1.33333C0.8731 17.2134 0.5 16.8403 0.5 16.3801V8.04672C0.5 7.58647 0.8731 7.21339 1.33333 7.21339H2.16667V6.38006C2.16667 3.1584 4.77834 0.546722 8 0.546722C11.2217 0.546722 13.8333 3.1584 13.8333 6.38006V7.21339ZM2.16667 8.88006V15.5467H13.8333V8.88006H2.16667ZM7.16667 10.5467H8.83333V13.8801H7.16667V10.5467ZM12.1667 7.21339V6.38006C12.1667 4.07887 10.3012 2.21339 8 2.21339C5.69882 2.21339 3.83333 4.07887 3.83333 6.38006V7.21339H12.1667Z" fill="#F2652D"/>
</svg>
