<svg width="18" height="18" viewBox="0 0 18 18" fill="none" xmlns="http://www.w3.org/2000/svg">
<path d="M14.6572 11.8287L13.2429 10.4145L14.6572 9.00029C16.2193 7.43819 16.2193 4.90555 14.6572 3.34345C13.0951 1.78135 10.5624 1.78135 9.0003 3.34345L7.5861 4.75766L6.17188 3.34345L7.5861 1.92924C9.9292 -0.413913 13.7282 -0.413913 16.0714 1.92924C18.4145 4.27238 18.4145 8.07139 16.0714 10.4145L14.6572 11.8287ZM11.8287 14.6572L10.4145 16.0714C8.0714 18.4145 4.27238 18.4145 1.92923 16.0714C-0.41391 13.7282 -0.41391 9.92919 1.92923 7.58609L3.34345 6.17188L4.75766 7.58609L3.34345 9.00029C1.78135 10.5624 1.78135 13.0951 3.34345 14.6572C4.90555 16.2193 7.4382 16.2193 9.0003 14.6572L10.4145 13.243L11.8287 14.6572ZM11.8287 4.75766L13.2429 6.17188L6.17188 13.243L4.75766 11.8287L11.8287 4.75766Z" fill="#F2652D"/>
</svg>
