<svg width="36" height="36" viewBox="0 0 36 36" fill="none" xmlns="http://www.w3.org/2000/svg">
<g clip-path="url(#clip0_897_5)">
<path d="M18 35.5C27.665 35.5 35.5 27.665 35.5 18C35.5 8.33502 27.665 0.5 18 0.5C8.33502 0.5 0.5 8.33502 0.5 18C0.5 27.665 8.33502 35.5 18 35.5Z" fill="white" stroke="#E6E6E6"/>
<path d="M18 13.5L14.3333 17.1667L15.6167 18.45L17.0833 16.9833L17.0833 20.8333L18.9167 20.8333L18.9167 16.9833L20.3833 18.45L21.6667 17.1667L18 13.5ZM24.4167 9.75C24.9208 9.75 25.3562 9.9257 25.7229 10.2771C26.0743 10.6437 26.25 11.0792 26.25 11.5833L26.25 23.0187C26.25 23.2326 26.2194 23.4389 26.1583 23.6375C26.0819 23.8361 25.975 24.0194 25.8375 24.1875L24.6917 25.5854C24.5236 25.7993 24.3174 25.9597 24.0729 26.0667C23.8132 26.1889 23.5458 26.25 23.2708 26.25L12.7292 26.25C12.4542 26.25 12.1944 26.1889 11.95 26.0667C11.6903 25.9597 11.4764 25.7993 11.3083 25.5854L10.1625 24.1875C10.025 24.0194 9.9257 23.8361 9.8646 23.6375C9.7882 23.4389 9.75 23.2326 9.75 23.0187L9.75 11.5833C9.75 11.0792 9.9333 10.6437 10.3 10.2771C10.6514 9.9257 11.0792 9.75 11.5833 9.75L24.4167 9.75Z" fill="#F2652D"/>
</g>
<defs>
<clipPath id="clip0_897_5">
<rect width="36" height="36" fill="white"/>
</clipPath>
</defs>
</svg>
