<svg width="36" height="36" viewBox="0 0 36 36" fill="none" xmlns="http://www.w3.org/2000/svg">
<circle cx="18" cy="18" r="17.5" fill="white" stroke="#E6E6E6"/>
<path d="M11.7004 24.2984H12.9829L21.7804 15.5009L20.4979 14.2184L11.7004 23.0159V24.2984ZM9.90039 26.0984V22.2734L21.7804 10.4159C21.9604 10.2509 22.1591 10.1234 22.3766 10.0334C22.5941 9.94344 22.8229 9.89844 23.0629 9.89844C23.3029 9.89844 23.5354 9.94344 23.7604 10.0334C23.9854 10.1234 24.1804 10.2584 24.3454 10.4384L25.5829 11.6984C25.7629 11.8634 25.8941 12.0584 25.9766 12.2834C26.0591 12.5084 26.1004 12.7334 26.1004 12.9584C26.1004 13.1984 26.0591 13.4272 25.9766 13.6447C25.8941 13.8622 25.7629 14.0609 25.5829 14.2409L13.7254 26.0984H9.90039ZM21.1279 14.8709L20.4979 14.2184L21.7804 15.5009L21.1279 14.8709Z" fill="#F2652D"/>
</svg>
