<svg width="418" height="296" viewBox="0 0 418 296" fill="none" xmlns="http://www.w3.org/2000/svg">
<path d="M361.742 171.043C363.096 210.984 275.274 294.169 170.366 266.365C121.574 253.432 126.333 230.105 89.7441 200.292C67.9355 182.523 36.2813 169.416 28.0591 143.078C20.9554 120.344 26.3023 95.6262 40.0458 79.3262C70.9538 42.6678 132.12 16.6964 190.312 72.1324C248.504 127.568 358.234 68.032 361.742 171.043Z" fill="url(#paint0_linear_6106_17151)"/>
<path fill-rule="evenodd" clip-rule="evenodd" d="M310.324 83.043V53.5212C310.324 37.2171 297.107 24 280.802 24H133.195C116.891 24 103.674 37.2171 103.674 53.5212V127.325" fill="white"/>
<path d="M310.324 83.043V53.5212C310.324 37.2171 297.107 24 280.802 24H133.195C116.891 24 103.674 37.2171 103.674 53.5212V127.325" stroke="#E1E4E5" stroke-width="2.38349"/>
<path fill-rule="evenodd" clip-rule="evenodd" d="M103.674 88.204H199.102C201.532 88.2043 203.924 87.6049 206.066 86.4591C208.208 85.3132 210.035 83.6563 211.383 81.6353L232.092 50.5051C233.443 48.475 235.276 46.8113 237.427 45.6625C239.577 44.5137 241.979 43.9157 244.418 43.9219H310.324C326.628 43.9219 339.846 57.139 339.846 73.4431V221.05C339.846 237.355 326.628 250.572 310.324 250.572H103.674C87.37 250.572 74.1523 237.355 74.1523 221.05V117.725C74.1523 101.421 87.37 88.204 103.674 88.204Z" fill="white" stroke="#E1E4E5" stroke-width="2.38349"/>
<path fill-rule="evenodd" clip-rule="evenodd" d="M131.661 212.725V215.015H133.949C134.41 215.017 134.851 215.201 135.177 215.527C135.503 215.853 135.687 216.295 135.689 216.756C135.687 217.216 135.503 217.658 135.177 217.984C134.851 218.31 134.41 218.494 133.949 218.496H131.661V220.786C131.66 221.247 131.476 221.688 131.15 222.014C130.824 222.34 130.383 222.525 129.922 222.527C129.461 222.524 129.02 222.34 128.694 222.014C128.368 221.688 128.185 221.247 128.183 220.786V218.506H125.886C125.425 218.504 124.983 218.319 124.658 217.993C124.332 217.667 124.148 217.226 124.146 216.765C124.148 216.304 124.332 215.863 124.658 215.537C124.984 215.211 125.425 215.026 125.886 215.024H128.173V212.725C128.176 212.263 128.361 211.82 128.688 211.494C129.016 211.168 129.46 210.985 129.922 210.984C130.383 210.987 130.824 211.171 131.15 211.497C131.476 211.823 131.66 212.264 131.661 212.725ZM112.536 196.685V199.891H115.853C117.238 199.891 118.375 200.99 118.375 202.328C118.375 203.665 117.238 204.765 115.853 204.765H112.536V207.97C112.536 209.308 111.398 210.407 110.014 210.407C108.629 210.407 107.492 209.308 107.492 207.97V204.778H104.161C102.776 204.778 101.639 203.679 101.639 202.341C101.639 201.003 102.776 199.904 104.161 199.904H107.478V196.685C107.478 195.347 108.615 194.248 110.014 194.248C111.398 194.248 112.536 195.347 112.536 196.685Z" fill="#E1E4E5"/>
<path d="M207.309 227.256C238.831 227.256 264.385 201.702 264.385 170.18C264.385 138.657 238.831 113.104 207.309 113.104C175.786 113.104 150.232 138.657 150.232 170.18C150.232 201.702 175.786 227.256 207.309 227.256Z" fill="#F2652D"/>
<path d="M211.325 153.497C211.325 151.279 209.527 149.48 207.309 149.48C205.091 149.48 203.293 151.279 203.293 153.497V186.863C203.293 189.081 205.091 190.879 207.309 190.879C209.527 190.879 211.325 189.081 211.325 186.863V153.497Z" fill="white"/>
<path d="M223.992 174.196C226.21 174.196 228.008 172.398 228.008 170.18C228.008 167.962 226.21 166.164 223.992 166.164H190.625C188.407 166.164 186.609 167.962 186.609 170.18C186.609 172.398 188.407 174.196 190.625 174.196H223.992Z" fill="white"/>
<path d="M361.47 247.576C357.034 247.576 353.439 244.151 353.439 239.926C353.439 235.702 357.034 232.277 361.47 232.277C365.906 232.277 369.502 235.702 369.502 239.926C369.502 244.151 365.906 247.576 361.47 247.576Z" fill="#E1E4E5"/>
<path d="M115.756 266.056C114.278 266.056 113.079 264.857 113.079 263.378C113.079 261.9 114.278 260.701 115.756 260.701C117.235 260.701 118.434 261.9 118.434 263.378C118.434 264.857 117.235 266.056 115.756 266.056Z" fill="#E1E4E5"/>
<path d="M273.847 86.0729C271.735 86.0729 270.023 84.3606 270.023 82.2484C270.023 80.1361 271.735 78.4238 273.847 78.4238C275.96 78.4238 277.672 80.1361 277.672 82.2484C277.672 84.3606 275.96 86.0729 273.847 86.0729Z" fill="#E1E4E5"/>
<path d="M48.3573 197.58C48.8916 199.574 47.7084 201.623 45.7146 202.157C43.7208 202.691 41.6715 201.508 41.1372 199.514C40.603 197.521 41.7862 195.471 43.78 194.937C45.7738 194.403 47.8231 195.586 48.3573 197.58Z" fill="#E1E4E5"/>
<path d="M72.2957 34.5804C69.5498 34.5804 67.3239 32.3545 67.3239 29.6086C67.3239 26.8627 69.5498 24.6367 72.2957 24.6367C75.0416 24.6367 77.2676 26.8627 77.2676 29.6086C77.2676 32.3545 75.0416 34.5804 72.2957 34.5804Z" fill="#E1E4E5"/>
<path d="M353.556 101.225C351.444 101.225 349.732 99.8553 349.732 98.1653C349.732 96.4754 351.444 95.1055 353.556 95.1055C355.669 95.1055 357.381 96.4754 357.381 98.1653C357.381 99.8553 355.669 101.225 353.556 101.225Z" fill="#E1E4E5"/>
<path d="M54.417 226.716H54.5175C55.1096 235.11 61.3528 235.24 61.3528 235.24C61.3528 235.24 54.4684 235.374 54.4684 245.074C54.4684 235.374 47.584 235.24 47.584 235.24C47.584 235.24 53.8249 235.11 54.417 226.716ZM385.874 130.943H385.978C386.594 139.808 393.082 139.944 393.082 139.944C393.082 139.944 385.927 140.086 385.927 150.329C385.927 140.086 378.773 139.944 378.773 139.944C378.773 139.944 385.259 139.808 385.874 130.943Z" fill="#E1E4E5"/>
<defs>
<linearGradient id="paint0_linear_6106_17151" x1="253.122" y1="412.995" x2="107.07" y2="-242.811" gradientUnits="userSpaceOnUse">
<stop stop-color="#DCDCDC"/>
<stop offset="1" stop-color="#EEEEEE"/>
</linearGradient>
</defs>
</svg>
