<svg width="25" height="25" viewBox="0 0 25 25" fill="none" xmlns="http://www.w3.org/2000/svg">
<path d="M0.765625 12.5C0.765625 19.1275 6.1382 24.5 12.7656 24.5C19.3931 24.5 24.7656 19.1275 24.7656 12.5C24.7656 5.87258 19.3931 0.5 12.7656 0.5C6.1382 0.5 0.765625 5.87258 0.765625 12.5Z" fill="#F2652D"/>
<path d="M7.15244 11.7523C10.6458 10.2303 12.9753 9.22687 14.1408 8.74211C17.4687 7.35793 18.1601 7.1175 18.6109 7.10945C18.71 7.10778 18.9316 7.13239 19.0752 7.24886C19.1964 7.3472 19.2298 7.4801 19.2458 7.57339C19.2617 7.6666 19.2816 7.87914 19.2658 8.04514C19.0855 9.93995 18.3051 14.5382 17.9081 16.6604C17.7402 17.5585 17.4094 17.8596 17.0892 17.889C16.3933 17.953 15.8649 17.4291 15.1909 16.9873C14.1362 16.296 13.5404 15.8655 12.5166 15.1909C11.3335 14.4112 12.1005 13.9828 12.7748 13.2825C12.9512 13.0992 16.0173 10.3104 16.0766 10.0573C16.0841 10.0257 16.0909 9.90774 16.0209 9.84543C15.9508 9.78321 15.8474 9.80452 15.7727 9.82144C15.667 9.84543 13.9821 10.9591 10.7182 13.1623C10.2399 13.4908 9.80675 13.6507 9.41869 13.6424C8.99078 13.6331 8.16776 13.4004 7.55592 13.2015C6.80547 12.9576 6.20902 12.8286 6.26097 12.4144C6.28802 12.1986 6.58517 11.9778 7.15244 11.7523Z" fill="white"/>
</svg>
