<svg width="25" height="25" viewBox="0 0 25 25" fill="none" xmlns="http://www.w3.org/2000/svg">
<path d="M0.765625 12.5C0.765625 19.1275 6.1382 24.5 12.7656 24.5C19.3931 24.5 24.7656 19.1275 24.7656 12.5C24.7656 5.87258 19.3931 0.5 12.7656 0.5C6.1382 0.5 0.765625 5.87258 0.765625 12.5Z" fill="#F2652D"/>
<path d="M12.7625 16.1C10.7375 16.1 9.83749 15.05 9.83749 14.3C9.83749 14.15 9.91248 13.925 10.0625 13.85C10.2125 13.7 10.3625 13.7 10.5125 13.7C11.3375 13.7 11.1125 14.975 12.7625 14.975C13.5875 14.975 14.0375 14.45 14.0375 14C14.0375 13.7 13.8875 13.4 13.3625 13.25L11.5625 12.8C10.1375 12.425 9.91248 11.6 9.91248 10.925C9.91248 9.35 11.3375 8.825 12.6875 8.825C13.8875 8.825 15.3875 9.5 15.3875 10.4C15.3875 10.775 15.0875 11 14.6375 11C13.8875 11 14.0375 9.95 12.5375 9.95C11.7875 9.95 11.4125 10.325 11.4125 10.775C11.4125 11.225 12.0125 11.45 12.4625 11.525L13.8125 11.825C15.2375 12.125 15.6125 13.025 15.6125 13.775C15.6125 15.2 14.6375 16.1 12.7625 16.1ZM18.3125 13.475C18.3875 13.175 18.3875 12.8 18.3875 12.5C18.3875 10.85 17.6375 9.275 16.3625 8.15C15.0875 7.025 13.3625 6.65 11.7125 6.875C11.2625 6.65 10.6625 6.5 10.0625 6.5C8.86248 6.5 7.7375 7.175 7.1375 8.225C6.5375 9.275 6.5375 10.55 7.1375 11.6C6.8375 13.4 7.36249 15.275 8.71249 16.625C9.98749 17.9 11.8625 18.5 13.6625 18.2C14.1875 18.5 14.7125 18.65 15.3125 18.65C16.5125 18.65 17.6375 17.975 18.2375 16.925C18.8375 15.8 18.9125 14.525 18.3125 13.475Z" fill="white"/>
</svg>
