<svg width="6" height="7" viewBox="0 0 6 7" fill="none" xmlns="http://www.w3.org/2000/svg">
<path d="M5.3795 2.0767L3.58783 0.289202C3.43169 0.133993 3.22048 0.046875 3.00033 0.046875C2.78018 0.046875 2.56897 0.133993 2.41283 0.289202L0.621164 2.0767C0.543559 2.15477 0.5 2.26038 0.5 2.37045C0.5 2.48053 0.543559 2.58613 0.621164 2.6642C0.659898 2.70326 0.705982 2.73425 0.756757 2.75541C0.807531 2.77656 0.861992 2.78745 0.916997 2.78745C0.972002 2.78745 1.02646 2.77656 1.07724 2.75541C1.12801 2.73425 1.1741 2.70326 1.21283 2.6642L2.58366 1.29337V5.8767C2.58366 5.98721 2.62756 6.09319 2.7057 6.17133C2.78384 6.24947 2.88982 6.29337 3.00033 6.29337C3.11084 6.29337 3.21682 6.24947 3.29496 6.17133C3.3731 6.09319 3.417 5.98721 3.417 5.8767V1.29337L4.78783 2.6642C4.86574 2.74266 4.97162 2.78696 5.08219 2.78735C5.19276 2.78774 5.29895 2.74419 5.37741 2.66629C5.45587 2.58838 5.50017 2.48249 5.50056 2.37193C5.50095 2.26136 5.4574 2.15516 5.3795 2.0767Z" fill="#34A322"/>
</svg>
