<svg width="36" height="36" viewBox="0 0 36 36" fill="none" xmlns="http://www.w3.org/2000/svg">
<circle cx="18" cy="18" r="17.5" fill="white" stroke="#E6E6E6"/>
<path d="M18 23.5L21.6667 19.8333L20.3833 18.55L18.9167 20.0167V16.1667H17.0833V20.0167L15.6167 18.55L14.3333 19.8333L18 23.5ZM11.5833 14.3333V24.4167H24.4167V14.3333H11.5833ZM11.5833 26.25C11.0792 26.25 10.6438 26.0743 10.2771 25.7229C9.92569 25.3563 9.75 24.9208 9.75 24.4167V12.9813C9.75 12.7674 9.78056 12.5611 9.84167 12.3625C9.91806 12.1639 10.025 11.9806 10.1625 11.8125L11.3083 10.4146C11.4764 10.2007 11.6826 10.0403 11.9271 9.93333C12.1868 9.81111 12.4542 9.75 12.7292 9.75H23.2708C23.5458 9.75 23.8056 9.81111 24.05 9.93333C24.3097 10.0403 24.5236 10.2007 24.6917 10.4146L25.8375 11.8125C25.975 11.9806 26.0743 12.1639 26.1354 12.3625C26.2118 12.5611 26.25 12.7674 26.25 12.9813V24.4167C26.25 24.9208 26.0667 25.3563 25.7 25.7229C25.3486 26.0743 24.9208 26.25 24.4167 26.25H11.5833ZM11.95 12.5H24.05L23.2708 11.5833H12.7292L11.95 12.5Z" fill="#F2652D"/>
</svg>
