<svg width="6" height="7" viewBox="0 0 6 7" fill="none" xmlns="http://www.w3.org/2000/svg">
<path d="M0.620503 4.26314L2.41217 6.05064C2.56831 6.20585 2.77952 6.29297 2.99967 6.29297C3.21982 6.29297 3.43103 6.20585 3.58717 6.05064L5.37884 4.26314C5.45644 4.18507 5.5 4.07947 5.5 3.96939C5.5 3.85931 5.45644 3.75371 5.37884 3.67564C5.3401 3.63659 5.29402 3.60559 5.24324 3.58444C5.19247 3.56328 5.13801 3.55239 5.083 3.55239C5.028 3.55239 4.97354 3.56328 4.92276 3.58444C4.87199 3.60559 4.8259 3.63659 4.78717 3.67564L3.41634 5.04647V0.463141C3.41634 0.352634 3.37244 0.246654 3.2943 0.168513C3.21616 0.090373 3.11018 0.0464749 2.99967 0.0464749C2.88916 0.0464749 2.78318 0.090373 2.70504 0.168513C2.6269 0.246654 2.583 0.352634 2.583 0.463141V5.04647L1.21217 3.67564C1.13426 3.59718 1.02838 3.55288 0.91781 3.55249C0.807242 3.5521 0.701046 3.59565 0.622587 3.67356C0.544127 3.75147 0.499828 3.85735 0.499438 3.96792C0.499047 4.07849 0.542596 4.18468 0.620503 4.26314Z" fill="#F9202B"/>
</svg>
