<svg width="132" height="88" viewBox="0 0 132 88" fill="none" xmlns="http://www.w3.org/2000/svg">
<g clip-path="url(#clip0_6744_3067)">
<mask id="mask0_6744_3067" style="mask-type:luminance" maskUnits="userSpaceOnUse" x="0" y="0" width="132" height="88">
<path d="M0.333008 0.164062H131.844V87.8379H0.333008V0.164062Z" fill="white"/>
</mask>
<g mask="url(#mask0_6744_3067)">
<path d="M91.6933 29.3229C90.6401 20.5925 70.6369 5.98475 50.9435 16.1622C41.7844 20.896 43.49 25.7761 37.286 33.6958C33.588 38.416 27.8017 42.5119 27.0563 48.558C26.4116 53.7769 28.2786 58.9358 31.5173 61.935C38.8011 68.6799 51.6767 71.9096 61.2788 57.5716C70.8808 43.2336 94.4071 51.8399 91.6933 29.3229Z" fill="url(#paint0_linear_6744_3067)"/>
<path d="M63.0801 68.0246C74.644 58.8556 86.6154 49.0186 99.4103 46.1557C112.609 43.1996 113.609 47.6462 112.643 53.9812C111.678 60.3161 104 73.7769 86.066 77.5378C68.1277 81.3001 52.259 76.6066 63.0801 68.0246Z" fill="url(#paint1_linear_6744_3067)"/>
<path fill-rule="evenodd" clip-rule="evenodd" d="M87.6899 42.8844C87.6899 54.7619 78.0617 64.3899 66.1844 64.3899C54.3069 64.3899 44.6787 54.7619 44.6787 42.8844C44.6787 31.007 54.3069 21.3789 66.1844 21.3789C78.0617 21.3789 87.6899 31.007 87.6899 42.8844Z" fill="#275570" stroke="#275570" stroke-width="4.32013" stroke-linecap="round" stroke-linejoin="round"/>
<path d="M90.7596 67.4598L81.3994 58.0996" stroke="#275570" stroke-width="4.32013" stroke-linecap="round" stroke-linejoin="round"/>
<path d="M50.4941 43.0974H57.6914L61.4152 37.543L66.3787 48.6518L70.1025 43.0974H81.2082" stroke="white" stroke-width="3.21573" stroke-linecap="round" stroke-linejoin="round"/>
<path d="M52.0258 70.6926C53.2918 70.6926 54.3182 71.7189 54.3182 72.985C54.3182 74.251 53.2918 75.2773 52.0258 75.2773C50.7597 75.2773 49.7334 74.251 49.7334 72.985C49.7334 71.7189 50.7597 70.6926 52.0258 70.6926Z" fill="#275570"/>
<path d="M92.5894 18.8055C91.2767 19.5634 89.5982 19.1136 88.8403 17.801C88.0825 16.4883 88.5322 14.8098 89.8449 14.0519C91.1576 13.2941 92.8361 13.7438 93.5939 15.0565C94.3518 16.3691 93.902 18.0476 92.5894 18.8055Z" fill="#275570"/>
<path d="M25.6645 37.0129C26.7844 37.0129 27.6922 37.9207 27.6922 39.0406C27.6922 40.1605 26.7844 41.0684 25.6645 41.0684C24.5446 41.0684 23.6367 40.1605 23.6367 39.0406C23.6367 37.9207 24.5446 37.0129 25.6645 37.0129Z" fill="#275570"/>
<path d="M100.38 39.9445C99.7899 40.2853 99.035 40.083 98.6941 39.4927C98.3533 38.9023 98.5556 38.1474 99.1459 37.8066C99.7363 37.4658 100.491 37.668 100.832 38.2584C101.173 38.8487 100.971 39.6036 100.38 39.9445Z" fill="#275570"/>
<path d="M36.861 26.7845C36.2767 26.7845 35.8031 27.2582 35.8031 27.8425C35.8031 28.4267 36.2767 28.9004 36.861 28.9004C37.4453 28.9004 37.9189 28.4267 37.9189 27.8425C37.9189 27.2582 37.4453 26.7845 36.861 26.7845Z" fill="#F2652D"/>
<path d="M107.608 53.8791C108.367 53.4409 108.627 52.4703 108.189 51.7112C107.751 50.9521 106.78 50.6921 106.021 51.1303C105.262 51.5686 105.002 52.5392 105.44 53.2982C105.878 54.0573 106.849 54.3174 107.608 53.8791Z" fill="#F2652D"/>
<path d="M29.7192 64.3449C30.8391 64.3449 31.7469 65.2527 31.7469 66.3726C31.7469 67.4925 30.8391 68.4004 29.7192 68.4004C28.5993 68.4004 27.6914 67.4925 27.6914 66.3726C27.6914 65.2527 28.5993 64.3449 29.7192 64.3449Z" fill="#F2652D"/>
<path d="M62.6153 9.96215C61.7993 10.4332 60.756 10.1537 60.2849 9.33771C59.8138 8.52175 60.0933 7.47839 60.9093 7.00729C61.7253 6.53619 62.7686 6.81576 63.2397 7.63172C63.7108 8.44769 63.4312 9.49105 62.6153 9.96215Z" fill="#F2652D"/>
</g>
</g>
<defs>
<linearGradient id="paint0_linear_6744_3067" x1="62.3594" y1="-18.956" x2="55.8542" y2="129.297" gradientUnits="userSpaceOnUse">
<stop stop-color="white"/>
<stop offset="1" stop-color="#EEEEEE"/>
</linearGradient>
<linearGradient id="paint1_linear_6744_3067" x1="61.4054" y1="108.552" x2="124.427" y2="-8.81928" gradientUnits="userSpaceOnUse">
<stop stop-color="#FDFDFD"/>
<stop offset="1" stop-color="#EEEEEE"/>
</linearGradient>
<clipPath id="clip0_6744_3067">
<rect width="131.511" height="87.6738" fill="white" transform="translate(0.333008 0.164062)"/>
</clipPath>
</defs>
</svg>
