<svg width="17" height="16" viewBox="0 0 17 16" fill="none" xmlns="http://www.w3.org/2000/svg">
<path d="M8.3366 14.6683C4.6547 14.6683 1.66992 11.6835 1.66992 8.00159C1.66992 4.31973 4.6547 1.33496 8.3366 1.33496C12.0185 1.33496 15.0033 4.31973 15.0033 8.00159C15.0033 11.6835 12.0185 14.6683 8.3366 14.6683ZM8.3366 13.3349C11.2821 13.3349 13.6699 10.9471 13.6699 8.00159C13.6699 5.05611 11.2821 2.66829 8.3366 2.66829C5.39107 2.66829 3.00326 5.05611 3.00326 8.00159C3.00326 10.9471 5.39107 13.3349 8.3366 13.3349ZM6.00326 9.33493H9.66994C9.854 9.33493 10.0033 9.18573 10.0033 9.00159C10.0033 8.81753 9.854 8.66826 9.66994 8.66826H7.00327C6.08278 8.66826 5.33659 7.92213 5.33659 7.00159C5.33659 6.08115 6.08278 5.33496 7.00327 5.33496H7.66994V4.00163H9.00327V5.33496H10.6699V6.66826H7.00327C6.81916 6.66826 6.66992 6.81753 6.66992 7.00159C6.66992 7.18573 6.81916 7.33493 7.00327 7.33493H9.66994C10.5904 7.33493 11.3366 8.08113 11.3366 9.00159C11.3366 9.92213 10.5904 10.6683 9.66994 10.6683H9.00327V12.0016H7.66994V10.6683H6.00326V9.33493Z" fill="#F2652D"/>
</svg>
