<svg width="19" height="19" viewBox="0 0 19 19" fill="none" xmlns="http://www.w3.org/2000/svg">
<g clip-path="url(#clip0_17401_8511)">
<path d="M9.48936 0.10437C4.31449 0.10437 0.104395 4.31446 0.104395 9.48933C0.104395 14.6642 4.31449 18.8743 9.48936 18.8743C14.6642 18.8743 18.8743 14.6642 18.8743 9.48933C18.8743 4.31446 14.6642 0.10437 9.48936 0.10437ZM10.115 6.68615C11.1338 6.6363 12.1247 6.46529 13.0531 6.18499C13.2373 7.01817 13.3549 7.921 13.3914 8.86367H10.115V6.68615ZM10.115 5.43315V1.46623C11.1868 1.84163 12.1278 3.15782 12.7255 4.97829C11.9042 5.22898 11.0239 5.38414 10.115 5.43315ZM8.86369 1.46623V5.43315C7.95481 5.38414 7.0745 5.22918 6.25321 4.9785C6.85093 3.15782 7.79193 1.84163 8.86369 1.46623ZM8.86369 6.68615V8.86367H5.5873C5.62379 7.921 5.74142 7.01817 5.92557 6.1852C6.85406 6.46529 7.8449 6.6363 8.86369 6.68615ZM4.33472 8.86367H1.38221C1.50004 7.32245 2.04854 5.90052 2.90841 4.71781C3.4615 5.11907 4.07444 5.46652 4.73493 5.75203C4.51136 6.71222 4.37309 7.75916 4.33472 8.86367ZM4.33472 10.115C4.37309 11.2195 4.51136 12.2667 4.73493 13.2268C4.07444 13.5124 3.4615 13.8598 2.90841 14.2611C2.04854 13.0781 1.50004 11.6562 1.38221 10.115H4.33472ZM5.5873 10.115H8.86369V12.2925C7.8449 12.3424 6.85406 12.5134 5.92578 12.7937C5.74142 11.9607 5.62379 11.0577 5.5873 10.115ZM8.86369 13.5457V17.5124C7.79193 17.137 6.85114 15.8208 6.25321 14.0004C7.0745 13.7497 7.95481 13.5947 8.86369 13.5457ZM10.115 17.5124V13.5457C11.0239 13.5947 11.9042 13.7497 12.7255 14.0004C12.1278 15.8208 11.1868 17.137 10.115 17.5124ZM10.115 12.2925V10.115H13.3914C13.3549 11.0577 13.2373 11.9607 13.0529 12.7937C12.1247 12.5134 11.134 12.3424 10.115 12.2925ZM14.644 10.115H17.5965C17.4787 11.6562 16.9302 13.0781 16.0703 14.2609C15.5172 13.8596 14.9043 13.5124 14.2438 13.2266C14.4676 12.2667 14.6058 11.2195 14.644 10.115ZM14.644 8.86367C14.6056 7.75916 14.4673 6.71222 14.2438 5.75182C14.9043 5.46631 15.5172 5.11886 16.0703 4.7176C16.9304 5.90052 17.4787 7.32245 17.5965 8.86367H14.644ZM15.258 3.76158C14.8423 4.05544 14.3871 4.31425 13.9003 4.53574C13.5674 3.54531 13.1359 2.6819 12.6285 1.98658C13.6196 2.40264 14.5114 3.00975 15.258 3.76158ZM6.3504 1.98637C5.84299 2.68169 5.41149 3.54531 5.07863 4.53574C4.59166 4.31425 4.13638 4.05565 3.72073 3.76158C4.46736 3.00975 5.35914 2.40264 6.3504 1.98637ZM3.72073 15.2171C4.13638 14.9232 4.59166 14.6644 5.07863 14.4429C5.41149 15.4333 5.84319 16.2968 6.3504 16.9923C5.35914 16.576 4.46736 15.9689 3.72073 15.2171ZM12.6283 16.9923C13.1357 16.297 13.5672 15.4336 13.9001 14.4431C14.3868 14.6646 14.8421 14.9232 15.2578 15.2173C14.5114 15.9689 13.6196 16.576 12.6283 16.9923Z" fill="#F2652D"/>
</g>
<defs>
<clipPath id="clip0_17401_8511">
<rect width="19" height="19" fill="white"/>
</clipPath>
</defs>
</svg>
