<svg width="17" height="16" viewBox="0 0 17 16" fill="none" xmlns="http://www.w3.org/2000/svg">
<path d="M13.3333 14.6663H4C2.89543 14.6663 2 13.7709 2 12.6663V1.99967C2 1.63149 2.29848 1.33301 2.66667 1.33301H12C12.3682 1.33301 12.6667 1.63149 12.6667 1.99967V9.99967H15.3333V12.6663C15.3333 13.7709 14.4379 14.6663 13.3333 14.6663ZM12.6667 11.333V12.6663C12.6667 13.0345 12.9651 13.333 13.3333 13.333C13.7015 13.333 14 13.0345 14 12.6663V11.333H12.6667ZM11.3333 13.333V2.66634H3.33333V12.6663C3.33333 13.0345 3.63181 13.333 4 13.333H11.3333ZM4.66667 4.66634H10V5.99967H4.66667V4.66634ZM4.66667 7.33301H10V8.66634H4.66667V7.33301ZM4.66667 9.99967H8V11.333H4.66667V9.99967Z" fill="#F2652D"/>
</svg>
