<svg width="24" height="24" viewBox="0 0 24 24" fill="none" xmlns="http://www.w3.org/2000/svg">
<circle cx="12" cy="12" r="12" fill="#F2652D"/>
<path fill-rule="evenodd" clip-rule="evenodd" d="M14.0519 12.2599C13.8059 12.3605 13.6487 12.7457 13.4892 12.9424C13.4075 13.0432 13.31 13.059 13.1843 13.0085C12.2609 12.6405 11.553 12.0243 11.0434 11.1745C10.9571 11.0427 10.9725 10.9386 11.0766 10.8162C11.2305 10.6349 11.424 10.429 11.4656 10.1848C11.558 9.64445 10.8517 7.96842 9.91884 8.72785C7.23456 10.9153 14.3967 16.7168 15.6893 13.579C16.055 12.6896 14.4597 12.0929 14.0519 12.2599ZM12.5 16.8645C11.5507 16.8645 10.6166 16.6121 9.79874 16.1343C9.66747 16.0574 9.50878 16.0371 9.36203 16.0769L7.58495 16.5647L8.20397 15.2009C8.24537 15.1099 8.26196 15.0095 8.25206 14.91C8.24216 14.8105 8.20612 14.7153 8.1476 14.6342C7.48541 13.7163 7.13528 12.6327 7.13528 11.5C7.13528 8.54174 9.54179 6.13521 12.5 6.13521C15.4583 6.13521 17.8645 8.54174 17.8645 11.5C17.8645 14.458 15.458 16.8645 12.5 16.8645ZM12.5 5C8.91591 5 6.00007 7.91586 6.00007 11.5C6.00007 12.7609 6.35808 13.9718 7.03829 15.0227L6.05085 17.1974C6.00623 17.2956 5.99051 17.4045 6.00553 17.5114C6.02055 17.6182 6.06568 17.7186 6.13566 17.8007C6.18902 17.8631 6.25528 17.9133 6.32988 17.9477C6.40448 17.9821 6.48565 18 6.5678 18C6.93393 18 8.93039 17.3726 9.43845 17.2332C10.3776 17.7357 11.4311 18 12.5 18C16.0839 18 19 15.0839 19 11.5C19 7.91586 16.0839 5 12.5 5Z" fill="white"/>
</svg>
