<svg id="archive" xmlns="http://www.w3.org/2000/svg" width="24" height="24" viewBox="0 0 24 24">
  <g id="Group_7381" data-name="Group 7381">
    <path id="Path_7143" data-name="Path 7143" d="M4.8,11.619H4V6.807A.807.807,0,0,1,4.794,6H19.248a.795.795,0,0,1,.794.807v4.813h-.8v8.028a.8.8,0,0,1-.233.566.788.788,0,0,1-.565.237H5.6a.788.788,0,0,1-.565-.237.8.8,0,0,1-.233-.566Zm12.834,0H6.406v7.225h11.23ZM5.6,7.606v2.408H18.438V7.606Zm4.011,5.619h4.813v1.606H9.615Z" transform="translate(-0.021 -1.225)" fill="#f2652d"/>
    <path id="Path_7144" data-name="Path 7144" d="M0,0H24V24H0Z" fill="none"/>
  </g>
</svg>
