<svg width="20" height="20" viewBox="0 0 20 20" fill="none" xmlns="http://www.w3.org/2000/svg">
<path d="M10.0049 19.7912C4.48204 19.7912 0.00488281 15.4094 0.00488281 10.004C0.00488281 4.59869 4.48204 0.216797 10.0049 0.216797C15.5277 0.216797 20.0049 4.59869 20.0049 10.004C20.0049 15.4094 15.5277 19.7912 10.0049 19.7912ZM10.0049 17.8338C14.4232 17.8338 18.0049 14.3283 18.0049 10.004C18.0049 5.67976 14.4232 2.17424 10.0049 2.17424C5.5866 2.17424 2.00488 5.67976 2.00488 10.004C2.00488 14.3283 5.5866 17.8338 10.0049 17.8338ZM6.50488 11.9614H12.0049C12.281 11.9614 12.5049 11.7424 12.5049 11.4721C12.5049 11.2019 12.281 10.9827 12.0049 10.9827H8.0049C6.62417 10.9827 5.50488 9.88724 5.50488 8.53592C5.50488 7.18461 6.62417 6.08914 8.0049 6.08914H9.0049V4.13169H11.0049V6.08914H13.5049V8.04656H8.0049C7.72874 8.04656 7.50488 8.26569 7.50488 8.53592C7.50488 8.80624 7.72874 9.02528 8.0049 9.02528H12.0049C13.3856 9.02528 14.5049 10.1208 14.5049 11.4721C14.5049 12.8234 13.3856 13.9189 12.0049 13.9189H11.0049V15.8763H9.0049V13.9189H6.50488V11.9614Z" fill="#F2652D"/>
</svg>
