<svg width="25" height="25" viewBox="0 0 25 25" fill="none" xmlns="http://www.w3.org/2000/svg">
<path d="M12.7656 24.5C19.393 24.5 24.7656 19.1274 24.7656 12.5C24.7656 5.87258 19.393 0.5 12.7656 0.5C6.13821 0.5 0.765625 5.87258 0.765625 12.5C0.765625 19.1274 6.13821 24.5 12.7656 24.5Z" fill="#F2652D"/>
<path d="M19.9422 13.4631V18.4105H17.0739V13.7947C17.0739 12.6357 16.6598 11.8443 15.6212 11.8443C14.8287 11.8443 14.3579 12.3771 14.1499 12.8931C14.0744 13.0775 14.055 13.3335 14.055 13.5921V18.4103H11.1864C11.1864 18.4103 11.2249 10.5927 11.1864 9.78344H14.0552V11.0059C14.0494 11.0156 14.0413 11.025 14.0361 11.0342H14.0552V11.0059C14.4364 10.4194 15.1162 9.58086 16.6403 9.58086C18.5274 9.58086 19.9422 10.8138 19.9422 13.4631ZM8.18566 5.625C7.20445 5.625 6.5625 6.26909 6.5625 7.11532C6.5625 7.94359 7.18584 8.60628 8.14801 8.60628H8.16662C9.16708 8.60628 9.78914 7.94359 9.78914 7.11532C9.7701 6.26909 9.16708 5.625 8.18566 5.625ZM6.73299 18.4105H9.60047V9.78344H6.73299V18.4105Z" fill="#F1F2F2"/>
</svg>
