<svg width="36" height="36" viewBox="0 0 36 36" fill="none" xmlns="http://www.w3.org/2000/svg">
<circle cx="18" cy="18" r="16" fill="#F2652D" stroke="#F2652D" stroke-width="4"/>
<path d="M24.5938 16.5938H19.4063V11.4063C19.4063 10.6296 18.7767 10 18 10C17.2233 10 16.5938 10.6296 16.5938 11.4063V16.5938H11.4063C10.6296 16.5938 10 17.2233 10 18C10 18.7767 10.6296 19.4063 11.4063 19.4063H16.5938V24.5938C16.5938 25.3704 17.2233 26 18 26C18.7767 26 19.4063 25.3704 19.4063 24.5938V19.4063H24.5938C25.3704 19.4063 26 18.7767 26 18C26 17.2233 25.3704 16.5938 24.5938 16.5938Z" fill="white"/>
</svg>
