<svg width="22" height="22" viewBox="0 0 22 22" fill="none" xmlns="http://www.w3.org/2000/svg">
<path d="M9.0073 1.10328C7.60568 0.649564 6.08206 1.28067 5.41181 2.59257L4.60603 4.16974C4.51029 4.35714 4.35787 4.50955 4.17048 4.60529L2.5933 5.41107C1.2814 6.08132 0.650302 7.60495 1.10401 9.00653L1.64947 10.6915C1.71428 10.8917 1.71428 11.1073 1.64947 11.3075L1.10401 12.9925C0.650302 14.3941 1.28141 15.9177 2.5933 16.5879L4.17048 17.3937C4.35787 17.4895 4.51029 17.6419 4.60603 17.8293L5.41181 19.4064C6.08206 20.7183 7.60569 21.3494 9.0073 20.8957L10.6923 20.3503C10.8925 20.2855 11.108 20.2855 11.3082 20.3503L12.9932 20.8957C14.3948 21.3494 15.9185 20.7183 16.5887 19.4064L17.3945 17.8293C17.4902 17.6419 17.6426 17.4895 17.83 17.3937L19.4072 16.5879C20.7191 15.9177 21.3502 14.3941 20.8965 12.9925L20.351 11.3075C20.2862 11.1073 20.2862 10.8917 20.351 10.6915L20.8965 9.00653C21.3502 7.60494 20.7191 6.08132 19.4072 5.41107L17.83 4.60529C17.6426 4.50955 17.4902 4.35713 17.3945 4.16974L16.5887 2.59257C15.9185 1.28067 14.3948 0.649564 12.9932 1.10328L11.3082 1.64873C11.108 1.71354 10.8925 1.71354 10.6923 1.64873L9.0073 1.10328ZM7.19283 3.50249C7.41624 3.06519 7.92412 2.85483 8.39132 3.00606L10.0763 3.55152C10.6769 3.74595 11.3236 3.74595 11.9242 3.55152L13.6092 3.00606C14.0764 2.85483 14.5843 3.06519 14.8077 3.50249L15.6135 5.07967C15.9007 5.64185 16.3579 6.09909 16.9201 6.38631L18.4973 7.19209C18.9346 7.41551 19.145 7.92338 18.9937 8.39058L18.4483 10.0756C18.2538 10.6762 18.2538 11.3228 18.4483 11.9234L18.9937 13.6084C19.145 14.0756 18.9346 14.5835 18.4973 14.8069L16.9201 15.6127C16.3579 15.8999 15.9007 16.3572 15.6135 16.9193L14.8077 18.4965C14.5843 18.9338 14.0764 19.1442 13.6092 18.9929L11.9242 18.4475C11.3236 18.2531 10.6769 18.2531 10.0763 18.4475L8.39132 18.9929C7.92412 19.1442 7.41624 18.9338 7.19283 18.4965L6.38705 16.9193C6.09983 16.3572 5.64258 15.8999 5.08041 15.6127L3.50323 14.8069C3.06593 14.5835 2.85556 14.0756 3.0068 13.6084L3.55226 11.9234C3.74668 11.3228 3.74668 10.6762 3.55226 10.0756L3.0068 8.39058C2.85556 7.92338 3.06593 7.41551 3.50323 7.19209L5.0804 6.38631C5.64258 6.09909 6.09983 5.64185 6.38705 5.07967L7.19283 3.50249ZM5.75984 10.7569L10.0025 14.9995L17.0736 7.92848L15.6594 6.51427L10.0025 12.1711L7.17406 9.34263L5.75984 10.7569Z" fill="#219653"/>
</svg>
