<svg width="177" height="124" viewBox="0 0 177 124" fill="none" xmlns="http://www.w3.org/2000/svg">
<g clip-path="url(#clip0_3042_1780)">
<path d="M85.0438 71.3721C84.5424 93.3173 104.538 112.417 98.1507 121.008C95.7515 124.24 81.1481 123.699 75.4085 121C65.2409 116.213 47.706 100.431 47.4437 71.6969C47.4051 58.5902 50.6838 45.3133 57.7888 34.7196C63.7134 25.889 72.1839 19.3472 82.5521 20.7623C84.743 21.0638 87.0342 21.7675 88.7468 23.3836C90.4748 25.0152 90.6291 28.1469 90.6445 30.5131C90.6831 36.011 89.0939 41.4934 87.9291 46.7747C86.1547 54.8398 84.743 63.0287 85.0361 71.3799L85.0438 71.3721Z" fill="url(#paint0_linear_3042_1780)"/>
<g style="mix-blend-mode:multiply" opacity="0.2">
<path d="M85.0433 71.3722C84.7579 63.0287 86.1619 54.8399 87.9363 46.767C89.1011 41.4779 90.6903 35.9955 90.6517 30.5054C90.6363 28.1392 90.482 25.0075 88.754 23.3759C87.0414 21.7598 84.7502 21.0561 82.5516 20.7545C77.0743 20.0122 71.1728 21.5433 66.6907 25.1544C68.411 23.7703 71.2422 24.76 71.4042 27.103C71.6819 31.093 69.3059 35.0753 67.8016 38.5241C65.9193 42.8311 63.7361 46.999 62.2935 51.5303C59.3928 60.647 58.1585 70.4056 59.3388 80.0327C59.3928 80.4734 59.4546 80.9142 59.5163 81.3549C61.3292 93.8895 67.0456 102.643 74.3897 112.541C74.9914 113.352 75.5314 114.273 75.6935 115.317C76.0637 117.775 73.6723 118.874 71.8594 118.642C71.5662 118.603 71.2808 118.549 70.9876 118.479C72.5537 119.515 74.0426 120.358 75.408 121C81.1398 123.699 95.7433 124.24 98.1502 121.008C104.538 112.417 84.5419 93.3173 85.0356 71.3722H85.0433Z" fill="#D57020"/>
</g>
<path d="M100.68 71.2794C100.179 93.2245 115.831 114.381 108.04 121.379C104.815 124.271 93.0122 123.335 88.0595 119.051C78.9411 111.164 63.4196 98.9466 63.1727 71.4959C63.0493 57.6855 66.9682 43.5735 75.485 33.3046C79.3422 28.6573 84.1483 24.4894 89.4867 22.1619C92.6805 20.77 96.2214 20.1282 99.6389 20.7391C102.979 21.3345 105.054 23.7703 106.412 27.1494C107.315 29.3919 108.464 32.7401 107.839 35.2455C105.679 43.8905 102.617 52.2185 101.313 61.111C100.819 64.467 100.565 67.8693 100.68 71.2717V71.2794Z" fill="url(#paint1_linear_3042_1780)"/>
<g style="mix-blend-mode:multiply" opacity="0.2">
<path d="M100.68 71.2794C100.565 67.877 100.819 64.4747 101.313 61.1187C102.617 52.2185 105.679 43.8905 107.839 35.2532C108.464 32.7555 107.315 29.3996 106.412 27.1571C105.054 23.778 102.972 21.3422 99.639 20.7468C96.2292 20.1359 92.6805 20.7777 89.4868 22.1696C86.4858 23.4764 83.6546 25.3632 81.0703 27.5902C85.7607 23.5924 92.0171 26.8633 88.6999 37.5961C87.3653 41.9187 80.2912 64.0726 86.131 98.4363C88.4222 111.93 97.5021 121.448 91.8088 121.255C97.4635 123.567 105.471 123.691 108.04 121.387C115.832 114.389 100.187 93.2322 100.68 71.2871V71.2794Z" fill="#DB7220"/>
</g>
<g style="mix-blend-mode:overlay" opacity="0.15">
<path d="M83.0228 38.1529L82.0585 42.7306L81.6034 45.0349C81.4722 45.8081 81.3102 46.5659 81.1791 47.3315C80.6314 50.3858 80.1685 53.4325 79.7982 56.4559C79.073 62.5106 78.695 68.5111 78.911 74.4342C79.0267 77.3958 79.2427 80.3342 79.5899 83.2649C79.6208 83.636 79.6902 83.9917 79.7442 84.3552L79.8908 85.4532L80.0373 86.5512L80.2379 87.6338C80.3691 88.3606 80.4616 89.0952 80.6082 89.8221C80.7702 90.5412 80.9168 91.2681 81.0556 92.0027C81.7037 94.8947 82.4057 97.8176 83.3083 100.725C83.7094 102.202 84.2186 103.64 84.6891 105.133C84.9051 105.89 85.1829 106.61 85.4452 107.36C85.6997 108.11 85.9543 108.86 86.1857 109.648L86.2243 109.788C86.5175 110.793 86.016 111.86 85.1057 112.177C84.5194 112.386 83.91 112.223 83.4703 111.814C81.1174 109.602 78.9805 107.074 77.183 104.243L76.5041 103.184L76.1647 102.65C76.0567 102.473 75.9564 102.279 75.8561 102.101L74.6449 99.8667L74.3518 99.3023L74.0818 98.7223L73.5495 97.5547C73.3721 97.1681 73.2023 96.7737 73.0326 96.3793C72.8552 95.985 72.7009 95.5829 72.5543 95.1808C71.2737 91.9718 70.3789 88.5926 69.6923 85.1671C69.0443 81.7261 68.7203 78.2309 68.6431 74.7358C68.5351 67.7455 69.4763 60.8171 71.3509 54.2908C72.292 51.0276 73.4724 47.865 74.8687 44.8416C75.5707 43.326 76.3267 41.849 77.1676 40.4185C77.3681 40.0628 77.5841 39.6994 77.8079 39.3514C78.0239 39.0034 78.2399 38.6477 78.4713 38.3075C78.9342 37.6116 79.3893 36.962 79.9448 36.2506C80.5928 35.4232 81.7268 35.3305 82.4751 36.0496C82.992 36.5522 83.1925 37.3023 83.0537 37.9982L83.0228 38.1451V38.1529Z" fill="white"/>
</g>
<g style="mix-blend-mode:overlay" opacity="0.15">
<path d="M64.4239 35.3459C64.0536 36.0882 63.6679 36.8615 63.3207 37.6425C62.9582 38.4157 62.611 39.1967 62.2793 39.9854C61.9476 40.7742 61.6236 41.5629 61.2996 42.3516C60.991 43.1481 60.6747 43.9445 60.397 44.7487C59.2321 47.9578 58.2215 51.2132 57.4269 54.515C55.8223 61.1109 55.0817 67.8769 55.3826 74.5734L55.5677 77.071C55.5832 77.2798 55.5986 77.4886 55.614 77.6974L55.6989 78.316L55.8609 79.5532L56.0152 80.7981L56.2466 82.0276L56.4703 83.2571L56.586 83.8757C56.6323 84.0767 56.6786 84.2778 56.7326 84.4788L57.3189 86.9069C57.5349 87.7111 57.7972 88.4998 58.0286 89.2963C58.1521 89.6906 58.2601 90.0927 58.3912 90.4948L58.8232 91.6624C59.1164 92.4434 59.371 93.2399 59.6873 94.0054C62.2099 100.168 65.6582 105.937 69.6003 111.435C69.9012 111.86 69.8394 112.471 69.4614 112.803C69.1374 113.089 68.6746 113.074 68.366 112.803C63.313 108.288 58.9929 102.612 55.7837 96.1396C55.3826 95.3277 55.0432 94.4848 54.6729 93.6574L54.1329 92.4048C53.9709 91.9795 53.8243 91.5464 53.67 91.1134C53.3691 90.2474 53.0451 89.3968 52.7751 88.5153L52.0345 85.8475C51.9728 85.6233 51.9111 85.4068 51.8571 85.1825L51.7182 84.502L51.4405 83.1411L51.1628 81.7802L50.9622 80.4038L50.7771 79.0274L50.6845 78.3392C50.6614 78.1072 50.6459 77.8752 50.6305 77.6432L50.4222 74.8672C50.1291 67.4362 51.2708 60.0206 53.5311 53.1695C54.6652 49.744 56.0615 46.4422 57.6969 43.3105C58.5301 41.7562 59.3864 40.2174 60.343 38.756C61.2996 37.2868 62.2793 35.8717 63.4133 34.5262C63.6448 34.2479 64.0382 34.2401 64.2851 34.4953C64.4933 34.7118 64.5396 35.0598 64.4008 35.3227L64.3853 35.3536L64.4239 35.3459Z" fill="white"/>
</g>
<path d="M139.408 71.0474C140.164 92.9848 120.392 112.324 126.88 120.838C129.317 124.039 143.913 123.328 149.614 120.559C159.728 115.657 177.077 99.6658 177 70.9314C176.885 57.8247 173.452 44.5864 166.223 34.0778C160.191 25.3168 151.651 18.8755 141.298 20.4066C139.107 20.7314 136.824 21.4582 135.134 23.0975C133.421 24.7523 133.313 27.884 133.321 30.2502C133.344 35.7481 135.003 41.2073 136.23 46.4809C138.104 54.5306 139.601 62.6962 139.416 71.0474H139.408Z" fill="url(#paint2_linear_3042_1780)"/>
<g style="mix-blend-mode:multiply" opacity="0.2">
<path d="M139.408 71.0474C139.601 62.6962 138.096 54.5228 136.222 46.4809C134.995 41.2073 133.336 35.748 133.313 30.2502C133.306 27.884 133.414 24.7523 135.126 23.0975C136.823 21.4582 139.107 20.7313 141.298 20.4066C146.767 19.5946 152.684 21.0638 157.205 24.6208C155.469 23.2522 152.646 24.2806 152.515 26.6236C152.283 30.6136 154.705 34.565 156.248 37.9982C158.177 42.2898 160.414 46.4268 161.903 50.9426C164.912 60.0284 166.254 69.7715 165.189 79.4063C165.143 79.8471 165.089 80.2878 165.027 80.7363C163.361 93.2941 157.753 102.109 150.524 112.1C149.93 112.919 149.398 113.847 149.259 114.891C148.92 117.35 151.319 118.425 153.132 118.17C153.425 118.131 153.71 118.069 153.996 118C152.445 119.059 150.956 119.91 149.606 120.567C143.905 123.335 129.31 124.047 126.872 120.845C120.384 112.332 140.156 92.9925 139.4 71.0551L139.408 71.0474Z" fill="#D57020"/>
</g>
<path d="M123.77 71.1402C124.526 93.0775 109.12 114.42 116.997 121.325C120.252 124.178 132.047 123.103 136.946 118.765C145.964 110.77 161.347 98.3744 161.277 70.9236C161.239 57.1132 157.158 43.0476 148.525 32.8792C144.614 28.2783 139.762 24.1646 134.393 21.9067C131.183 20.5535 127.635 19.9503 124.225 20.6076C120.892 21.2417 118.848 23.7084 117.521 27.0953C116.642 29.3454 115.531 32.7169 116.187 35.2068C118.447 43.8286 121.602 52.118 123.014 60.995C123.546 64.3432 123.847 67.7455 123.77 71.1479V71.1402Z" fill="url(#paint3_linear_3042_1780)"/>
<g style="mix-blend-mode:multiply" opacity="0.2">
<path d="M123.771 71.1402C123.848 67.7379 123.547 64.3355 123.015 60.9873C121.603 52.1025 118.448 43.8132 116.187 35.1991C115.532 32.7092 116.65 29.3378 117.522 27.0876C118.841 23.693 120.893 21.234 124.226 20.5999C127.628 19.9504 131.184 20.5535 134.394 21.899C137.41 23.1672 140.256 25.023 142.872 27.219C138.135 23.2754 131.917 26.6236 135.358 37.3101C136.746 41.6171 143.18 64.2041 137.734 98.6373C135.597 112.162 127.528 121.263 133.229 121C127.597 123.374 119.597 123.598 117.005 121.325C109.129 114.42 124.527 93.0776 123.778 71.1402H123.771Z" fill="#DB7220"/>
</g>
<g style="mix-blend-mode:overlay" opacity="0.15">
<path d="M141.036 37.8049L142.047 42.3748L142.533 44.6714C142.671 45.4447 142.849 46.1947 142.98 46.968C143.566 50.0146 144.068 53.0536 144.469 56.077C145.271 62.1239 145.711 68.1167 145.564 74.0398C145.487 77.0014 145.302 79.9475 144.986 82.8782C144.963 83.2494 144.893 83.6051 144.847 83.9762L144.716 85.0743L144.577 86.1723L144.392 87.2626C144.268 87.9894 144.183 88.7318 144.045 89.4586C143.89 90.1778 143.751 90.9046 143.628 91.6392C143.011 94.539 142.347 97.4696 141.476 100.385C141.09 101.869 140.596 103.315 140.141 104.808C139.933 105.566 139.663 106.293 139.416 107.043C139.169 107.793 138.922 108.55 138.706 109.339L138.668 109.478C138.39 110.484 138.899 111.551 139.809 111.86C140.396 112.061 141.013 111.891 141.445 111.481C143.775 109.246 145.881 106.687 147.639 103.841L148.303 102.774L148.635 102.241C148.743 102.055 148.835 101.869 148.935 101.684L150.124 99.4337L150.409 98.8615L150.671 98.2738L151.188 97.0984C151.366 96.7041 151.528 96.3097 151.697 95.9154C151.875 95.521 152.021 95.1189 152.16 94.7091C153.402 91.4923 154.258 88.0977 154.906 84.6644C155.516 81.2157 155.794 77.7128 155.832 74.2254C155.863 67.2351 154.837 60.3145 152.885 53.8113C151.906 50.5559 150.694 47.4088 149.252 44.4008C148.534 42.8929 147.755 41.4237 146.907 40.0087C146.698 39.653 146.482 39.2973 146.259 38.9493C146.035 38.6013 145.819 38.2534 145.58 37.9131C145.109 37.2172 144.646 36.5754 144.083 35.8717C143.427 35.0521 142.293 34.9747 141.553 35.7016C141.036 36.2042 140.851 36.9697 140.997 37.6579L141.028 37.8049H141.036Z" fill="white"/>
</g>
<g style="mix-blend-mode:overlay" opacity="0.15">
<path d="M159.603 34.7815C159.981 35.5161 160.375 36.2893 160.73 37.0703C161.1 37.8359 161.455 38.6168 161.794 39.4056C162.134 40.1866 162.473 40.9753 162.797 41.764C163.113 42.5605 163.437 43.3492 163.73 44.1534C164.934 47.347 165.975 50.5946 166.809 53.8887C168.49 60.4692 169.316 67.2275 169.084 73.9162L168.922 76.4215C168.907 76.6303 168.899 76.8391 168.884 77.0479L168.807 77.6665L168.66 78.9114L168.521 80.1564L168.305 81.3859L168.089 82.6153L167.981 83.234C167.943 83.435 167.889 83.6361 167.842 83.8448L167.287 86.2806C167.079 87.0848 166.824 87.8735 166.608 88.6777C166.492 89.0798 166.384 89.4819 166.261 89.8763L165.844 91.0516C165.559 91.8326 165.312 92.6291 165.003 93.4023C162.55 99.5961 159.179 105.403 155.291 110.94C154.998 111.365 155.067 111.976 155.445 112.309C155.777 112.595 156.232 112.571 156.541 112.293C161.54 107.715 165.798 101.993 168.93 95.4824C169.316 94.6705 169.647 93.8199 170.01 92.9848L170.535 91.7244C170.697 91.2991 170.835 90.8583 170.982 90.4253C171.275 89.5592 171.591 88.7009 171.846 87.8117L172.548 85.1362C172.602 84.9119 172.671 84.6877 172.718 84.4634L172.849 83.783L173.111 82.422L173.374 81.0534L173.559 79.677L173.728 78.2928L173.813 77.6046C173.836 77.3726 173.844 77.1407 173.86 76.9087L174.037 74.125C174.245 66.6939 173.019 59.2938 170.673 52.4659C169.501 49.0481 168.066 45.7695 166.392 42.6533C165.536 41.1067 164.664 39.5834 163.692 38.1297C162.72 36.6682 161.725 35.2686 160.568 33.9386C160.328 33.668 159.935 33.6602 159.696 33.9232C159.488 34.1474 159.449 34.4876 159.588 34.7583L159.603 34.7892V34.7815Z" fill="white"/>
</g>
<path d="M111.343 123.082C124.065 123.007 134.241 99.9304 134.073 71.54C133.905 43.1495 123.456 20.1959 110.734 20.2716C98.0123 20.3472 87.8355 43.4236 88.0036 71.814C88.1716 100.204 98.621 123.158 111.343 123.082Z" fill="url(#paint4_linear_3042_1780)"/>
<g style="mix-blend-mode:overlay" opacity="0.12">
<path d="M125.36 74.4729C125.491 97.4619 119.32 116.136 111.574 116.183C103.821 116.229 97.4339 97.6243 97.295 74.6353C97.1639 51.6462 103.335 32.972 111.081 32.9256C118.834 32.8792 125.221 51.4839 125.36 74.4729Z" fill="white"/>
</g>
<g style="mix-blend-mode:multiply" opacity="0.46">
<path d="M71.5514 38.6245C71.5514 38.6245 50.6915 70.5292 74.4134 106.045C74.4134 106.045 45.7929 77.7437 71.5514 38.6245Z" fill="#D57020"/>
</g>
<g style="mix-blend-mode:multiply" opacity="0.46">
<path d="M94.9191 34.1705C94.9191 34.1705 77.6079 72.8103 97.8583 114.102C97.8583 114.102 73.7507 80.5275 94.9191 34.1705Z" fill="#D57020"/>
</g>
<g style="mix-blend-mode:multiply" opacity="0.46">
<path d="M152.345 38.1451C152.345 38.1451 173.583 69.8024 150.27 105.597C150.27 105.597 178.558 76.9551 152.345 38.1451Z" fill="#D57020"/>
</g>
<g style="mix-blend-mode:multiply" opacity="0.46">
<path d="M126.787 33.985C126.787 33.985 144.553 72.416 124.789 113.948C124.789 113.948 148.496 80.0868 126.787 33.985Z" fill="#D57020"/>
</g>
<path d="M77.6836 20.3293C77.6836 20.3293 82.9911 16.9888 88.1984 19.1153C88.1984 19.1153 95.0565 14.7618 103.396 18.7364C103.396 18.7364 109.606 14.0968 118.208 18.2183C118.208 18.2183 126.493 13.571 134.84 18.8369C134.84 18.8369 143.133 14.6149 149.922 20.6154C149.922 20.6154 139.26 19.1694 136.059 22.2083C136.059 22.2083 123.561 17.5378 119.403 23.4919C119.403 23.4919 111.442 16.4707 103.65 22.8037C103.65 22.8037 96.8077 17.8084 88.0981 22.8192C88.0981 22.8192 82.2583 20.0122 77.6836 20.3293Z" fill="#E27E22"/>
<path d="M112.454 4.80991C110.664 2.54426 106.984 -1.08233 105.248 0.309534C104.994 0.510582 104.446 0.827619 104.631 1.22971C108.195 9.13243 108.026 19.7106 105.156 22.0845C107.648 20.9015 110.27 20.5303 112.924 20.8937C113.387 20.9556 113.842 21.0716 114.297 21.1876C116.11 21.636 117.923 21.8603 119.605 22.68L119.003 22.2083C117.584 21.2417 116.635 20.0354 116.01 18.7286C114.645 15.8753 116.319 13.4163 115.3 9.69691C114.76 7.7251 113.858 6.57294 112.461 4.80991H112.454Z" fill="url(#paint5_radial_3042_1780)"/>
<g style="mix-blend-mode:overlay" opacity="0.19">
<path d="M146.327 20.7159C148.124 20.8396 149.914 21.1798 151.65 21.7907C153.385 22.3784 155.059 23.2135 156.649 24.1956C155.121 23.0898 153.501 22.1155 151.781 21.3809C150.068 20.6308 148.248 20.1282 146.404 19.8576C144.552 19.6024 142.67 19.5947 140.795 19.8344C139.075 20.0663 137.308 20.5535 135.719 21.5742C135.164 21.319 134.616 21.0639 134.038 20.8551C133.636 20.7004 133.227 20.569 132.819 20.4375C132.51 20.337 132.201 20.2442 131.885 20.1669C130.435 19.7802 128.938 19.5715 127.442 19.5328C126.693 19.5251 125.937 19.5637 125.189 19.6565C124.811 19.6952 124.441 19.7648 124.07 19.8344C123.685 19.9117 123.307 20.02 122.929 20.1591C122.173 20.4375 121.44 20.886 120.838 21.4505C120.406 21.8526 120.028 22.2933 119.689 22.7341C119.519 22.6026 119.342 22.4789 119.172 22.3552C119.11 22.3088 119.048 22.2624 118.979 22.216C118.894 22.1542 118.802 22.0923 118.717 22.0304C118.231 21.6902 117.706 21.3886 117.158 21.118C115.423 20.2287 113.54 19.6797 111.619 19.5405C110.046 19.4323 108.472 19.6333 106.968 20.0509C105.633 20.4298 104.337 20.9788 103.133 21.7675C102.748 21.4118 102.339 21.0561 101.853 20.7623C101.189 20.3525 100.449 20.1205 99.7469 20.0045C98.3814 19.7725 97.0082 19.7338 95.6428 19.8498C94.2773 19.9736 92.935 20.2442 91.6313 20.654C90.9755 20.8551 90.3352 21.0948 89.7027 21.3577C89.1626 21.5742 88.6535 21.8371 88.1366 22.0846C86.7712 21.1953 85.2514 20.7159 83.7471 20.4607C82.1271 20.1978 80.4993 20.1359 78.8793 20.2597C77.2593 20.3834 75.6701 20.7004 74.1272 21.203C72.5843 21.7057 71.1031 22.3861 69.6914 23.2135C71.1417 22.4867 72.6538 21.9144 74.2044 21.5201C75.755 21.1334 77.3287 20.9247 78.9102 20.9169C80.4839 20.9092 82.0654 21.0793 83.5851 21.4273C84.8117 21.7211 85.9997 22.1773 87.0412 22.8424C79.4733 27.1339 74.7906 34.1861 74.7906 34.1861C79.6507 28.9279 87.3112 24.2806 89.9881 22.7341C91.8473 22.0072 93.7836 21.4428 95.7353 21.2726C97.6022 21.1102 100.148 21.6747 101.868 23.0434C98.4663 26.237 97.4865 30.4048 97.4865 30.4048C99.8394 26.7782 102.185 24.7755 103.766 23.7161C106.196 22.2083 108.873 21.3809 111.72 21.5897C114.019 21.7521 116.071 22.6258 117.984 23.8708C119.997 25.2085 123.77 28.1237 125.575 32.1911C125.575 32.1911 124.286 27.5051 120.908 23.9404C122.659 22.0691 125.143 21.0097 127.573 21.118C128.923 21.1798 130.25 21.4737 131.553 21.868C134.261 22.9119 143.202 26.6236 147.121 31.3714C147.121 31.3714 142.67 25.9663 137.2 22.5562C138.334 21.8603 139.638 21.4041 140.981 21.118C142.732 20.7468 144.537 20.6154 146.327 20.7236V20.7159Z" fill="white"/>
</g>
<g style="mix-blend-mode:overlay" opacity="0.19">
<path d="M117.345 40.1015C117.384 46.6279 114.845 51.9402 111.683 51.9556C108.512 51.9711 105.92 46.6974 105.881 40.1711C105.843 33.6448 108.381 28.3325 111.544 28.3171C114.714 28.3016 117.306 33.5752 117.345 40.1015Z" fill="white"/>
</g>
<path d="M83.2925 95.5906C86.4091 91.9949 89.518 88.407 92.6347 84.8114C92.6347 84.8114 101.985 95.5751 102.185 95.5751C102.378 95.5751 110.316 86.2264 111.381 84.966V84.9969C111.419 84.9505 111.45 84.9196 111.473 84.8887C111.496 84.9196 111.527 84.9505 111.566 84.9969V84.966C112.646 86.211 120.692 95.4669 120.885 95.4669C121.093 95.4669 130.312 84.5948 130.312 84.5948C133.467 88.1518 136.622 91.7088 139.778 95.2581C141.536 93.1084 151.673 84.4479 155.754 64.2272L139.7 82.3833L130.235 71.7201C130.235 71.7201 121.016 82.5921 120.808 82.5921C120.615 82.5921 112.137 72.8413 111.419 72.0139V71.9984C111.419 71.9984 111.419 71.9984 111.412 72.0062C111.412 72.0062 111.412 72.0062 111.404 71.9984C111.404 71.9984 111.404 71.9984 111.396 72.0062C111.396 72.0062 111.396 72.0062 111.388 71.9984V72.0139C110.679 72.849 102.316 82.7004 102.123 82.7004C101.915 82.7004 92.573 71.9366 92.573 71.9366L83.2308 82.7158L66.9688 64.7453C71.2888 84.9196 81.5259 93.4564 83.3079 95.5829L83.2925 95.5906Z" fill="url(#paint6_radial_3042_1780)"/>
<path d="M139.785 95.2581C136.63 91.7011 133.475 88.1441 130.32 84.5949C130.32 84.5949 121.101 95.4669 120.893 95.4669C120.7 95.4669 112.654 86.211 111.574 84.966V84.997C111.535 84.9506 111.504 84.9196 111.481 84.8887C111.458 84.9196 111.427 84.9506 111.389 84.997V84.966C110.324 86.2187 102.386 95.5752 102.193 95.5752C101.985 95.5752 92.6425 84.8114 92.6425 84.8114C89.5259 88.407 86.417 91.995 83.3004 95.5906C81.5106 93.4564 71.2813 84.9274 66.9612 64.753L65.9043 63.5777C69.2215 88.2988 81.3717 98.3589 83.3389 100.694C86.4556 97.1062 89.5645 93.5106 92.6811 89.9149C92.6811 89.9149 102.031 100.679 102.232 100.679C102.424 100.679 110.363 91.33 111.427 90.0696V90.1005C111.466 90.0541 111.497 90.0232 111.52 89.9922C111.543 90.0232 111.574 90.0541 111.612 90.1005V90.0696C112.692 91.3145 120.738 100.57 120.931 100.57C121.14 100.57 130.358 89.6984 130.358 89.6984C133.514 93.2554 136.669 96.8124 139.824 100.362C141.76 97.9955 153.795 87.7962 156.819 63.0364L155.77 64.2195C151.689 84.4402 141.552 93.1007 139.793 95.2504L139.785 95.2581Z" fill="#E8A22A"/>
<mask id="mask0_3042_1780" style="mask-type:luminance" maskUnits="userSpaceOnUse" x="71" y="39" width="34" height="23">
<path d="M71.4746 57.871C71.4746 57.871 77.4302 59.0696 83.2314 59.9433C84.9286 58.536 87.5978 55.4662 89.3412 54.0047C90.483 55.3966 92.9902 60.1985 93.7693 61.1187C97.6574 61.5053 101.43 61.745 104.492 61.6754C104.492 61.6754 95.1656 43.991 90.4907 39.2432L71.4746 57.871Z" fill="white"/>
</mask>
<g mask="url(#mask0_3042_1780)">
<path d="M71.4746 57.871C71.4746 57.871 93.0056 61.9229 104.5 61.6754C104.5 61.6754 95.1734 43.991 90.4984 39.2432L71.4823 57.871H71.4746Z" fill="#EBB23B"/>
<path d="M69.1835 66.2995C69.1835 66.2995 92.7897 70.9004 105.387 70.6221C105.387 70.6221 95.158 50.556 90.0279 45.1741L69.1758 66.3073L69.1835 66.2995Z" fill="url(#paint7_radial_3042_1780)"/>
</g>
<mask id="mask1_3042_1780" style="mask-type:luminance" maskUnits="userSpaceOnUse" x="118" y="38" width="34" height="24">
<path d="M151.581 57.3994C151.581 57.3994 145.641 58.6675 139.847 59.6109C138.135 58.2267 135.427 55.1878 133.668 53.7418C132.542 55.1492 130.088 59.9743 129.325 60.9022C125.444 61.3353 121.672 61.6136 118.609 61.5827C118.609 61.5827 127.728 43.79 132.349 38.988L151.581 57.3916V57.3994Z" fill="white"/>
</mask>
<g mask="url(#mask1_3042_1780)">
<path d="M151.581 57.3993C151.581 57.3993 130.104 61.7064 118.609 61.5904C118.609 61.5904 127.728 43.7977 132.349 38.9957L151.581 57.3993Z" fill="#EBB23B"/>
<path d="M153.964 65.8047C153.964 65.8047 130.412 70.684 117.807 70.5525C117.807 70.5525 127.805 50.3704 132.865 44.9189L153.956 65.8047H153.964Z" fill="url(#paint8_radial_3042_1780)"/>
</g>
<path d="M22.9889 91.4151C24.2618 105.272 37.6849 116.051 34.4448 121.866C33.226 124.054 24.3852 124.619 20.7363 123.281C14.2639 120.899 2.56108 112.053 0.347037 93.9668C-0.609553 85.7161 0.416467 77.1407 3.94196 70.0267C6.88116 64.0958 11.5175 59.4485 17.8742 59.6882C19.2165 59.7423 20.6514 60.0362 21.8009 60.9486C22.958 61.8688 23.2743 63.8329 23.4518 65.3175C23.8683 68.774 23.3052 72.331 22.9812 75.7333C22.4875 80.9296 22.2252 86.1724 22.9966 91.4151H22.9889Z" fill="url(#paint9_linear_3042_1780)"/>
<g style="mix-blend-mode:multiply" opacity="0.2">
<path d="M22.9894 91.4151C22.218 86.1724 22.4802 80.9297 22.974 75.7334C23.298 72.331 23.8688 68.7818 23.4446 65.3175C23.2671 63.8252 22.9508 61.8688 21.7937 60.9486C20.6442 60.0362 19.2093 59.7346 17.867 59.6882C14.5112 59.5645 11.0629 60.8945 8.61741 63.4463C9.55857 62.4642 11.3329 62.9127 11.6029 64.3819C12.058 66.8795 10.9086 69.5318 10.2452 71.7975C9.41971 74.6276 8.40141 77.3881 7.85368 80.3343C6.75823 86.2574 6.71194 92.4822 8.10826 98.4749C8.16997 98.7533 8.2394 99.024 8.30883 99.2946C10.2992 107.081 14.3724 112.231 19.5102 118.015C19.9345 118.487 20.3279 119.036 20.4899 119.678C20.8911 121.201 19.5256 122.044 18.4147 122.013C18.2373 122.013 18.0599 121.99 17.8824 121.967C18.9008 122.523 19.8573 122.956 20.7291 123.273C24.378 124.619 33.2265 124.047 34.4376 121.858C37.6777 116.051 24.2469 105.264 22.9817 91.4073L22.9894 91.4151Z" fill="#AD5B1B"/>
</g>
<path d="M32.4077 90.3866C33.6806 104.243 44.6274 116.592 40.4307 121.487C38.695 123.513 31.5129 123.66 28.2188 121.271C22.1553 116.871 11.9182 110.143 9.80444 92.8688C8.73985 84.1774 10.0899 75.0452 14.4948 68.0394C16.4851 64.8691 19.0849 61.9461 22.1398 60.1444C23.9681 59.0696 26.0588 58.4433 28.1571 58.6134C30.2168 58.7835 31.644 60.1831 32.7009 62.2322C33.4029 63.5854 34.3441 65.6269 34.1435 67.243C33.4569 72.8259 32.2072 78.2619 32.0606 83.9454C32.0066 86.0873 32.0914 88.2524 32.4077 90.3866Z" fill="url(#paint10_linear_3042_1780)"/>
<g style="mix-blend-mode:multiply" opacity="0.2">
<path d="M32.4075 90.3866C32.0912 88.2524 32.0064 86.0873 32.0604 83.9454C32.2146 78.2619 33.4644 72.8259 34.1433 67.243C34.3438 65.6269 33.4027 63.5854 32.7007 62.2322C31.6361 60.1908 30.2089 58.7835 28.1569 58.6134C26.0585 58.4433 23.9679 59.0696 22.1396 60.1444C20.427 61.1497 18.8532 62.5183 17.4492 64.0803C19.995 61.2734 23.9988 62.9359 22.7645 69.903C22.2707 72.7099 19.5861 87.108 25.5725 108.388C27.9254 116.747 34.0815 122.175 30.6255 122.407C34.205 123.513 39.0342 123.088 40.4228 121.479C44.6195 116.585 33.6727 104.236 32.3998 90.3789L32.4075 90.3866Z" fill="#B45E1C"/>
</g>
<g style="mix-blend-mode:overlay" opacity="0.15">
<path d="M19.3865 70.6143L19.1319 73.5604L19.0239 75.0374C19.0008 75.5322 18.9545 76.0194 18.9313 76.5143C18.8233 78.4706 18.7539 80.4192 18.7539 82.3524C18.7539 86.211 18.9545 90.0154 19.5099 93.7348C19.7876 95.5906 20.1271 97.431 20.5514 99.2559C20.5977 99.4878 20.6671 99.7044 20.7211 99.9363L20.8908 100.617L21.0605 101.297L21.2611 101.97C21.3922 102.418 21.5002 102.882 21.6391 103.323C21.7857 103.764 21.9245 104.212 22.0634 104.669C22.6651 106.447 23.2977 108.249 24.046 110.02C24.3932 110.924 24.802 111.798 25.1955 112.711C25.3806 113.175 25.6043 113.615 25.8126 114.064C26.0209 114.52 26.2292 114.976 26.422 115.463L26.4529 115.548C26.6998 116.159 26.4761 116.871 25.9515 117.126C25.612 117.296 25.234 117.226 24.9409 117.002C23.3671 115.757 21.8937 114.296 20.6054 112.626L20.1194 111.999L19.8725 111.682C19.7953 111.574 19.7259 111.466 19.6488 111.357L18.7539 110.027L18.5379 109.687L18.3373 109.339L17.9362 108.636C17.7973 108.404 17.6662 108.164 17.535 107.924C17.3962 107.692 17.2804 107.445 17.157 107.197C16.1541 105.256 15.375 103.184 14.7115 101.065C14.079 98.9388 13.6315 96.7582 13.3307 94.5622C12.7675 90.1701 12.8369 85.7393 13.5004 81.5173C13.8321 79.4063 14.3181 77.3339 14.943 75.3467C15.2593 74.3492 15.6064 73.3748 16.0076 72.416C16.1078 72.1763 16.2081 71.9366 16.3161 71.7046C16.4241 71.4726 16.5244 71.2329 16.6401 71.0009C16.8716 70.5292 17.0953 70.0962 17.3807 69.6168C17.7125 69.0523 18.3913 68.9286 18.8928 69.3307C19.2399 69.6091 19.4173 70.0808 19.3788 70.5215V70.622L19.3865 70.6143Z" fill="white"/>
</g>
<g style="mix-blend-mode:overlay" opacity="0.15">
<path d="M7.96948 70.0112C7.79976 70.4983 7.62233 71.0164 7.46804 71.5268C7.30604 72.0371 7.15175 72.5475 7.00518 73.0656C6.8586 73.5836 6.71974 74.1017 6.58088 74.6198C6.44974 75.1456 6.31859 75.6637 6.21059 76.1895C5.74001 78.2851 5.362 80.3961 5.12286 82.5303C4.62913 86.7832 4.65999 91.098 5.32343 95.2891L5.61658 96.851C5.63972 96.9825 5.66287 97.114 5.69372 97.2454L5.7863 97.632L5.97144 98.4053L6.15659 99.1786L6.38031 99.9364L6.60403 100.694L6.71974 101.073C6.75832 101.197 6.8046 101.32 6.85089 101.444L7.37547 102.937C7.56833 103.431 7.77662 103.911 7.9772 104.398C8.07748 104.638 8.17777 104.885 8.27806 105.125L8.62521 105.836C8.85664 106.308 9.07265 106.795 9.31179 107.259C11.279 110.986 13.763 114.404 16.5402 117.621C16.7485 117.868 16.7562 118.255 16.5556 118.487C16.3782 118.688 16.1005 118.711 15.8922 118.549C12.521 116.02 9.51237 112.711 7.11318 108.837C6.81232 108.349 6.55003 107.839 6.26459 107.344L5.84801 106.586C5.71687 106.331 5.60115 106.061 5.47772 105.805C5.23857 105.28 4.97628 104.761 4.75256 104.22L4.11998 102.589C4.06598 102.449 4.01198 102.318 3.96569 102.179L3.83454 101.761L3.57225 100.918L3.30996 100.076L3.09396 99.2172L2.88567 98.3589L2.77767 97.9336C2.74681 97.7867 2.72367 97.6475 2.69281 97.5006L2.3688 95.7607C1.65907 91.098 1.82108 86.3579 2.69281 81.8962C3.13253 79.6692 3.73426 77.4963 4.49799 75.424C4.89142 74.3956 5.30029 73.3671 5.77087 72.3928C6.24145 71.4108 6.72746 70.4519 7.32147 69.5395C7.4449 69.3539 7.67633 69.3152 7.84605 69.4699C7.98491 69.5936 8.03891 69.8101 7.9772 69.988V70.0034L7.96948 70.0112Z" fill="white"/>
</g>
<path d="M55.7449 87.8194C57.7738 101.591 47.2358 115.007 51.7565 119.964C53.4537 121.827 62.2096 120.466 65.4496 118.371C71.1969 114.651 80.5159 103.501 78.4099 85.3991C77.3993 77.1561 74.3829 69.0214 69.2683 62.8585C65.0022 57.7163 59.3938 54.1903 53.2608 55.8064C51.9648 56.1466 50.6379 56.7498 49.7353 57.8865C48.825 59.0309 48.9793 61.0104 49.1567 62.5028C49.5656 65.9593 50.9542 69.2998 52.0728 72.5475C53.7777 77.4963 55.2666 82.5535 55.7526 87.8271L55.7449 87.8194Z" fill="url(#paint11_linear_3042_1780)"/>
<g style="mix-blend-mode:multiply" opacity="0.2">
<path d="M55.7448 87.8193C55.2588 82.5457 53.7699 77.4963 52.065 72.5397C50.9464 69.292 49.5578 65.9593 49.1489 62.4951C48.9715 61.0027 48.8172 59.0231 49.7275 57.8787C50.6301 56.742 51.957 56.1389 53.253 55.7986C56.4931 54.9481 60.1651 55.4971 63.1506 57.4611C62.0089 56.7111 60.3811 57.5307 60.466 59.0154C60.6126 61.544 62.356 63.8792 63.5286 65.9515C65.0021 68.5342 66.6453 71.0009 67.8642 73.746C70.3251 79.2826 71.8371 85.3372 71.8834 91.4691C71.8834 91.7475 71.8834 92.0336 71.8834 92.312C71.7831 100.323 69.0213 106.231 65.3801 112.974C65.0792 113.53 64.8247 114.149 64.8169 114.806C64.7861 116.376 66.3135 116.902 67.3859 116.631C67.5556 116.585 67.7253 116.53 67.895 116.469C67.031 117.234 66.1978 117.861 65.4341 118.363C62.194 120.459 53.4459 121.82 51.741 119.956C47.2203 114.999 57.7582 101.583 55.7293 87.8116L55.7448 87.8193Z" fill="#AD5B1B"/>
</g>
<path d="M46.3247 88.8556C48.3536 102.627 40.5929 117.033 45.8387 120.892C48.0064 122.485 55.042 121.077 57.6881 118.031C62.5559 112.432 70.9415 103.664 68.9357 86.3734C67.9251 77.6743 64.4536 69.0756 58.5212 63.2066C55.8366 60.5466 52.612 58.2654 49.2176 57.1751C47.181 56.5256 44.9978 56.3632 42.9921 56.9896C41.0249 57.6004 39.968 59.2784 39.4126 61.4977C39.0423 62.9669 38.618 65.1629 39.1888 66.6862C41.1714 71.9753 43.6709 77.0015 45.1521 82.5071C45.7152 84.5872 46.1395 86.706 46.3324 88.8556H46.3247Z" fill="url(#paint12_linear_3042_1780)"/>
<g style="mix-blend-mode:multiply" opacity="0.2">
<path d="M46.3247 88.8556C46.1241 86.706 45.7075 84.5795 45.1444 82.5071C43.6555 77.0015 41.156 71.9753 39.1811 66.6862C38.6103 65.1552 39.0423 62.9669 39.4048 61.4977C39.9603 59.2784 41.0172 57.6004 42.9843 56.9896C44.9901 56.3632 47.1733 56.5256 49.2099 57.1751C51.1154 57.786 52.9745 58.7758 54.7026 59.9975C51.5628 57.8092 48.0527 60.3068 50.8916 66.8254C52.0334 69.4545 57.5338 83.2804 56.716 105.303C56.392 113.956 52.1799 120.196 55.5974 119.67C52.3728 121.518 47.5667 122.16 45.8387 120.884C40.5929 117.025 48.3536 102.62 46.3247 88.8479V88.8556Z" fill="#B45E1C"/>
</g>
<g style="mix-blend-mode:overlay" opacity="0.15">
<path d="M54.3484 66.7789L55.2896 69.5936L55.7447 71.0087C55.8836 71.4881 56.0456 71.952 56.1767 72.4237C56.7476 74.3105 57.2645 76.1895 57.7273 78.0685C58.6453 81.8266 59.3396 85.5769 59.6714 89.3195C59.8334 91.1908 59.9414 93.0543 59.9568 94.9256C59.9722 95.1576 59.9568 95.3896 59.9568 95.6215V96.3252V97.0289L59.9182 97.7248C59.8951 98.1888 59.8951 98.6605 59.8642 99.1244C59.8257 99.5884 59.7948 100.052 59.7639 100.524C59.6019 102.388 59.4091 104.274 59.0928 106.169C58.9616 107.128 58.7688 108.071 58.6068 109.038C58.5373 109.525 58.4216 110.004 58.3291 110.491C58.2365 110.978 58.1362 111.473 58.0668 111.984L58.0513 112.077C57.9588 112.726 58.3445 113.368 58.9076 113.507C59.2779 113.592 59.6328 113.453 59.8642 113.167C61.1063 111.613 62.194 109.873 63.0503 107.963L63.3743 107.251L63.5363 106.896C63.5903 106.772 63.6289 106.648 63.6752 106.525L64.2306 105.032L64.3617 104.653L64.4775 104.267L64.7089 103.493C64.786 103.238 64.8555 102.975 64.9326 102.72C65.0098 102.465 65.0715 102.194 65.1255 101.931C65.6423 99.8281 65.9201 97.6397 66.0589 95.436C66.1746 93.2244 66.0975 91.0052 65.8738 88.8014C65.3878 84.4015 64.2769 80.1022 62.6337 76.1276C61.8083 74.1404 60.8517 72.2304 59.7717 70.4287C59.2316 69.524 58.6608 68.6502 58.0436 67.8074C57.8893 67.5986 57.735 67.3898 57.573 67.181C57.411 66.9722 57.2567 66.7712 57.087 66.5702C56.7553 66.1603 56.4236 65.7892 56.0379 65.3793C55.5827 64.8999 54.8961 64.9231 54.495 65.4335C54.2173 65.7814 54.1633 66.2763 54.3021 66.7016L54.333 66.7944L54.3484 66.7789Z" fill="white"/>
</g>
<g style="mix-blend-mode:overlay" opacity="0.15">
<path d="M65.3249 63.7169C65.6104 64.1576 65.8958 64.6216 66.1658 65.0856C66.4435 65.5495 66.7135 66.0135 66.9758 66.4852C67.2381 66.9568 67.4927 67.4285 67.755 67.908C68.0019 68.3874 68.2564 68.8668 68.4879 69.354C69.4445 71.2948 70.3008 73.2744 71.0413 75.2926C72.5225 79.329 73.51 83.5355 73.8494 87.7653L73.9343 89.3505C73.9343 89.4819 73.9497 89.6134 73.9574 89.7448V90.1392V90.9279V91.7166L73.9188 92.5054L73.8802 93.2941L73.8571 93.6885C73.8494 93.8199 73.834 93.9514 73.8185 94.0828L73.6565 95.6525C73.5871 96.1706 73.4945 96.6887 73.4174 97.2068C73.3788 97.462 73.3402 97.7249 73.294 97.9878L73.1242 98.7533C73.0085 99.2637 72.9159 99.7817 72.7848 100.284C71.7511 104.336 70.131 108.203 68.187 111.937C68.0404 112.223 68.1253 112.602 68.3799 112.788C68.5959 112.943 68.8736 112.904 69.0356 112.711C71.7202 109.517 73.8803 105.643 75.2997 101.351C75.4771 100.818 75.616 100.261 75.7703 99.7121L75.994 98.8848C76.0557 98.6064 76.1097 98.3203 76.1714 98.0419C76.2872 97.4774 76.4106 96.9129 76.5032 96.3407L76.7346 94.6164C76.75 94.4694 76.7732 94.3303 76.7886 94.1833L76.8195 93.7426L76.8812 92.8688L76.9429 91.995L76.9583 91.1135V90.232V89.7912C76.9583 89.6443 76.9429 89.4974 76.9352 89.3505L76.8426 87.5874C76.4337 82.8937 75.1608 78.3083 73.2631 74.1559C72.3142 72.0758 71.2111 70.0963 69.9767 68.2405C69.3519 67.3203 68.7116 66.4156 68.025 65.5572C67.3384 64.6989 66.6364 63.8793 65.8418 63.1137C65.6798 62.9591 65.4407 62.9746 65.3095 63.1601C65.2015 63.3148 65.2015 63.5313 65.3095 63.6937V63.7092L65.3249 63.7169Z" fill="white"/>
</g>
<path d="M52.5575 88.469C54.6867 106.339 50.2046 121.51 42.5364 122.353C34.8683 123.196 26.9301 109.386 24.7932 91.5156C22.6641 73.6456 27.1461 58.4742 34.8143 57.6313C42.4824 56.7885 50.4206 70.5989 52.5575 88.469Z" fill="url(#paint13_linear_3042_1780)"/>
<g style="mix-blend-mode:overlay" opacity="0.12">
<path d="M47.5198 90.8583C49.2478 105.334 46.8641 117.482 42.1891 117.992C37.5219 118.502 32.3301 107.19 30.6097 92.7142C28.8817 78.2387 31.2655 66.0908 35.9404 65.5805C40.6076 65.0701 45.7995 76.3829 47.5198 90.8583Z" fill="white"/>
</g>
<g style="mix-blend-mode:multiply" opacity="0.46">
<path d="M12.5058 71.6273C12.5058 71.6273 2.20699 93.0234 19.063 113.917C19.063 113.917 -0.223061 97.8718 12.5058 71.6273Z" fill="#AD5B1B"/>
</g>
<g style="mix-blend-mode:multiply" opacity="0.46">
<path d="M26.2749 67.3667C26.2749 67.3667 18.5991 92.7838 33.7656 117.536C33.7656 117.536 16.8247 97.8873 26.2749 67.3667Z" fill="#AD5B1B"/>
</g>
<g style="mix-blend-mode:multiply" opacity="0.46">
<path d="M61.1914 66.2919C61.1914 66.2919 76.2654 84.9042 64.7709 108.914C64.7709 108.914 79.7755 89.1108 61.1914 66.2919Z" fill="#AD5B1B"/>
</g>
<g style="mix-blend-mode:multiply" opacity="0.46">
<path d="M45.4766 65.2634C45.4766 65.2634 58.9382 88.3607 49.9972 115.757C49.9972 115.757 61.8697 92.9461 45.4766 65.2634Z" fill="#AD5B1B"/>
</g>
<path d="M14.8965 59.7191C14.8965 59.7191 17.8588 57.2833 21.1529 58.2963C21.1529 58.2963 24.9793 55.1259 30.2945 57.1132C30.2945 57.1132 33.7043 53.8036 39.1892 55.8605C39.1892 55.8605 43.8565 52.4118 49.2643 55.211C49.2643 55.211 53.9624 52.0329 58.483 55.3888C58.483 55.3888 51.9489 55.1414 50.2363 57.2601C50.2363 57.2601 42.3676 55.095 40.2847 59.1082C40.2847 59.1082 34.9849 55.1878 30.7342 59.6572C30.7342 59.6572 26.2521 56.9353 21.3535 60.6392C21.3535 60.6392 17.6351 59.2319 14.8965 59.7191Z" fill="#B45E1C"/>
<path d="M32.2842 58.8917C32.0528 58.9922 31.8214 59.0928 31.5977 59.2088C31.8522 59.1314 32.076 59.0232 32.2842 58.8917Z" fill="url(#paint14_linear_3042_1780)"/>
<path d="M39.3283 47.2928C36.2348 50.0379 32.0459 49.7672 32.6245 51.739C33.8357 55.876 33.6274 58.0179 32.2773 58.8917C33.5039 58.3736 34.8077 58.1262 36.1577 58.1339C36.474 58.1339 36.7903 58.1648 37.1066 58.1958C38.2097 58.2963 39.2975 58.2963 40.3389 58.5901L39.9455 58.3968C36.0266 55.18 38.7112 50.0379 39.7063 48.0583C40.0844 47.316 39.4903 47.1381 39.3206 47.2928H39.3283Z" fill="url(#paint15_radial_3042_1780)"/>
<path d="M56.3152 55.6826C57.403 55.644 58.5139 55.7522 59.6016 56.0229C60.6893 56.2858 61.7539 56.7033 62.7876 57.2292C61.7925 56.626 60.7433 56.1157 59.6479 55.76C58.5601 55.3965 57.4261 55.1878 56.2921 55.1336C55.1581 55.0872 54.0163 55.2032 52.9132 55.4739C51.8949 55.729 50.8611 56.1389 49.974 56.8889C49.6191 56.7652 49.272 56.6415 48.9094 56.541C48.6548 56.4714 48.4002 56.4095 48.1457 56.3554C47.9528 56.309 47.7599 56.2703 47.5671 56.2394C46.6645 56.0847 45.7465 56.0461 44.8439 56.1157C44.3887 56.1543 43.9413 56.2316 43.4939 56.3322C43.2701 56.3786 43.0541 56.4482 42.8304 56.51C42.6067 56.5874 42.383 56.6724 42.1593 56.7807C41.7195 57.0049 41.3107 57.3297 40.9867 57.724C40.7552 58.0024 40.5624 58.304 40.3849 58.6056C40.2769 58.5282 40.1612 58.4664 40.0455 58.3968C40.0069 58.3736 39.9606 58.3426 39.9221 58.3195C39.8681 58.2885 39.8063 58.2499 39.7523 58.2189C39.4361 58.0333 39.0966 57.8787 38.7495 57.7395C37.6386 57.291 36.466 57.059 35.2934 57.09C34.3368 57.1209 33.4034 57.3451 32.5239 57.7008C31.7448 58.0179 31.0042 58.4509 30.333 59.0231C30.0784 58.8221 29.8007 58.6288 29.4921 58.4664C29.0679 58.2499 28.5973 58.1493 28.173 58.1184C27.3321 58.0565 26.4989 58.1184 25.6889 58.2731C24.8789 58.4354 24.0843 58.6906 23.3283 59.0308C22.9503 59.1932 22.58 59.3866 22.2174 59.5953C21.9089 59.7654 21.6234 59.9588 21.3226 60.1521C20.4354 59.6804 19.4865 59.4716 18.5608 59.402C17.5656 59.3402 16.5782 59.402 15.6139 59.5799C14.6496 59.7577 13.7084 60.0593 12.8135 60.4691C11.9187 60.8789 11.0778 61.4048 10.2832 62.0079C11.1086 61.4589 11.9804 61.0027 12.883 60.6624C13.7856 60.3222 14.7267 60.0902 15.6756 59.9897C16.6245 59.8814 17.5888 59.8969 18.5299 60.0206C19.2859 60.1289 20.042 60.3377 20.7131 60.7011C16.4625 63.8792 14.1404 68.6115 14.1404 68.6115C16.6939 64.9927 20.9831 61.5903 22.4874 60.4459C23.5597 59.8737 24.6861 59.3943 25.8509 59.1623C26.9618 58.9458 28.5433 59.1391 29.6773 59.8969C27.849 62.1239 27.5635 64.8071 27.5635 64.8071C28.7207 62.3713 29.9936 60.964 30.873 60.1985C32.2308 59.0927 33.7891 58.4122 35.5171 58.3581C36.9134 58.3195 38.2172 58.737 39.4592 59.402C40.7707 60.1211 43.2547 61.7218 44.6279 64.1653C44.6279 64.1653 43.517 61.2965 41.2258 59.2628C42.1515 57.9715 43.571 57.1518 45.0444 57.0668C45.8622 57.0204 46.6876 57.1209 47.4976 57.291C49.2025 57.7782 54.8649 59.5644 57.565 62.3095C57.565 62.3095 54.4946 59.1778 50.9537 57.3761C51.5863 56.8657 52.3423 56.4946 53.1292 56.2317C54.1552 55.8914 55.2352 55.6981 56.323 55.6517L56.3152 55.6826Z" fill="#E8A22A"/>
<g style="mix-blend-mode:overlay" opacity="0.19">
<path d="M39.9757 67.5987C40.3306 70.5448 39.0654 73.112 37.1599 73.3208C35.2545 73.5296 33.4184 71.3103 33.0636 68.3565C32.7087 65.4103 33.9739 62.8431 35.8793 62.6343C37.7848 62.4255 39.6208 64.6448 39.9757 67.5987Z" fill="white"/>
</g>
<path style="mix-blend-mode:multiply" opacity="0.44" d="M30.5027 119.531C24.6937 116.283 20.9059 110.677 18.0979 104.777C14.7421 97.7326 13.0295 89.9381 13.0912 82.1359C13.1452 75.5014 14.3718 68.9055 18.121 63.3302C18.8616 62.2322 19.6793 61.2038 20.5588 60.2295C19.6947 59.866 18.7613 59.7191 17.8664 59.6882C11.5174 59.4485 6.87335 64.0958 3.93415 70.0267C0.408654 77.1407 -0.617366 85.7161 0.339224 93.9668C2.55327 112.053 14.2561 120.899 20.7285 123.281C23.6985 124.371 30.1092 124.201 33.0484 122.918C35.1005 123.165 37.2142 123.003 38.7185 122.492C35.8565 121.905 33.0793 120.977 30.4949 119.539L30.5027 119.531Z" fill="url(#paint16_linear_3042_1780)"/>
<path d="M56.068 85.5151L52.2262 95.5675L48.8473 88.9097C46.1241 89.768 43.1232 90.3171 39.9603 90.4872C36.7896 90.6573 33.7501 90.4176 30.9575 89.8531L28.2883 96.8279L23.4128 87.2317C19.7099 85.2677 17.033 82.5535 15.9761 79.3909C15.8218 80.9219 15.7755 82.4839 15.8604 84.0769C16.6395 98.9544 27.8872 110.453 40.9708 109.757C54.0622 109.069 64.037 96.449 63.2578 81.5715C63.173 79.9786 62.9647 78.4243 62.6484 76.9242C61.9233 80.1796 59.5549 83.1644 56.0757 85.5074L56.068 85.5151Z" fill="url(#paint17_radial_3042_1780)"/>
<path d="M62.6407 76.9319C62.5404 77.3958 62.4015 77.8521 62.2318 78.3006C62.7641 93.0002 53.2445 105.365 40.7703 106.022C28.2883 106.679 17.5267 95.3896 16.5238 80.7131C16.3078 80.2801 16.1227 79.8471 15.9761 79.3986C15.8218 80.9374 15.7755 82.5071 15.8604 84.1077C16.6472 99.0394 27.8872 110.584 40.9786 109.896C54.07 109.208 64.037 96.5418 63.2579 81.6101C63.173 80.0095 62.9647 78.4552 62.6484 76.9396L62.6407 76.9319Z" fill="#E8A22A"/>
<path d="M20.629 72.8877L19.0321 72.1686C18.7003 72.8027 18.4843 73.4909 18.4149 74.21C17.9906 78.3005 22.0947 82.0818 27.5874 82.6617C31.1052 83.0329 34.3298 81.989 36.3124 80.1254C36.3433 80.0945 36.3741 80.0713 36.405 80.0404L20.629 72.8877Z" fill="url(#paint18_radial_3042_1780)"/>
<path d="M29.809 81.1539C24.4012 80.5894 20.3357 76.9087 20.6211 72.8877L19.0243 72.1686C18.6925 72.8027 18.4765 73.4909 18.4071 74.21C17.9828 78.3005 22.0869 82.0818 27.5796 82.6617C31.0973 83.0329 34.322 81.989 36.3046 80.1254C34.4763 80.9992 32.2082 81.409 29.809 81.1539Z" fill="#E8A22A"/>
<path d="M59.0546 70.0576L57.5426 70.9469L42.6074 79.7156C42.6074 79.7156 42.6769 79.762 42.7077 79.793C44.8755 81.44 48.1927 82.1359 51.6487 81.3936C57.0488 80.2415 60.7363 76.0504 59.8878 72.0217C59.7335 71.3103 59.448 70.653 59.0546 70.0576Z" fill="url(#paint19_radial_3042_1780)"/>
<path d="M49.2798 80.1332C54.6028 79.0042 58.2517 74.9137 57.5497 70.9469L59.0617 70.0576C59.4552 70.653 59.7406 71.3103 59.8949 72.0217C60.7435 76.0427 57.0637 80.2415 51.6559 81.3936C48.1998 82.1282 44.8826 81.44 42.7148 79.793C44.628 80.4734 46.9192 80.6358 49.2798 80.1332Z" fill="#E8A22A"/>
</g>
<defs>
<linearGradient id="paint0_linear_3042_1780" x1="73.173" y1="50.3122" x2="73.6684" y2="133.599" gradientUnits="userSpaceOnUse">
<stop stop-color="#DF753F"/>
<stop offset="0.13" stop-color="#D7703C"/>
<stop offset="0.32" stop-color="#C26335"/>
<stop offset="0.56" stop-color="#9F4E29"/>
<stop offset="0.83" stop-color="#6F301A"/>
<stop offset="1" stop-color="#4E1C0F"/>
</linearGradient>
<linearGradient id="paint1_linear_3042_1780" x1="86.4409" y1="50.2333" x2="86.9363" y2="133.52" gradientUnits="userSpaceOnUse">
<stop stop-color="#DF753F"/>
<stop offset="0.13" stop-color="#D8713C"/>
<stop offset="0.31" stop-color="#C76637"/>
<stop offset="0.52" stop-color="#AB552D"/>
<stop offset="0.74" stop-color="#843D20"/>
<stop offset="0.98" stop-color="#521E10"/>
<stop offset="1" stop-color="#4E1C0F"/>
</linearGradient>
<linearGradient id="paint2_linear_3042_1780" x1="151.026" y1="49.8491" x2="151.522" y2="133.136" gradientUnits="userSpaceOnUse">
<stop stop-color="#DF753F"/>
<stop offset="0.18" stop-color="#DB723D"/>
<stop offset="0.34" stop-color="#D06B3A"/>
<stop offset="0.5" stop-color="#BD6033"/>
<stop offset="0.66" stop-color="#A24F2B"/>
<stop offset="0.82" stop-color="#803B1F"/>
<stop offset="0.97" stop-color="#572112"/>
<stop offset="1" stop-color="#4E1C0F"/>
</linearGradient>
<linearGradient id="paint3_linear_3042_1780" x1="137.757" y1="49.928" x2="138.252" y2="133.214" gradientUnits="userSpaceOnUse">
<stop stop-color="#DF753F"/>
<stop offset="0.15" stop-color="#DA723D"/>
<stop offset="0.32" stop-color="#CC6938"/>
<stop offset="0.5" stop-color="#B65B31"/>
<stop offset="0.68" stop-color="#964826"/>
<stop offset="0.87" stop-color="#6E2F19"/>
<stop offset="1" stop-color="#4E1C0F"/>
</linearGradient>
<linearGradient id="paint4_linear_3042_1780" x1="110.911" y1="50.0957" x2="111.406" y2="133.382" gradientUnits="userSpaceOnUse">
<stop stop-color="#DF753F"/>
<stop offset="0.17" stop-color="#DB723D"/>
<stop offset="0.34" stop-color="#CF6B39"/>
<stop offset="0.5" stop-color="#BC5F33"/>
<stop offset="0.66" stop-color="#A04E2A"/>
<stop offset="0.82" stop-color="#7D391E"/>
<stop offset="0.98" stop-color="#531F10"/>
<stop offset="1" stop-color="#4E1C0F"/>
</linearGradient>
<radialGradient id="paint5_radial_3042_1780" cx="0" cy="0" r="1" gradientUnits="userSpaceOnUse" gradientTransform="translate(115.088 10.0923) rotate(-0.340801) scale(30.2869 30.3582)">
<stop stop-color="#C0D76A"/>
<stop offset="0.09" stop-color="#AEC258"/>
<stop offset="0.28" stop-color="#929F3A"/>
<stop offset="0.43" stop-color="#808A27"/>
<stop offset="0.52" stop-color="#7A8321"/>
<stop offset="1" stop-color="#51651C"/>
</radialGradient>
<radialGradient id="paint6_radial_3042_1780" cx="0" cy="0" r="1" gradientUnits="userSpaceOnUse" gradientTransform="translate(111.45 80.3611) rotate(-0.340801) scale(56.1688 36.0327)">
<stop offset="0.49" stop-color="#331313"/>
<stop offset="0.62" stop-color="#411918"/>
<stop offset="0.81" stop-color="#52221F"/>
<stop offset="0.83" stop-color="#723B20"/>
<stop offset="0.85" stop-color="#955522"/>
<stop offset="0.87" stop-color="#B16B24"/>
<stop offset="0.9" stop-color="#C87C25"/>
<stop offset="0.93" stop-color="#D78826"/>
<stop offset="0.96" stop-color="#E18F26"/>
<stop offset="1" stop-color="#E49227"/>
</radialGradient>
<radialGradient id="paint7_radial_3042_1780" cx="0" cy="0" r="1" gradientUnits="userSpaceOnUse" gradientTransform="translate(87.2285 57.9536) rotate(-0.340801) scale(15.6449 15.6817)">
<stop offset="0.49" stop-color="#331313"/>
<stop offset="0.62" stop-color="#411918"/>
<stop offset="0.81" stop-color="#52221F"/>
<stop offset="0.83" stop-color="#723B20"/>
<stop offset="0.85" stop-color="#955522"/>
<stop offset="0.87" stop-color="#B16B24"/>
<stop offset="0.9" stop-color="#C87C25"/>
<stop offset="0.93" stop-color="#D78826"/>
<stop offset="0.96" stop-color="#E18F26"/>
<stop offset="1" stop-color="#E49227"/>
</radialGradient>
<radialGradient id="paint8_radial_3042_1780" cx="0" cy="0" r="1" gradientUnits="userSpaceOnUse" gradientTransform="translate(135.828 57.6723) rotate(-0.340801) scale(15.6449 15.6817)">
<stop offset="0.49" stop-color="#331313"/>
<stop offset="0.62" stop-color="#411918"/>
<stop offset="0.81" stop-color="#52221F"/>
<stop offset="0.83" stop-color="#723B20"/>
<stop offset="0.85" stop-color="#955522"/>
<stop offset="0.87" stop-color="#B16B24"/>
<stop offset="0.9" stop-color="#C87C25"/>
<stop offset="0.93" stop-color="#D78826"/>
<stop offset="0.96" stop-color="#E18F26"/>
<stop offset="1" stop-color="#E49227"/>
</radialGradient>
<linearGradient id="paint9_linear_3042_1780" x1="11.8107" y1="59.2926" x2="20.3359" y2="128.218" gradientUnits="userSpaceOnUse">
<stop stop-color="#DF753F"/>
<stop offset="0.63" stop-color="#813B20"/>
<stop offset="1" stop-color="#4E1C0F"/>
</linearGradient>
<linearGradient id="paint10_linear_3042_1780" x1="21.8659" y1="75.1787" x2="30.3986" y2="144.102" gradientUnits="userSpaceOnUse">
<stop stop-color="#DF753F"/>
<stop offset="0.63" stop-color="#813B20"/>
<stop offset="1" stop-color="#4E1C0F"/>
</linearGradient>
<linearGradient id="paint11_linear_3042_1780" x1="60.164" y1="65.8434" x2="68.6892" y2="134.769" gradientUnits="userSpaceOnUse">
<stop stop-color="#DF753F"/>
<stop offset="0.63" stop-color="#813B20"/>
<stop offset="1" stop-color="#4E1C0F"/>
</linearGradient>
<linearGradient id="paint12_linear_3042_1780" x1="52.7107" y1="71.0731" x2="61.2359" y2="139.998" gradientUnits="userSpaceOnUse">
<stop stop-color="#DF753F"/>
<stop offset="0.63" stop-color="#813B20"/>
<stop offset="1" stop-color="#4E1C0F"/>
</linearGradient>
<linearGradient id="paint13_linear_3042_1780" x1="37.0063" y1="76.3536" x2="45.539" y2="145.277" gradientUnits="userSpaceOnUse">
<stop stop-color="#DF753F"/>
<stop offset="0.63" stop-color="#813B20"/>
<stop offset="1" stop-color="#4E1C0F"/>
</linearGradient>
<linearGradient id="paint14_linear_3042_1780" x1="30.9049" y1="48.6488" x2="31.6995" y2="56.5688" gradientUnits="userSpaceOnUse">
<stop stop-color="#79392B"/>
<stop offset="1" stop-color="#4E1C0F"/>
</linearGradient>
<radialGradient id="paint15_radial_3042_1780" cx="0" cy="0" r="1" gradientUnits="userSpaceOnUse" gradientTransform="translate(36.312 53.069) scale(4.99895 5.01073)">
<stop stop-color="#C0D76A"/>
<stop offset="0.09" stop-color="#AEC258"/>
<stop offset="0.28" stop-color="#929F3A"/>
<stop offset="0.43" stop-color="#808A27"/>
<stop offset="0.52" stop-color="#7A8321"/>
<stop offset="1" stop-color="#51651C"/>
</radialGradient>
<linearGradient id="paint16_linear_3042_1780" x1="15.2113" y1="73.1301" x2="23.7717" y2="142.262" gradientUnits="userSpaceOnUse">
<stop stop-color="#DF753F"/>
<stop offset="0.3" stop-color="#DC733E"/>
<stop offset="0.47" stop-color="#D46E3B"/>
<stop offset="0.59" stop-color="#C76637"/>
<stop offset="0.7" stop-color="#B45A30"/>
<stop offset="0.8" stop-color="#9B4B28"/>
<stop offset="0.89" stop-color="#7C381E"/>
<stop offset="0.98" stop-color="#582212"/>
<stop offset="1" stop-color="#4E1C0F"/>
</linearGradient>
<radialGradient id="paint17_radial_3042_1780" cx="0" cy="0" r="1" gradientUnits="userSpaceOnUse" gradientTransform="translate(39.5514 93.3637) scale(29.4074 29.4767)">
<stop offset="0.49" stop-color="#331313"/>
<stop offset="0.62" stop-color="#411918"/>
<stop offset="0.81" stop-color="#52221F"/>
<stop offset="0.83" stop-color="#723B20"/>
<stop offset="0.85" stop-color="#955522"/>
<stop offset="0.87" stop-color="#B16B24"/>
<stop offset="0.9" stop-color="#C87C25"/>
<stop offset="0.93" stop-color="#D78826"/>
<stop offset="0.96" stop-color="#E18F26"/>
<stop offset="1" stop-color="#E49227"/>
</radialGradient>
<radialGradient id="paint18_radial_3042_1780" cx="0" cy="0" r="1" gradientUnits="userSpaceOnUse" gradientTransform="translate(27.3945 77.4499) scale(10.9468 10.9726)">
<stop offset="0.49" stop-color="#5C1C1C"/>
<stop offset="0.52" stop-color="#641B1A"/>
<stop offset="0.71" stop-color="#901A14"/>
<stop offset="0.81" stop-color="#A11A12"/>
<stop offset="0.82" stop-color="#A42013"/>
<stop offset="0.84" stop-color="#B84319"/>
<stop offset="0.86" stop-color="#C85F1E"/>
<stop offset="0.89" stop-color="#D47622"/>
<stop offset="0.92" stop-color="#DD8524"/>
<stop offset="0.95" stop-color="#E28F26"/>
<stop offset="1" stop-color="#E49227"/>
</radialGradient>
<radialGradient id="paint19_radial_3042_1780" cx="0" cy="0" r="1" gradientUnits="userSpaceOnUse" gradientTransform="translate(51.3093 75.8725) scale(7.39043 7.40783)">
<stop offset="0.49" stop-color="#331313"/>
<stop offset="0.62" stop-color="#411918"/>
<stop offset="0.81" stop-color="#52221F"/>
<stop offset="0.83" stop-color="#723B20"/>
<stop offset="0.85" stop-color="#955522"/>
<stop offset="0.87" stop-color="#B16B24"/>
<stop offset="0.9" stop-color="#C87C25"/>
<stop offset="0.93" stop-color="#D78826"/>
<stop offset="0.96" stop-color="#E18F26"/>
<stop offset="1" stop-color="#E49227"/>
</radialGradient>
<clipPath id="clip0_3042_1780">
<rect width="177" height="124" fill="white" transform="translate(0 0.000244141)"/>
</clipPath>
</defs>
</svg>
