<svg width="157" height="27" viewBox="0 0 157 27" fill="none" xmlns="http://www.w3.org/2000/svg">
<g clip-path="url(#clip0_1309_195)">
<path d="M26.9797 0.720703V26.7682H18.2976V9.40285H0.932129V0.720703H26.9797Z" fill="#014DC5"/>
<path d="M12.5091 15.1924H0.932129V26.7704H12.5091V15.1924Z" fill="#10CFFC"/>
<path d="M51.9591 9.75499C51.2471 8.56873 49.2886 7.4405 47.0333 7.4405C44.1251 7.4405 42.7312 8.65689 42.7312 10.2002C42.7312 12.0103 44.8672 12.5147 47.3602 12.8116C51.6924 13.3461 55.7299 14.4732 55.7299 19.4281C55.7299 24.0582 51.6355 26.0457 47.0065 26.0457C42.7658 26.0457 39.4983 24.74 37.9561 20.9424L41.2202 19.2506C42.1387 21.535 44.5436 22.5472 47.0656 22.5472C49.5285 22.5472 51.843 21.6868 51.843 19.4314C51.843 17.474 49.7953 16.6728 47.0355 16.3759C42.7949 15.8715 38.8756 14.7433 38.8756 10.0853C38.8756 5.81231 43.0895 4.05914 46.9172 4.03125C50.1535 4.03125 53.5013 4.95191 55.0771 8.16029L51.9591 9.75499Z" fill="white"/>
<path d="M70.6412 23.6418C68.9494 25.3034 67.1695 25.9563 65.0034 25.9563C60.7628 25.9563 57.2285 23.4052 57.2285 18.2115C57.2285 13.0179 60.7594 10.4668 65.0034 10.4668C67.0802 10.4668 68.6861 11.0605 70.2852 12.6329L67.9998 15.0366C67.1953 14.3044 66.1503 13.8926 65.0626 13.8794C62.6298 13.8794 60.8487 15.6649 60.8487 18.2115C60.8487 21.0014 62.7458 22.4845 65.0034 22.4845C66.1607 22.4845 67.3179 22.1587 68.2073 21.2681L70.6412 23.6418Z" fill="white"/>
<path d="M83.1455 10.8826H86.6172V25.5106H83.2057L83.0272 23.3746C82.1969 25.0954 79.9114 25.9268 78.2799 25.9558C73.9477 25.986 70.7427 23.3155 70.7427 18.1821C70.7427 13.1368 74.0962 10.4965 78.3692 10.5266C80.3277 10.5266 82.1969 11.4462 83.0272 12.9002L83.1455 10.8826ZM74.3618 18.1821C74.3618 20.972 76.2901 22.6325 78.6939 22.6325C84.392 22.6325 84.392 13.7607 78.6939 13.7607C76.2868 13.7607 74.3618 15.3922 74.3618 18.1821Z" fill="white"/>
<path d="M92.9675 4.76953V25.5107H89.3774V4.76953H92.9675Z" fill="white"/>
<path d="M98.8103 19.488C99.0469 21.298 100.621 22.6037 103.172 22.6037C104.511 22.6037 106.258 22.0993 107.089 21.2389L109.403 23.5233C107.861 25.1258 105.338 25.8969 103.112 25.8969C98.0682 25.8969 95.0708 22.7811 95.0708 18.093C95.0708 13.6426 98.0972 10.4375 102.846 10.4375C107.741 10.4375 110.798 13.464 110.234 19.488H98.8103ZM106.763 16.4905C106.525 14.5934 105.041 13.6426 102.968 13.6426C101.01 13.6426 99.4074 14.5911 98.874 16.4905H106.763Z" fill="white"/>
<path d="M123.216 25.5112V17.8602C123.216 15.635 122 13.9432 119.686 13.9432C117.454 13.9432 115.946 15.8135 115.946 18.0387V25.5156H112.356V10.8531H115.592L115.83 12.8417C117.313 11.391 118.797 10.6455 120.636 10.6455C124.079 10.6455 126.839 13.2267 126.839 17.8267V25.5112H123.216Z" fill="white"/>
<path d="M132.964 10.8828V18.5382C132.964 20.7634 134.181 22.4552 136.495 22.4552C138.72 22.4552 140.234 20.5849 140.234 18.3597V10.8828H143.825V25.5408H140.589L140.353 23.5511C138.84 25.0353 137.445 25.7473 135.397 25.7473C131.896 25.7473 129.344 23.1069 129.344 18.5661V10.8828H132.964Z" fill="white"/>
<path d="M151.596 6.75879V10.9123H155.632V14.0281H151.566V20.3489C151.566 21.7427 152.337 22.4257 153.463 22.4257C154.073 22.408 154.671 22.2555 155.214 21.9793L156.219 25.066C155.268 25.4621 154.251 25.6735 153.221 25.6887C150.052 25.8081 147.976 23.998 147.976 20.3489V14.0281H145.247V10.9123H147.976V7.14715L151.596 6.75879Z" fill="white"/>
</g>
<defs>
<clipPath id="clip0_1309_195">
<rect width="157" height="27" fill="white"/>
</clipPath>
</defs>
</svg>
