<svg width="146" height="36" viewBox="0 0 146 36" fill="none" xmlns="http://www.w3.org/2000/svg">
<g clip-path="url(#clip0_921_4708)">
<path d="M38.7638 12.671H53.454V15.4118H47.6778V30.8192H44.5016V15.4118H38.751V12.671H38.7638ZM52.8264 17.6787H55.5416V20.2146H55.5929C55.6825 19.856 55.849 19.5102 56.0924 19.1772C56.3357 18.8442 56.6303 18.524 56.9761 18.255C57.3219 17.9733 57.7061 17.7555 58.1287 17.5762C58.5514 17.4097 58.9869 17.3201 59.4223 17.3201C59.7553 17.3201 59.9986 17.3329 60.1267 17.3457C60.2548 17.3585 60.3829 17.3841 60.5238 17.3969V20.189C60.3188 20.1505 60.1139 20.1249 59.8962 20.0993C59.6785 20.0737 59.4735 20.0609 59.2686 20.0609C58.7819 20.0609 58.3209 20.1634 57.8854 20.3555C57.4499 20.5476 57.0785 20.8421 56.7583 21.2136C56.4382 21.5978 56.182 22.0589 55.9899 22.6224C55.7978 23.1859 55.7081 23.8263 55.7081 24.5563V30.8064H52.8136V17.6787H52.8264ZM73.8308 30.8192H70.9875V28.9877H70.9363C70.5777 29.6537 70.0525 30.1788 69.3481 30.5759C68.6437 30.9729 67.9265 31.1778 67.1965 31.1778C65.4675 31.1778 64.2123 30.7552 63.4439 29.8971C62.6754 29.039 62.2912 27.7454 62.2912 26.0164V17.6787H65.1857V25.7346C65.1857 26.8873 65.4034 27.707 65.8517 28.1809C66.2871 28.6547 66.9147 28.8981 67.7088 28.8981C68.3235 28.8981 68.823 28.8084 69.2329 28.6163C69.6427 28.4242 69.9757 28.1809 70.219 27.8607C70.4752 27.5533 70.6545 27.1691 70.7698 26.7336C70.885 26.2981 70.9363 25.8243 70.9363 25.312V17.6915H73.8308V30.8192ZM78.7617 26.6055C78.8513 27.4508 79.1715 28.04 79.7222 28.3858C80.2857 28.7188 80.9517 28.8981 81.733 28.8981C82.002 28.8981 82.3093 28.8725 82.6551 28.834C83.0009 28.7956 83.3339 28.706 83.6285 28.5907C83.9359 28.4754 84.1792 28.2961 84.3842 28.0656C84.5763 27.835 84.6659 27.5405 84.6531 27.1691C84.6403 26.7976 84.4994 26.4903 84.2433 26.2597C83.9871 26.0164 83.6669 25.8371 83.2699 25.6834C82.8729 25.5425 82.4246 25.4144 81.9123 25.312C81.4 25.2095 80.8877 25.0942 80.3626 24.979C79.8247 24.8637 79.2996 24.71 78.8001 24.5435C78.3006 24.377 77.8523 24.1465 77.4553 23.8519C77.0583 23.5701 76.7381 23.1987 76.5075 22.7505C76.2642 22.3022 76.1489 21.7515 76.1489 21.0855C76.1489 20.3683 76.3282 19.7791 76.674 19.2924C77.0198 18.8058 77.4681 18.4215 77.9932 18.127C78.5311 17.8324 79.1203 17.6275 79.7734 17.4994C80.4266 17.3841 81.0542 17.3201 81.6433 17.3201C82.3221 17.3201 82.9753 17.3969 83.5901 17.5378C84.2048 17.6787 84.7684 17.9092 85.2679 18.2422C85.7674 18.5624 86.1772 18.9851 86.5102 19.4974C86.8432 20.0097 87.0481 20.6372 87.1378 21.3673H84.1152C83.9743 20.6757 83.6669 20.2018 83.1674 19.9712C82.6679 19.7279 82.0916 19.6126 81.4512 19.6126C81.2463 19.6126 81.003 19.6254 80.7212 19.6639C80.4394 19.7023 80.1833 19.7663 79.9271 19.856C79.6838 19.9456 79.4789 20.0865 79.2996 20.2658C79.1331 20.4451 79.0434 20.6757 79.0434 20.9702C79.0434 21.3288 79.1715 21.6106 79.4148 21.8283C79.6582 22.0461 79.9784 22.2254 80.3754 22.3791C80.7724 22.5199 81.2207 22.648 81.733 22.7505C82.2453 22.8529 82.7704 22.9682 83.3083 23.0835C83.8334 23.1987 84.3457 23.3524 84.858 23.5189C85.3703 23.6854 85.8186 23.916 86.2156 24.2105C86.6127 24.5051 86.9328 24.8637 87.1762 25.2992C87.4195 25.7346 87.5476 26.2853 87.5476 26.9257C87.5476 27.707 87.3683 28.3602 87.0097 28.9109C86.6511 29.4488 86.19 29.8971 85.6265 30.2301C85.0629 30.563 84.4226 30.8192 83.731 30.9729C83.0394 31.1266 82.3478 31.2034 81.669 31.2034C80.8365 31.2034 80.068 31.1138 79.3636 30.9217C78.6592 30.7295 78.0444 30.4478 77.5321 30.0764C77.0198 29.6921 76.61 29.2183 76.3154 28.6547C76.0208 28.0912 75.8672 27.4124 75.8415 26.6311H78.7617V26.6055ZM88.3161 17.6787H90.5061V13.734H93.4006V17.6787H96.0134V19.8432H93.4006V26.8617C93.4006 27.1691 93.4134 27.4252 93.4391 27.6557C93.4647 27.8735 93.5287 28.0656 93.6184 28.2193C93.708 28.373 93.8489 28.4882 94.041 28.5651C94.2331 28.6419 94.4765 28.6803 94.8095 28.6803C95.0144 28.6803 95.2193 28.6803 95.4242 28.6675C95.6291 28.6547 95.8341 28.6291 96.039 28.5779V30.8192C95.7188 30.8576 95.3986 30.8832 95.104 30.9217C94.7967 30.9601 94.4893 30.9729 94.1691 30.9729C93.4006 30.9729 92.7859 30.896 92.3248 30.7552C91.8637 30.6143 91.4923 30.3966 91.2362 30.1148C90.9672 29.833 90.8007 29.4872 90.6983 29.0646C90.6086 28.6419 90.5446 28.1552 90.5318 27.6173V19.8688H88.3417V17.6787H88.3161ZM98.0626 17.6787H100.803V19.4589H100.855C101.264 18.6905 101.828 18.1526 102.558 17.8196C103.288 17.4866 104.069 17.3201 104.927 17.3201C105.965 17.3201 106.861 17.4994 107.63 17.8708C108.398 18.2294 109.039 18.7289 109.551 19.3693C110.063 20.0097 110.435 20.7525 110.691 21.5978C110.947 22.4431 111.075 23.3524 111.075 24.313C111.075 25.1967 110.96 26.0548 110.729 26.8745C110.499 27.707 110.153 28.437 109.692 29.0774C109.231 29.7178 108.642 30.2172 107.924 30.6015C107.207 30.9857 106.375 31.1778 105.401 31.1778C104.979 31.1778 104.556 31.1394 104.133 31.0625C103.711 30.9857 103.301 30.8576 102.917 30.6911C102.532 30.5246 102.161 30.3069 101.841 30.0379C101.508 29.769 101.239 29.4616 101.008 29.1158H100.957V35.6732H98.0626V17.6787ZM108.181 24.2618C108.181 23.6726 108.104 23.0963 107.95 22.5327C107.796 21.9692 107.566 21.4825 107.258 21.0471C106.951 20.6116 106.567 20.2658 106.119 20.0097C105.657 19.7535 105.132 19.6126 104.543 19.6126C103.326 19.6126 102.404 20.0353 101.79 20.8806C101.175 21.7259 100.867 22.8529 100.867 24.2618C100.867 24.9277 100.944 25.5425 101.111 26.106C101.277 26.6696 101.508 27.1562 101.841 27.5661C102.161 27.9759 102.545 28.2961 102.993 28.5267C103.442 28.77 103.967 28.8853 104.556 28.8853C105.222 28.8853 105.773 28.7444 106.234 28.4754C106.695 28.2065 107.066 27.8479 107.361 27.4252C107.655 26.9898 107.873 26.5031 108.001 25.9523C108.116 25.4016 108.181 24.8381 108.181 24.2618ZM113.291 12.671H116.185V15.4118H113.291V12.671ZM113.291 17.6787H116.185V30.8192H113.291V17.6787ZM118.772 12.671H121.667V30.8192H118.772V12.671ZM130.542 31.1778C129.492 31.1778 128.557 30.9985 127.738 30.6527C126.918 30.3069 126.226 29.8202 125.65 29.2183C125.086 28.6035 124.651 27.8735 124.356 27.0282C124.062 26.1829 123.908 25.2479 123.908 24.2361C123.908 23.2372 124.062 22.315 124.356 21.4697C124.651 20.6244 125.086 19.8944 125.65 19.2796C126.214 18.6649 126.918 18.191 127.738 17.8452C128.557 17.4994 129.492 17.3201 130.542 17.3201C131.593 17.3201 132.528 17.4994 133.347 17.8452C134.167 18.191 134.859 18.6777 135.435 19.2796C135.998 19.8944 136.434 20.6244 136.728 21.4697C137.023 22.315 137.177 23.2372 137.177 24.2361C137.177 25.2479 137.023 26.1829 136.728 27.0282C136.434 27.8735 135.998 28.6035 135.435 29.2183C134.871 29.833 134.167 30.3069 133.347 30.6527C132.528 30.9985 131.593 31.1778 130.542 31.1778ZM130.542 28.8853C131.183 28.8853 131.746 28.7444 132.22 28.4754C132.694 28.2065 133.078 27.8479 133.386 27.4124C133.693 26.9769 133.911 26.4775 134.065 25.9267C134.205 25.376 134.282 24.8125 134.282 24.2361C134.282 23.6726 134.205 23.1219 134.065 22.5584C133.924 21.9948 133.693 21.5081 133.386 21.0727C133.078 20.6372 132.694 20.2914 132.22 20.0225C131.746 19.7535 131.183 19.6126 130.542 19.6126C129.902 19.6126 129.339 19.7535 128.865 20.0225C128.391 20.2914 128.007 20.65 127.699 21.0727C127.392 21.5081 127.174 21.9948 127.02 22.5584C126.879 23.1219 126.803 23.6726 126.803 24.2361C126.803 24.8125 126.879 25.376 127.02 25.9267C127.161 26.4775 127.392 26.9769 127.699 27.4124C128.007 27.8479 128.391 28.2065 128.865 28.4754C129.339 28.7572 129.902 28.8853 130.542 28.8853ZM138.022 17.6787H140.212V13.734H143.107V17.6787H145.719V19.8432H143.107V26.8617C143.107 27.1691 143.119 27.4252 143.145 27.6557C143.171 27.8735 143.235 28.0656 143.324 28.2193C143.414 28.373 143.555 28.4882 143.747 28.5651C143.939 28.6419 144.182 28.6803 144.515 28.6803C144.72 28.6803 144.925 28.6803 145.13 28.6675C145.335 28.6547 145.54 28.6291 145.745 28.5779V30.8192C145.425 30.8576 145.105 30.8832 144.81 30.9217C144.503 30.9601 144.195 30.9729 143.875 30.9729C143.107 30.9729 142.492 30.896 142.031 30.7552C141.57 30.6143 141.198 30.3966 140.942 30.1148C140.673 29.833 140.507 29.4872 140.404 29.0646C140.315 28.6419 140.251 28.1552 140.238 27.6173V19.8688H138.048V17.6787H138.022Z" fill="white"/>
<path d="M35.3825 12.671H22.1139L18.0155 0.0428467L13.9043 12.671L0.635742 12.6582L11.3812 20.4708L7.27003 33.0862L18.0155 25.2864L28.7482 33.0862L24.6498 20.4708L35.3825 12.671Z" fill="#00B67A"/>
<path d="M25.5721 23.3269L24.6499 20.4708L18.0156 25.2864L25.5721 23.3269Z" fill="#005128"/>
</g>
<defs>
<clipPath id="clip0_921_4708">
<rect width="145.084" height="35.6305" fill="white" transform="translate(0.635742 0.0429077)"/>
</clipPath>
</defs>
</svg>
