<svg width="16" height="22" viewBox="0 0 16 22" fill="none" xmlns="http://www.w3.org/2000/svg">
<path d="M16 21.3801H14V19.3801C14 17.7232 12.6569 16.3801 11 16.3801H5C3.34315 16.3801 2 17.7232 2 19.3801V21.3801H0V19.3801C0 16.6187 2.23858 14.3801 5 14.3801H11C13.7614 14.3801 16 16.6187 16 19.3801V21.3801ZM8 12.3801C4.68629 12.3801 2 9.69375 2 6.38005C2 3.06634 4.68629 0.380051 8 0.380051C11.3137 0.380051 14 3.06634 14 6.38005C14 9.69375 11.3137 12.3801 8 12.3801ZM8 10.3801C10.2091 10.3801 12 8.58919 12 6.38005C12 4.17091 10.2091 2.38005 8 2.38005C5.79086 2.38005 4 4.17091 4 6.38005C4 8.58919 5.79086 10.3801 8 10.3801Z" fill="#275570"/>
</svg>
