<svg width="21" height="20" viewBox="0 0 21 20" fill="none" xmlns="http://www.w3.org/2000/svg">
<path d="M15.1453 4.97309L16.3565 3.76194L17.535 4.94045L16.3238 6.1516C17.3501 7.43467 17.9639 9.06217 17.9639 10.833C17.9639 14.9752 14.606 18.333 10.4639 18.333C6.32173 18.333 2.96387 14.9752 2.96387 10.833C2.96387 6.69087 6.32173 3.33301 10.4639 3.33301C12.2347 3.33301 13.8622 3.94673 15.1453 4.97309ZM10.4639 16.6663C13.6855 16.6663 16.2972 14.0547 16.2972 10.833C16.2972 7.61135 13.6855 4.99967 10.4639 4.99967C7.24221 4.99967 4.63053 7.61135 4.63053 10.833C4.63053 14.0547 7.24221 16.6663 10.4639 16.6663ZM9.63053 6.66634H11.2972V11.6663H9.63053V6.66634ZM7.13053 0.833008H13.7972V2.49967H7.13053V0.833008Z" fill="#219653"/>
</svg>
