<svg width="428" height="428" viewBox="0 0 428 428" fill="none" xmlns="http://www.w3.org/2000/svg">
<path d="M417.947 187.098L388.933 153.392C383.387 146.992 378.907 135.045 378.907 126.512V90.2451C378.907 67.6318 360.347 49.0718 337.733 49.0718H301.467C293.147 49.0718 280.987 44.5918 274.587 39.0451L240.88 10.0318C226.16 -2.55487 202.053 -2.55487 187.12 10.0318L153.627 39.2585C147.227 44.5918 135.067 49.0718 126.747 49.0718H89.8401C67.2268 49.0718 48.6668 67.6318 48.6668 90.2451V126.725C48.6668 135.045 44.1868 146.992 38.8534 153.392L10.0534 187.312C-2.3199 202.032 -2.3199 225.925 10.0534 240.645L38.8534 274.565C44.1868 280.965 48.6668 292.912 48.6668 301.232V337.712C48.6668 360.325 67.2268 378.885 89.8401 378.885H126.747C135.067 378.885 147.227 383.365 153.627 388.912L187.333 417.925C202.053 430.512 226.16 430.512 241.093 417.925L274.8 388.912C281.2 383.365 293.147 378.885 301.68 378.885H337.947C360.56 378.885 379.12 360.325 379.12 337.712V301.445C379.12 293.125 383.6 280.965 389.147 274.565L418.16 240.858C430.533 226.138 430.533 201.818 417.947 187.098ZM302.747 173.658L199.707 276.698C196.707 279.695 192.64 281.378 188.4 281.378C184.16 281.378 180.093 279.695 177.093 276.698L125.467 225.072C119.28 218.885 119.28 208.645 125.467 202.458C131.653 196.272 141.893 196.272 148.08 202.458L188.4 242.778L280.133 151.045C286.32 144.858 296.56 144.858 302.747 151.045C308.933 157.232 308.933 167.472 302.747 173.658Z" fill="#F2652D"/>
</svg>
