<svg width="25" height="24" viewBox="0 0 25 24" fill="none" xmlns="http://www.w3.org/2000/svg">
<rect x="0.0546875" width="24" height="24" rx="12" fill="#F2652D"/>
<path d="M17.8492 9.56055H6.20312V9.07324C6.20312 7.72974 7.29615 6.63672 8.63965 6.63672H9.87155C10.0972 6.63672 10.3233 6.68983 10.525 6.79071L12.063 7.55967C12.1302 7.5933 12.2057 7.61084 12.2808 7.61084H15.4619C16.6383 7.61084 17.6226 8.44998 17.8492 9.56055ZM17.8984 10.5352V14.9209C17.8984 16.2644 16.8054 17.3574 15.4619 17.3574H8.63965C7.29615 17.3574 6.20312 16.2644 6.20312 14.9209V10.5352H17.8984ZM13.8572 14.4857C13.6667 14.2952 13.3587 14.2952 13.1682 14.4857L12.5381 15.1158V11.9971C12.5352 11.3597 11.5659 11.3602 11.5635 11.9971V15.1158L10.9334 14.4857C10.4807 14.0369 9.79554 14.7226 10.2443 15.1748L11.0309 15.9608C11.5932 16.5232 12.5088 16.5232 13.0712 15.9608L13.8572 15.1748C14.0478 14.9842 14.0478 14.6763 13.8572 14.4857Z" fill="white"/>
</svg>
